<svg xmlns="http://www.w3.org/2000/svg" width="16" height="16" viewBox="0 0 16 16">
    <g fill="none" fill-rule="evenodd">
        <g fill="#d84e55" fill-rule="nonzero">
            <g>
                <path d="M12 9.333c0-.368.298-.666.667-.666h.666c.369 0 .667-.299.667-.667V5.333c0-.368-.298-.666-.667-.666H2.667c-.369 0-.667.298-.667.666V8.33c0 .186.15.337.336.337H3.34c.368 0 .667.298.667.666h-1.67c-.554 0-1.003-.449-1.003-1.003V5.333C1.333 4.597 1.93 4 2.667 4h10.666c.737 0 1.334.597 1.334 1.333V8c0 .736-.597 1.333-1.334 1.333H12zM11 6c-.184 0-.333-.15-.333-.333 0-.184.149-.334.333-.334h1.333c.184 0 .334.15.334.334 0 .184-.15.333-.334.333H11zM3 8c-.184 0-.333-.15-.333-.333 0-.184.149-.334.333-.334h10c.184 0 .333.15.333.334 0 .184-.149.333-.333.333H3zm2.329 1.6c-.293.219-.317.467-.047.886.453.706.349 1.356-.312 1.792-.153.102-.36.06-.461-.094-.102-.154-.06-.36.094-.462.343-.227.381-.465.118-.875-.447-.696-.386-1.337.21-1.78.147-.11.356-.08.466.067.11.148.08.356-.068.467zm2 0c-.293.219-.317.467-.047.886.453.706.349 1.356-.312 1.792-.153.102-.36.06-.461-.094-.102-.154-.06-.36.094-.462.343-.227.381-.465.118-.875-.447-.696-.386-1.337.21-1.78.147-.11.356-.08.466.067.11.148.08.356-.068.467zm2 0c-.293.219-.317.467-.047.886.453.706.349 1.356-.312 1.792-.153.102-.36.06-.461-.094-.102-.154-.06-.36.094-.462.343-.227.381-.465.118-.875-.447-.696-.386-1.337.21-1.78.147-.11.356-.08.466.067.11.148.08.356-.068.467zm2 0c-.293.219-.317.467-.047.886.453.706.349 1.356-.312 1.792-.153.102-.36.06-.461-.094-.102-.154-.06-.36.094-.462.343-.227.381-.465.118-.875-.447-.696-.386-1.337.21-1.78.147-.11.356-.08.466.067.11.148.08.356-.068.467z" transform="translate(-1640 -3376) translate(1640 3376)"/>
            </g>
        </g>
    </g>
</svg>
