<svg xmlns="http://www.w3.org/2000/svg" xmlns:xlink="http://www.w3.org/1999/xlink" width="328" height="120" viewBox="0 0 328 120">
    <defs>
        <rect id="qp3cxqxgaa" width="328" height="120" x="0" y="0" rx="4"/>
    </defs>
    <g fill="none" fill-rule="evenodd">
        <mask id="zrdo4e4tvb" fill="#fff">
            <use xlink:href="#qp3cxqxgaa"/>
        </mask>
        <use fill="#F8F4F4" xlink:href="#qp3cxqxgaa"/>
        <path fill="#F6EAEA" d="M328 4.68v112c0 2.21-1.79 4-4 4H206.315c-2.792-7.638-4.702-15.652-6.018-23.678l-.182-1.13-.172-1.135-.082-.57-.156-1.143c-1.249-9.54-1.208-19.479 3.221-27.932 3.73-7.083 10.15-12.327 16.936-16.679l.995-.63c.167-.104.333-.208.5-.31 12.304-7.62 25.623-13.174 39.19-18.257l2.81-1.046 2.816-1.035 2.82-1.028 8.469-3.072 1.41-.514 2.82-1.035 2.816-1.045 2.81-1.057c4.676-1.776 9.323-3.62 13.908-5.598 8.318-3.587 16.6-7.823 24.34-12.786 1.431.608 2.434 2.027 2.434 3.68z" mask="url(#zrdo4e4tvb)"/>
    </g>
</svg>
