<svg xmlns="http://www.w3.org/2000/svg" xmlns:xlink="http://www.w3.org/1999/xlink" width="328" height="120" viewBox="0 0 328 120">
    <defs>
        <rect id="tgejk456ua" width="328" height="120" x="0" y="0" rx="4"/>
    </defs>
    <g fill="none" fill-rule="evenodd">
        <mask id="q1qcq9yw8b" fill="#fff">
            <use xlink:href="#tgejk456ua"/>
        </mask>
        <use fill="#F8F4F4" xlink:href="#tgejk456ua"/>
        <path fill="#F6EAEA" d="M324 0c2.21 0 4 1.791 4 4v112c0 1.315-.634 2.481-1.613 3.21-4.588-.193-9.2-.009-13.845.655l-.904.136H231.93c-4.377-3.378-8.316-7.36-11.663-11.725l-.336-.44c-9.72-12.903-14.798-28.74-17.495-44.675l-.14-.839c-.061-.375-.122-.752-.181-1.13l-.172-1.135-.082-.57-.156-1.143c-1.249-9.54-1.208-19.479 3.221-27.932 4.003-7.601 11.105-13.085 18.43-17.62 8.082-5.004 16.601-9.118 25.34-12.792H324z" mask="url(#q1qcq9yw8b)"/>
    </g>
</svg>
