<svg xmlns="http://www.w3.org/2000/svg" xmlns:xlink="http://www.w3.org/1999/xlink" width="328" height="120" viewBox="0 0 328 120">
    <defs>
        <rect id="tmo7f4aqwa" width="328" height="120" x="0" y="0" rx="4"/>
    </defs>
    <g fill="none" fill-rule="evenodd">
        <mask id="33g9m652eb" fill="#fff">
            <use xlink:href="#tmo7f4aqwa"/>
        </mask>
        <use fill="#F8F4F4" xlink:href="#tmo7f4aqwa"/>
        <path fill="#F6EAEA" d="M324 0c2.21 0 4 1.791 4 4v112c0 1.28-.601 2.42-1.537 3.152-3.952-.074-7.923.142-11.918.712l-.907.137H233.93c-4.377-3.378-8.316-7.36-11.663-11.725l-.336-.44c-9.72-12.903-14.798-28.74-17.495-44.675l-.14-.839c-.061-.375-.122-.752-.181-1.13l-.172-1.135-.082-.57-.156-1.143c-1.249-9.54-1.208-19.479 3.221-27.932 4.003-7.601 11.105-13.085 18.43-17.62 8.082-5.004 16.601-9.118 25.34-12.792H324z" mask="url(#33g9m652eb)"/>
    </g>
</svg>
