<svg xmlns="http://www.w3.org/2000/svg" xmlns:xlink="http://www.w3.org/1999/xlink" width="462" height="160" viewBox="0 0 462 160">
    <defs>
        <rect id="7g6mewv0na" width="462" height="160" x="0" y="0" rx="8"/>
    </defs>
    <g fill="none" fill-rule="evenodd">
        <g>
            <g transform="translate(-94 -1573) translate(94 1573)">
                <mask id="omnq84c5db" fill="#fff">
                    <use xlink:href="#7g6mewv0na"/>
                </mask>
                <use fill="#FFCC54" xlink:href="#7g6mewv0na"/>
                <g mask="url(#omnq84c5db)">
                    <g transform="translate(202 65)">
                        <ellipse cx="114.583" cy="80.253" fill="#E6B031" fill-rule="nonzero" opacity=".506" rx="114.583" ry="1"/>
                        <path fill="#FFF" fill-rule="nonzero" d="M230.95 73.12V4.457H10.586c-.92-.007-1.803.358-2.453 1.015-.65.656-1.01 1.549-1 2.476v57.725c0 1.945 1.191 3.175 3.453 3.483l32.235 3.962H54.72v-5.886c0-7.284 5.855-13.189 13.076-13.189s13.076 5.905 13.076 13.189v5.886h110.66v-5.886c0-7.284 5.854-13.189 13.075-13.189 7.221 0 13.075 5.905 13.075 13.189v5.886h13.267z"/>
                        <g opacity=".1">
                            <path fill="#676C73" fill-rule="nonzero" d="M112.028 11.592V5.63c0-1.8.356-3.582 1.048-5.238H.538c.69 1.656 1.044 3.438 1.04 5.238v5.963h110.45z" transform="translate(79.361 61.527)"/>
                        </g>
                        <g opacity=".1">
                            <path fill="#676C73" fill-rule="nonzero" d="M3.625 7.578l32.312 4.014h11.926V5.63c0-1.8.358-3.582 1.052-5.238H.163v3.623c0 2.007 1.195 3.231 3.462 3.564z" transform="translate(6.242 61.527)"/>
                        </g>
                        <path fill="#FFF" fill-rule="nonzero" d="M235.986 73.12c-18.132 0-44.407-.094-44.407-.094l3.972-14.093-9.186-54.475h47.139c1.735-.002 3.183 1.336 3.327 3.076.003.021.003.043 0 .064.525 8.306 1.823 30.135 2.092 46.733.043 2.483.057 10.033.05 15.77-.008 1.658-1.338 3.003-2.987 3.018z"/>
                        <path fill="#36404B" fill-rule="nonzero" d="M238.975 53.502c-.997 0-2.544-.05-3.996-.092-2.11-.072-3.788-1.866-3.806-4.066l-.223-35.55c-.023-3.539 2.626-6.472 6.017-6.66v.063c.17 2.779.427 7.07.678 12.204.461 8.76.977 19.896 1.221 29.823.05 1.457.086 2.883.109 4.278zM242.224 25.814l-.543.044c-.065.006-.129-.017-.178-.064-.048-.047-.078-.114-.081-.186l-.663-11.007c-.005-.071.015-.142.058-.197.042-.054.103-.086.167-.09l.537-.044c.719-.047 1.34.551 1.4 1.348l.51 8.642c.042.795-.492 1.484-1.207 1.554z"/>
                        <path stroke="#36404B" stroke-linecap="round" stroke-width="1.67" d="M241.65 15.159l-.135-1.814c-.04-.501-.483-.881-1.003-.86l-6.887.477"/>
                        <g opacity=".1">
                            <path fill="#676C73" fill-rule="nonzero" d="M22.692.39v8.268c0 .825-.314 1.616-.873 2.199-.558.583-1.316.91-2.105.907H1.518V5.706c0-1.827-.352-3.635-1.033-5.317h22.207z" transform="translate(215.79 61.527)"/>
                        </g>
                        <path fill="#36404B" fill-rule="nonzero" d="M28.924 35.667c-1.02.022-1.966-.538-2.455-1.45L15.481 13.022c-.456-.87-.426-1.921.078-2.763.507-.841 1.409-1.35 2.377-1.342H183.3c1.028-.008 1.975.568 2.455 1.494l10.988 21.187c.457.863.427 1.908-.078 2.742-.506.84-1.41 1.345-2.377 1.327H28.924zM221.538 8.917h-27.901c-.914-.017-1.778.422-2.313 1.176-.597.854-.666 1.978-.178 2.9l12.674 21.159c.483.934 1.437 1.518 2.476 1.516h18.882c1.217 0 2.205-1.004 2.205-2.241V14.858c0-3.28-2.617-5.94-5.845-5.94z"/>
                        <path fill="#C4C6CB" fill-rule="nonzero" d="M76.686 5.35c-4.251-.764-14.97-2.583-24.507-3.997C46.406.529 40.593.077 34.77 0H10.334c-.783 0-1.417.684-1.417 1.529V5.35h67.769z"/>
                        <g opacity=".1">
                            <path fill="#676C73" fill-rule="nonzero" d="M22.042 1.056c0 .508-.418.92-.934.92H.906c-.507-.012-.91-.421-.906-.92C-.002.814.095.581.27.41.442.238.68.142.926.144h20.202c.247-.002.484.094.66.265.175.171.274.404.274.647h-.021zM22.042 4.397c0 .507-.418.919-.934.919H.906c-.507-.011-.91-.42-.906-.92 0-.503.415-.912.927-.912h20.202c.513 0 .93.408.934.913h-.021zM22.042 7.737c0 .508-.418.92-.934.92H.906c-.507-.012-.91-.421-.906-.92.018-.485.42-.87.913-.878h20.202c.513 0 .93.408.934.912l-.007-.034z" transform="translate(24.968 49.935)"/>
                        </g>
                        <rect width="4.458" height="1.783" x="33.884" y="68.661" fill="#F8AE4C" fill-rule="nonzero" rx=".86"/>
                        <path fill="#283038" fill-rule="nonzero" d="M34.355 34.776h-5.361c-.14.004-.278-.026-.404-.086l-1.794-7.901c-.266-1.49.67-2.93 2.128-3.27 1.457-.34 2.92.54 3.325 1.998l2.106 9.259zm20.974-9.259c-.404-1.458-1.868-2.337-3.325-1.998-1.457.34-2.394 1.78-2.128 3.27l1.815 7.987h5.737l-2.1-9.259zm23.08 0c-.404-1.458-1.868-2.337-3.325-1.998-1.457.34-2.394 1.78-2.128 3.27l1.815 7.987h5.744l-2.106-9.259zm23.073 0c-.404-1.458-1.868-2.337-3.325-1.998-1.457.34-2.394 1.78-2.128 3.27l1.815 7.987h5.744l-2.106-9.259zm23.08 0c-.404-1.458-1.868-2.337-3.325-1.998-1.457.34-2.393 1.78-2.128 3.27l1.823 7.987h5.743l-2.113-9.259zm23.08 0c-.446-1.403-1.878-2.226-3.296-1.894-1.417.33-2.348 1.707-2.142 3.166l1.815 7.987h5.743l-2.12-9.259zm21.733 0c-.404-1.458-1.868-2.337-3.325-1.998-1.457.34-2.393 1.78-2.128 3.27l1.816 7.987h5.743l-2.106-9.259zm19.953 0c-.183-1.029-.91-1.873-1.893-2.195-.982-.322-2.06-.07-2.804.654-.744.725-1.035 1.806-.755 2.813l1.815 7.987h5.743l-2.106-9.259zm24.357 0c-.405-1.458-1.868-2.337-3.325-1.998-1.457.34-2.394 1.78-2.128 3.27l1.815 7.987h5.744l-2.106-9.259z"/>
                        <path fill="#FFF" fill-rule="nonzero" d="M51.718 7.134H53.501000000000005V35.668H51.718zM104.329 7.134H106.112V35.668H104.329zM149.805 7.134H151.588V35.668H149.805z"/>
                        <path fill="#C02026" fill-rule="nonzero" d="M6.242 43.693h-.878c-.5 0-.906.426-.906.95v3.45c0 .525.406.95.906.95h.878v-5.35zM6.242 49.935h-.878c-.5 0-.906.426-.906.952v3.454c0 .252.096.493.266.67.17.178.4.276.64.274h.878v-5.35z"/>
                        <path fill="#F8AE4C" fill-rule="nonzero" d="M6.242 56.177h-.885c-.498.008-.899.431-.898.95v3.442c-.004.522.397.95.898.958h.885v-5.35z"/>
                        <path fill="#000" fill-rule="nonzero" d="M217.574 73.12v-5.78c0-7.15-5.789-12.946-12.93-12.946-7.14 0-12.93 5.796-12.93 12.947v5.778h25.86z"/>
                        <ellipse cx="204.948" cy="68.114" fill="#3D454C" fill-rule="nonzero" rx="12.217" ry="12.206" transform="rotate(-51.072 204.948 68.114)"/>
                        <ellipse cx="204.354" cy="68.216" fill="#FFF" fill-rule="nonzero" rx="7.345" ry="7.375" transform="rotate(-8 204.354 68.216)"/>
                        <path fill="#F2F2F2" fill-rule="nonzero" d="M204.652 75.794c-3.07.003-5.837-1.845-7.01-4.68-1.174-2.836-.522-6.1 1.65-8.266 2.174-2.167 5.44-2.81 8.272-1.628 2.832 1.182 4.672 3.955 4.66 7.024-.024 4.168-3.404 7.538-7.572 7.55z"/>
                        <path fill="#030303" fill-rule="nonzero" d="M202.415 63.044c1.052-.805 2.484-.835 3.567-.075-.326.706-.996 1.177-1.754 1.232-.866.037-1.3-.597-1.813-1.157zM205.982 73.44c-1.07.761-2.497.761-3.567 0 .85-1.617 2.59-1.617 3.567 0zM198.848 69.56c1.54-.118 2.197 1.088 1.515 2.667-.863-.334-1.4-1.264-1.515-2.667zM199.747 66.877c-.074-1.115.482-2.169 1.41-2.675.833 1.344.195 2.525-1.41 2.675zM209.54 69.552c.085 1.12-.49 2.18-1.447 2.675-.745-1.356-.202-2.385 1.448-2.675zM208.018 64.202c.955.494 1.553 1.531 1.53 2.658-.585.09-1.17-.171-1.518-.677-.452-.62-.235-1.278-.012-1.98z"/>
                        <path fill="#000" fill-rule="nonzero" d="M80.253 73.12v-5.78c0-7.15-5.79-12.946-12.93-12.946s-12.93 5.796-12.93 12.947v5.778h25.86z"/>
                        <path fill="#3D454C" fill-rule="nonzero" d="M76.87 75.905c4.212-5.248 3.39-12.932-1.835-17.163-5.225-4.23-12.875-3.405-17.087 1.844-4.212 5.248-3.39 12.932 1.835 17.162 5.225 4.23 12.876 3.405 17.088-1.843z"/>
                        <path fill="#FFF" fill-rule="nonzero" d="M68.437 75.53c4.017-.567 6.815-4.297 6.25-8.33-.564-4.035-4.277-6.846-8.294-6.279-4.016.567-6.815 4.297-6.25 8.331.564 4.034 4.278 6.845 8.294 6.278z"/>
                        <path fill="#F2F2F2" fill-rule="nonzero" d="M67.323 75.794c-3.068 0-5.834-1.85-7.005-4.685-1.171-2.836-.518-6.098 1.656-8.264 2.174-2.165 5.439-2.806 8.27-1.624 2.831 1.182 4.67 3.955 4.659 7.023-.025 4.171-3.409 7.542-7.58 7.55z"/>
                        <path fill="#030303" fill-rule="nonzero" d="M65.986 63.044c1.051-.805 2.483-.835 3.566-.075-.325.704-.991 1.174-1.746 1.232-.874.037-1.307-.597-1.82-1.157zM69.552 73.44c-1.07.761-2.496.761-3.566 0 .858-1.617 2.574-1.617 3.566 0zM62.419 69.56c1.539-.118 2.197 1.088 1.515 2.667-.863-.334-1.4-1.264-1.515-2.667zM62.425 66.877c-.073-1.116.485-2.17 1.415-2.675.827 1.344.189 2.525-1.415 2.675zM72.219 69.552c.087 1.121-.484 2.183-1.437 2.675-.758-1.356-.224-2.385 1.437-2.675zM70.697 64.202c.955.494 1.552 1.531 1.53 2.658-.585.09-1.17-.171-1.518-.677-.452-.62-.235-1.278-.012-1.98z"/>
                    </g>
                </g>
            </g>
        </g>
    </g>
</svg>
