<svg xmlns="http://www.w3.org/2000/svg" width="956" height="197" viewBox="0 0 956 197">
    <defs>
        <linearGradient id="har3ccnaha" x1="66.48%" x2="66.48%" y1="12.736%" y2="92.211%">
            <stop offset="0%" stop-color="#192C55"/>
            <stop offset="100%" stop-color="#192C55" stop-opacity="0"/>
        </linearGradient>
    </defs>
    <g fill="none" fill-rule="evenodd">
        <g>
            <g>
                <g transform="translate(-242 -129) translate(242 112) translate(0 17)">
                    <g>
                        <path fill="url(#har3ccnaha)" d="M688.896 171.108c-2.652 0-4.804-2.147-4.804-4.795 0-2.649 2.152-4.795 4.804-4.795 2.653 0 4.805 2.146 4.805 4.795 0 2.648-2.152 4.795-4.805 4.795zm.48-11.508c-3.98 0-7.205 3.22-7.205 7.192 0 3.973 3.226 7.193 7.206 7.193 3.981 0 7.206-3.22 7.206-7.193 0-3.972-3.225-7.192-7.206-7.192zm47.08 18.22c-6.102 0-11.049-4.936-11.049-11.028 0-6.09 4.947-11.028 11.05-11.028 6.102 0 11.049 4.938 11.049 11.028 0 6.092-4.947 11.029-11.05 11.029zm-.479-26.85c-7.96 0-14.413 6.439-14.413 14.384 0 7.944 6.453 14.384 14.413 14.384s14.41-6.44 14.41-14.384c0-7.945-6.45-14.385-14.41-14.385zm-46.6 26.85c-6.103 0-11.05-4.936-11.05-11.028 0-6.09 4.947-11.028 11.05-11.028 6.102 0 11.05 4.938 11.05 11.028 0 6.092-4.948 11.029-11.05 11.029zm.48-26.85c-7.96 0-14.412 6.439-14.412 14.384 0 7.944 6.452 14.384 14.412 14.384 7.96 0 14.412-6.44 14.412-14.384 0-7.945-6.452-14.385-14.412-14.385zm47.08 20.138c-2.654 0-4.804-2.147-4.804-4.795 0-2.649 2.15-4.795 4.804-4.795 2.652 0 4.804 2.146 4.804 4.795 0 2.648-2.152 4.795-4.804 4.795zm-.48-11.508c-3.98 0-7.207 3.22-7.207 7.192 0 3.973 3.226 7.193 7.206 7.193 3.98 0 7.206-3.22 7.206-7.193 0-3.972-3.226-7.192-7.206-7.192zm.48 24.933c-10.083 0-18.256-8.201-18.256-18.318 0-7.86 4.936-14.564 11.867-17.164h1.632v2.12h9.052v-2.12h2.093c6.93 2.6 11.867 9.303 11.867 17.164 0 10.117-8.175 18.318-18.255 18.318zm-48.041 0c-10.082 0-18.255-8.201-18.255-18.318 0-7.86 4.936-14.564 11.866-17.164h1.632v2.12h9.053v-2.12h2.092c6.932 2.6 11.868 9.303 11.868 17.164 0 10.117-8.173 18.318-18.256 18.318zm-72.06-95.897h-2.882v-3.422s.068-.982 1.44-1.373c1.372.391 1.442 1.373 1.442 1.373v3.422zm-2.882 0h-3.843v-3.422s.093-.982 1.921-1.373c1.83.391 1.922 1.373 1.922 1.373v3.422zm-3.843 0h-2.883v-3.422s.068-.982 1.44-1.373c1.373.391 1.443 1.373 1.443 1.373v3.422zm-22.099 17.261h-.96v-2.737s.023-.785.48-1.098c.457.313.48 1.098.48 1.098v2.737zm-.96 0h-2.883v-2.737s.07-.785 1.442-1.098c1.371.313 1.44 1.098 1.44 1.098v2.737zm-4.805 0h-.96v-2.737s.022-.785.48-1.098c.457.313.48 1.098.48 1.098v2.737zm-27.863 19.18h-2.882v-2.733s.068-.789 1.44-1.103c1.373.314 1.442 1.103 1.442 1.103v2.733zm-1.922 25.892h-11.53v-12.492c0-3.697 4.368-5.09 4.433-5.11.638-.224 1.058-.439 1.334-.618.278.18.704.398 1.352.624.044.015 4.411 1.394 4.411 5.106v12.49zm0 26.852h-11.53v-12.382c0-3.767 4.368-5.187 4.433-5.208.638-.228 1.058-.447 1.334-.631.278.185.704.407 1.352.638.044.014 4.411 1.419 4.411 5.204v12.379zm-24.02-26.852h-11.53v-12.492c0-3.697 4.369-5.09 4.432-5.11.638-.224 1.06-.439 1.334-.618.278.18.705.398 1.352.624.046.015 4.412 1.394 4.412 5.106v12.49zm0 26.852h-11.53v-12.382c0-3.767 4.369-5.187 4.432-5.208.638-.228 1.06-.447 1.334-.631.278.185.705.407 1.352.638.046.014 4.412 1.419 4.412 5.204v12.379zm-11.53-60.807s.162-2.464 3.363-3.445c3.203.981 3.363 3.445 3.363 3.445v8.063h-6.725v-8.063zm-1.921 8.063h-3.843v-8.063s.09-2.464 1.921-3.445c1.83.981 1.922 3.445 1.922 3.445v8.063zm9.608-8.063s.092-2.464 1.922-3.445c1.829.981 1.921 3.445 1.921 3.445v8.063H524.6v-8.063zm-30.746 59.848h-1.546V145.41c0-9.412-10.84-12.959-11.001-13.011-1.582-.569-2.624-1.115-3.308-1.575-.692.464-1.748 1.015-3.359 1.593-.108.034-10.947 3.545-10.947 13v31.445h-1.545V145.41c0-10.656 12.083-14.409 12.083-14.409 3.217-1.156 3.77-2.088 3.77-2.088s.553.932 3.77 2.088c0 0 12.083 3.753 12.083 14.409v31.452zm-12.49-25.893h-7.687v-7.821c0-2.388 2.912-3.275 2.94-3.284.434-.146.716-.285.904-.402.182.116.463.254.888.397.043.014 2.955.91 2.955 3.288v7.822zm0 25.893h-7.687v-7.777c0-2.418 2.912-3.315 2.94-3.324.434-.148.716-.288.904-.407.182.117.463.257.888.403.043.012 2.955.92 2.955 3.327v7.778zm-36.51-51.785h-3.844v-8.063s.092-2.464 1.922-3.445c1.83.981 1.921 3.445 1.921 3.445v8.063zm-4.805 0h-6.725v-8.063s.16-2.464 3.362-3.445c3.201.981 3.363 3.445 3.363 3.445v8.063zm0 25.892h-11.53v-12.49c0-3.712 4.367-5.091 4.411-5.106.65-.226 1.075-.443 1.354-.624.275.18.694.394 1.332.617.066.02 4.433 1.414 4.433 5.11v12.493zm0 26.852h-11.53v-12.38c0-3.784 4.367-5.19 4.411-5.203.65-.231 1.075-.453 1.354-.638.275.184.694.403 1.332.63.066.022 4.433 1.442 4.433 5.21v12.38zm-11.53-60.807s.093-2.464 1.923-3.445c1.83.981 1.92 3.445 1.92 3.445v8.063h-3.842v-8.063zm-13.45 33.955h-11.53v-12.49c0-3.712 4.366-5.091 4.41-5.106.65-.226 1.075-.443 1.355-.624.274.18.694.394 1.331.617.066.02 4.433 1.414 4.433 5.11v12.493zm0 26.852h-11.53v-12.38c0-3.784 4.366-5.19 4.41-5.203.65-.231 1.075-.453 1.355-.638.274.184.694.403 1.331.63.066.022 4.433 1.442 4.433 5.21v12.38zm-11.53-55.477s.068-.789 1.44-1.103c1.373.314 1.442 1.103 1.442 1.103v2.733h-2.882v-2.733zm-28.824-16.447h-.961v-2.737s.022-.785.48-1.098c.458.313.48 1.098.48 1.098v2.737zm-.961 0h-2.883v-2.737s.07-.785 1.443-1.098c1.372.313 1.44 1.098 1.44 1.098v2.737zm-3.843 0h-.961v-2.737s.022-.785.48-1.098c.458.313.48 1.098.48 1.098v2.737zm-21.138-17.261h-2.883v-3.422s.07-.982 1.44-1.373c1.375.391 1.443 1.373 1.443 1.373v3.422zm-2.883 0h-3.843v-3.422s.093-.982 1.923-1.373c1.827.391 1.92 1.373 1.92 1.373v3.422zm-3.843 0h-2.882v-3.422s.07-.982 1.442-1.373c1.372.391 1.44 1.373 1.44 1.373v3.422zm-227.71 95.897c-10.083 0-18.256-8.201-18.256-18.318 0-7.86 4.936-14.564 11.868-17.164h1.632v2.12h9.051v-2.12h2.094c6.93 2.6 11.866 9.303 11.866 17.164 0 10.117-8.174 18.318-18.255 18.318zm-48.041 0c-10.082 0-18.255-8.201-18.255-18.318 0-7.86 4.936-14.564 11.866-17.164h1.633v2.12h9.052v-2.12h2.092c6.932 2.6 11.868 9.303 11.868 17.164 0 10.117-8.173 18.318-18.256 18.318zM956 197v-89.373h-6.746v-7.611h-3.75v-14.19h-12.778v-4.86h-10.693v-4.214H902.56v4.214h-10.693v4.86H879.09v14.19h-3.751v7.61h-3.892v9.516h-2.665v2.862h2.665v30.925h-1.772v2.862h1.772v10.15h-1.772v2.863h1.772v10.708H861.27v-8.19h2.087v-3.056H859.5v-13.953h-4.461v-12.096h-3.895V129.36h-3.521v-9.678h-3.07v-8.562H842v-7.693h-2.446v-6.823h-2.3v-5.862h1.687c2.352-3.072 1.565-8.205 1.565-8.205-.302.114-.546.238-.744.364-.185-.664-.794-1.152-1.518-1.152-.872 0-1.578.704-1.578 1.575 0 .102.01.204.03.301-.752-1.055-1.175-2.797.548-5.38 0 0-1.68 1.29-2.134 3.105-.329-.283-.788-.533-1.384-.533-1.377 0-1.076 2.147-1.076 2.147 0-.987.989-.987.989-.987s1.075-.216 1.075 1.63c0 1.473-.737 1.962-1.144 2.166h-12.314c.13-.223.204-.481.204-.758 0-.09-.007-.18-.022-.265 1.531-.51 1.21-2.12 1.21-2.12-.19 1.014-1.246 1.238-1.665 1.287-.057-.053-.119-.102-.183-.146.091-.15.145-.327.145-.516 0-.214-.069-.413-.185-.577v-.35c-.037-.135.084-.268.214-.32.131-.052.276-.057.406-.11.28-.115.427-.477.31-.755-.034.182-.252.27-.438.265-.186-.008-.369-.074-.554-.056-.328.03-.593.34-.554.667v.264c-.061-.01-.126-.018-.189-.018-.064 0-.126.007-.187.018v-.264c.04-.327-.227-.638-.553-.667-.186-.018-.368.048-.554.056-.186.006-.404-.083-.436-.265-.12.278.027.64.307.754.13.054.277.059.406.11.131.053.25.186.215.321v.347c-.12.163-.188.363-.188.58 0 .19.053.367.146.517-.065.044-.125.093-.183.145-.417-.049-1.474-.273-1.662-1.286 0 0-.323 1.609 1.21 2.119-.016.085-.025.175-.025.265 0 .277.074.535.205.758h-12.311c-.41-.204-1.147-.693-1.147-2.165 0-1.847 1.075-1.631 1.075-1.631s.989 0 .989.987c0 0 .301-2.147-1.075-2.147-.596 0-1.055.25-1.385.533-.453-1.815-2.132-3.106-2.132-3.106 1.723 2.584 1.298 4.326.549 5.381.017-.097.028-.199.028-.301 0-.87-.707-1.575-1.577-1.575-.725 0-1.334.488-1.52 1.152-.197-.126-.441-.25-.744-.364 0 0-.788 5.133 1.567 8.205h1.686v5.862h-2.302v6.823h-2.446v7.693h-2.55v8.562h-3.07v9.678h-3.523v10.857h-3.892v12.096h-4.462v12.929h-.22c-5.972 0-7.586 3.31-8.023 5.099l-14.15-5.202v-5.522l6.993-4.336v-6.377h3.942c0-3.22-3.106-5.855-6.899-5.855h-1.967v-2.907h5.946v-3.42h-5.946v-3.971h8.866c0-4.397-3.106-7.992-6.899-7.992h-4.208V109.08h-6.148V81.093h2.32v-5.158h9.727c0-4.395-3.105-7.991-6.898-7.991h-5.149v-4.879h-12.915v-6.284h-51.719v6.284h-12.915v4.879h-5.15c-3.792 0-6.897 3.596-6.897 7.99h9.726v5.16h2.32v27.987h-6.149v15.678h-4.206c-3.795 0-6.899 3.595-6.899 7.992h8.865v3.97h-5.945v3.421h5.945v2.907h-1.966c-3.795 0-6.899 2.634-6.899 5.855h3.942v6.377l7.863 4.336v12.27l-7.863 4.337v6.373h-3.444v8.598h-34.824v-13.78h-3.1l-.452-24.157h2.404v-2.425h-2.449l-.519-27.873h1.862v-2.126h-1.902l-.58-31.166h1.477v-1.852h-2.232v-5.614h.682l-.682-.662s2.64-2.742-1.88-6.29l.105-.13c-.76-.576-1.316-1.08-1.723-1.503l-.04-.042-.005-.005-.036-.038-.002-.002-.036-.04-.007-.006-.031-.035-.005-.005-.07-.078-.036-.04-.067-.078c-.012-.016-.022-.025-.03-.036l-.006-.007-.06-.072-.028-.035-.002-.003-.055-.069-.053-.069-.007-.008-.02-.026c-.009-.015-.017-.026-.025-.036l-.022-.031c-.026-.036-.049-.067-.068-.097-.014-.021-.028-.04-.04-.06l-.055-.085-.034-.056c.12-.076.2-.21.2-.362 0-.17-.098-.314-.24-.385l-.017-.493c.25-.075.433-.305.433-.579 0-.29-.204-.53-.476-.59l-.015-.446c.181-.05.315-.216.315-.413 0-.209-.15-.383-.346-.42l-.084-2.338-.083 2.337c-.197.038-.346.212-.346.42 0 .198.133.364.315.414l-.015.446c-.273.06-.475.3-.475.59 0 .274.183.504.434.58l-.018.492c-.143.07-.241.216-.241.385 0 .152.08.286.2.362-.069.116-.156.248-.268.394l-.001.003c-.146.193-.333.415-.57.662-.408.424-.965.927-1.724 1.503l.09.14c-4.494 3.54-1.873 6.273-1.866 6.28l-.802.662h.802v5.614h-2.267v1.852h1.478l-.581 31.166h-1.901v2.126h1.86l-.518 27.873h-2.448v2.425h2.403l-.45 24.156h-15.098l-.355-19.011h1.944v-1.962h-1.98l-.422-22.553h1.508v-1.72h-1.539l-.47-25.216h1.196v-1.498h-1.806v-4.542h.552l-.552-.537s2.136-2.217-1.523-5.09l.086-.103c-.613-.467-1.064-.873-1.394-1.216l-.002-.001-.038-.042-.018-.018-.028-.032-.011-.01-.038-.042c-.004-.004-.009-.008-.013-.014l-.029-.033-.008-.008-.035-.04-.015-.017c-.008-.008-.015-.017-.02-.025l-.014-.014-.032-.039-.008-.01-.024-.028-.012-.015-.029-.036-.005-.005-.026-.032c-.002-.005-.005-.008-.007-.01l-.025-.033-.007-.01c-.009-.01-.016-.02-.023-.03l-.01-.01c-.007-.01-.012-.02-.02-.03l-.006-.007-.021-.03-.01-.014-.015-.02-.008-.014-.02-.028c-.003-.004-.006-.01-.01-.013l-.012-.02c-.003-.004-.006-.007-.007-.012l-.018-.027-.007-.011-.014-.019c0-.004-.003-.007-.005-.01l-.017-.028-.012-.02c.096-.061.162-.17.162-.293 0-.137-.08-.255-.194-.311l-.015-.4c.203-.06.351-.247.351-.469 0-.233-.166-.428-.385-.477l-.013-.36c.148-.04.256-.175.256-.335 0-.169-.122-.31-.281-.34l-.067-1.89-.068 1.89c-.16.03-.28.171-.28.34 0 .16.11.295.256.335l-.013.36c-.22.049-.384.244-.384.477 0 .222.148.409.35.469l-.014.4c-.116.056-.194.174-.194.31 0 .124.063.233.16.294-.002.004-.004.01-.008.014l-.02.033-.007.011-.012.019-.007.01c-.005.01-.012.02-.018.028l-.007.012-.014.02-.008.013-.02.028c-.002.005-.006.01-.01.014l-.014.02-.008.013-.022.029-.01.015-.016.02-.01.015-.018.024-.017.021-.018.024c-.005.005-.008.01-.012.016l-.02.023-.01.014-.028.034-.012.014c-.005.008-.012.017-.02.025l-.014.016c-.01.01-.019.022-.028.034l-.015.017-.021.025c-.005.006-.01.01-.014.017l-.035.038-.01.012c-.01.01-.019.02-.028.032l-.012.012-.04.043-.009.01-.029.031-.019.02c-.008.01-.019.02-.03.03l-.008.011c-.33.343-.781.75-1.394 1.216l.074.112c-3.639 2.865-1.517 5.076-1.511 5.081l-.65.537h.65v4.542h-1.835v1.498h1.195l-.47 25.216h-1.538v1.72h1.506l-.42 22.553h-1.98v1.962h1.944l-.355 19.011h-19.983v-57.143h.926v-.747h-.177c.181-.301.433-1.064-.777-1.983-.458-.348-.67-.604-.764-.761h.005l-.074-2.076-.075 2.076h.005c-.093.157-.306.413-.762.76-1.21.92-.96 1.683-.78 1.984h-.115v.747h.926v5.01h-1.287v-15.127h.925v-.747h-.176c.18-.302.431-1.064-.78-1.983-.456-.348-.668-.604-.761-.761l-.07-2.076-.074 2.076c-.09.157-.301.413-.759.76-1.21.92-.959 1.682-.778 1.984h-.117v.747h.926v4.676h-1.41s-.887.04-1.848.544v-4.64h.448v-.363h-.085c.087-.146.208-.515-.378-.96-.222-.17-.323-.293-.368-.37h.002l-.037-1.006-.036 1.006c-.043.077-.145.2-.368.37-.586.445-.463.814-.377.96h-.056v.363h.448v5.181c-.45.381-.863.896-1.154 1.589v.857h.79v6.92h-13.84v-5.01h.926v-.747h-.175c.18-.301.43-1.064-.779-1.983-.458-.348-.669-.604-.762-.761l-.07-2.076-.074 2.076c-.09.157-.3.413-.759.76-1.21.92-.959 1.683-.778 1.984h-.116v.747h.925v5.01h-3.997v-12.777h1.617l-1.617-1.57s6.261-6.502-4.463-14.918l.251-.309c-1.798-1.364-3.121-2.556-4.086-3.562-.032-.032-.06-.064-.09-.095l-.02-.02-.078-.084c-.04-.04-.07-.073-.098-.105l-.007-.008c-.027-.026-.05-.054-.077-.081l-.019-.023c-.055-.06-.11-.12-.162-.18l-.01-.011c-.023-.027-.046-.053-.07-.078-.003-.006-.007-.01-.012-.015l-.151-.175-.01-.014c-.025-.026-.045-.052-.068-.077l-.007-.008-.071-.087-.067-.081-.013-.017c-.046-.055-.089-.11-.132-.163 0-.002-.003-.004-.004-.006l-.058-.074c-.003-.002-.004-.007-.008-.01l-.12-.155-.01-.015-.048-.064-.008-.01-.056-.077-.001-.001-.05-.07-.009-.012-.101-.143c-.001-.004-.004-.007-.006-.01-.014-.02-.029-.04-.04-.06l-.01-.012-.088-.133-.01-.014-.034-.052c-.002-.005-.005-.009-.009-.013-.013-.022-.026-.042-.04-.062l-.005-.01c-.01-.018-.023-.036-.034-.054l-.008-.014-.032-.051-.005-.008-.034-.058c.283-.182.472-.5.472-.86 0-.4-.233-.747-.569-.913l-.042-1.17c.594-.175 1.027-.724 1.027-1.374 0-.686-.482-1.26-1.127-1.4l-.038-1.056c.432-.118.749-.512.749-.98 0-.495-.353-.906-.82-.998l-.199-5.541-.198 5.54c-.468.093-.82.504-.82.999 0 .468.317.862.749.98l-.038 1.055c-.644.142-1.127.715-1.127 1.4 0 .651.434 1.2 1.028 1.375l-.042 1.17c-.338.166-.57.512-.57.912 0 .361.19.68.473.86-.327.55-.835 1.253-1.611 2.105l-.002.002c-.089.097-.18.196-.275.297-.002.002-.004.005-.007.006-.03.034-.063.066-.095.101-.968 1.006-2.288 2.198-4.086 3.562l.217.333h.003c-10.675 8.4-4.439 14.887-4.433 14.894l-1.902 1.57h1.902v12.776h-2.61v-22.814c.018-.02 16.218-16.875-11.517-38.696h.01l.564-.862c-4.672-3.548-8.106-6.642-10.617-9.258-2.583-2.69-4.19-4.873-5.17-6.523.738-.469 1.229-1.293 1.229-2.231 0-1.041-.604-1.942-1.48-2.372l-.109-3.04c1.544-.455 2.67-1.881 2.67-3.57 0-1.782-1.254-3.27-2.928-3.636l-.098-2.743c1.12-.307 1.945-1.33 1.945-2.548 0-1.283-.916-2.351-2.131-2.592L478.203 10l-.516 14.395c-1.214.24-2.13 1.31-2.13 2.592 0 1.217.824 2.241 1.945 2.548l-.098 2.743c-1.674.365-2.929 1.854-2.929 3.636 0 1.689 1.126 3.115 2.67 3.57l-.11 3.04c-.875.43-1.478 1.33-1.478 2.372 0 .938.49 1.762 1.228 2.23l-.041.072c-.002.001-.003.002-.003.004-.015.027-.033.056-.05.083l-.001.002-.049.08-.004.005c-.032.055-.065.11-.1.164l-.01.015-.047.075-.002.006-.111.172-.004.006-.175.268-.004.005c-.101.152-.206.31-.317.47-.984 1.419-2.356 3.122-4.252 5.097-2.51 2.616-5.944 5.71-10.616 9.258l.654.8c-27.863 21.864-11.598 38.758-11.598 38.758v22.814h-2.614v-12.776h1.902l-1.902-1.57c.004-.004 6.246-6.492-4.433-14.894h.003l.219-.333c-1.8-1.364-3.122-2.556-4.088-3.562l-.095-.101-.006-.006-.277-.297c-.777-.854-1.285-1.558-1.612-2.108.284-.18.472-.498.472-.859 0-.4-.231-.746-.568-.912l-.041-1.17c.594-.175 1.027-.724 1.027-1.374 0-.686-.482-1.26-1.128-1.4l-.038-1.056c.432-.118.748-.512.748-.98 0-.495-.352-.906-.818-.998l-.2-5.541-.198 5.54c-.468.093-.82.504-.82.999 0 .468.317.862.748.98l-.037 1.055c-.645.142-1.127.715-1.127 1.4 0 .651.433 1.2 1.027 1.375l-.042 1.17c-.336.166-.569.512-.569.912 0 .361.19.68.474.86l-.036.059-.005.008-.032.05-.01.018-.034.055-.004.004-.04.065-.006.008-.036.056-.01.014c-.027.044-.058.088-.089.134l-.006.01-.042.061-.007.01c-.032.046-.065.094-.1.141l-.01.016c-.035.048-.071.098-.11.148l-.057.076-.004.007-.122.158c-.004.004-.006.009-.01.011-.017.025-.037.049-.057.074l-.003.006-.134.166-.01.01c-.046.057-.094.116-.143.174-.022.029-.047.057-.071.086l-.009.01-.153.178-.01.01c-.023.027-.048.053-.07.08l-.011.012-.163.182-.018.019c-.055.062-.114.123-.173.187l-.088.095c-.006.005-.011.01-.016.017-.03.032-.062.063-.092.096-.967 1.006-2.289 2.198-4.087 3.562l.252.309c-10.725 8.416-4.463 14.918-4.463 14.918l-1.619 1.57h1.619v12.776h-3.998v-5.01h.925v-.746h-.115c.179-.301.43-1.064-.78-1.983-.457-.348-.668-.604-.763-.761l-.07-2.076-.073 2.076c-.09.157-.3.413-.758.76-1.21.92-.96 1.683-.779 1.984h-.177v.747h.927v5.01h-13.84v-6.92h.79v-.857c-.29-.693-.704-1.208-1.153-1.589v-5.181h.448v-.363h-.056c.087-.146.209-.515-.378-.96-.222-.17-.323-.293-.368-.37l-.035-1.006-.037 1.006c-.043.077-.144.2-.366.37-.587.445-.465.814-.378.96h-.085v.363h.448v4.64c-.96-.504-1.846-.544-1.846-.544h-1.413v-4.676h.927v-.747h-.116c.179-.302.43-1.064-.779-1.983-.458-.348-.669-.604-.763-.761l-.07-2.076-.074 2.076c-.089.157-.3.413-.759.76-1.208.92-.958 1.682-.778 1.984h-.176v.747h.927v15.126h-1.289v-5.01h.926v-.746h-.116c.18-.301.432-1.064-.779-1.983-.458-.348-.667-.604-.763-.761l-.069-2.076-.075 2.076c-.088.157-.3.413-.756.76-1.21.92-.96 1.683-.78 1.984h-.176v.747h.925v57.143H377.25l-.354-19.011h1.944v-1.962h-1.98l-.42-22.553h1.506v-1.72h-1.539l-.469-25.216h1.195v-1.498H375.3v-4.542h.648l-.648-.537c.005-.005 2.128-2.216-1.512-5.08l.074-.113c-.612-.467-1.063-.873-1.393-1.216l-.009-.01c-.01-.011-.021-.02-.03-.032l-.019-.019-.03-.032-.009-.01-.04-.042-.011-.012c-.009-.012-.018-.021-.028-.032-.003-.005-.007-.009-.012-.012l-.032-.038-.015-.017-.02-.025-.015-.017-.028-.034-.015-.016-.02-.025c-.005-.004-.008-.01-.012-.014l-.027-.034-.011-.014-.02-.023-.011-.016-.02-.024-.015-.021-.018-.024c-.003-.005-.007-.01-.012-.014l-.015-.02c-.002-.006-.006-.011-.01-.016l-.021-.029c-.004-.004-.006-.01-.01-.013l-.013-.02-.01-.014-.02-.028-.008-.013c-.005-.007-.01-.013-.013-.02l-.007-.012c-.007-.008-.012-.018-.018-.027-.004-.003-.006-.007-.008-.011l-.012-.019-.006-.01-.017-.028-.012-.02c.097-.061.161-.17.161-.293 0-.137-.079-.255-.194-.311l-.015-.4c.203-.06.351-.247.351-.469 0-.233-.165-.428-.384-.477l-.013-.36c.147-.04.255-.175.255-.335 0-.169-.12-.31-.279-.34l-.068-1.89-.07 1.89c-.158.03-.278.171-.278.34 0 .16.108.295.256.335l-.013.36c-.22.049-.385.244-.385.477 0 .222.148.409.35.469l-.014.4c-.115.056-.194.174-.194.31 0 .124.065.233.162.294l-.01.015-.02.032c-.002.004-.005.007-.006.011-.005.006-.008.013-.012.019-.002.004-.004.008-.007.01l-.018.028-.008.012-.012.02-.01.013-.019.028-.01.014-.014.02c-.003.004-.005.009-.01.013-.006.011-.015.022-.022.031l-.006.008-.02.028-.008.01-.024.032c-.003.003-.005.007-.006.01l-.025.032c-.004.002-.006.005-.009.01-.01.01-.016.022-.025.032l-.004.005-.03.036-.01.015c-.01.01-.018.018-.025.028l-.01.01-.03.039-.013.014-.02.025c-.007.006-.011.01-.016.018-.012.013-.024.025-.035.04-.003.001-.006.005-.008.007l-.03.033-.012.014-.04.043-.009.01-.03.031-.016.018c-.013.015-.025.028-.04.04-.33.346-.78.752-1.395 1.22l.087.103c-3.66 2.872-1.524 5.09-1.524 5.09l-.552.536h.552v4.542h-1.805v1.498h1.197l-.472 25.216h-1.538v1.72h1.507l-.42 22.553h-1.982v1.962h1.944l-.354 19.011h-15.098l-.45-24.156h2.403v-2.425h-2.448l-.52-27.873h1.862v-2.126h-1.901l-.58-31.166h1.477v-1.852h-2.267v-5.614h.801l-.801-.662c.01-.01 2.626-2.744-1.87-6.28l.092-.14c-.757-.576-1.314-1.08-1.722-1.503-.237-.247-.424-.47-.57-.662-.113-.15-.2-.281-.27-.397.121-.076.201-.21.201-.362 0-.17-.099-.314-.24-.385l-.019-.493c.25-.075.433-.305.433-.579 0-.29-.203-.53-.475-.59l-.016-.446c.183-.05.317-.216.317-.413 0-.209-.15-.383-.346-.42l-.083-2.338-.085 2.337c-.197.038-.346.212-.346.42 0 .198.134.364.316.414l-.017.446c-.27.06-.474.3-.474.59 0 .274.182.504.433.58l-.018.492c-.142.07-.24.216-.24.385 0 .152.08.286.2.362l-.03.051-.055.086-.042.063-.065.092-.006.007-.019.027-.026.036-.021.029-.006.008-.022.027-.027.039-.029.033-.002.005-.028.034-.03.036-.002.002c-.008.012-.018.024-.028.036l-.03.036c-.003.002-.005.006-.007.01l-.023.024-.01.012-.06.072-.036.039-.073.082-.006.005-.03.035-.007.007-.037.039-.038.04-.005.005-.04.042c-.407.424-.964.927-1.723 1.503l.107.13c-4.522 3.548-1.882 6.29-1.882 6.29l-.683.662h.683v5.614h-2.232v1.852h1.478l-.581 31.166h-1.901v2.126h1.862l-.52 27.873h-2.448v2.425h2.402l-.45 24.156h-6.36v-10.61h1.771v-2.863h-1.77v-10.15h1.77v-2.862h-1.77v-30.925h2.664v-2.862h-2.665v-9.516h-3.893v-7.61h-3.75v-14.19h-12.778v-4.86h-10.693v-4.214h-19.473v4.214h-10.693v4.86h-12.777v14.19h-3.751v7.61h-3.892v9.516h-2.666v2.862h2.666v30.925h-1.772v2.862h1.772v10.15h-1.772v2.863h1.772v10.708h-10.177v-8.19h2.087v-3.056h-3.857v-13.953h-4.462v-12.096h-3.894V129.36h-3.522v-9.678h-3.07v-8.562h-2.55v-7.693h-2.447v-6.823h-2.3v-5.862h1.687c2.352-3.072 1.565-8.205 1.565-8.205-.302.114-.546.238-.744.364-.185-.664-.795-1.152-1.519-1.152-.871 0-1.578.704-1.578 1.575 0 .102.01.204.03.301-.751-1.055-1.176-2.797.549-5.38 0 0-1.68 1.29-2.134 3.105-.329-.283-.788-.533-1.384-.533-1.377 0-1.076 2.147-1.076 2.147 0-.987.988-.987.988-.987s1.076-.216 1.076 1.63c0 1.473-.737 1.962-1.145 2.166h-12.313c.13-.223.204-.481.204-.758 0-.09-.007-.18-.023-.265 1.532-.51 1.21-2.12 1.21-2.12-.19 1.014-1.245 1.238-1.664 1.287-.057-.053-.12-.102-.184-.146.092-.15.146-.327.146-.516 0-.214-.07-.413-.185-.577v-.35c-.037-.135.084-.268.214-.32.13-.052.276-.057.406-.11.28-.115.427-.477.31-.755-.034.182-.253.27-.439.265-.186-.008-.368-.074-.553-.056-.328.03-.593.34-.555.667v.264c-.06-.01-.125-.018-.188-.018-.064 0-.126.007-.187.018v-.264c.04-.327-.227-.638-.554-.667-.186-.018-.367.048-.553.056-.186.006-.404-.083-.437-.265-.119.278.028.64.308.754.13.054.277.059.406.11.13.053.25.186.214.321v.347c-.119.163-.187.363-.187.58 0 .19.053.367.146.517-.065.044-.126.093-.183.145-.417-.049-1.474-.273-1.662-1.286 0 0-.324 1.609 1.209 2.119-.016.085-.024.175-.024.265 0 .277.074.535.205.758h-12.312c-.409-.204-1.146-.693-1.146-2.165 0-1.847 1.075-1.631 1.075-1.631s.988 0 .988.987c0 0 .302-2.147-1.074-2.147-.596 0-1.056.25-1.385.533-.453-1.815-2.132-3.106-2.132-3.106 1.723 2.584 1.297 4.326.548 5.381.018-.097.028-.199.028-.301 0-.87-.706-1.575-1.576-1.575-.725 0-1.334.488-1.52 1.152-.197-.126-.442-.25-.745-.364 0 0-.787 5.133 1.568 8.205h1.686v5.862h-2.302v6.823h-2.446v7.693h-2.55v8.562h-3.071v9.678h-3.522v10.857h-3.892v12.096h-4.464v12.929h-.218c-5.972 0-7.587 3.31-8.023 5.099l-14.15-5.202v-5.522l6.993-4.336v-6.377h3.941c0-3.22-3.105-5.855-6.898-5.855h-1.967v-2.907h5.946v-3.42h-5.946v-3.971h8.865c0-4.397-3.105-7.992-6.898-7.992h-4.208V109.08h-6.148V81.093h2.32v-5.158h9.727c0-4.395-3.106-7.991-6.898-7.991h-5.149v-4.879h-12.915v-6.284h-51.72v6.284H51.58v4.879h-5.148c-3.793 0-6.899 3.596-6.899 7.99h9.727v5.16h2.32v27.987h-6.149v15.678h-4.206c-3.796 0-6.899 3.595-6.899 7.992h8.865v3.97h-5.945v3.421h5.945v2.907h-1.966c-3.796 0-6.899 2.634-6.899 5.855h3.942v6.377l7.863 4.336v12.27l-7.863 4.337v6.373h-3.445v8.598H0v5.682H189.204v-19.77h16.362v19.77h9.037V197h47.13v-.123h16.146v-39.371c0-10.432 5.348-13.977 11.897-13.995 6.548.018 11.896 3.563 11.896 13.995v39.371h510.104v-19.77h16.362v19.77h9.037V197h47.13v-.123h16.147v-39.371c0-10.432 5.348-13.977 11.897-13.995 6.547.018 11.895 3.563 11.895 13.995v39.371H953.147L956 197zm-843.105-19.18c-6.103 0-11.05-4.936-11.05-11.028 0-6.09 4.947-11.028 11.05-11.028 6.102 0 11.049 4.938 11.049 11.028 0 6.092-4.947 11.029-11.049 11.029zm1.442-26.85c-7.96 0-14.413 6.439-14.413 14.384 0 7.944 6.453 14.384 14.413 14.384 7.959 0 14.41-6.44 14.41-14.384 0-7.945-6.451-14.385-14.41-14.385zm-47.081 20.138c-2.652 0-4.804-2.147-4.804-4.795 0-2.649 2.152-4.795 4.804-4.795 2.653 0 4.804 2.146 4.804 4.795 0 2.648-2.151 4.795-4.804 4.795zm-1.44-11.508c-3.98 0-7.207 3.22-7.207 7.192 0 3.973 3.226 7.193 7.206 7.193 3.981 0 7.206-3.22 7.206-7.193 0-3.972-3.225-7.192-7.206-7.192zm47.559 11.508c-2.654 0-4.804-2.147-4.804-4.795 0-2.649 2.15-4.795 4.804-4.795 2.652 0 4.804 2.146 4.804 4.795 0 2.648-2.152 4.795-4.804 4.795zm1.441-11.508c-3.98 0-7.206 3.22-7.206 7.192 0 3.973 3.226 7.193 7.206 7.193 3.98 0 7.206-3.22 7.206-7.193 0-3.972-3.226-7.192-7.206-7.192zm-47.08 18.22c-6.102 0-11.049-4.936-11.049-11.028 0-6.09 4.947-11.028 11.05-11.028 6.101 0 11.049 4.938 11.049 11.028 0 6.092-4.948 11.029-11.05 11.029zm-1.441-26.85c-7.96 0-14.412 6.439-14.412 14.384 0 7.944 6.453 14.384 14.412 14.384 7.96 0 14.413-6.44 14.413-14.384 0-7.945-6.453-14.385-14.413-14.385z" opacity=".5"/>
                        <path fill="#FFF" d="M643.884 39.783l.143.438c.007.02.025.034.047.034h.463c.048 0 .068.06.03.089l-.376.27c-.017.013-.024.035-.018.055l.144.438c.014.046-.037.083-.076.055l-.375-.27c-.018-.013-.041-.013-.058 0l-.375.27c-.04.028-.091-.01-.076-.055l.143-.438c.007-.02 0-.042-.018-.054l-.375-.271c-.039-.028-.019-.089.029-.089h.463c.022 0 .04-.014.048-.034l.143-.438c.015-.045.079-.045.094 0zm-206.313-.011l.096.292c.004.013.017.022.031.022h.309c.032 0 .045.04.02.06l-.25.18c-.012.008-.017.023-.013.036l.096.293c.01.03-.025.055-.05.036l-.25-.18c-.012-.009-.028-.009-.04 0l-.25.18c-.025.019-.06-.006-.05-.036l.095-.293c.005-.013 0-.028-.012-.036l-.25-.18c-.025-.02-.012-.06.02-.06h.309c.014 0 .027-.009.031-.022l.096-.292c.01-.03.052-.03.062 0zm336.501-9.92l.172.526c.008.025.031.04.057.04h.556c.057 0 .081.074.035.107l-.45.325c-.021.015-.03.042-.022.066l.172.526c.018.054-.044.099-.09.065l-.451-.325c-.02-.014-.049-.014-.07 0l-.45.325c-.046.034-.108-.011-.09-.065l.171-.526c.008-.024 0-.05-.021-.066l-.45-.325c-.047-.033-.023-.106.034-.106h.557c.025 0 .048-.016.056-.04l.172-.526c.018-.055.095-.055.112 0zm147.084 22.093l.172.526c.008.024.03.04.056.04h.557c.057 0 .081.073.035.106l-.45.325c-.021.015-.03.042-.022.066l.172.526c.017.054-.045.099-.091.065l-.45-.324c-.021-.015-.05-.015-.07 0l-.45.324c-.047.034-.109-.011-.091-.065l.172-.526c.008-.024-.001-.05-.022-.066l-.45-.325c-.046-.033-.022-.106.035-.106h.556c.026 0 .049-.016.057-.04l.172-.526c.017-.054.094-.054.112 0zm-556.698-32.01l.258.79c.012.035.046.06.084.06h.834c.086 0 .123.11.053.16l-.676.487c-.03.022-.044.062-.032.098l.258.79c.027.08-.067.148-.136.098l-.676-.488c-.03-.022-.073-.022-.104 0l-.675.488c-.07.05-.163-.018-.137-.099l.258-.789c.012-.036 0-.076-.032-.098l-.675-.487c-.07-.05-.034-.16.052-.16h.834c.039 0 .073-.025.085-.06l.258-.79c.026-.08.142-.08.169 0zm-101.395-6.971l.19.584c.01.027.035.045.063.045h.618c.064 0 .09.08.04.118l-.501.361c-.023.017-.033.046-.024.073l.191.584c.02.06-.05.11-.1.073l-.501-.36c-.023-.017-.054-.017-.077 0l-.5.36c-.052.037-.121-.013-.102-.073l.191-.584c.01-.027 0-.056-.024-.073l-.5-.361c-.051-.037-.025-.118.039-.118h.618c.029 0 .054-.018.063-.045l.19-.584c.02-.06.106-.06.126 0zm429.363-1.977l.239.73c.01.034.042.057.078.057h.773c.079 0 .113.101.048.148l-.625.45c-.03.022-.041.059-.03.092l.239.73c.024.076-.062.138-.127.092l-.625-.452c-.029-.02-.068-.02-.097 0l-.625.452c-.064.046-.15-.016-.126-.092l.239-.73c.01-.033-.001-.07-.03-.091l-.626-.451c-.064-.047-.03-.148.049-.148h.772c.036 0 .068-.023.079-.056l.239-.73c.024-.076.131-.076.156 0zm-167.773-.982l.287.876c.013.04.051.068.094.068h.927c.095 0 .136.121.058.177l-.75.542c-.035.025-.05.069-.036.109l.287.877c.029.09-.075.165-.152.109l-.75-.542c-.035-.024-.082-.024-.116 0l-.75.542c-.078.056-.182-.02-.152-.11l.286-.876c.014-.04-.001-.084-.036-.11l-.75-.54c-.077-.057-.037-.178.058-.178h.927c.043 0 .08-.027.094-.068l.287-.876c.03-.09.158-.09.187 0zm38.96 40.168l.096.876c.005.04.017.067.031.067h.31c.031 0 .045.122.019.178l-.25.541c-.012.025-.017.07-.012.11l.095.876c.01.09-.024.165-.05.11l-.25-.542c-.012-.025-.028-.025-.039 0l-.25.541c-.026.056-.06-.019-.05-.109l.095-.876c.004-.04 0-.085-.012-.11l-.25-.541c-.026-.056-.013-.178.019-.178h.31c.013 0 .026-.027.03-.067l.096-.876c.01-.09.053-.09.063 0zM847.77 6.983l.115.35c.005.017.02.028.038.028h.37c.039 0 .055.048.024.07l-.3.217c-.014.01-.02.028-.015.044l.115.35c.012.037-.03.067-.06.044l-.3-.216c-.015-.01-.033-.01-.047 0l-.3.216c-.031.023-.073-.007-.061-.043l.115-.351c.005-.016 0-.034-.015-.044l-.3-.216c-.03-.023-.015-.071.023-.071h.371c.017 0 .032-.011.038-.027l.114-.35c.012-.037.064-.037.075 0zM433.995.041l.172.526c.008.024.03.04.057.04h.556c.057 0 .081.073.035.106l-.45.325c-.021.015-.03.042-.022.066l.172.526c.018.054-.045.099-.091.065l-.45-.325c-.021-.014-.049-.014-.07 0l-.45.325c-.046.034-.109-.011-.09-.065l.171-.526c.008-.024 0-.05-.021-.066l-.45-.325c-.047-.033-.023-.106.034-.106h.556c.026 0 .049-.016.057-.04l.172-.526c.017-.055.095-.055.112 0zm-40.022 70.293l.171.526c.009.024.031.04.057.04h.556c.057 0 .081.073.035.106l-.45.325c-.021.015-.03.042-.022.066l.172.526c.018.054-.044.099-.09.065l-.451-.324c-.02-.015-.049-.015-.07 0l-.45.324c-.046.034-.108-.011-.09-.065l.171-.526c.008-.024 0-.05-.021-.066l-.45-.325c-.047-.033-.023-.106.034-.106h.557c.025 0 .048-.016.056-.04l.172-.526c.018-.054.095-.054.113 0z" opacity=".4"/>
                    </g>
                    <circle cx="845.5" cy="44.5" r="11.5" fill="#FFF" opacity=".1"/>
                </g>
            </g>
        </g>
    </g>
</svg>
