<svg xmlns="http://www.w3.org/2000/svg" width="328" height="206" viewBox="0 0 328 206">
    <g fill="none" fill-rule="evenodd">
        <path fill="#3E3E52" fill-rule="nonzero" d="M203.466 183.616c.515 0 .967.104 1.355.312.333.178.607.421.823.729l.103.159v-1.164h1.153v5.7l-.007.224c-.03.516-.165.973-.404 1.372-.274.456-.66.806-1.159 1.05s-1.079.366-1.741.366c-.87 0-1.685-.245-2.446-.734l-.227-.154.503-.816.192.146c.26.183.526.325.8.424.344.124.72.186 1.129.186.67 0 1.206-.184 1.606-.552.356-.327.554-.752.594-1.275l.007-.201v-.888l-.103.16c-.216.307-.493.552-.829.734-.392.212-.842.318-1.349.318-.58 0-1.093-.13-1.539-.39-.445-.26-.79-.622-1.036-1.086-.245-.464-.368-.996-.368-1.596 0-.592.123-1.116.368-1.572.246-.456.59-.812 1.036-1.068.446-.256.959-.384 1.54-.384zm-99.417-2.064c.613 0 1.111.16 1.495.48.385.32.577.732.577 1.236 0 .36-.096.678-.288.954-.192.276-.434.512-.724.708-.29.196-.656.406-1.097.63l.39.426.322.336.575.58.446.44.24.234c.262-.39.49-.806.684-1.248l.138-.336.76.552-.158.35c-.166.346-.352.677-.56.994l-.213.312 1.447 1.38-.601.6-1.398-1.344-.195.188c-.328.301-.678.539-1.05.712-.445.208-.905.312-1.379.312-.482 0-.924-.1-1.324-.3-.4-.2-.718-.478-.95-.834-.234-.356-.35-.754-.35-1.194 0-.544.17-.994.509-1.35.34-.356.807-.69 1.404-1.002-.294-.376-.511-.722-.65-1.038-.139-.316-.209-.626-.209-.93 0-.544.2-.988.601-1.332.4-.344.92-.516 1.558-.516zm49.99 2.064c.81 0 1.435.194 1.876.582.398.35.62.823.666 1.422l.009.204.012 4.176h-1.128v-.888l-.116.138c-.484.532-1.202.798-2.152.798-.45 0-.844-.084-1.184-.252-.339-.168-.6-.4-.784-.696-.184-.296-.276-.628-.276-.996 0-.568.214-1.018.643-1.35.382-.295.897-.462 1.547-.501l.25-.009h2.06v-.3l-.007-.163c-.03-.37-.17-.662-.416-.875-.282-.244-.693-.366-1.233-.366-.58 0-1.172.18-1.772.54l-.226.144-.478-.768.23-.141c.378-.224.733-.391 1.063-.501.397-.132.869-.198 1.416-.198zm-13.843 0c1.005 0 1.766.29 2.28.87.516.58.773 1.386.773 2.418v.113l-.007.18-.005.067h-5.125l.04.208c.113.471.342.854.69 1.148.396.336.884.504 1.464.504.385 0 .742-.068 1.073-.204.265-.109.502-.253.712-.434l.153-.142.625.636-.165.162c-.284.259-.613.465-.988.618-.45.184-.948.276-1.495.276-.638 0-1.204-.134-1.699-.402-.494-.268-.878-.646-1.152-1.134-.274-.488-.411-1.044-.411-1.668 0-.624.137-1.178.41-1.662.275-.484.657-.864 1.147-1.14.49-.276 1.05-.414 1.68-.414zm80.339 0c.645 0 1.22.136 1.722.408.503.272.895.65 1.177 1.134.282.484.423 1.038.423 1.662 0 .624-.14 1.18-.423 1.668-.282.488-.674.868-1.177 1.14-.502.272-1.077.408-1.722.408-.654 0-1.233-.136-1.735-.408-.503-.272-.896-.65-1.178-1.134-.282-.484-.423-1.042-.423-1.674 0-.624.141-1.178.423-1.662.282-.484.675-.862 1.178-1.134.502-.272 1.08-.408 1.735-.408zm-92.54 0c.646 0 1.22.136 1.723.408.503.272.895.65 1.178 1.134.282.484.423 1.038.423 1.662 0 .624-.141 1.18-.423 1.668-.283.488-.675.868-1.178 1.14-.502.272-1.077.408-1.722.408-.654 0-1.233-.136-1.735-.408-.503-.272-.896-.65-1.178-1.134-.282-.484-.423-1.042-.423-1.674 0-.624.141-1.178.423-1.662.282-.484.675-.862 1.178-1.134.502-.272 1.08-.408 1.735-.408zm100.154 0c.646 0 1.22.136 1.723.408.503.272.895.65 1.177 1.134.282.484.423 1.038.423 1.662 0 .624-.141 1.18-.423 1.668-.282.488-.674.868-1.177 1.14-.503.272-1.077.408-1.723.408-.654 0-1.232-.136-1.735-.408-.503-.272-.895-.65-1.177-1.134-.282-.484-.423-1.042-.423-1.674 0-.624.14-1.178.423-1.662.282-.484.674-.862 1.177-1.134.503-.272 1.081-.408 1.735-.408zm-14.138-.012c.393 0 .779.054 1.159.162.304.086.576.197.814.332l.173.106-.417.852-.207-.114c-.212-.108-.44-.198-.682-.27-.323-.096-.631-.144-.926-.144-.343 0-.619.062-.827.186-.209.124-.313.314-.313.57 0 .256.117.45.35.582.2.113.488.228.864.344l.196.058c.45.128.818.256 1.104.384.286.128.53.316.73.564.2.248.3.576.3.984 0 .6-.231 1.056-.693 1.368-.462.312-1.036.468-1.723.468-.482 0-.95-.076-1.404-.228-.378-.127-.706-.298-.985-.513l-.161-.135.429-.816.17.138c.235.177.512.323.83.438.396.144.782.216 1.158.216.376 0 .678-.068.907-.204.23-.136.344-.344.344-.624 0-.288-.12-.504-.362-.648-.207-.123-.505-.247-.895-.37l-.202-.062c-.434-.12-.787-.242-1.061-.366-.274-.124-.507-.306-.699-.546-.192-.24-.288-.552-.288-.936 0-.592.22-1.036.662-1.332.441-.296.993-.444 1.655-.444zm-54.442.048v3.624l.007.195c.033.444.18.797.441 1.059.298.3.71.45 1.232.45.605-.008 1.085-.218 1.441-.63.316-.366.492-.823.527-1.369l.006-.209v-3.12h1.153V190h-1.153v-1.344l-.084.164c-.442.796-1.215 1.201-2.319 1.216-.752 0-1.34-.218-1.766-.654-.382-.392-.593-.92-.63-1.58l-.007-.226v-3.924h1.152zm17.706-.036c.548 0 1.04.082 1.478.246.364.137.68.325.944.564l.153.15-.625.768-.158-.14c-.482-.394-1.046-.592-1.694-.592-.425 0-.803.092-1.134.276-.33.184-.59.444-.778.78-.188.336-.282.724-.282 1.164 0 .44.092.828.275 1.164.184.336.438.598.76.786.324.188.693.282 1.11.282.417 0 .793-.068 1.128-.204.269-.109.5-.256.695-.442l.14-.146.65.648-.155.173c-.267.277-.59.495-.968.655-.454.192-.966.288-1.539.288-.63 0-1.19-.136-1.68-.408-.49-.272-.872-.65-1.146-1.134-.274-.484-.41-1.038-.41-1.662 0-.624.136-1.18.41-1.668.274-.488.656-.868 1.146-1.14.49-.272 1.05-.408 1.68-.408zm5.494-2.52v3.924l.085-.167c.453-.81 1.25-1.222 2.391-1.237.76 0 1.357.218 1.79.654.39.392.605.92.644 1.58l.006.226V190h-1.14v-3.624l-.007-.195c-.034-.444-.184-.797-.453-1.059-.306-.3-.73-.45-1.269-.45-.63.008-1.128.216-1.496.624-.327.363-.508.82-.545 1.372l-.006.212V190h-1.14v-8.904h1.14zm-61.897 2.52c.743 0 1.328.22 1.753.66.383.396.593.922.631 1.577l.007.223V190h-1.153v-3.624l-.007-.196c-.033-.443-.18-.798-.44-1.064-.299-.304-.71-.456-1.233-.456-.613.016-1.095.228-1.447.636-.312.363-.486.817-.52 1.363l-.007.209V190h-1.153v-3.624l-.006-.196c-.033-.443-.177-.798-.435-1.064-.294-.304-.707-.456-1.238-.456-.614.016-1.098.228-1.453.636-.317.363-.492.817-.527 1.363l-.007.209V190h-1.14v-6.348h1.14v1.332l.084-.163c.443-.788 1.22-1.19 2.332-1.205.596 0 1.093.14 1.49.42.396.28.664.672.803 1.176.4-1.048 1.242-1.58 2.526-1.596zm115.799 0c.76 0 1.357.218 1.79.654.39.392.604.92.643 1.58l.007.226V190h-1.14v-3.624l-.008-.195c-.033-.444-.184-.797-.452-1.059-.307-.3-.73-.45-1.27-.45-.58.008-1.052.19-1.415.546-.319.312-.517.704-.594 1.178l-.026.208V190h-1.14v-6.348h1.14v1.344l.086-.164c.452-.796 1.245-1.201 2.379-1.216zm-45.81.036V190h-1.14v-6.348h1.14zm-20.66-.036c.76 0 1.356.218 1.79.654.39.392.604.92.643 1.58l.006.226V190h-1.14v-3.624l-.007-.195c-.034-.444-.185-.797-.453-1.059-.306-.3-.73-.45-1.269-.45-.58.008-1.052.19-1.416.546-.318.312-.516.704-.594 1.178l-.025.208V190h-1.14v-6.348h1.14v1.344l.086-.164c.451-.796 1.244-1.201 2.378-1.216zm26.485 0c.76 0 1.357.218 1.79.654.39.392.604.92.643 1.58l.007.226V190h-1.14v-3.624l-.008-.195c-.033-.444-.184-.797-.453-1.059-.306-.3-.73-.45-1.269-.45-.58.008-1.052.19-1.416.546-.318.312-.516.704-.593 1.178l-.026.208V190h-1.14v-6.348h1.14v1.344l.086-.164c.451-.796 1.244-1.201 2.379-1.216zm-60.328 0v1.08h-.216c-.563.016-1.027.184-1.39.504-.364.32-.588.738-.674 1.254l-.025.198V190h-1.14v-6.348h1.14v1.368l.096-.189c.205-.364.475-.647.811-.849.337-.202.727-.32 1.171-.356l.227-.01zm12.863-2.52V190h-1.14v-8.904h1.14zm-45.982 4.86c-.457.248-.811.504-1.06.768-.25.264-.374.572-.374.924 0 .448.163.816.49 1.104.327.288.728.432 1.202.432.617 0 1.213-.264 1.79-.793l.172-.167-.808-.794-.47-.475-.418-.432-.362-.389-.162-.178zm52.223 1.152h-1.9l-.213.005c-.41.018-.72.093-.934.223-.25.152-.374.392-.374.72 0 .328.126.588.38.78.253.192.593.288 1.018.288.53 0 .983-.126 1.355-.378.325-.22.536-.504.633-.85l.035-.152v-.636zm65.073-2.52c-.426 0-.804.096-1.135.288-.33.192-.588.458-.772.798-.184.34-.276.726-.276 1.158 0 .44.092.832.276 1.176.184.344.441.61.772.798.331.188.71.282 1.135.282.416 0 .79-.094 1.121-.282.332-.188.589-.454.773-.798.184-.344.276-.736.276-1.176 0-.432-.092-.818-.276-1.158-.184-.34-.441-.606-.773-.798-.33-.192-.705-.288-1.121-.288zm7.614 0c-.425 0-.803.096-1.134.288-.331.192-.589.458-.773.798-.184.34-.276.726-.276 1.158 0 .44.092.832.276 1.176.184.344.442.61.773.798.33.188.709.282 1.134.282.417 0 .79-.094 1.122-.282.331-.188.589-.454.772-.798.184-.344.276-.736.276-1.176 0-.432-.092-.818-.276-1.158-.183-.34-.441-.606-.772-.798-.331-.192-.705-.288-1.122-.288zm-100.153 0c-.425 0-.804.096-1.135.288-.33.192-.588.458-.772.798-.184.34-.276.726-.276 1.158 0 .44.092.832.276 1.176.184.344.441.61.772.798.331.188.71.282 1.135.282.417 0 .79-.094 1.122-.282.33-.188.588-.454.772-.798.184-.344.276-.736.276-1.176 0-.432-.092-.818-.276-1.158-.184-.34-.441-.606-.772-.798-.332-.192-.705-.288-1.122-.288zm75.691-.06c-.4 0-.758.092-1.073.276-.315.184-.562.438-.742.762-.18.324-.27.694-.27 1.11.009.624.205 1.136.59 1.536.383.4.882.6 1.495.6.4 0 .756-.092 1.067-.276.31-.184.554-.438.73-.762.175-.324.263-.69.263-1.098 0-.416-.088-.786-.264-1.11-.175-.324-.419-.578-.73-.762-.31-.184-.665-.276-1.066-.276zm-63.479.012c-.572 0-1.048.168-1.428.504-.333.294-.548.677-.646 1.148l-.035.208h4.12c-.033-.576-.229-1.03-.588-1.362-.36-.332-.834-.498-1.423-.498zm-36.147-2.268c-.376 0-.677.106-.901.318-.225.212-.338.478-.338.798 0 .44.233.972.7 1.596.547-.28.962-.544 1.244-.792.282-.248.423-.552.423-.912 0-.304-.102-.548-.307-.732-.204-.184-.478-.276-.821-.276zm86.224-1.152c.204 0 .374.068.509.204.135.136.202.308.202.516 0 .208-.067.38-.202.516s-.305.204-.509.204c-.204 0-.374-.068-.509-.204-.135-.136-.202-.308-.202-.516 0-.208.067-.38.202-.516s.305-.204.509-.204zm-11.04-24.468l2.06 5.088 1.95-5.088h1.165l-2.968 7.248-.091.202c-.192.389-.433.69-.724.902-.34.248-.738.372-1.195.372-.278 0-.532-.04-.76-.12-.172-.06-.34-.145-.502-.254l-.16-.118.49-.876.143.092c.24.139.482.208.727.208.446 0 .79-.225 1.034-.674l.07-.142.245-.564-2.685-6.276h1.201zm79.46-.036c.605 0 1.145.136 1.619.408.474.272.842.652 1.103 1.14.262.488.393 1.048.393 1.68 0 .624-.13 1.178-.387 1.662s-.62.86-1.09 1.128c-.471.268-1.008.402-1.613.402-.548 0-1.03-.112-1.447-.336-.358-.192-.649-.455-.874-.788l-.107-.172v3.588h-1.14v-8.676h1.14v1.26l.107-.172c.225-.333.514-.596.868-.788.412-.224.889-.336 1.428-.336zm-125.094 0c.605 0 1.145.136 1.619.408.474.272.842.652 1.104 1.14.261.488.392 1.048.392 1.68 0 .624-.129 1.178-.386 1.662-.258.484-.622.86-1.092 1.128-.47.268-1.007.402-1.612.402-.548 0-1.03-.112-1.447-.336-.357-.192-.649-.455-.874-.788l-.107-.172v3.588h-1.14v-8.676h1.14v1.26l.107-.172c.225-.333.514-.596.868-.788.413-.224.889-.336 1.428-.336zm94.428-2.016v4.968l.006.228c.04.668.256 1.198.65 1.59.437.436 1.04.654 1.808.654.76 0 1.357-.218 1.79-.654.39-.392.605-.922.644-1.59l.006-.228V154.6h1.177v4.968l-.005.249c-.046.978-.365 1.755-.957 2.331-.642.624-1.527.936-2.655.936-1.136 0-2.027-.312-2.673-.936-.596-.576-.917-1.353-.963-2.331l-.005-.249V154.6h1.177zm14.285-.504V163h-1.14v-1.26l-.111.176c-.23.34-.523.607-.877.802-.413.228-.893.342-1.44.342-.614 0-1.155-.138-1.625-.414-.47-.276-.836-.66-1.098-1.152-.261-.492-.392-1.054-.392-1.686 0-.624.13-1.178.392-1.662s.628-.862 1.098-1.134c.47-.272 1.007-.408 1.612-.408.556 0 1.042.112 1.46.336.357.192.648.457.873.796l.107.176v-3.816h1.14zm4.818 2.52c.81 0 1.435.194 1.876.582.398.35.62.823.666 1.422l.009.204.012 4.176h-1.128v-.888l-.116.138c-.484.532-1.202.798-2.152.798-.45 0-.844-.084-1.184-.252-.339-.168-.6-.4-.784-.696-.184-.296-.276-.628-.276-.996 0-.568.214-1.018.643-1.35.382-.295.897-.462 1.547-.501l.25-.009h2.06v-.3l-.007-.163c-.03-.37-.17-.662-.416-.875-.282-.244-.693-.366-1.233-.366-.58 0-1.172.18-1.773.54l-.225.144-.478-.768.23-.141c.378-.224.733-.391 1.063-.501.397-.132.869-.198 1.416-.198zM117.377 154.6v5.856l-.007.242c-.04.708-.263 1.265-.667 1.672-.45.452-1.075.678-1.876.678-.483 0-.932-.104-1.35-.312-.347-.173-.657-.408-.93-.703l-.16-.185.576-.888.165.178c.224.226.465.405.724.536.323.164.644.246.962.246.442 0 .781-.13 1.018-.39.207-.227.324-.54.35-.935l.006-.175v-4.764h-3.029V154.6h4.218zm4.672 2.016c.809 0 1.434.194 1.876.582.397.35.619.823.665 1.422l.01.204.011 4.176h-1.128v-.888l-.116.138c-.484.532-1.201.798-2.152.798-.45 0-.844-.084-1.183-.252-.34-.168-.601-.4-.785-.696-.184-.296-.276-.628-.276-.996 0-.568.215-1.018.644-1.35.381-.295.897-.462 1.546-.501l.25-.009h2.06v-.3l-.007-.163c-.03-.37-.17-.662-.416-.875-.282-.244-.693-.366-1.232-.366-.582 0-1.173.18-1.773.54l-.226.144-.478-.768.23-.141c.379-.224.733-.391 1.063-.501.397-.132.869-.198 1.417-.198zm83.927 0c1.005 0 1.766.29 2.28.87.515.58.773 1.386.773 2.418l-.003.21-.01.15h-5.125l.041.208c.112.471.342.854.689 1.148.396.336.885.504 1.465.504.384 0 .742-.068 1.073-.204.265-.109.502-.253.712-.434l.153-.142.625.636-.165.162c-.284.259-.613.465-.988.618-.45.184-.948.276-1.496.276-.637 0-1.203-.134-1.698-.402-.494-.268-.879-.646-1.152-1.134-.274-.488-.411-1.044-.411-1.668 0-.624.137-1.178.41-1.662.274-.484.657-.864 1.147-1.14.49-.276 1.05-.414 1.68-.414zm-12.2 0c.645 0 1.22.136 1.722.408.503.272.895.65 1.177 1.134.282.484.423 1.038.423 1.662 0 .624-.14 1.18-.423 1.668-.282.488-.674.868-1.177 1.14-.503.272-1.077.408-1.723.408-.654 0-1.232-.136-1.735-.408-.502-.272-.895-.65-1.177-1.134-.282-.484-.423-1.042-.423-1.674 0-.624.141-1.178.423-1.662.282-.484.675-.862 1.177-1.134.503-.272 1.081-.408 1.735-.408zm70.57.036v3.624l.007.195c.032.444.179.797.44 1.059.298.3.71.45 1.232.45.605-.008 1.086-.218 1.441-.63.316-.366.492-.823.527-1.369l.007-.209v-3.12h1.152V163H268v-1.344l-.085.164c-.442.796-1.215 1.201-2.319 1.216-.752 0-1.34-.218-1.765-.654-.383-.392-.593-.92-.632-1.58l-.006-.226v-3.924h1.153zm-77.094-.048c.393 0 .779.054 1.159.162.304.086.575.197.814.332l.173.106-.417.852-.207-.114c-.212-.108-.44-.198-.682-.27-.323-.096-.631-.144-.926-.144-.343 0-.619.062-.827.186-.209.124-.313.314-.313.57 0 .256.117.45.35.582.2.113.487.228.864.344l.196.058c.45.128.818.256 1.104.384.286.128.529.316.73.564.2.248.3.576.3.984 0 .6-.231 1.056-.693 1.368-.462.312-1.036.468-1.723.468-.482 0-.95-.076-1.404-.228-.378-.127-.706-.298-.985-.513l-.161-.135.429-.816.17.138c.235.177.512.323.83.438.396.144.782.216 1.158.216.376 0 .678-.068.907-.204.23-.136.344-.344.344-.624 0-.288-.121-.504-.362-.648-.207-.123-.505-.247-.895-.37l-.203-.062c-.433-.12-.786-.242-1.06-.366s-.507-.306-.7-.546c-.191-.24-.287-.552-.287-.936 0-.592.22-1.036.662-1.332.441-.296.993-.444 1.655-.444zm-48 .048v3.624l.007.195c.032.444.18.797.44 1.059.299.3.71.45 1.233.45.605-.008 1.085-.218 1.44-.63.317-.366.492-.823.527-1.369l.007-.209v-3.12h1.152V163h-1.152v-1.344l-.084.164c-.443.796-1.216 1.201-2.32 1.216-.752 0-1.34-.218-1.765-.654-.383-.392-.593-.92-.631-1.58l-.007-.226v-3.924h1.153zm113.629 0V163h-1.14v-6.348h1.14zm21.936-.036v1.08h-.216c-.564.016-1.027.184-1.39.504-.364.32-.588.738-.674 1.254l-.025.198V163h-1.14v-6.348h1.14v1.368l.096-.189c.205-.364.475-.647.811-.849.336-.202.727-.32 1.171-.356l.227-.01zm-72.68 0v1.08h-.215c-.564.016-1.027.184-1.39.504-.364.32-.588.738-.674 1.254l-.025.198V163h-1.14v-6.348h1.14v1.368l.096-.189c.205-.364.475-.647.811-.849.336-.202.727-.32 1.171-.356l.227-.01zM169.18 154.6l3.139 5.904 3.114-5.904h1.41v8.4h-1.103l-.013-6.708-3.053 5.82h-.723l-3.078-5.82V163h-1.091v-8.4h1.398zm-41.392 2.052V163h-1.14v-6.348h1.14zm21.936-.036v1.08h-.216c-.563.016-1.027.184-1.39.504s-.588.738-.673 1.254l-.026.198V163h-1.14v-6.348h1.14v1.368l.097-.189c.204-.364.474-.647.81-.849.337-.202.727-.32 1.172-.356l.226-.01zm98.842 3.492h-1.9l-.213.005c-.41.018-.72.093-.934.223-.25.152-.374.392-.374.72 0 .328.126.588.38.78.253.192.592.288 1.018.288.53 0 .983-.126 1.354-.378.326-.22.537-.504.634-.85l.035-.152v-.636zm-125.094 0h-1.9l-.213.005c-.409.018-.72.093-.934.223-.25.152-.374.392-.374.72 0 .328.127.588.38.78.254.192.593.288 1.018.288.531 0 .983-.126 1.355-.378.325-.22.536-.504.633-.85l.035-.152v-.636zm115.517-2.532c-.425 0-.803.098-1.134.294-.33.196-.59.466-.778.81-.188.344-.282.732-.282 1.164 0 .432.094.82.282 1.164.188.344.447.612.778.804.331.192.71.288 1.134.288.425 0 .804-.096 1.135-.288.33-.192.59-.46.778-.804.188-.344.282-.732.282-1.164 0-.44-.094-.832-.282-1.176-.188-.344-.447-.612-.778-.804-.331-.192-.71-.288-1.135-.288zm-45.213.012c-.425 0-.803.096-1.134.288-.33.192-.588.458-.772.798-.184.34-.276.726-.276 1.158 0 .44.092.832.276 1.176.184.344.441.61.772.798.331.188.71.282 1.134.282.417 0 .791-.094 1.122-.282.331-.188.589-.454.773-.798.184-.344.276-.736.276-1.176 0-.432-.092-.818-.276-1.158-.184-.34-.442-.606-.773-.798-.33-.192-.705-.288-1.122-.288zm64.71-.024c-.417 0-.791.096-1.123.288-.33.192-.59.46-.778.804-.188.344-.282.728-.282 1.152 0 .44.094.83.282 1.17.188.34.447.606.778.798.332.192.706.288 1.122.288.417 0 .791-.096 1.122-.288.331-.192.589-.46.773-.804.184-.344.276-.732.276-1.164 0-.424-.094-.808-.282-1.152-.188-.344-.446-.612-.773-.804-.327-.192-.699-.288-1.116-.288zm-125.094 0c-.417 0-.791.096-1.122.288-.331.192-.59.46-.779.804-.188.344-.282.728-.282 1.152 0 .44.094.83.282 1.17.188.34.448.606.779.798.33.192.705.288 1.122.288.417 0 .79-.096 1.122-.288.33-.192.588-.46.772-.804.184-.344.276-.732.276-1.164 0-.424-.094-.808-.282-1.152-.188-.344-.445-.612-.772-.804-.327-.192-.7-.288-1.116-.288zm72.597-.024c-.572 0-1.048.168-1.428.504-.333.294-.548.677-.646 1.148l-.035.208H208c-.033-.576-.229-1.03-.589-1.362-.36-.332-.833-.498-1.422-.498zm46.317-3.42c.204 0 .374.068.508.204.135.136.203.308.203.516 0 .208-.068.38-.203.516-.134.136-.304.204-.508.204-.205 0-.374-.068-.51-.204-.134-.136-.202-.308-.202-.516 0-.208.068-.38.203-.516s.304-.204.509-.204zm-125.094 0c.204 0 .374.068.509.204.135.136.202.308.202.516 0 .208-.067.38-.202.516s-.305.204-.51.204c-.203 0-.373-.068-.508-.204-.135-.136-.202-.308-.202-.516 0-.208.067-.38.202-.516s.305-.204.509-.204zm180.259-26.592c.597 0 1.179.104 1.747.312.474.173.895.4 1.263.678l.215.174-.675.84-.212-.179c-.29-.227-.615-.41-.971-.547-.445-.172-.901-.258-1.367-.258-.613 0-1.177.144-1.692.432-.515.288-.922.68-1.22 1.176-.299.496-.448 1.04-.448 1.632 0 .592.151 1.138.454 1.638.302.5.711.896 1.226 1.188.515.292 1.079.438 1.692.438.36 0 .726-.058 1.098-.174.278-.087.543-.2.792-.339l.244-.147v-2.496h1.042v3.084l-.223.162c-.381.261-.814.475-1.298.642-.58.2-1.156.3-1.728.3-.826 0-1.582-.19-2.269-.57-.687-.38-1.228-.9-1.625-1.56-.396-.66-.594-1.382-.594-2.166s.2-1.502.6-2.154c.401-.652.949-1.166 1.644-1.542.694-.376 1.463-.564 2.305-.564zm-164.572 0c.596 0 1.175.11 1.735.33.48.189.904.443 1.273.764l.18.166-.7.828-.167-.162c-.287-.26-.612-.467-.973-.624-.433-.188-.878-.282-1.336-.282-.605 0-1.16.144-1.668.432-.506.288-.907.678-1.201 1.17-.295.492-.442 1.034-.442 1.626 0 .584.147 1.124.442 1.62.294.496.695.888 1.201 1.176.507.288 1.063.432 1.668.432.45 0 .89-.09 1.324-.27.347-.144.662-.33.946-.559l.207-.179.71.756-.221.2c-.38.322-.81.581-1.286.778-.572.236-1.153.354-1.741.354-.818 0-1.566-.19-2.244-.57-.679-.38-1.214-.898-1.607-1.554-.392-.656-.588-1.38-.588-2.172 0-.784.198-1.502.595-2.154.396-.652.938-1.166 1.624-1.542.687-.376 1.443-.564 2.269-.564zm88.958 0c.597 0 1.18.104 1.747.312.474.173.895.4 1.263.678l.215.174-.674.84-.213-.179c-.29-.227-.614-.41-.97-.547-.446-.172-.902-.258-1.368-.258-.613 0-1.177.144-1.692.432-.515.288-.922.68-1.22 1.176-.298.496-.448 1.04-.448 1.632 0 .592.152 1.138.454 1.638.303.5.711.896 1.226 1.188.515.292 1.08.438 1.692.438.36 0 .726-.058 1.098-.174.279-.087.543-.2.792-.339l.244-.147v-2.496h1.042v3.084l-.223.162c-.381.261-.814.475-1.297.642-.58.2-1.157.3-1.73.3-.825 0-1.58-.19-2.268-.57-.686-.38-1.228-.9-1.624-1.56-.397-.66-.595-1.382-.595-2.166s.2-1.502.6-2.154c.401-.652.95-1.166 1.644-1.542.695-.376 1.463-.564 2.305-.564zm91.064 2.088c.809 0 1.434.194 1.876.582.397.35.619.823.665 1.422l.009.204.012 4.176h-1.128v-.888l-.116.138c-.484.532-1.201.798-2.152.798-.45 0-.844-.084-1.183-.252-.34-.168-.601-.4-.785-.696-.184-.296-.276-.628-.276-.996 0-.568.214-1.018.644-1.35.381-.295.897-.462 1.546-.501l.25-.009h2.06v-.3l-.007-.163c-.03-.37-.17-.662-.416-.875-.282-.244-.693-.366-1.232-.366-.582 0-1.173.18-1.773.54l-.226.144-.478-.768.23-.141c.378-.224.733-.391 1.063-.501.397-.132.869-.198 1.417-.198zm-49.423 0c.81 0 1.434.194 1.876.582.397.35.619.823.665 1.422l.01.204.012 4.176h-1.129v-.888l-.116.138c-.484.532-1.201.798-2.152.798-.45 0-.844-.084-1.183-.252-.34-.168-.601-.4-.785-.696-.184-.296-.276-.628-.276-.996 0-.568.215-1.018.644-1.35.381-.295.897-.462 1.546-.501l.25-.009h2.06v-.3l-.006-.163c-.031-.37-.17-.662-.417-.875-.282-.244-.693-.366-1.232-.366-.581 0-1.172.18-1.773.54l-.226.144-.478-.768.23-.141c.379-.224.733-.391 1.064-.501.396-.132.868-.198 1.416-.198zm-91.448 0c.81 0 1.435.194 1.876.582.398.35.62.823.666 1.422l.009.204.012 4.176h-1.128v-.888l-.116.138c-.484.532-1.202.798-2.153.798-.45 0-.844-.084-1.183-.252-.34-.168-.6-.4-.785-.696-.184-.296-.275-.628-.275-.996 0-.568.214-1.018.643-1.35.382-.295.897-.462 1.547-.501l.25-.009h2.06v-.3l-.007-.163c-.03-.37-.17-.662-.416-.875-.282-.244-.693-.366-1.233-.366-.581 0-1.172.18-1.773.54l-.225.144-.479-.768.23-.141c.38-.224.734-.391 1.064-.501.396-.132.869-.198 1.416-.198zm97.432-1.452v1.704h1.986v.852h-1.986v3.312l.004.145c.016.277.08.48.192.611.13.152.327.228.588.228.26 0 .535-.07.828-.208l.178-.092.306.864-.187.11c-.438.239-.883.358-1.333.358-.515 0-.932-.15-1.25-.45-.284-.267-.442-.655-.473-1.165l-.006-.197v-3.516h-.92v-.852h.92v-1.704h1.153zm-91.448 0v1.704h1.986v.852h-1.986v3.312l.004.145c.016.277.08.48.192.611.13.152.327.228.589.228.259 0 .534-.07.827-.208l.178-.092.307.864-.188.11c-.438.239-.882.358-1.333.358-.515 0-.932-.15-1.25-.45-.284-.267-.441-.655-.473-1.165l-.006-.197v-3.516h-.92v-.852h.92v-1.704h1.153zm70.186 1.452c.809 0 1.434.194 1.876.582.397.35.619.823.665 1.422l.01.204.011 4.176h-1.128v-.888l-.116.138c-.484.532-1.201.798-2.152.798-.45 0-.844-.084-1.183-.252-.34-.168-.601-.4-.785-.696-.184-.296-.276-.628-.276-.996 0-.568.215-1.018.644-1.35.381-.295.897-.462 1.546-.501l.25-.009h2.06v-.3l-.006-.163c-.031-.37-.17-.662-.417-.875-.282-.244-.693-.366-1.232-.366-.582 0-1.172.18-1.773.54l-.226.144-.478-.768.23-.141c.379-.224.733-.391 1.064-.501.396-.132.868-.198 1.416-.198zm57.258 0c.646 0 1.22.136 1.723.408.502.272.895.65 1.177 1.134.282.484.423 1.038.423 1.662 0 .624-.141 1.18-.423 1.668-.282.488-.675.868-1.177 1.14-.503.272-1.077.408-1.723.408-.654 0-1.233-.136-1.735-.408-.503-.272-.895-.65-1.177-1.134-.282-.484-.423-1.042-.423-1.674 0-.624.14-1.178.423-1.662.282-.484.674-.862 1.177-1.134.502-.272 1.08-.408 1.735-.408zm-165.345 0c.646 0 1.22.136 1.723.408.503.272.895.65 1.177 1.134.282.484.423 1.038.423 1.662 0 .624-.141 1.18-.423 1.668-.282.488-.674.868-1.177 1.14-.503.272-1.077.408-1.723.408-.654 0-1.232-.136-1.735-.408-.503-.272-.895-.65-1.177-1.134-.282-.484-.423-1.042-.423-1.674 0-.624.14-1.178.423-1.662.282-.484.674-.862 1.177-1.134.503-.272 1.081-.408 1.735-.408zm43.995 0c.646 0 1.22.136 1.723.408.502.272.895.65 1.177 1.134.282.484.423 1.038.423 1.662 0 .624-.141 1.18-.423 1.668-.282.488-.675.868-1.177 1.14-.503.272-1.077.408-1.723.408-.654 0-1.232-.136-1.735-.408-.503-.272-.895-.65-1.177-1.134-.282-.484-.423-1.042-.423-1.674 0-.624.14-1.178.423-1.662.282-.484.674-.862 1.177-1.134.503-.272 1.081-.408 1.735-.408zm12.2 0c1.006 0 1.766.29 2.281.87.515.58.772 1.386.772 2.418l-.003.21-.009.15h-5.125l.04.208c.113.471.343.854.69 1.148.396.336.884.504 1.465.504.384 0 .742-.068 1.073-.204.264-.109.502-.253.712-.434l.152-.142.625.636-.164.162c-.284.259-.614.465-.988.618-.45.184-.948.276-1.496.276-.638 0-1.204-.134-1.698-.402-.495-.268-.88-.646-1.153-1.134-.274-.488-.41-1.044-.41-1.668 0-.624.136-1.178.41-1.662.274-.484.656-.864 1.146-1.14.49-.276 1.05-.414 1.68-.414zm-33.915-2.52v3.816l.106-.172c.225-.333.514-.596.868-.788.413-.224.89-.336 1.429-.336.605 0 1.144.136 1.618.408.474.272.842.652 1.104 1.14.261.488.392 1.048.392 1.68 0 .624-.128 1.178-.386 1.662-.257.484-.621.86-1.091 1.128-.47.268-1.008.402-1.613.402-.547 0-1.03-.112-1.447-.336-.357-.192-.648-.455-.873-.788l-.107-.172V136h-1.14v-8.904h1.14zm65.685 2.556v3.624l.007.195c.033.444.18.797.44 1.059.3.3.71.45 1.233.45.605-.008 1.085-.218 1.44-.63.317-.366.493-.823.528-1.369l.006-.209v-3.12h1.153V136h-1.153v-1.344l-.084.164c-.442.796-1.215 1.201-2.319 1.216-.752 0-1.34-.218-1.766-.654-.382-.392-.593-.92-.63-1.58l-.007-.226v-3.924h1.152zm46.006 0V136h-1.14v-6.348h1.14zm-117.32-.036c.744 0 1.329.22 1.754.66.382.396.593.922.631 1.577l.006.223V136h-1.152v-3.624l-.007-.196c-.033-.443-.18-.798-.44-1.064-.3-.304-.71-.456-1.233-.456-.613.016-1.095.228-1.447.636-.312.363-.486.817-.52 1.363l-.007.209V136h-1.153v-3.624l-.007-.196c-.032-.443-.177-.798-.434-1.064-.294-.304-.707-.456-1.239-.456-.613.016-1.097.228-1.453.636-.316.363-.491.817-.526 1.363l-.007.209V136h-1.14v-6.348h1.14v1.332l.084-.163c.443-.788 1.22-1.19 2.332-1.205.596 0 1.093.14 1.49.42.396.28.664.672.802 1.176.401-1.048 1.243-1.58 2.526-1.596zm97.236-2.52v3.924l.085-.167c.453-.81 1.25-1.222 2.391-1.237.76 0 1.357.218 1.79.654.39.392.605.92.644 1.58l.006.226V136h-1.14v-3.624l-.007-.195c-.034-.444-.184-.797-.453-1.059-.306-.3-.73-.45-1.269-.45-.63.008-1.128.216-1.496.624-.327.363-.508.82-.545 1.372l-.006.212V136h-1.14v-8.904h1.14zm-61.53 2.52v1.08h-.216c-.563.016-1.027.184-1.39.504s-.588.738-.673 1.254l-.026.198V136h-1.14v-6.348h1.14v1.368l.097-.189c.204-.364.474-.647.81-.849.337-.202.727-.32 1.172-.356l.226-.01zm-46.3.036V136h-1.14v-6.348h1.14zm89.045 0l1.814 5.244 1.79-5.244h1.19l1.802 5.244 1.79-5.244h1.178L252.407 136h-1.19l-1.79-4.992-1.79 4.992h-1.19l-2.403-6.348h1.19zm79.108 3.456h-1.9l-.213.005c-.41.018-.72.093-.934.223-.25.152-.374.392-.374.72 0 .328.127.588.38.78.253.192.593.288 1.018.288.531 0 .983-.126 1.355-.378.325-.22.536-.504.633-.85l.035-.152v-.636zm-64.7 0h-1.901l-.213.005c-.409.018-.72.093-.934.223-.25.152-.374.392-.374.72 0 .328.127.588.38.78.254.192.593.288 1.018.288.531 0 .983-.126 1.355-.378.325-.22.537-.504.634-.85l.034-.152v-.636zm-76.17 0h-1.901l-.213.005c-.408.018-.72.093-.933.223-.25.152-.374.392-.374.72 0 .328.126.588.38.78.253.192.592.288 1.017.288.532 0 .983-.126 1.355-.378.326-.22.537-.504.634-.85l.035-.152v-.636zm91.447 0h-1.9l-.213.005c-.409.018-.72.093-.934.223-.25.152-.374.392-.374.72 0 .328.127.588.38.78.254.192.593.288 1.018.288.531 0 .983-.126 1.355-.378.325-.22.537-.504.634-.85l.034-.152v-.636zm40.558-2.52c-.425 0-.803.096-1.134.288-.332.192-.589.458-.773.798-.184.34-.276.726-.276 1.158 0 .44.092.832.276 1.176.184.344.441.61.773.798.33.188.709.282 1.134.282.417 0 .79-.094 1.122-.282.33-.188.588-.454.772-.798.184-.344.276-.736.276-1.176 0-.432-.092-.818-.276-1.158-.184-.34-.441-.606-.772-.798-.331-.192-.705-.288-1.122-.288zm-165.345 0c-.425 0-.803.096-1.134.288-.331.192-.589.458-.773.798-.184.34-.276.726-.276 1.158 0 .44.092.832.276 1.176.184.344.442.61.773.798.33.188.709.282 1.134.282.417 0 .79-.094 1.122-.282.331-.188.589-.454.772-.798.184-.344.276-.736.276-1.176 0-.432-.092-.818-.276-1.158-.183-.34-.441-.606-.772-.798-.331-.192-.705-.288-1.122-.288zm43.995 0c-.425 0-.803.096-1.134.288-.331.192-.589.458-.773.798-.184.34-.276.726-.276 1.158 0 .44.092.832.276 1.176.184.344.442.61.773.798.33.188.709.282 1.134.282.417 0 .79-.094 1.122-.282.331-.188.588-.454.772-.798.184-.344.276-.736.276-1.176 0-.432-.092-.818-.276-1.158-.184-.34-.441-.606-.772-.798-.331-.192-.705-.288-1.122-.288zm-19.533-.024c-.417 0-.79.096-1.122.288-.33.192-.59.46-.778.804-.188.344-.282.728-.282 1.152 0 .44.094.83.282 1.17.188.34.447.606.778.798.331.192.705.288 1.122.288.417 0 .791-.096 1.122-.288.331-.192.589-.46.773-.804.183-.344.275-.732.275-1.164 0-.424-.094-.808-.282-1.152-.188-.344-.445-.612-.772-.804-.327-.192-.699-.288-1.116-.288zm31.746-.024c-.573 0-1.049.168-1.429.504-.332.294-.548.677-.646 1.148l-.034.208h4.12c-.033-.576-.23-1.03-.59-1.362-.359-.332-.833-.498-1.421-.498zm77.187-3.42c.204 0 .374.068.509.204.135.136.202.308.202.516 0 .208-.067.38-.202.516s-.305.204-.51.204c-.203 0-.373-.068-.508-.204-.135-.136-.202-.308-.202-.516 0-.208.067-.38.202-.516s.305-.204.509-.204zm-127.914 0c.204 0 .374.068.509.204.135.136.202.308.202.516 0 .208-.067.38-.202.516s-.305.204-.509.204c-.204 0-.374-.068-.509-.204-.135-.136-.202-.308-.202-.516 0-.208.067-.38.202-.516s.305-.204.509-.204zm75.144-32.696c.915 0 1.626.206 2.133.618.461.375.716.886.764 1.535l.009.199V101h-2.146v-.732l-.115.132c-.44.464-1.067.696-1.884.696-.703 0-1.257-.186-1.661-.558-.405-.372-.607-.862-.607-1.47 0-.616.219-1.096.656-1.44.393-.31.941-.483 1.642-.52l.24-.008h1.729v-.072l-.007-.13c-.026-.25-.132-.446-.318-.59-.217-.168-.53-.252-.938-.252-.278 0-.59.044-.938.132-.26.066-.522.154-.785.266l-.263.118-.601-1.44.32-.137c.425-.172.835-.304 1.23-.397.495-.116 1.008-.174 1.54-.174zm27.678.084V98l.006.153c.024.296.118.533.283.711.192.208.451.312.778.312.384-.008.687-.146.908-.414.189-.23.297-.52.324-.87l.007-.18v-3.204h2.182V101h-2.182v-1.056l-.1.156c-.452.649-1.126.981-2.022.996-.719 0-1.293-.226-1.722-.678-.387-.407-.6-.935-.638-1.585l-.006-.221v-4.104h2.182zm-32.4-2.412V101h-2.182v-.84l-.118.146c-.205.233-.446.414-.722.544-.33.156-.705.234-1.122.234-.613 0-1.152-.14-1.618-.42-.466-.28-.828-.674-1.085-1.182-.258-.508-.386-1.094-.386-1.758 0-.656.126-1.232.38-1.728.253-.496.609-.88 1.066-1.152.458-.272.99-.408 1.594-.408.426 0 .808.08 1.147.24.271.128.51.3.716.515l.148.169v-3.264h2.183zm49.738 2.34c1.08 0 1.91.312 2.49.936.58.624.87 1.48.87 2.568l-.003.222-.01.162h-4.61l.05.152c.11.295.278.526.502.694.262.196.58.294.957.294.286 0 .562-.056.827-.168.213-.09.411-.212.595-.369l.135-.123 1.14 1.116-.177.18c-.306.289-.662.515-1.067.678-.487.196-1.036.294-1.65.294-.71 0-1.332-.136-1.863-.408-.532-.272-.938-.656-1.22-1.152-.282-.496-.423-1.072-.423-1.728 0-.664.143-1.25.429-1.758.286-.508.69-.9 1.214-1.176.523-.276 1.128-.414 1.814-.414zm-65.015 0c.72 0 1.353.138 1.9.414.548.276.973.664 1.276 1.164.302.5.453 1.078.453 1.734 0 .664-.15 1.246-.453 1.746-.303.5-.728.888-1.276 1.164-.547.276-1.18.414-1.9.414s-1.353-.138-1.9-.414c-.548-.276-.971-.664-1.27-1.164-.298-.5-.447-1.082-.447-1.746 0-.656.149-1.234.447-1.734.299-.5.722-.888 1.27-1.164.547-.276 1.18-.414 1.9-.414zm58.21-.012c.728 0 1.31.224 1.747.672.394.403.61.933.65 1.589l.006.223V101h-2.17v-3.48l-.006-.153c-.025-.296-.125-.535-.3-.717-.205-.212-.479-.318-.822-.318-.36.008-.656.124-.889.348-.2.192-.329.437-.387.735l-.024.153V101h-2.182v-6.492h2.182v1.056l.124-.18c.217-.288.48-.512.79-.672.372-.192.799-.288 1.281-.288zm-17.08-1.836l.268.005c.967.04 1.728.296 2.282.769.605.516.907 1.242.907 2.178 0 .992-.302 1.762-.907 2.31-.554.502-1.315.774-2.282.816l-.268.006h-1.533V101h-2.244v-8.412h3.777zm-34.215 1.92V101h-2.17v-6.492h2.17zm-17.656-1.92l3.911 5.064-.012-5.064H206V101h-1.962l-3.899-5.028V101h-2.096v-8.412h1.974zm31.5 5.652h-1.3l-.136.004c-.522.032-.783.254-.783.668 0 .224.08.402.239.534.16.132.378.198.656.198.327 0 .613-.078.858-.234.204-.13.346-.292.426-.486l.04-.12v-.564zm-9.086-2.076c-.425 0-.77.15-1.036.45-.266.3-.399.69-.399 1.17s.133.87.399 1.17c.266.3.61.45 1.036.45.425 0 .768-.15 1.03-.45.262-.3.392-.69.392-1.17 0-.488-.13-.88-.392-1.176-.262-.296-.605-.444-1.03-.444zm-11.673 0c-.425 0-.769.148-1.03.444-.262.296-.392.684-.392 1.164 0 .488.13.88.392 1.176.261.296.605.444 1.03.444.433 0 .78-.148 1.042-.444.262-.296.392-.688.392-1.176 0-.48-.132-.868-.398-1.164-.266-.296-.611-.444-1.036-.444zm65.028-.228c-.344 0-.632.112-.865.336-.194.187-.333.429-.416.727l-.044.185h2.55c0-.376-.112-.678-.336-.906-.225-.228-.521-.342-.89-.342zm-24.009-1.596h-1.422v2.58h1.422c.458 0 .812-.112 1.06-.336.25-.224.375-.548.375-.972 0-.408-.125-.722-.374-.942-.214-.189-.504-.296-.87-.323l-.19-.007zm-35.207-2.82c.335 0 .611.106.828.318.216.212.325.486.325.822 0 .328-.109.6-.325.816-.217.216-.493.324-.828.324-.335 0-.611-.108-.828-.324-.216-.216-.325-.488-.325-.816 0-.336.109-.61.325-.822.217-.212.493-.318.828-.318zm37.913-24.096c.916 0 1.627.206 2.134.618.46.375.715.886.764 1.535l.008.199V74h-2.146v-.732l-.115.132c-.439.464-1.067.696-1.883.696-.703 0-1.257-.186-1.662-.558-.404-.372-.607-.862-.607-1.47 0-.616.219-1.096.656-1.44.394-.31.941-.483 1.643-.52l.24-.008h1.728v-.072l-.006-.13c-.027-.25-.133-.446-.319-.59-.216-.168-.529-.252-.938-.252-.278 0-.59.044-.938.132-.26.066-.522.154-.785.266l-.263.118-.6-1.44.32-.137c.425-.172.835-.304 1.23-.397.495-.116 1.008-.174 1.539-.174zm-12.728 0c.916 0 1.627.206 2.134.618.46.375.715.886.764 1.535l.008.199V74h-2.145v-.732l-.115.132c-.44.464-1.067.696-1.884.696-.703 0-1.257-.186-1.661-.558-.405-.372-.607-.862-.607-1.47 0-.616.218-1.096.656-1.44.393-.31.94-.483 1.642-.52l.24-.008h1.729v-.072l-.007-.13c-.027-.25-.133-.446-.318-.59-.217-.168-.53-.252-.938-.252-.278 0-.59.044-.938.132-.26.066-.523.154-.785.266l-.264.118-.6-1.44.32-.137c.425-.172.835-.304 1.23-.397.495-.116 1.008-.174 1.54-.174zm47.445.084V71l.006.153c.023.296.117.533.282.711.192.208.452.312.779.312.384-.008.686-.146.907-.414.19-.23.297-.52.324-.87l.007-.18v-3.204h2.183V74h-2.183v-1.056l-.1.156c-.452.649-1.125.981-2.021.996-.72 0-1.294-.226-1.723-.678-.386-.407-.599-.935-.637-1.585l-.007-.221v-4.104h2.183zm-40.59-1.488v1.8h1.716v1.416h-1.716v2.448l.004.119c.032.377.223.565.572.565.19 0 .408-.046.655-.138l.191-.078.417 1.512-.19.096c-.199.091-.417.165-.656.222-.319.076-.642.114-.969.114-.654 0-1.183-.184-1.588-.552-.36-.327-.56-.765-.6-1.313l-.007-.211v-2.784h-.92V67.82h.92v-1.8h2.17zm70.864 1.404c.916 0 1.627.206 2.134.618.46.375.715.886.764 1.535l.008.199V74h-2.146v-.732l-.115.132c-.439.464-1.067.696-1.883.696-.703 0-1.257-.186-1.662-.558-.404-.372-.607-.862-.607-1.47 0-.616.219-1.096.656-1.44.394-.31.941-.483 1.643-.52l.24-.008h1.728v-.072l-.006-.13c-.027-.25-.133-.446-.319-.59-.216-.168-.529-.252-.938-.252-.278 0-.59.044-.938.132-.26.066-.522.154-.785.266l-.263.118-.6-1.44.32-.137c.425-.172.835-.304 1.23-.397.495-.116 1.008-.174 1.539-.174zm-9.16-2.328v3.252l.125-.146c.467-.51 1.076-.766 1.825-.766.613 0 1.153.138 1.619.414.466.276.827.668 1.085 1.176.257.508.386 1.094.386 1.758 0 .656-.125 1.232-.374 1.728-.25.496-.605.88-1.067 1.152-.461.272-.995.408-1.6.408-.417 0-.795-.078-1.134-.234-.271-.125-.51-.294-.716-.509l-.148-.169V74h-2.183v-8.904h2.183zm-87.748 2.34c.72 0 1.353.138 1.9.414.548.276.973.664 1.276 1.164.302.5.453 1.078.453 1.734 0 .664-.15 1.246-.453 1.746-.303.5-.728.888-1.276 1.164-.547.276-1.18.414-1.9.414s-1.353-.138-1.9-.414c-.548-.276-.971-.664-1.27-1.164-.298-.5-.447-1.082-.447-1.746 0-.656.149-1.234.447-1.734.299-.5.722-.888 1.27-1.164.547-.276 1.18-.414 1.9-.414zm-10.018-1.848v3.648l3.225-3.648h2.6l-3.189 3.468L218.57 74h-2.686l-2.256-3.264-1.079 1.176V74h-2.244v-8.412h2.244zm91.66 1.836c.72 0 1.296.224 1.73.672.39.403.604.933.643 1.589l.006.223V74h-2.183v-3.48l-.006-.153c-.024-.296-.12-.535-.288-.717-.196-.212-.462-.318-.797-.318-.384.008-.689.146-.913.414-.193.23-.303.52-.33.87l-.008.18V74h-2.182v-3.48l-.006-.153c-.024-.296-.12-.535-.288-.717-.197-.212-.462-.318-.797-.318-.385.008-.691.146-.92.414-.196.23-.308.52-.336.87l-.007.18V74h-2.17v-6.492h2.17v1.068l.12-.18c.21-.289.465-.515.769-.678.363-.196.786-.294 1.269-.294.54 0 1.001.128 1.385.384.384.256.658.612.822 1.068.212-.48.517-.842.913-1.086.397-.244.865-.366 1.404-.366zm-26.068-1.836l2.489 4.92 2.477-4.92h2.44V74h-1.986l-.013-5.328-2.195 4.488h-1.446l-2.208-4.488V74H275.7v-8.412h2.44zm47.882 1.92V74h-2.17v-6.492h2.17zm-96.467-2.412V74h-2.183v-8.904h2.183zm3.973 0v4.608l2.121-2.196h2.477l-2.428 2.508L238.175 74H235.6l-1.398-2.448-.674.684V74h-2.183v-8.904h2.183zm8.988 6.144h-1.3l-.136.004c-.523.032-.784.254-.784.668 0 .224.08.402.24.534.159.132.377.198.655.198.327 0 .613-.078.859-.234.204-.13.346-.292.425-.486l.04-.12v-.564zm12.727 0h-1.3l-.136.004c-.522.032-.783.254-.783.668 0 .224.08.402.239.534.16.132.378.198.656.198.327 0 .613-.078.858-.234.205-.13.347-.292.426-.486l.04-.12v-.564zm64.991 0h-1.3l-.136.004c-.522.032-.783.254-.783.668 0 .224.08.402.239.534.16.132.378.198.656.198.327 0 .613-.078.858-.234.205-.13.347-.292.426-.486l.04-.12v-.564zm-97.668-2.076c-.425 0-.769.148-1.03.444-.262.296-.392.684-.392 1.164 0 .488.13.88.392 1.176.261.296.605.444 1.03.444.433 0 .78-.148 1.042-.444.262-.296.392-.688.392-1.176 0-.48-.132-.868-.398-1.164-.266-.296-.611-.444-1.036-.444zm89.159-.048c-.417 0-.756.15-1.018.45-.262.3-.392.69-.392 1.17s.13.868.392 1.164c.262.296.6.444 1.018.444.425 0 .77-.148 1.036-.444.265-.296.398-.684.398-1.164 0-.48-.133-.87-.398-1.17-.266-.3-.611-.45-1.036-.45zm13.193-4.596c.335 0 .611.106.828.318.217.212.325.486.325.822 0 .328-.108.6-.325.816-.217.216-.493.324-.828.324-.335 0-.61-.108-.827-.324-.217-.216-.325-.488-.325-.816 0-.336.108-.61.325-.822.216-.212.492-.318.827-.318zM270.24 36.508l1.582 4.224 1.41-4.224h2.17l-2.844 7.128-.1.22c-.24.498-.546.874-.918 1.13-.425.292-.952.438-1.582.438-.368 0-.71-.054-1.03-.162-.255-.086-.505-.212-.75-.378l-.182-.132.908-1.476.115.09c.113.082.222.144.326.186.14.056.286.084.442.084.314 0 .557-.126.728-.377l.069-.115.159-.3-2.747-6.336h2.244zm-58.7-.072c.408 0 .778.074 1.11.222.264.118.494.279.688.482l.139.16v-.792h2.17v5.916l-.007.222c-.033.508-.182.96-.446 1.356-.303.452-.726.8-1.27 1.044-.543.244-1.17.366-1.882.366-.556 0-1.091-.076-1.606-.228-.412-.122-.785-.276-1.118-.465l-.243-.147.76-1.476.232.142c.236.133.485.242.75.326.35.112.706.168 1.066.168.49 0 .879-.112 1.165-.336.25-.196.39-.453.422-.772l.007-.14v-.696l-.114.136c-.434.477-1.025.716-1.774.716-.548 0-1.037-.13-1.466-.39-.429-.26-.764-.628-1.005-1.104-.241-.476-.362-1.022-.362-1.638 0-.608.117-1.144.35-1.608.233-.464.562-.824.987-1.08.425-.256.907-.384 1.447-.384zm-28.717-1.98c.637 0 1.275.114 1.913.342.546.195 1.02.448 1.423.758l.195.16-1.275 1.536-.192-.166c-.264-.21-.557-.384-.881-.518-.405-.168-.803-.252-1.196-.252-.457 0-.87.108-1.238.324-.368.216-.658.512-.87.888-.213.376-.32.796-.32 1.26 0 .472.107.898.32 1.278.212.38.506.678.882.894.376.216.793.324 1.25.324.372 0 .789-.1 1.25-.3l.235-.108v-2.172h1.937v3.348l-.203.137c-.418.266-.912.486-1.483.661-.666.204-1.298.306-1.894.306-.867 0-1.65-.19-2.349-.57-.698-.38-1.248-.902-1.649-1.566-.4-.664-.6-1.408-.6-2.232 0-.816.206-1.554.619-2.214.412-.66.98-1.178 1.704-1.554.723-.376 1.53-.564 2.422-.564zm117.005 1.968c.915 0 1.626.206 2.133.618.461.375.716.886.764 1.535l.009.199V43h-2.146v-.732l-.115.132c-.44.464-1.067.696-1.884.696-.703 0-1.257-.186-1.661-.558-.405-.372-.607-.862-.607-1.47 0-.616.219-1.096.656-1.44.394-.31.941-.483 1.643-.52l.24-.008h1.728v-.072l-.007-.13c-.026-.25-.132-.446-.318-.59-.217-.168-.53-.252-.938-.252-.278 0-.59.044-.938.132-.26.066-.522.154-.785.265l-.263.119-.601-1.44.32-.137c.425-.172.835-.304 1.23-.397.495-.116 1.008-.174 1.54-.174zm15.78 0c.916 0 1.627.206 2.134.618.46.375.715.886.764 1.535l.009.199V43h-2.146v-.732l-.115.132c-.44.464-1.067.696-1.884.696-.703 0-1.257-.186-1.661-.558-.405-.372-.607-.862-.607-1.47 0-.616.218-1.096.656-1.44.393-.31.94-.483 1.642-.52l.24-.008h1.729v-.072l-.007-.13c-.026-.25-.133-.446-.318-.59-.217-.168-.53-.252-.938-.252-.278 0-.59.044-.938.132-.26.066-.522.154-.785.265l-.264.119-.6-1.44.32-.137c.425-.172.835-.304 1.23-.397.495-.116 1.008-.174 1.54-.174zm-90.286 0c.915 0 1.626.206 2.133.618.46.375.716.886.764 1.535l.009.199V43h-2.146v-.732l-.115.132c-.44.464-1.067.696-1.884.696-.703 0-1.257-.186-1.661-.558-.405-.372-.607-.862-.607-1.47 0-.616.218-1.096.656-1.44.393-.31.941-.483 1.642-.52l.24-.008h1.729v-.072l-.007-.13c-.026-.25-.132-.446-.318-.59-.217-.168-.53-.252-.938-.252-.278 0-.59.044-.938.132-.26.066-.522.154-.785.265l-.263.119-.601-1.44.32-.137c.425-.172.835-.304 1.23-.397.495-.116 1.008-.174 1.54-.174zm-35.596.084V40l.006.153c.023.296.118.533.282.711.192.208.452.312.779.312.384-.008.686-.146.907-.414.19-.23.297-.52.324-.87l.007-.18v-3.204h2.183V43h-2.183v-1.056l-.1.156c-.452.649-1.125.981-2.021.996-.72 0-1.294-.226-1.723-.678-.386-.407-.599-.935-.637-1.585l-.007-.221v-4.104h2.183zm13.414 0V40l.006.153c.024.296.118.533.282.711.193.208.452.312.78.312.383-.008.686-.146.906-.414.19-.23.298-.52.325-.87l.006-.18v-3.204h2.183V43h-2.183v-1.056l-.1.156c-.451.649-1.125.981-2.02.996-.72 0-1.294-.226-1.724-.678-.386-.407-.598-.935-.637-1.585l-.006-.221v-4.104h2.182zm123.54-2.412V43h-2.182v-.84l-.118.146c-.205.233-.446.414-.722.544-.33.156-.705.234-1.122.234-.613 0-1.152-.14-1.618-.42-.466-.28-.828-.674-1.085-1.182-.258-.508-.387-1.094-.387-1.758 0-.656.127-1.232.38-1.728.254-.496.61-.88 1.067-1.152.458-.272.99-.408 1.594-.408.425 0 .808.08 1.147.24.271.128.51.3.716.515l.148.169v-3.264h2.183zm-44.055 0V43h-2.183v-.84l-.119.146c-.205.233-.445.414-.72.544-.332.156-.706.234-1.123.234-.613 0-1.152-.14-1.618-.42-.466-.28-.828-.674-1.086-1.182-.257-.508-.386-1.094-.386-1.758 0-.656.127-1.232.38-1.728.254-.496.61-.88 1.067-1.152.458-.272.99-.408 1.594-.408.425 0 .807.08 1.147.24.271.128.51.3.716.515l.148.169v-3.264h2.183zm23.824 0v3.252l.124-.146c.468-.51 1.076-.766 1.826-.766.613 0 1.152.138 1.618.414.466.276.828.668 1.085 1.176.258.508.387 1.094.387 1.758 0 .656-.125 1.232-.374 1.728-.25.496-.605.88-1.067 1.152-.462.272-.995.408-1.6.408-.417 0-.795-.078-1.135-.234-.27-.125-.51-.294-.716-.509l-.148-.169V43h-2.183v-8.904h2.183zm-165.578 2.34c1.08 0 1.91.312 2.49.936.58.624.87 1.48.87 2.568l-.003.222-.01.162h-4.61l.05.152c.11.295.278.526.502.694.262.196.58.294.957.294.286 0 .562-.056.827-.168.213-.09.411-.212.595-.369l.135-.123 1.14 1.116-.177.18c-.306.289-.662.515-1.067.678-.487.196-1.036.294-1.65.294-.71 0-1.332-.136-1.863-.408-.532-.272-.938-.656-1.22-1.152-.282-.496-.423-1.072-.423-1.728 0-.664.143-1.25.429-1.758.286-.508.69-.9 1.214-1.176.523-.276 1.128-.414 1.814-.414zm146.4 0c1.08 0 1.91.312 2.49.936.58.624.87 1.48.87 2.568l-.003.222-.009.162h-4.61l.05.152c.11.295.277.526.502.694.261.196.58.294.956.294.286 0 .562-.056.828-.168.212-.09.41-.212.594-.369l.135-.123 1.14 1.116-.177.18c-.306.289-.662.515-1.067.678-.486.196-1.036.294-1.65.294-.71 0-1.332-.136-1.863-.408-.531-.272-.938-.656-1.22-1.152-.282-.496-.423-1.072-.423-1.728 0-.664.143-1.25.43-1.758.285-.508.69-.9 1.213-1.176.523-.276 1.128-.414 1.815-.414zm8.792-.012v1.956l-.138-.009-.193-.003c-.515 0-.932.118-1.25.354-.28.206-.455.479-.527.817l-.025.149V43h-2.183v-6.492h2.183v1.08l.12-.18c.21-.29.466-.517.769-.684.303-.167.642-.264 1.016-.292l.228-.008zm-34.467-1.836v3.432h3.47v-3.432h2.244V43h-2.244v-3.228h-3.47V43h-2.244v-8.412h2.244zm-114.005-.492V43h-2.183v-8.904h2.183zm-15.327.492l.296.007c.778.034 1.475.208 2.089.521.69.352 1.228.846 1.612 1.482.384.636.576 1.366.576 2.19 0 .824-.194 1.556-.582 2.196-.388.64-.936 1.136-1.643 1.488-.629.313-1.34.487-2.133.521l-.301.007h-3.617v-8.412h3.703zm19.3-.492v3.468l.124-.18c.216-.288.48-.512.79-.672.371-.192.798-.288 1.28-.288.736 0 1.323.224 1.76.672.394.403.61.933.65 1.589l.006.223V43h-2.183v-3.48l-.006-.153c-.024-.296-.122-.535-.294-.717-.2-.212-.476-.318-.828-.318-.4.008-.717.146-.95.414-.2.23-.314.52-.342.87l-.007.18V43h-2.183v-8.904h2.183zm8.252 2.412V43h-2.17v-6.492h2.17zm78.736-.084c.72 0 1.296.224 1.729.672.39.403.604.933.643 1.589l.007.223V43h-2.183v-3.48l-.006-.153c-.024-.296-.12-.535-.288-.717-.196-.212-.462-.318-.797-.318-.384.008-.689.146-.914.414-.192.23-.302.52-.33.87l-.007.18V43h-2.182v-3.48l-.006-.153c-.024-.296-.12-.535-.289-.717-.196-.212-.461-.318-.797-.318-.384.008-.69.146-.92.414-.195.23-.308.52-.336.87l-.007.18V43h-2.17v-6.492h2.17v1.068l.12-.18c.21-.289.466-.515.77-.678.363-.196.786-.294 1.268-.294.54 0 1.002.128 1.386.384.384.256.658.612.822 1.068.212-.48.517-.842.913-1.086.397-.244.865-.366 1.404-.366zm-38.355 0v1.956l-.137-.009-.194-.003c-.515 0-.931.118-1.25.354-.28.206-.455.479-.527.817l-.025.149V43h-2.183v-6.492h2.183v1.08l.12-.18c.21-.29.466-.517.769-.684.303-.167.642-.264 1.016-.292l.228-.008zm21.36 0v1.956l-.138-.009-.193-.003c-.515 0-.932.118-1.25.354-.28.206-.455.479-.527.817l-.025.149V43h-2.183v-6.492h2.183v1.08l.12-.18c.21-.29.466-.517.769-.684.303-.167.642-.264 1.016-.292l.228-.008zm79.031 3.816h-1.3l-.136.004c-.522.032-.783.254-.783.668 0 .224.08.402.239.534.16.132.378.198.656.198.327 0 .613-.078.858-.234.204-.13.346-.292.426-.486l.04-.12v-.564zm15.78 0h-1.299l-.136.004c-.522.032-.784.254-.784.668 0 .224.08.402.24.534.159.132.378.198.655.198.327 0 .614-.078.859-.234.204-.13.346-.292.426-.486l.04-.12v-.564zm-90.286 0h-1.3l-.136.004c-.522.032-.783.254-.783.668 0 .224.08.402.239.534.159.132.378.198.656.198.327 0 .613-.078.858-.234.204-.13.346-.292.426-.486l.04-.12v-.564zm96.994-2.076c-.425 0-.77.15-1.036.45-.266.3-.399.69-.399 1.17s.133.87.399 1.17c.265.3.61.45 1.036.45.425 0 .768-.15 1.03-.45.261-.3.392-.69.392-1.17 0-.488-.13-.88-.392-1.176-.262-.296-.605-.444-1.03-.444zm-44.056 0c-.425 0-.77.15-1.036.45-.266.3-.399.69-.399 1.17s.133.87.399 1.17c.265.3.61.45 1.036.45.425 0 .768-.15 1.03-.45.261-.3.392-.69.392-1.17 0-.488-.13-.88-.392-1.176-.262-.296-.605-.444-1.03-.444zm28.84-.048c-.418 0-.757.15-1.019.45-.261.3-.392.69-.392 1.17s.13.868.392 1.164c.262.296.601.444 1.018.444.425 0 .77-.148 1.036-.444.266-.296.399-.684.399-1.164 0-.48-.133-.87-.399-1.17-.265-.3-.61-.45-1.036-.45zm-175.645-1.74h-1.41v4.848h1.52c.433 0 .817-.1 1.153-.3.335-.2.596-.484.784-.852.188-.368.282-.788.282-1.26 0-.48-.1-.904-.3-1.272-.2-.368-.476-.654-.828-.858-.293-.17-.62-.27-.98-.297l-.221-.009zm79.925 1.668c-.4 0-.725.142-.974.426-.25.284-.374.65-.374 1.098 0 .448.124.812.374 1.092.249.28.574.42.974.42s.724-.14.969-.42c.245-.28.368-.644.368-1.092 0-.456-.123-.824-.368-1.104-.245-.28-.568-.42-.969-.42zm75.144-.108c-.343 0-.631.112-.864.336-.195.187-.333.429-.417.727l-.043.185h2.55c0-.376-.112-.678-.337-.906-.225-.228-.521-.342-.889-.342zm-146.4 0c-.344 0-.632.112-.865.336-.194.187-.333.429-.416.727l-.044.185h2.55c0-.376-.112-.678-.336-.906-.225-.228-.522-.342-.89-.342zm17.828-4.416c.335 0 .611.106.828.318.216.212.325.486.325.822 0 .328-.109.6-.325.816-.217.216-.493.324-.828.324-.335 0-.61-.108-.828-.324-.216-.216-.324-.488-.324-.816 0-.336.108-.61.324-.822.217-.212.493-.318.828-.318zm63.945-24.084c.409 0 .778.074 1.11.222.264.118.494.279.688.482l.14.16v-.792h2.17v5.916l-.008.222c-.033.508-.182.96-.446 1.356-.303.452-.726.8-1.27 1.044-.543.244-1.17.366-1.881.366-.556 0-1.092-.076-1.607-.228-.412-.122-.784-.276-1.118-.465l-.243-.147.76-1.476.232.142c.236.133.486.242.75.326.35.112.706.168 1.066.168.49 0 .879-.112 1.165-.336.25-.196.391-.453.422-.772l.007-.14v-.696l-.114.136c-.433.477-1.025.716-1.774.716-.548 0-1.036-.13-1.465-.39-.43-.26-.765-.628-1.006-1.104-.241-.476-.362-1.022-.362-1.638 0-.608.117-1.144.35-1.608.233-.464.562-.824.987-1.08.425-.256.907-.384 1.447-.384zm58.112-1.98c.638 0 1.267.13 1.888.39.533.223.996.515 1.39.876l.192.186-1.3 1.536-.173-.198c-.24-.253-.513-.46-.82-.624-.384-.204-.764-.306-1.14-.306-.433 0-.828.106-1.183.318-.356.212-.636.504-.84.876-.205.372-.307.786-.307 1.242 0 .456.102.87.307 1.242.204.372.484.664.84.876.355.212.75.318 1.183.318.351 0 .72-.088 1.103-.264.308-.14.589-.323.844-.545l.186-.175 1.312 1.38-.205.2c-.42.387-.906.703-1.456.946-.642.284-1.277.426-1.907.426-.85 0-1.618-.192-2.305-.576-.687-.384-1.226-.908-1.619-1.572-.392-.664-.588-1.408-.588-2.232 0-.816.2-1.552.6-2.208.401-.656.951-1.172 1.65-1.548.699-.376 1.482-.564 2.348-.564zM166.08 9.424c.916 0 1.627.206 2.134.618.46.375.715.886.764 1.535l.008.199V16h-2.145v-.732l-.115.132c-.44.464-1.067.696-1.884.696-.703 0-1.257-.186-1.661-.558-.405-.372-.607-.862-.607-1.47 0-.616.218-1.096.656-1.44.393-.31.94-.483 1.642-.52l.24-.008h1.729v-.072l-.007-.13c-.027-.25-.133-.446-.318-.59-.217-.168-.53-.252-.938-.252-.278 0-.59.044-.938.132-.26.066-.523.154-.785.265l-.264.119-.6-1.44.32-.137c.425-.172.835-.304 1.23-.397.495-.116 1.008-.174 1.54-.174zm-15.78 0c.915 0 1.626.206 2.133.618.46.375.716.886.764 1.535l.009.199V16h-2.146v-.732l-.115.132c-.44.464-1.067.696-1.884.696-.703 0-1.257-.186-1.661-.558-.405-.372-.607-.862-.607-1.47 0-.616.218-1.096.656-1.44.393-.31.94-.483 1.642-.52l.24-.008h1.729v-.072l-.007-.13c-.026-.25-.132-.446-.318-.59-.217-.168-.53-.252-.938-.252-.278 0-.59.044-.938.132-.26.066-.522.154-.785.265l-.264.119-.6-1.44.32-.137c.425-.172.835-.304 1.23-.397.495-.116 1.008-.174 1.54-.174zm57.47 0c.916 0 1.627.206 2.134.618.46.375.715.886.764 1.535l.008.199V16h-2.146v-.732l-.115.132c-.439.464-1.067.696-1.883.696-.703 0-1.257-.186-1.662-.558-.404-.372-.607-.862-.607-1.47 0-.616.219-1.096.656-1.44.394-.31.941-.483 1.643-.52l.24-.008h1.728v-.072l-.006-.13c-.027-.25-.133-.446-.319-.59-.216-.168-.529-.252-.938-.252-.278 0-.59.044-.938.132-.26.066-.522.154-.785.265l-.263.119-.6-1.44.32-.137c.425-.172.835-.304 1.23-.397.495-.116 1.008-.174 1.54-.174zm112.677 0c.915 0 1.627.206 2.133.618.461.375.716.886.764 1.535l.009.199V16h-2.146v-.732l-.115.132c-.439.464-1.067.696-1.884.696-.703 0-1.256-.186-1.661-.558-.405-.372-.607-.862-.607-1.47 0-.616.219-1.096.656-1.44.394-.31.941-.483 1.643-.52l.24-.008h1.728v-.072l-.007-.13c-.026-.25-.132-.446-.318-.59-.217-.168-.53-.252-.938-.252-.278 0-.59.044-.938.132-.26.066-.522.154-.785.265l-.263.119-.601-1.44.32-.137c.425-.172.835-.304 1.231-.397.495-.116 1.007-.174 1.539-.174zm-89.098 0c.916 0 1.627.206 2.134.618.46.375.715.886.764 1.535l.008.199V16h-2.145v-.732l-.115.132c-.44.464-1.067.696-1.884.696-.703 0-1.257-.186-1.662-.558-.404-.372-.607-.862-.607-1.47 0-.616.22-1.096.656-1.44.394-.31.942-.483 1.643-.52l.24-.008h1.729v-.072l-.007-.13c-.027-.25-.133-.446-.318-.59-.217-.168-.53-.252-.938-.252-.278 0-.591.044-.938.132-.261.066-.523.154-.786.265l-.263.119-.6-1.44.32-.137c.425-.172.835-.304 1.23-.397.495-.116 1.008-.174 1.54-.174zm-54.196-2.328V16h-2.183v-.84l-.119.146c-.205.233-.445.414-.72.544-.332.156-.706.234-1.123.234-.613 0-1.152-.14-1.618-.42-.466-.28-.828-.674-1.085-1.182-.258-.508-.387-1.094-.387-1.758 0-.656.127-1.232.38-1.728.254-.496.61-.88 1.067-1.152.458-.272.99-.408 1.594-.408.425 0 .807.08 1.147.24.271.128.51.3.716.515l.148.169V7.096h2.183zm-31.574 0V16h-2.183v-.84l-.118.146c-.205.233-.446.414-.722.544-.33.156-.705.234-1.122.234-.613 0-1.152-.14-1.618-.42-.466-.28-.828-.674-1.085-1.182-.258-.508-.387-1.094-.387-1.758 0-.656.127-1.232.38-1.728.254-.496.61-.88 1.067-1.152.458-.272.99-.408 1.594-.408.425 0 .808.08 1.147.24.271.128.51.3.716.515l.148.169V7.096h2.183zm-11.17 2.34c1.079 0 1.908.312 2.489.936.58.624.87 1.48.87 2.568l-.003.222-.01.162h-4.61l.05.152c.11.295.278.526.502.694.262.196.58.294.957.294.286 0 .562-.056.827-.168.213-.09.411-.212.595-.369l.135-.123 1.14 1.116-.177.18c-.306.289-.662.515-1.067.678-.487.196-1.036.294-1.65.294-.71 0-1.332-.136-1.863-.408-.532-.272-.938-.656-1.22-1.152-.282-.496-.423-1.072-.423-1.728 0-.664.143-1.25.429-1.758.286-.508.69-.9 1.214-1.176.523-.276 1.128-.414 1.814-.414zm22.512-2.34v3.252l.124-.146c.468-.51 1.076-.766 1.826-.766.613 0 1.152.138 1.618.414.466.276.828.668 1.085 1.176.258.508.386 1.094.386 1.758 0 .656-.124 1.232-.374 1.728-.249.496-.604.88-1.066 1.152-.462.272-.996.408-1.6.408-.417 0-.795-.078-1.135-.234-.271-.125-.51-.294-.716-.509l-.148-.169V16h-2.183V7.096h2.183zm98.792 2.34c1.08 0 1.909.312 2.49.936.58.624.87 1.48.87 2.568l-.003.222-.01.162h-4.61l.05.152c.11.295.278.526.502.694.262.196.58.294.957.294.286 0 .562-.056.827-.168.213-.09.41-.212.595-.369l.135-.123 1.14 1.116-.178.18c-.305.289-.661.515-1.066.678-.487.196-1.037.294-1.65.294-.71 0-1.332-.136-1.863-.408-.532-.272-.938-.656-1.22-1.152-.282-.496-.423-1.072-.423-1.728 0-.664.143-1.25.429-1.758.286-.508.69-.9 1.214-1.176.523-.276 1.128-.414 1.814-.414zm-12.936 0c.72 0 1.353.138 1.9.414.548.276.974.664 1.276 1.164.302.5.454 1.078.454 1.734 0 .664-.152 1.246-.454 1.746-.302.5-.728.888-1.275 1.164-.548.276-1.181.414-1.9.414-.72 0-1.354-.138-1.901-.414-.548-.276-.971-.664-1.27-1.164-.298-.5-.447-1.082-.447-1.746 0-.656.15-1.234.448-1.734.298-.5.721-.888 1.269-1.164.547-.276 1.18-.414 1.9-.414zm53.674 0c1.079 0 1.908.312 2.489.936.58.624.87 1.48.87 2.568l-.003.222-.009.162h-4.61l.05.152c.11.295.277.526.502.694.261.196.58.294.956.294.286 0 .562-.056.828-.168.212-.09.41-.212.594-.369l.135-.123 1.14 1.116-.177.18c-.306.289-.662.515-1.067.678-.486.196-1.036.294-1.65.294-.71 0-1.332-.136-1.863-.408-.531-.272-.938-.656-1.22-1.152-.282-.496-.423-1.072-.423-1.728 0-.664.143-1.25.43-1.758.285-.508.69-.9 1.213-1.176.523-.276 1.128-.414 1.815-.414zM106.07 7.588L109.678 16h-2.391l-.589-1.488h-3.715L102.38 16h-2.305l3.69-8.412h2.306zm6.622-.492v3.468l.124-.18c.216-.288.48-.512.79-.672.371-.192.799-.288 1.28-.288.737 0 1.323.224 1.76.672.394.403.61.933.65 1.589l.006.223V16h-2.182v-3.48l-.006-.153c-.025-.296-.123-.535-.295-.717-.2-.212-.476-.318-.827-.318-.4.008-.718.146-.95.414-.2.23-.314.52-.343.87l-.007.18V16h-2.183V7.096h2.183zm14.935 2.328c.72 0 1.295.224 1.729.672.39.403.604.933.643 1.589l.007.223V16h-2.183v-3.48l-.006-.153c-.024-.296-.12-.535-.288-.717-.197-.212-.462-.318-.797-.318-.385.008-.689.146-.914.414-.193.23-.303.52-.33.87l-.007.18V16h-2.183v-3.48l-.006-.153c-.024-.296-.12-.535-.288-.717-.196-.212-.462-.318-.797-.318-.384.008-.69.146-.92.414-.196.23-.308.52-.336.87l-.007.18V16h-2.17V9.508h2.17v1.068l.12-.18c.21-.289.466-.515.77-.678.363-.196.786-.294 1.268-.294.54 0 1.002.128 1.386.384.384.256.658.612.821 1.068.213-.48.517-.842.914-1.086.396-.244.864-.366 1.404-.366zm185.94 0c.728 0 1.31.224 1.747.672.394.403.61.933.65 1.589l.006.223V16h-2.17v-3.48l-.006-.153c-.025-.296-.125-.535-.3-.717-.205-.212-.479-.318-.822-.318-.36.008-.656.124-.89.348-.199.192-.328.437-.386.735l-.024.153V16h-2.182V9.508h2.182v1.056l.124-.18c.217-.288.48-.512.79-.672.372-.192.799-.288 1.281-.288zm-26.117-2.328v3.468l.124-.18c.216-.288.48-.512.79-.672.371-.192.798-.288 1.28-.288.736 0 1.323.224 1.76.672.394.403.61.933.65 1.589l.006.223V16h-2.183v-3.48l-.006-.153c-.024-.296-.122-.535-.294-.717-.2-.212-.476-.318-.828-.318-.4.008-.717.146-.95.414-.2.23-.314.52-.342.87l-.007.18V16h-2.183V7.096h2.183zm17.853 2.328c.727 0 1.31.224 1.747.672.394.403.61.933.65 1.589l.006.223V16h-2.17v-3.48l-.007-.153c-.025-.296-.125-.535-.3-.717-.204-.212-.478-.318-.821-.318-.36.008-.656.124-.89.348-.2.192-.328.437-.387.735l-.023.153V16h-2.183V9.508h2.183v1.056l.124-.18c.216-.288.48-.512.79-.672.371-.192.798-.288 1.28-.288zm-88.779 0c.727 0 1.31.224 1.747.672.394.403.61.933.65 1.589l.006.223V16h-2.17v-3.48l-.006-.153c-.025-.296-.125-.535-.3-.717-.205-.212-.479-.318-.822-.318-.36.008-.656.124-.89.348-.199.192-.328.437-.386.735l-.024.153V16h-2.182V9.508h2.182v1.056l.124-.18c.217-.288.48-.512.79-.672.372-.192.799-.288 1.281-.288zm35.314 0v1.956l-.138-.009-.193-.003c-.515 0-.932.118-1.251.354-.28.207-.455.479-.527.817l-.025.149V16h-2.183V9.508h2.183v1.08l.12-.18c.21-.29.466-.517.769-.684.303-.167.642-.264 1.016-.292l.229-.008zm-51.757-1.836l.272.005c.533.021 1.004.106 1.414.253.478.172.848.418 1.11.738.261.32.392.696.392 1.128 0 .44-.133.824-.398 1.152-.266.328-.628.552-1.086.672.548.104.98.348 1.294.732.315.384.472.848.472 1.392 0 .472-.135.886-.405 1.242s-.653.628-1.152.816c-.428.161-.918.253-1.472.276l-.282.006H196V7.588h4.083zm126.913 1.92V16h-2.17V9.508h2.17zM237.97 7.096V16h-2.183V7.096h2.183zM151.06 13.24h-1.3l-.136.004c-.522.032-.784.254-.784.668 0 .224.08.402.24.534.159.132.378.198.656.198.327 0 .613-.078.858-.234.204-.13.346-.292.426-.486l.04-.12v-.564zm15.78 0h-1.3l-.135.004c-.523.032-.784.254-.784.668 0 .224.08.402.24.534.159.132.377.198.655.198.327 0 .613-.078.859-.234.204-.13.346-.292.425-.486l.04-.12v-.564zm65.27 0h-1.3l-.136.004c-.523.032-.784.254-.784.668 0 .224.08.402.24.534.159.132.377.198.655.198.327 0 .613-.078.859-.234.204-.13.346-.292.425-.486l.04-.12v-.564zm89.097 0h-1.3l-.136.004c-.522.032-.783.254-.783.668 0 .224.08.402.239.534.16.132.378.198.656.198.327 0 .613-.078.858-.234.204-.13.346-.292.426-.486l.04-.12v-.564zm-112.677 0h-1.3l-.135.004c-.523.032-.784.254-.784.668 0 .224.08.402.24.534.158.132.377.198.655.198.327 0 .613-.078.858-.234.205-.13.347-.292.426-.486l.04-.12v-.564zm-66.556-2.076c-.425 0-.77.15-1.036.45-.266.3-.399.69-.399 1.17s.133.87.399 1.17c.265.3.61.45 1.036.45.425 0 .768-.15 1.03-.45.261-.3.392-.69.392-1.17 0-.488-.13-.88-.392-1.176-.262-.296-.605-.444-1.03-.444zm31.574 0c-.425 0-.77.15-1.036.45-.266.3-.399.69-.399 1.17s.133.87.399 1.17c.265.3.61.45 1.036.45.425 0 .768-.15 1.03-.45.261-.3.392-.69.392-1.17 0-.488-.13-.88-.392-1.176-.262-.296-.605-.444-1.03-.444zm69.23 0c-.426 0-.77.148-1.03.444-.262.296-.393.684-.393 1.164 0 .488.13.88.392 1.176.262.296.605.444 1.03.444.433 0 .78-.148 1.042-.444.262-.296.393-.688.393-1.176 0-.48-.133-.868-.399-1.164-.265-.296-.61-.444-1.036-.444zm-84.447-.048c-.417 0-.756.15-1.018.45-.261.3-.392.69-.392 1.17s.13.868.392 1.164c.262.296.601.444 1.018.444.425 0 .77-.148 1.036-.444.266-.296.399-.684.399-1.164 0-.48-.133-.87-.399-1.17-.266-.3-.61-.45-1.036-.45zm41.628 1.416h-1.716v1.764h1.716c.393 0 .703-.08.932-.24.23-.16.344-.384.344-.672 0-.264-.115-.474-.344-.63-.19-.13-.438-.203-.742-.22l-.19-.002zm23.298-1.488c-.4 0-.726.142-.975.426-.25.284-.374.65-.374 1.098 0 .448.124.812.374 1.092s.574.42.975.42c.4 0 .723-.14.968-.42.246-.28.368-.644.368-1.092 0-.456-.122-.824-.368-1.104-.245-.28-.568-.42-.968-.42zm-118.4-1.212l-1.2 3h2.378l-1.177-3zm29.564 1.104c-.344 0-.632.112-.865.336-.194.187-.333.429-.416.727l-.044.185h2.55c0-.376-.111-.678-.336-.906-.225-.228-.521-.342-.89-.342zm121.305 0c-.344 0-.632.112-.865.336-.194.187-.333.429-.416.727l-.044.185h2.55c0-.376-.112-.678-.336-.906-.225-.228-.522-.342-.89-.342zm40.737 0c-.343 0-.632.112-.864.336-.195.187-.333.429-.417.727l-.043.185h2.55c0-.376-.112-.678-.337-.906-.225-.228-.521-.342-.889-.342zm-96.504-1.632h-1.716v1.632h1.716c.311 0 .556-.074.736-.222.18-.148.27-.354.27-.618 0-.256-.09-.454-.27-.594-.15-.117-.345-.182-.586-.196l-.15-.002zM325.891 6.52c.335 0 .611.106.828.318.216.212.325.486.325.822 0 .328-.109.6-.325.816-.217.216-.493.324-.828.324-.335 0-.611-.108-.828-.324-.216-.216-.325-.488-.325-.816 0-.336.109-.61.325-.822.217-.212.493-.318.828-.318z"/>
        <path fill="#FAE5E5" d="M193.121 70.066l-.424-2.298-6.02-1.456c-.088-1.533.55-1.651 1.138-2.926-.905-1.629-.638-1.652-2.727-1.046.517-2.281.876-1.082-.19-3.224-3.94.747-5.56 3.952-9.68 1.04-2.527.994-2.205 1.37-3.84 2.827-1.83 1.628-3.08 1.305-5.169 2.106-3.12 4.808-4.015 5.293-11.116 6.75.547 2.223.977 1.587 3.267 2.755-1.725 2.631 3.007 3.413-6.175 3.924-3.096.172-4.354-.686-5.734-.68-5.172.017-6.229 2.948-10.12-1.937.418-1.25.351-1.497.372-2.965.016-1.057.268-3.79-1.112-3.764l-3.36.726c-.782 1.357-1.075 3.86-.767 5.704.598 3.583.586 2.096.142 6.05-1.28-1.106-2.46-.625-4.136-.416-2.58.32-2.677-1.415-3.058-.91l-2.952.422c-.68-.935-.35-.54-2.064-.782l-2.826-.13-1.467-1.838c-3.603.377-5.572-.208-6.117-2.655l-.236-.597c-.664-.215-1.209-.322-1.794-.543-1.979-.75-5.486-1.632-7.003.35-2.233-1.497-2.9-2.656-6.34-2.475-1.696-3.094-2.02-1.05-3.976-1.936-.922-.417-2.77-1.724-3.876-2.432-1.035-.662-3.641-2.53-4.057-2.688-1.19-.45-.826.801-3.17-2.102 1.084-2.388 1.629-2.75 2.08-6.212.49-.848 3.475-2.417 4.06-3.816-6.083-2.978-1.338.642-6.123-3.913-.703-.668-.654-.689-1.366-1.572-2.872-.131-2.422.424-5.09-2.673-1.072.212-.915.204-2.005.463-.3-1.734.092-3.325-.178-4.575-.169-.778-3.555-4.636-1.451-5.662 1.754-.856.91.272 2.168 1.641 2.237 0 2.969-.7 4.337-1.838-.532-2.01-.92-.847-.993-4.15l-2.256-.51c-1.907-4.48.689.352-.748-5.518l3.181-.794 2.491-3.675c.081-.063.183-.164.265-.226.084-.064.199-.154.285-.217 1.949-1.415 1.996-2.538 3.151-6.377-1.686-1.049-.71.062-2.022-.789-.315-.204-.63-.811-1.515-1.434-.902-.636-.96-.469-1.78-1.1-.732-.564-.679-.628-1.464-1.21-2.89.07-4.875.608-6.574 1.95-3.124 2.465-1.113 1.576-4.91 1.847l-8.674-2.873c-4.568-2.214.86-7.508-5.61-6.952l-.624-1.86C45.85.64 45.185.832 44.39.678c-3.213-.62.083-1.362-3.744.528-1.705.842-1.352.007-3.359 1.035-.103.054-.185.167-.288.22-1.782.907-1.77.458-4.454.398-1.604 3.05-1.242 2.44-4.026 4.077l.35 2.847c6.244-.66 1.82 2.185 7.87 2.584-.455 1.832-.09 1.527-.055 2.177l2.026.74c-.357 2.288-.528 2.405-2.986 4.463l-1.092.921c-.045-.088-.191.175-.316.264l1.606 10.415c5.787 2.335 3.16 3.244 6.393 1.91l.552 2.954 2.76-.312c.756.785 1.363 1.157 1.928 2.151-3.054 1.653-5.914.952-5.7 7.64.06 1.829 1.166-1.155-.607 2.918-1.142.7-.52.307-.883 1.089-1.261 1.122-.832 1.073-2.58 1.7l-.147 2.636-3.24 1.093c-.351 1.25-.732 3.711-1.598 4.714-2.306 2.672-7.288 5.804-8.523 10.272-5.669-.01-6.903 4.003-8.738-.703-2.742.8-6.87 5.91-6.8 9.116 2.002 1.783 2.551.399 4.62 2.562l-1.145 2.94L13.6 86.31l2.488-.196c.118 3.202 1.352 4.885 2.78 6.878l-1.417 3.723c-2.201-.144-.914-.366-3.027-.952-3.094 1.067-.77 1.374-4.362 1.026-1.957-.19-3.94-.115-5.902-.038l-.677 1.777-2.625.337L0 101.307c2.318-.283.004.116 1.346-1.061.93-.815.067-.449 1.777-.498l-1.374 2.45c1.72 1.446 1.143 1.35 2.375 2.747 4.07 4.615 7.215.699 10.958.355-.819 1.667-1.267 3.094-3.105 3.878-1.433.611-3.632 1.142-5.374 1.393-.777-1.226.689-.663-1.376-.854.785 3.264 8.923 10.534 11.674 11.94l8.529-3.158c.563-2.123 1.287-7.206 3.036-7.897.948.07.824-.197.587.642l-.4.802c.934 2.578 1.703 2.28 1.015 5.724.478.626.011.054.623.748 1.862 2.113-.785 4.616-.626 8.314l1.344 6.214.417.363c-.62 1.998 1.528 13.923 2.15 16.692.413 1.835 4.233 9.005 5.572 10.812 2.871 3.871.922 3.346 2.73 6.402 3.423 5.787-1.437 2.727 5.544 13.646 3.368 5.267 1.821 2.515 4.343 8.64.615 1.495 1.68 3.413 1.85 4.983.741 6.877 1.817 5.552 7.071 11.416 7.747-.76 1.058-6.736 10.6-7.721-.785-3.77.166-1.51 1.602-5.26l.454-1.082c.026-.195.144-.226.21-.516l3.37-.107c.537-4.108-1.586-8.299.458-12.117 1.57-2.93 1.619-.355 2.442-4.75.563-3.004.361-2.678-1.143-4.678l.558-1.13c.347-2.314-.525-5.01-.763-7.441-.407-4.178.802-2.604 1.469-6.242l4.464-.344c1.192-2.74 1.96-3.003 5.441-3.66 1.949-.367.627.09 1.763-.75 2.012-1.485 1.832-3.505 2.366-4.219 1.09-1.456 4.862-2.556 5.952-3.907 4.063-5.037 3.717-2.257 10.003-9.31 1.307-1.465 2.362-3.947 3.705-5.486 2.362.69.058.28 1.75.766 1.96.562 3.644-.632 4.606-1.975l.218-.19.218-.682 3.781-3.612-.84-4.241c2.902-1.087 5.397-2.933 8.1-4.352l1.027-.048.077 1.488c4.822 1.594 1.807-.23 5.588.115l-.182-2.505.274-.88c-.526-.688-.29.203-.697-1.449-.014-.055-.173-1.424-.189-1.557-.21-1.772-.19-1.987.017-3.745l-1.483-2.48-1.046-.227c-.164-3.825.753-1.387.994-5.17-1.732-.871-2.835-.93-4.567-2.444.31-.956-.13-.307.375-1.207.43-.767.226-.405.709-.791 3.316-2.654 1.48-1.778 4.722-2.504-1.218-2.018-1.788-2.924-5.396-3.8.196-2.145.992-2.615 2.153-3.801l-.129-.954c.441-.75-1.004-1.898 3.41.914 7.08 4.511 2.379 1.068 5.481 1.806.265.442.198-.454.538 1.098.132.595.083.83.063 1.412-.027.778-.204 1.567-.272 2.405 4.234 3.844 12.712-.644 17.585 2.862-.567 1.669-2.748 4.73-3.917 5.644l-3.38.978c-.842 1.264-.312.636-.817 1.734-.103.225-.3.508-.501.886.58 1.72.154.734.945 1.678l-.06.662.689 1.212.887.02c.538 1.988.105.562.812 1.1 1.553-1.33 1.807-2.18 2.076-4.73l2.074.007c.151 4.665 1.982 6.771 2.09 11.524 1.609-.623.774-.266 2.575.331l1.452-1.884c.676-2.134-1.578-3.93.74-5.591 1.277-.914.514-5.456.34-6.932l5.273 1.346c1.352-2.885 2.648-5.202 3.908-8.461-.56-1.205-.703-.823-.905-2.386 3.668-4.098 3.525-1.808 3.395-9.11 5.258-.67 3.099-4.162 10.705-5.103 1.484 1.28.47.779 2.215 1.306l-1.203-3.282c1.17-.949 2.27-1.603 3.206-2.415"/>
        <path fill="#D84E55" fill-rule="nonzero" d="M58.243 182c2.257 0 4.087 1.838 4.087 4.105 0 .643-.37 1.664-1.108 3.065l-.276.51-.307.542-.165.282-.353.589-.188.306-.399.636-.21.33-.22.338c-.303.465-.934.602-1.41.306-.126-.079-.233-.183-.313-.306l-.218-.338-.415-.652-.195-.314-.368-.604c-.06-.098-.117-.195-.173-.29l-.322-.558-.292-.526c-.828-1.53-1.242-2.635-1.242-3.316 0-2.267 1.83-4.105 4.087-4.105zm0 2.667c-.752 0-1.362.597-1.362 1.333s.61 1.333 1.362 1.333c.752 0 1.362-.597 1.362-1.333s-.61-1.333-1.362-1.333zM75.613 165c2.258 0 4.088 1.838 4.088 4.105 0 .643-.37 1.664-1.108 3.065l-.277.51-.306.542-.165.282-.353.589-.188.306-.399.636-.211.33-.219.338c-.303.465-.935.602-1.41.306-.126-.079-.233-.183-.313-.306l-.219-.338-.414-.652c-.066-.106-.132-.21-.195-.314l-.369-.604-.172-.29-.322-.558-.292-.526c-.828-1.53-1.243-2.635-1.243-3.316 0-2.267 1.83-4.105 4.088-4.105zm-25.544-4c2.257 0 4.087 1.838 4.087 4.105 0 .643-.37 1.664-1.109 3.065l-.276.51-.307.542c-.053.093-.108.187-.165.282l-.352.589-.188.306-.4.636c-.068.109-.139.219-.21.33l-.219.338c-.303.465-.935.602-1.41.306-.126-.079-.233-.183-.313-.306l-.219-.338-.414-.652-.196-.314-.368-.604-.172-.29-.323-.558-.291-.526c-.828-1.53-1.243-2.635-1.243-3.316 0-2.267 1.83-4.105 4.088-4.105zm25.545 6.667c-.753 0-1.363.597-1.363 1.333s.61 1.333 1.363 1.333c.752 0 1.362-.597 1.362-1.333s-.61-1.333-1.362-1.333zm-25.545-4c-.753 0-1.363.597-1.363 1.333s.61 1.333 1.363 1.333c.752 0 1.362-.597 1.362-1.333s-.61-1.333-1.362-1.333zM59.265 148c2.257 0 4.087 1.838 4.087 4.105 0 .643-.37 1.664-1.108 3.065l-.277.51-.306.542-.165.282-.353.589-.188.306-.399.636-.21.33-.22.338c-.303.465-.934.602-1.41.306-.126-.079-.233-.183-.313-.306l-.219-.338-.414-.652-.195-.314-.369-.604-.172-.29-.322-.558-.292-.526c-.828-1.53-1.242-2.635-1.242-3.316 0-2.267 1.83-4.105 4.087-4.105zm0 2.667c-.753 0-1.363.597-1.363 1.333s.61 1.333 1.363 1.333c.752 0 1.362-.597 1.362-1.333s-.61-1.333-1.362-1.333zM35.763 142c2.258 0 4.087 1.838 4.087 4.105 0 .643-.369 1.664-1.108 3.065l-.276.51-.307.542-.165.282-.353.589-.188.306-.398.636-.211.33-.219.338c-.303.465-.935.602-1.41.306-.127-.079-.233-.183-.313-.306l-.22-.338-.413-.652-.196-.314-.368-.604-.173-.29-.322-.558-.291-.526c-.829-1.53-1.243-2.635-1.243-3.316 0-2.267 1.83-4.105 4.087-4.105zm0 2.667c-.752 0-1.362.597-1.362 1.333s.61 1.333 1.362 1.333c.753 0 1.363-.597 1.363-1.333s-.61-1.333-1.363-1.333zM68.461 133c2.257 0 4.087 1.838 4.087 4.105 0 .643-.37 1.664-1.108 3.065l-.276.51-.307.542-.165.282-.353.589-.188.306-.399.636-.21.33-.22.338c-.302.465-.934.602-1.41.306-.126-.079-.233-.183-.313-.306l-.218-.338-.414-.652-.196-.314-.368-.604c-.06-.098-.117-.195-.173-.29l-.322-.558-.292-.526c-.828-1.53-1.242-2.635-1.242-3.316 0-2.267 1.83-4.105 4.087-4.105zm0 2.667c-.752 0-1.362.597-1.362 1.333s.61 1.333 1.362 1.333c.752 0 1.362-.597 1.362-1.333s-.61-1.333-1.362-1.333zM42.916 122c2.257 0 4.087 1.838 4.087 4.105 0 .643-.37 1.664-1.108 3.065l-.276.51-.307.542-.165.282-.353.589-.188.306-.399.636-.21.33-.22.338c-.303.465-.934.602-1.41.306-.126-.079-.233-.183-.313-.306l-.218-.338-.415-.652-.195-.314-.368-.604c-.06-.098-.117-.195-.173-.29l-.322-.558-.292-.526c-.828-1.53-1.242-2.635-1.242-3.316 0-2.267 1.83-4.105 4.087-4.105zm0 2.667c-.753 0-1.363.597-1.363 1.333s.61 1.333 1.363 1.333c.752 0 1.362-.597 1.362-1.333s-.61-1.333-1.362-1.333zM32.698 116c2.257 0 4.087 1.838 4.087 4.105 0 .643-.37 1.664-1.108 3.065l-.277.51-.306.542-.165.282-.353.589-.188.306-.399.636-.21.33-.22.338c-.303.465-.934.602-1.41.306-.126-.079-.233-.183-.313-.306l-.218-.338-.415-.652-.195-.314-.369-.604-.172-.29-.322-.558-.292-.526c-.828-1.53-1.242-2.635-1.242-3.316 0-2.267 1.83-4.105 4.087-4.105zm0 2.667c-.753 0-1.363.597-1.363 1.333s.61 1.333 1.363 1.333c.752 0 1.362-.597 1.362-1.333s-.61-1.333-1.362-1.333zM131.813 97c2.257 0 4.087 1.838 4.087 4.105 0 .643-.37 1.664-1.108 3.065l-.276.51-.307.542-.165.282-.353.589-.188.306-.399.636-.21.33-.22.338c-.302.465-.934.602-1.41.306-.126-.079-.232-.183-.313-.306l-.218-.338-.414-.652-.196-.314-.368-.604c-.06-.098-.117-.195-.173-.29l-.322-.558-.291-.526c-.829-1.53-1.243-2.635-1.243-3.316 0-2.267 1.83-4.105 4.087-4.105zm0 2.667c-.752 0-1.362.597-1.362 1.333s.61 1.333 1.362 1.333c.753 0 1.362-.597 1.362-1.333s-.61-1.333-1.362-1.333zM30.654 90c2.258 0 4.087 1.838 4.087 4.105 0 .643-.369 1.664-1.108 3.065l-.276.51-.307.542-.165.282-.353.589-.188.306-.399.636-.21.33-.22.338c-.302.465-.934.602-1.41.306-.126-.079-.232-.183-.312-.306l-.22-.338-.413-.652-.196-.314-.368-.604-.173-.29-.322-.558-.291-.526c-.829-1.53-1.243-2.635-1.243-3.316 0-2.267 1.83-4.105 4.087-4.105zm30.654-2c2.258 0 4.088 1.838 4.088 4.105 0 .643-.37 1.664-1.109 3.065l-.276.51-.307.542c-.053.093-.108.187-.165.282l-.353.589-.187.306-.4.636c-.068.109-.139.219-.21.33l-.219.338c-.303.465-.935.602-1.41.306-.126-.079-.233-.183-.313-.306l-.219-.338-.414-.652-.196-.314-.368-.604-.173-.29-.322-.558-.291-.526c-.829-1.53-1.243-2.635-1.243-3.316 0-2.267 1.83-4.105 4.087-4.105zm-30.654 4.667c-.752 0-1.362.597-1.362 1.333s.61 1.333 1.362 1.333c.753 0 1.363-.597 1.363-1.333s-.61-1.333-1.363-1.333zm30.654-2c-.752 0-1.362.597-1.362 1.333s.61 1.333 1.362 1.333c.753 0 1.363-.597 1.363-1.333s-.61-1.333-1.363-1.333zM47.003 79c2.257 0 4.087 1.838 4.087 4.105 0 .643-.37 1.664-1.108 3.065l-.276.51-.307.542-.165.282-.353.589-.188.306-.399.636-.21.33-.22.338c-.302.465-.934.602-1.41.306-.126-.079-.232-.183-.313-.306l-.218-.338-.414-.652-.196-.314-.368-.604-.173-.29-.322-.558-.291-.526c-.829-1.53-1.243-2.635-1.243-3.316 0-2.267 1.83-4.105 4.087-4.105zm105.246-5c2.258 0 4.087 1.838 4.087 4.105 0 .643-.369 1.664-1.108 3.065l-.276.51-.307.542-.165.282-.353.589-.188.306-.399.636-.21.33-.219.338c-.303.465-.935.602-1.41.306-.127-.079-.233-.183-.313-.306l-.22-.338-.413-.652-.196-.314-.368-.604-.173-.29-.322-.558-.291-.526c-.829-1.53-1.243-2.635-1.243-3.316 0-2.267 1.83-4.105 4.087-4.105zM47.003 81.667c-.752 0-1.362.597-1.362 1.333s.61 1.333 1.362 1.333c.753 0 1.363-.597 1.363-1.333s-.61-1.333-1.363-1.333zm105.246-5c-.752 0-1.362.597-1.362 1.333s.61 1.333 1.362 1.333c.753 0 1.363-.597 1.363-1.333s-.61-1.333-1.363-1.333zM66.417 65c2.258 0 4.088 1.838 4.088 4.105 0 .643-.37 1.664-1.109 3.065l-.276.51-.307.542c-.053.093-.108.187-.165.282l-.352.589-.188.306-.4.636c-.068.109-.139.219-.21.33l-.219.338c-.303.465-.935.602-1.41.306-.126-.079-.233-.183-.313-.306l-.219-.338-.414-.652-.196-.314-.368-.604-.172-.29-.323-.558-.291-.526c-.829-1.53-1.243-2.635-1.243-3.316 0-2.267 1.83-4.105 4.087-4.105zm0 2.667c-.752 0-1.362.597-1.362 1.333s.61 1.333 1.362 1.333c.753 0 1.363-.597 1.363-1.333s-.61-1.333-1.363-1.333zM42.916 59c2.257 0 4.087 1.838 4.087 4.105 0 .643-.37 1.664-1.108 3.065l-.276.51-.307.542-.165.282-.353.589-.188.306-.399.636-.21.33-.22.338c-.303.465-.934.602-1.41.306-.126-.079-.233-.183-.313-.306l-.218-.338-.415-.652-.195-.314-.368-.604c-.06-.098-.117-.195-.173-.29l-.322-.558-.292-.526c-.828-1.53-1.242-2.635-1.242-3.316 0-2.267 1.83-4.105 4.087-4.105zm0 2.667c-.753 0-1.363.597-1.363 1.333s.61 1.333 1.363 1.333c.752 0 1.362-.597 1.362-1.333s-.61-1.333-1.362-1.333zM57.22 47c2.257 0 4.087 1.838 4.087 4.105 0 .643-.37 1.664-1.108 3.065l-.276.51-.307.542-.165.282-.353.589-.188.306-.399.636-.21.33-.22.338c-.302.465-.934.602-1.41.306-.126-.079-.232-.183-.313-.306l-.218-.338-.414-.652-.196-.314-.368-.604-.173-.29-.322-.558-.291-.526c-.829-1.53-1.243-2.635-1.243-3.316 0-2.267 1.83-4.105 4.087-4.105zm0 2.667c-.752 0-1.362.597-1.362 1.333s.61 1.333 1.362 1.333c.753 0 1.363-.597 1.363-1.333s-.61-1.333-1.363-1.333z"/>
    </g>
</svg>
