<svg xmlns="http://www.w3.org/2000/svg" width="64" height="64" viewBox="0 0 64 64">
    <defs>
        <linearGradient id="1h7h982rqa" x1="-25.962%" x2="74.101%" y1="50.133%" y2="50.133%">
            <stop offset="12%" stop-color="#D54D60"/>
            <stop offset="14%" stop-color="#DA616F"/>
            <stop offset="19%" stop-color="#E07D85"/>
            <stop offset="25%" stop-color="#E69497"/>
            <stop offset="32%" stop-color="#EAA5A5"/>
            <stop offset="39%" stop-color="#EDB2AF"/>
            <stop offset="50%" stop-color="#EFB9B4"/>
            <stop offset="75%" stop-color="#EFBBB6"/>
        </linearGradient>
        <linearGradient id="q0wintpvbb" x1="57.4%" x2="41.384%" y1="-26.061%" y2="147.89%">
            <stop offset="20%" stop-color="#D54D60"/>
            <stop offset="23%" stop-color="#DA616F"/>
            <stop offset="27%" stop-color="#E07D85"/>
            <stop offset="32%" stop-color="#E69497"/>
            <stop offset="38%" stop-color="#EAA5A5"/>
            <stop offset="44%" stop-color="#EDB2AF"/>
            <stop offset="53%" stop-color="#EFB9B4"/>
            <stop offset="75%" stop-color="#EFBBB6"/>
        </linearGradient>
        <linearGradient id="f3oj30wmxc" x1="41.52%" x2="63.508%" y1="151.797%" y2="-46.195%">
            <stop offset="0%" stop-color="#D54D60"/>
            <stop offset="39.679%" stop-color="#EFB9B4"/>
            <stop offset="100%" stop-color="#EFBBB6"/>
        </linearGradient>
    </defs>
    <g fill="none" fill-rule="evenodd">
        <path fill="#347ABA" d="M40.16 3.66h17c1.26 0 2.28 1.02 2.28 2.28v7.22c0 1.26-1.02 2.28-2.28 2.28h-1.04v1.82c-.022.226-.175.419-.39.492-.216.073-.454.014-.61-.152l-1.53-2.16H40.16c-1.26 0-2.28-1.02-2.28-2.28V5.94c0-1.26 1.02-2.28 2.28-2.28z" transform="translate(0 5)"/>
        <g fill="#FFF" fill-rule="nonzero" opacity=".4" transform="translate(0 5) translate(39 5)">
            <rect width="10.25" height="1" x="8.25" y=".61" rx=".3" transform="rotate(180 13.375 1.1)"/>
            <rect width="6.83" height="1" x=".84" y=".61" rx=".3" transform="rotate(-180 4.255 1.1)"/>
            <rect width="17.66" height="1" x=".84" y="2.78" rx=".3" transform="rotate(180 9.67 3.27)"/>
            <rect width="12.36" height="1" x="6.14" y="7.1" rx=".3" transform="rotate(180 12.32 7.59)"/>
            <rect width="10.25" height="1" x=".84" y="4.92" rx=".3"/>
            <rect width="6.83" height="1" x="11.67" y="4.92" rx=".3"/>
        </g>
        <path fill="#1F335B" fill-rule="nonzero" d="M12.37 16.93c.313-.003.618-.104.87-.29.628-.472.766-1.36.31-2l-.11-.15c-.68-.97-2.44-3.42-1.94-4.49.293-.366.657-.669 1.07-.89.68-.392 1.283-.903 1.78-1.51.354-.49.634-1.029.83-1.6.085-.243.185-.48.3-.71.657-1.105 1.972-1.633 3.21-1.29.613.138 1.212.332 1.79.58 1.47.761 3.15 1.014 4.78.72.68-.191 1.31-.533 1.84-1 .172-.155.356-.295.55-.42.372-.21.792-.32 1.22-.32.894-.007 1.695.55 2 1.39.42 1.12 0 2-.66 3.48-.25.55-.52 1.11-.74 1.73-.179.491-.082 1.04.254 1.44.337.401.86.592 1.375.5.515-.09.942-.449 1.121-.94.17-.49.4-1 .63-1.47.76-1.59 1.62-3.41.77-5.74C32.938 1.97 31.094.625 29 .58c-.967-.013-1.92.232-2.76.71-.354.199-.688.43-1 .69-.212.21-.463.377-.74.49-1.04.09-2.082-.125-3-.62-.745-.318-1.519-.566-2.31-.74-2.515-.593-5.117.565-6.36 2.83-.158.325-.298.66-.42 1-.106.326-.25.638-.43.93-.29.322-.627.599-1 .82-.846.477-1.552 1.166-2.05 2-1.43 2.65.9 5.82 2.15 7.52l.11.15c.282.365.72.576 1.18.57z" transform="translate(0 5)"/>
        <path fill="#347ABA" fill-rule="nonzero" d="M30.1 15.48c1.79 1.85.16 6.35-2.7 5.7-3.07-.7-2.6-5.49.17-6.27.883-.311 1.866-.09 2.53.57z" transform="translate(0 5)"/>
        <path fill="#1F335B" fill-rule="nonzero" d="M15.86 21.42c.656.682 1.491 1.164 2.41 1.39 1.79.41 3.47-.38 5-1.28 1.53-.9 3.19-2 4.69-3.06 1.138-.728 2.11-1.69 2.85-2.82.686-1.412.917-3.002.66-4.55.034-1.026.237-2.04.6-3 .41-1.94 0-4.23-1.82-5.34-.88-.506-1.956-.532-2.86-.07-.718.38-1.46.714-2.22 1-1.66.47-3.46-.18-5.09-.51-1.186-.315-2.434-.315-3.62 0-1.15.47-2.084 1.35-2.62 2.47-.685.877-1.434 1.702-2.24 2.47-.98 1.082-1.356 2.583-1 4 .63 2.047 1.557 3.99 2.75 5.77.667 1.289 1.512 2.477 2.51 3.53z" transform="translate(0 5)"/>
        <path fill="#D84E55" fill-rule="nonzero" d="M29.17 41.44c-2.15-3.31-3.48-7.37-1.62-11.11.142-.402.437-.732.82-.92.954-.218 1.956-.053 2.79.46 2.61 1.53 4.2 4.41 5.67 7 1.47 2.59 2.84 5.43 4.37 8.08.666 1.052 1.197 2.185 1.58 3.37.319 1.071.29 2.216-.08 3.27-1.71 4.43-6.43-1-7.87-2.64-2.062-2.366-3.953-4.876-5.66-7.51z" transform="translate(0 5)"/>
        <path fill="#D84E55" fill-rule="nonzero" d="M9 41.22c1.096 3.821 1.767 7.752 2 11.72.05.82.08 4.29.39 6.06h22.17c.15-1.47.16-4.42.16-4.87 0-5.69.8-11.4.18-17.1-.206-1.958-.619-3.889-1.23-5.76-.56-1.7-1.82-2.25-3.59-3.08-1.33-.652-2.728-1.152-4.17-1.49-2.399-.395-4.848-.375-7.24.06-2.188.476-4.325 1.162-6.38 2.05-1.132.334-2.179.907-3.07 1.68-1.61 1.69-1.22 4.23-.53 6.72.43 1.49.98 2.92 1.31 4.01z" transform="translate(0 5)"/>
        <path fill="#BB3A45" fill-rule="nonzero" d="M16.42 30c-.883-1.195-.858-2.832.06-4 .55-.478 1.276-.703 2-.62 1.365-.021 2.728.12 4.06.42 1.301.119 2.462.865 3.11 2 .38.92.28 1.97-.27 2.8-.509.773-1.297 1.317-2.2 1.52-1.513.362-3.1.268-4.56-.27-.91-.37-1.68-1.017-2.2-1.85zM28.93 52.48c-2.93-2.3-6.78-2.79-10.23-3.91-1.99-.496-3.867-1.368-5.53-2.57-1.57-1.28-2.2-4.21-2.95-6-.179-.607-.525-1.151-1-1.57-.086-.069-.19-.11-.3-.12-.34 0-.52.42-.61 1 .23.72.45 1.39.61 2 1.067 3.825 1.718 7.755 1.94 11.72.05.82.08 4.29.38 6.06h20.29c-.25-.63-.8-4.91-1.2-5.28-.4-.37-.91-.94-1.4-1.33z" transform="translate(0 5)"/>
        <path fill="#172842" fill-rule="nonzero" d="M18.46 21.37c.23.25.504.453.81.6.805.361 1.717.4 2.55.11.828-.283 1.605-.698 2.3-1.23 1.93-1.37 4.32-3.17 5.47-5.27.862-1.235 1.071-2.813.56-4.23-.598-1.234-1.787-2.076-3.15-2.23-.108-.03-.222-.03-.33 0-.108.068-.195.165-.25.28-.417.842-.891 1.654-1.42 2.43-.658.772-1.447 1.422-2.33 1.92-1.41.86-3 1.5-4.3 2.48-1 .71-1 2.31-.75 3.42.12.638.41 1.232.84 1.72z" transform="translate(0 5)"/>
        <path fill="#D84E55" fill-rule="nonzero" d="M2 43.05c-.39 1-.69 1.88-1.1 3.1C0 48.63-.93 52.2 2.21 53.4c1.58.61 2.6-.32 3.41-1.63 2.978-4.76 5.515-9.78 7.58-15 .85-2.1 2.34-6.16-.79-7.65-1.045-.344-2.19-.173-3.09.46-.426.241-.8.564-1.1.95-1.846 2.243-3.324 4.764-4.38 7.47-.69 1.71-1.23 3.29-1.84 5.05z" transform="translate(0 5)"/>
        <path fill="url(#1h7h982rqa)" fill-rule="nonzero" d="M23.93 51.47c.67.11 1.41.51 2 .62.516.065 1.04-.03 1.5-.27.48-.19.88-.4 1.29-.57.41-.17.75-.45 1.17-.42 1.028.157 2.035.433 3 .82.208.089.44.11.66.06.1-.027.183-.099.224-.194.04-.096.035-.205-.014-.296.34.23.62.51 1.06.34.078-.042.134-.114.157-.2.023-.084.01-.175-.037-.25.154.127.33.225.52.29.196.033.394-.048.51-.21.047-.095.047-.205 0-.3-.042-.332-.173-.647-.38-.91-1.137-1.23-2.535-2.19-4.09-2.81-.254-.134-.527-.229-.81-.28-.255-.045-.515-.045-.77 0-1.654.307-3.267.8-4.81 1.47-.324.096-.663.13-1 .1-.277-.027-.556.003-.82.09-.255.12-.46.325-.58.58-.238.461-.326.986-.25 1.5.002.398.274.744.66.84H23.93z" transform="translate(0 5)"/>
        <path fill="#D84E55" fill-rule="nonzero" d="M20 47.71h-.93c-1.46-.06-3-.15-4.41-.23-2.88-.16-5.7-.29-8.57-.23-.296-.03-.594-.03-.89 0-1.273.065-2.507.461-3.58 1.15-1.092.77-1.571 2.15-1.19 3.43.33.869 1.087 1.505 2 1.68.869.202 1.768.236 2.65.1 2.89-.24 5.76-.53 8.66-.72 1.44-.09 2.92-.17 4.36-.24 1.44-.07 2.82 0 4.26-.23.612-.037 1.19-.293 1.63-.72.572-.71.858-1.61.8-2.52-.012-.448-.22-.869-.57-1.15-.222-.144-.487-.207-.75-.18-1.24-.06-2.36-.08-3.47-.14z" transform="translate(0 5)"/>
        <path fill="url(#q0wintpvbb)" fill-rule="nonzero" d="M19.27 30.8c-.974-.242-1.762-.955-2.1-1.9-.28-.89.16-1.88.24-2.77.065-.855.065-1.715 0-2.57-.085-.798-.085-1.602 0-2.4.07-.45.31-.37.77-.55.471-.151.966-.212 1.46-.18 1 0 3.65-.07 4.28.82.246.427.358.919.32 1.41 0 .58.12 1.34.22 2.16 0 .37 0 .73.07 1.09.082.403.199.798.35 1.18.288.673.285 1.435-.009 2.105-.293.671-.851 1.19-1.541 1.435-1.297.504-2.725.563-4.06.17z" transform="translate(0 5)"/>
        <path fill="url(#f3oj30wmxc)" fill-rule="nonzero" d="M16 15.38c-.004-1.253.178-2.5.54-3.7.727-2.11 2.493-3.695 4.669-4.19 2.176-.494 4.454.171 6.021 1.76 3.85 3.68 2.38 12.47-1.68 15.57-1.109.826-2.531 1.105-3.87.76-4.03-1.07-5.74-5.97-5.68-10.2z" transform="translate(0 5)"/>
        <path fill="#1F335B" fill-rule="nonzero" d="M19.55 14.62c-.177.477-.311.969-.4 1.47-.186 1.086-.263 2.188-.23 3.29.01.116-.018.232-.08.33-.08.074-.182.12-.29.13-.63.06-1-.5-1.55-.76-.563-.242-1.096-.547-1.59-.91-1.38-1.08-1.06-2.86-1-4.44-.013-.87.091-1.738.31-2.58.297-.904.796-1.728 1.46-2.41 1.916-2 4.616-3.053 7.38-2.88 1.427.084 2.78.66 3.83 1.63.82.83-.19 2-.87 2.51-1.33 1.055-2.806 1.913-4.38 2.55-.7.2-1.354.54-1.92 1-.297.305-.525.67-.67 1.07z" transform="translate(0 5)"/>
        <path fill="#EBA380" fill-rule="nonzero" d="M16.72 15.49c-1.77-1-2.31 1.48-2 2.7.12.504.338.98.64 1.4.42.56 1.62 1.48 2.31.87.263-.326.382-.745.33-1.16 0-1.12-.09-3.15-1.28-3.81z" transform="translate(0 5)"/>
        <path fill="#2C6B99" fill-rule="nonzero" d="M22.46 23.54c.439.001.877-.032 1.31-.1l-.08-.52c-1.553.235-3.141.012-4.57-.64-.35-.158-.685-.35-1-.57-.519-.377-.955-.857-1.28-1.41l-.46.27c.361.618.849 1.153 1.43 1.57.337.245.699.453 1.08.62 1.118.52 2.337.786 3.57.78z" transform="translate(0 5)"/>
        <path fill="#2C6B99" fill-rule="nonzero" d="M25.31 22.49c-.773-.541-1.808-.513-2.55.07-.3.414-.24.988.14 1.33.445.364 1.05.467 1.59.27.72-.16 1.6-1 .82-1.67z" transform="translate(0 5)"/>
        <path fill="#347ABA" fill-rule="nonzero" d="M16 14.8c2.49.64 3.46 5.33.68 6.26-3 1-5.09-3.32-3.13-5.44.592-.72 1.544-1.04 2.45-.82z" transform="translate(0 5)"/>
        <path fill="#2C6B99" fill-rule="nonzero" d="M15.16 15.4c1.72.28 2.78 3.93 1 4.93-1.78 1-3.69-2.17-2.57-4 .261-.622.899-1 1.57-.93z" transform="translate(0 5)"/>
        <path fill="#347ABA" fill-rule="nonzero" d="M14.81 15.13l.67-.08c-.46-3.89-.26-8.87 3.21-10.46 1.784-.95 3.852-1.22 5.82-.76.238-.037.47-.104.69-.2-2.42-1.18-5-.46-6.79.35-3.84 1.76-4.08 7.02-3.6 11.15zM36.49 54.03H23.93c-.492 0-.89-.398-.89-.89v-.12c0-.492.398-.89.89-.89h12.56v1.9z" transform="translate(0 5)"/>
        <path fill="#347ABA" fill-rule="nonzero" d="M34.15 52.38l3.39-18c.105-.465.523-.792 1-.78H61c.308.006.595.154.78.4l1 1.23-.92-.2L58.57 52c-.105.465-.523.792-1 .78H35.1c-.61.03-1.1.22-.95-.4z" transform="translate(0 5)"/>
        <path fill="#1F335B" fill-rule="nonzero" d="M58.64 54H36.13c-.375-.014-.732-.167-1-.43l3.39-17.24c.08-1.19.48-1.52 1-1.52H62c.302-.006.59.125.784.356.194.231.273.538.216.834l-3.4 17.24c-.11.443-.504.755-.96.76z" transform="translate(0 5)"/>
        <path fill="#347ABA" fill-rule="nonzero" d="M51.56 44c-.244 1.188-1.268 2.056-2.48 2.1-.531.02-1.04-.213-1.374-.626-.335-.413-.455-.959-.326-1.474.253-1.184 1.27-2.05 2.48-2.11.532-.016 1.04.218 1.374.633.334.414.455.96.326 1.477z" transform="translate(0 5)"/>
        <path fill="#1F335B" fill-rule="nonzero" d="M21.87 54H63v2.46H21.87c-.68 0-1.23-.55-1.23-1.23 0-.68.55-1.23 1.23-1.23zM25.44 56.49H32.59V59H25.44z" transform="translate(0 5)"/>
    </g>
</svg>
