<svg xmlns="http://www.w3.org/2000/svg" xmlns:xlink="http://www.w3.org/1999/xlink" width="16" height="16" viewBox="0 0 16 16">
    <defs>
        <path id="acbilbioza" d="M13.525 4.248c.078.176.12.371.11.573l-.01.122-.075.527c-.056.398.057.798.31 1.107l.079.09.37.382c.45.466.476 1.191.075 1.686l-.075.085-.37.382c-.28.29-.424.68-.401 1.078l.012.12.074.526c.091.646-.32 1.25-.941 1.411l-.1.022-.524.092c-.396.07-.742.301-.958.636l-.06.103-.25.47c-.304.575-.99.823-1.586.59l-.098-.043-.478-.233c-.36-.176-.777-.192-1.149-.048l-.11.048-.477.233c-.585.286-1.284.084-1.63-.454l-.055-.092-.25-.47c-.11-.21-.273-.383-.466-.512.313-.292.812-.243 1.055.103l.045.073.25.47c.128.243.413.352.668.267l.068-.028.478-.234c.553-.27 1.194-.29 1.759-.058l.129.058.478.234c.247.12.542.042.697-.177l.04-.063.249-.469c.29-.547.8-.94 1.398-1.083l.13-.027.523-.092c.273-.048.466-.288.461-.559l-.005-.068-.075-.526c-.086-.61.093-1.225.489-1.691l.095-.105.369-.382c.19-.197.208-.498.052-.713l-.052-.062-.357-.37c-.465-.48-.684-1.146-.596-1.808.041-.312.177-.602.386-.834l.094-.095.205-.192zm.374-1.851c.141.152.134.39-.019.531L2.573 13.468c-.151.143-.39.135-.532-.018-.142-.152-.134-.39.018-.531l11.307-10.54c.152-.143.39-.135.533.018zm-8.691-.11c.305-.575.99-.822 1.586-.59l.099.042.477.234c.362.177.778.193 1.15.048l.11-.048.477-.234c.585-.285 1.285-.083 1.63.455l.055.093.249.47c.111.21.275.382.46.517-.315.294-.81.233-1.049-.109l-.044-.072-.25-.47c-.129-.244-.413-.353-.668-.268l-.068.028-.478.234c-.553.27-1.193.29-1.76.058l-.128-.058-.478-.234c-.248-.121-.542-.042-.698.177l-.039.063-.249.47c-.29.546-.8.94-1.398 1.083l-.13.027-.523.091c-.273.048-.466.288-.462.559l.006.068.074.526c.086.61-.093 1.225-.488 1.692l-.095.105-.37.382c-.19.196-.207.497-.051.712l.052.062.37.383c.46.476.675 1.139.582 1.795-.041.312-.176.602-.385.834l-.094.096-.205.191c-.079-.175-.12-.37-.11-.573l.01-.122.075-.526c.057-.398-.057-.8-.31-1.108l-.079-.09-.37-.382c-.45-.466-.476-1.19-.075-1.686l.076-.085.37-.382c.279-.289.423-.68.4-1.078l-.012-.119-.074-.527c-.092-.646.32-1.25.941-1.41l.1-.022.524-.093c.395-.069.742-.3.957-.636l.06-.104.25-.47z"/>
    </defs>
    <g fill="none" fill-rule="evenodd">
        <g>
            <g>
                <g transform="translate(-16 -1681) translate(16 1414) translate(0 267)">
                    <path d="M0 0H16V16H0z"/>
                    <use fill="#3E3E52" xlink:href="#acbilbioza"/>
                </g>
            </g>
        </g>
    </g>
</svg>
