<svg width="462" height="160" viewBox="0 0 462 160" fill="none" xmlns="http://www.w3.org/2000/svg">
<g clip-path="url(#clip0)">
<path d="M0 8C0 3.58172 3.58172 0 8 0H454C458.418 0 462 3.58172 462 8V152C462 156.418 458.418 160 454 160H8.00001C3.58173 160 0 156.418 0 152V8Z" fill="url(#paint0_linear)"/>
<g style="mix-blend-mode:multiply" opacity="0.5">
<path fill-rule="evenodd" clip-rule="evenodd" d="M487.776 -21.2328C514.892 -5.48885 536.626 20.73 544.118 51.221C551.417 80.9241 543.248 113.135 527.209 139.253C513.047 162.316 482.987 167.146 462.253 184.534C438.554 204.41 427.804 241.338 397.625 247.929C366.273 254.777 329.932 242.087 308.747 218.062C288.425 195.014 296.621 159.949 293.087 129.374C290.319 105.433 281.544 81.35 290.344 58.8784C298.963 36.8722 321.298 25.2404 339.685 10.3905C359.617 -5.70771 376.972 -25.9526 401.996 -31.2962C430.889 -37.4659 462.275 -36.0386 487.776 -21.2328Z" fill="#465986" fill-opacity="0.43"/>
</g>
<path d="M34.208 26.176L34.184 29.68H26.024V33.424H33.56V36.928H26.024V43H21.632V26.176H34.208ZM40.4821 32.176C40.9301 31.424 41.5061 30.848 42.2101 30.448C42.9301 30.048 43.7461 29.848 44.6581 29.848V33.76C44.5141 33.744 44.2981 33.736 44.0101 33.736C43.0021 33.736 42.1861 33.976 41.5621 34.456C40.9381 34.92 40.5781 35.56 40.4821 36.376V43H36.2101V30.016H40.4821V32.176ZM52.2346 29.872C54.3466 29.872 55.9706 30.496 57.1066 31.744C58.2426 32.992 58.8106 34.704 58.8106 36.88C58.8106 37.216 58.8026 37.472 58.7866 37.648H49.7626C49.9706 38.384 50.3306 38.952 50.8426 39.352C51.3546 39.736 51.9786 39.928 52.7146 39.928C53.2746 39.928 53.8106 39.816 54.3226 39.592C54.8506 39.368 55.3306 39.04 55.7626 38.608L57.9946 40.84C57.3226 41.592 56.5066 42.168 55.5466 42.568C54.6026 42.952 53.5306 43.144 52.3306 43.144C50.9386 43.144 49.7226 42.872 48.6826 42.328C47.6426 41.784 46.8426 41.016 46.2826 40.024C45.7386 39.032 45.4666 37.88 45.4666 36.568C45.4666 35.24 45.7466 34.072 46.3066 33.064C46.8666 32.04 47.6586 31.256 48.6826 30.712C49.7066 30.152 50.8906 29.872 52.2346 29.872ZM54.6586 35.368C54.6586 34.616 54.4346 34.016 53.9866 33.568C53.5546 33.104 52.9786 32.872 52.2586 32.872C51.5866 32.872 51.0186 33.096 50.5546 33.544C50.1066 33.992 49.8106 34.6 49.6666 35.368H54.6586ZM66.6956 29.872C68.8076 29.872 70.4316 30.496 71.5676 31.744C72.7036 32.992 73.2716 34.704 73.2716 36.88C73.2716 37.216 73.2636 37.472 73.2476 37.648H64.2236C64.4316 38.384 64.7916 38.952 65.3036 39.352C65.8156 39.736 66.4396 39.928 67.1756 39.928C67.7356 39.928 68.2716 39.816 68.7836 39.592C69.3116 39.368 69.7916 39.04 70.2236 38.608L72.4556 40.84C71.7836 41.592 70.9676 42.168 70.0076 42.568C69.0636 42.952 67.9916 43.144 66.7916 43.144C65.3996 43.144 64.1836 42.872 63.1436 42.328C62.1036 41.784 61.3036 41.016 60.7436 40.024C60.1996 39.032 59.9276 37.88 59.9276 36.568C59.9276 35.24 60.2076 34.072 60.7676 33.064C61.3276 32.04 62.1196 31.256 63.1436 30.712C64.1676 30.152 65.3516 29.872 66.6956 29.872ZM69.1196 35.368C69.1196 34.616 68.8956 34.016 68.4476 33.568C68.0156 33.104 67.4396 32.872 66.7196 32.872C66.0476 32.872 65.4796 33.096 65.0156 33.544C64.5676 33.992 64.2716 34.6 64.1276 35.368H69.1196ZM92.9328 31.888C92.3888 31.2 91.7408 30.656 90.9888 30.256C90.2368 29.84 89.4928 29.632 88.7568 29.632C87.9088 29.632 87.1328 29.848 86.4288 30.28C85.7408 30.696 85.1968 31.28 84.7968 32.032C84.3968 32.768 84.1968 33.592 84.1968 34.504C84.1968 35.416 84.3968 36.248 84.7968 37C85.1968 37.736 85.7408 38.32 86.4288 38.752C87.1328 39.168 87.9088 39.376 88.7568 39.376C89.4448 39.376 90.1648 39.2 90.9168 38.848C91.6688 38.496 92.3408 38.016 92.9328 37.408L95.5008 40.168C94.5888 41.128 93.5008 41.896 92.2368 42.472C90.9888 43.032 89.7488 43.312 88.5168 43.312C86.8528 43.312 85.3488 42.928 84.0048 42.16C82.6608 41.392 81.6048 40.344 80.8368 39.016C80.0688 37.688 79.6848 36.2 79.6848 34.552C79.6848 32.92 80.0768 31.448 80.8608 30.136C81.6448 28.824 82.7168 27.792 84.0768 27.04C85.4528 26.288 86.9888 25.912 88.6848 25.912C89.9328 25.912 91.1648 26.176 92.3808 26.704C93.5968 27.216 94.6288 27.92 95.4768 28.816L92.9328 31.888ZM103.097 29.848C104.889 29.848 106.281 30.264 107.273 31.096C108.265 31.912 108.769 33.064 108.785 34.552V43H104.585V41.536C103.721 42.64 102.417 43.192 100.673 43.192C99.2974 43.192 98.2094 42.824 97.4094 42.088C96.6254 41.336 96.2334 40.352 96.2334 39.136C96.2334 37.904 96.6574 36.944 97.5054 36.256C98.3694 35.568 99.6014 35.216 101.201 35.2H104.585V35.056C104.585 34.432 104.369 33.952 103.937 33.616C103.521 33.28 102.913 33.112 102.113 33.112C101.569 33.112 100.953 33.2 100.265 33.376C99.5934 33.552 98.9134 33.808 98.2254 34.144L97.0494 31.264C98.1054 30.784 99.1134 30.432 100.073 30.208C101.049 29.968 102.057 29.848 103.097 29.848ZM101.993 40.288C102.633 40.288 103.193 40.136 103.673 39.832C104.153 39.512 104.457 39.104 104.585 38.608V37.48H102.041C100.841 37.48 100.241 37.928 100.241 38.824C100.241 39.272 100.393 39.632 100.697 39.904C101.017 40.16 101.449 40.288 101.993 40.288ZM120.223 29.848C121.647 29.848 122.783 30.296 123.631 31.192C124.495 32.088 124.927 33.296 124.927 34.816V43H120.679V36.04C120.679 35.304 120.479 34.728 120.079 34.312C119.679 33.88 119.143 33.664 118.471 33.664C117.767 33.68 117.183 33.912 116.719 34.36C116.271 34.808 116.007 35.4 115.927 36.136V43H111.655V30.016H115.927V32.128C116.391 31.376 116.983 30.808 117.703 30.424C118.439 30.04 119.279 29.848 120.223 29.848ZM136.203 34.744C135.595 33.848 134.747 33.4 133.659 33.4C132.891 33.4 132.267 33.696 131.787 34.288C131.307 34.864 131.067 35.616 131.067 36.544C131.067 37.488 131.307 38.248 131.787 38.824C132.267 39.4 132.891 39.688 133.659 39.688C134.843 39.688 135.691 39.2 136.203 38.224L139.347 40.024C138.835 41.016 138.067 41.784 137.043 42.328C136.019 42.872 134.819 43.144 133.443 43.144C132.115 43.144 130.947 42.872 129.939 42.328C128.931 41.784 128.147 41.016 127.587 40.024C127.043 39.032 126.771 37.88 126.771 36.568C126.771 35.24 127.051 34.072 127.611 33.064C128.171 32.04 128.955 31.256 129.963 30.712C130.987 30.152 132.163 29.872 133.491 29.872C134.787 29.872 135.939 30.144 136.947 30.688C137.955 31.216 138.739 31.968 139.299 32.944L136.203 34.744ZM146.664 29.872C148.776 29.872 150.4 30.496 151.536 31.744C152.672 32.992 153.24 34.704 153.24 36.88C153.24 37.216 153.232 37.472 153.216 37.648H144.192C144.4 38.384 144.76 38.952 145.272 39.352C145.784 39.736 146.408 39.928 147.144 39.928C147.704 39.928 148.24 39.816 148.752 39.592C149.28 39.368 149.76 39.04 150.192 38.608L152.424 40.84C151.752 41.592 150.936 42.168 149.976 42.568C149.032 42.952 147.96 43.144 146.76 43.144C145.368 43.144 144.152 42.872 143.112 42.328C142.072 41.784 141.272 41.016 140.712 40.024C140.168 39.032 139.896 37.88 139.896 36.568C139.896 35.24 140.176 34.072 140.736 33.064C141.296 32.04 142.088 31.256 143.112 30.712C144.136 30.152 145.32 29.872 146.664 29.872ZM149.088 35.368C149.088 34.616 148.864 34.016 148.416 33.568C147.984 33.104 147.408 32.872 146.688 32.872C146.016 32.872 145.448 33.096 144.984 33.544C144.536 33.992 144.24 34.6 144.096 35.368H149.088ZM159.805 25.192V43H155.533V25.192H159.805ZM167.587 25.192V43H163.315V25.192H167.587ZM176.832 29.848C178.624 29.848 180.016 30.264 181.008 31.096C182 31.912 182.504 33.064 182.52 34.552V43H178.32V41.536C177.456 42.64 176.152 43.192 174.408 43.192C173.032 43.192 171.944 42.824 171.144 42.088C170.36 41.336 169.968 40.352 169.968 39.136C169.968 37.904 170.392 36.944 171.24 36.256C172.104 35.568 173.336 35.216 174.936 35.2H178.32V35.056C178.32 34.432 178.104 33.952 177.672 33.616C177.256 33.28 176.648 33.112 175.848 33.112C175.304 33.112 174.688 33.2 174 33.376C173.328 33.552 172.648 33.808 171.96 34.144L170.784 31.264C171.84 30.784 172.848 30.432 173.808 30.208C174.784 29.968 175.792 29.848 176.832 29.848ZM175.728 40.288C176.368 40.288 176.928 40.136 177.408 39.832C177.888 39.512 178.192 39.104 178.32 38.608V37.48H175.776C174.576 37.48 173.976 37.928 173.976 38.824C173.976 39.272 174.128 39.632 174.432 39.904C174.752 40.16 175.184 40.288 175.728 40.288ZM193.838 42.328C193.358 42.6 192.806 42.816 192.182 42.976C191.558 43.12 190.926 43.192 190.286 43.192C189.006 43.192 187.966 42.824 187.166 42.088C186.382 41.352 185.99 40.336 185.99 39.04V33.472H184.19V30.64H185.99V27.04H190.238V30.64H193.598V33.472H190.238V38.368C190.238 39.28 190.614 39.736 191.366 39.736C191.83 39.736 192.382 39.592 193.022 39.304L193.838 42.328ZM200.114 30.016V43H195.866V30.016H200.114ZM197.954 24.04C198.61 24.04 199.146 24.256 199.562 24.688C199.994 25.104 200.21 25.648 200.21 26.32C200.21 26.976 199.994 27.52 199.562 27.952C199.146 28.384 198.61 28.6 197.954 28.6C197.298 28.6 196.754 28.384 196.322 27.952C195.906 27.52 195.698 26.976 195.698 26.32C195.698 25.648 195.906 25.104 196.322 24.688C196.754 24.256 197.298 24.04 197.954 24.04ZM209.414 29.872C210.822 29.872 212.062 30.152 213.134 30.712C214.206 31.256 215.038 32.032 215.63 33.04C216.222 34.032 216.518 35.184 216.518 36.496C216.518 37.824 216.222 38.992 215.63 40C215.038 40.992 214.206 41.768 213.134 42.328C212.062 42.872 210.822 43.144 209.414 43.144C208.006 43.144 206.766 42.872 205.694 42.328C204.622 41.768 203.79 40.992 203.198 40C202.622 38.992 202.334 37.824 202.334 36.496C202.334 35.184 202.622 34.032 203.198 33.04C203.79 32.032 204.622 31.256 205.694 30.712C206.766 30.152 208.006 29.872 209.414 29.872ZM209.414 33.328C208.582 33.328 207.91 33.624 207.398 34.216C206.886 34.808 206.63 35.584 206.63 36.544C206.63 37.52 206.886 38.304 207.398 38.896C207.91 39.488 208.582 39.784 209.414 39.784C210.262 39.784 210.942 39.488 211.454 38.896C211.966 38.304 212.222 37.52 212.222 36.544C212.222 35.584 211.958 34.808 211.43 34.216C210.918 33.624 210.246 33.328 209.414 33.328ZM227.263 29.848C228.687 29.848 229.823 30.296 230.671 31.192C231.535 32.088 231.967 33.296 231.967 34.816V43H227.719V36.04C227.719 35.304 227.519 34.728 227.119 34.312C226.719 33.88 226.183 33.664 225.511 33.664C224.807 33.68 224.223 33.912 223.759 34.36C223.311 34.808 223.047 35.4 222.967 36.136V43H218.695V30.016H222.967V32.128C223.431 31.376 224.023 30.808 224.743 30.424C225.479 30.04 226.319 29.848 227.263 29.848Z" fill="white"/>
<path d="M28.944 69H27.44V67.208C26.8853 68.4133 25.84 69.0267 24.304 69.048C23.3227 69.048 22.5547 68.76 22 68.184C21.4453 67.5973 21.168 66.792 21.168 65.768V60.536H22.672V65.368C22.672 66.0827 22.864 66.6427 23.248 67.048C23.6427 67.4427 24.1813 67.64 24.864 67.64C25.6533 67.6293 26.2773 67.352 26.736 66.808C27.2053 66.2533 27.44 65.5493 27.44 64.696V60.536H28.944V69ZM36.5506 60.488C37.34 60.488 38.044 60.6693 38.6626 61.032C39.2813 61.3947 39.7613 61.9013 40.1026 62.552C40.444 63.2027 40.6146 63.9493 40.6146 64.792C40.6146 65.624 40.444 66.3653 40.1026 67.016C39.772 67.656 39.2973 68.1573 38.6786 68.52C38.0706 68.872 37.372 69.048 36.5826 69.048C35.868 69.048 35.2386 68.8987 34.6946 68.6C34.1506 68.3013 33.724 67.8747 33.4146 67.32V72.104H31.9266V60.536H33.4146V62.216C33.724 61.6613 34.1453 61.2347 34.6786 60.936C35.2226 60.6373 35.8466 60.488 36.5506 60.488ZM36.2626 67.752C36.8066 67.752 37.292 67.624 37.7186 67.368C38.156 67.112 38.492 66.7547 38.7266 66.296C38.972 65.8373 39.0946 65.32 39.0946 64.744C39.0946 64.1787 38.972 63.6667 38.7266 63.208C38.4813 62.7493 38.1453 62.392 37.7186 62.136C37.292 61.88 36.8066 61.752 36.2626 61.752C35.7186 61.752 35.228 61.88 34.7906 62.136C34.364 62.392 34.028 62.7493 33.7826 63.208C33.5373 63.6667 33.4146 64.1787 33.4146 64.744C33.4146 65.3307 33.5373 65.8533 33.7826 66.312C34.028 66.76 34.364 67.112 34.7906 67.368C35.228 67.624 35.7186 67.752 36.2626 67.752ZM47.2344 68.44C46.5837 68.856 45.9224 69.064 45.2504 69.064C44.5784 69.064 44.0344 68.8667 43.6184 68.472C43.2024 68.0667 42.9944 67.4587 42.9944 66.648V61.96H41.7944V60.824H42.9944V58.552H44.4984V60.824H47.0904V61.96H44.4984V66.376C44.4984 66.8453 44.5837 67.1813 44.7544 67.384C44.925 67.5867 45.181 67.688 45.5224 67.688C45.9277 67.688 46.365 67.5547 46.8344 67.288L47.2344 68.44ZM52.4604 60.488C53.303 60.488 54.0497 60.6693 54.7004 61.032C55.3617 61.3947 55.8737 61.9013 56.2364 62.552C56.6097 63.192 56.7964 63.928 56.7964 64.76C56.7964 65.592 56.6097 66.3333 56.2364 66.984C55.8737 67.6347 55.3617 68.1413 54.7004 68.504C54.0497 68.8667 53.303 69.048 52.4604 69.048C51.607 69.048 50.8497 68.8667 50.1884 68.504C49.5377 68.1413 49.0257 67.64 48.6524 67C48.2897 66.3493 48.1084 65.6027 48.1084 64.76C48.1084 63.928 48.2897 63.192 48.6524 62.552C49.0257 61.9013 49.5377 61.3947 50.1884 61.032C50.8497 60.6693 51.607 60.488 52.4604 60.488ZM52.4604 61.784C51.9057 61.784 51.4097 61.912 50.9724 62.168C50.5457 62.424 50.2097 62.7813 49.9644 63.24C49.7297 63.688 49.6124 64.2 49.6124 64.776C49.6124 65.3627 49.7297 65.8853 49.9644 66.344C50.2097 66.8027 50.5457 67.16 50.9724 67.416C51.4097 67.6613 51.9057 67.784 52.4604 67.784C53.0044 67.784 53.4897 67.6613 53.9164 67.416C54.3537 67.16 54.6897 66.8027 54.9244 66.344C55.1697 65.8853 55.2924 65.3627 55.2924 64.776C55.2924 64.2 55.1697 63.688 54.9244 63.24C54.6897 62.7813 54.3537 62.424 53.9164 62.168C53.4897 61.912 53.0044 61.784 52.4604 61.784ZM70.7614 69H62.2174L62.2014 67.064L66.2814 62.872C66.6014 62.5413 66.8627 62.2107 67.0654 61.88C67.268 61.5493 67.3694 61.2667 67.3694 61.032C67.3694 60.7227 67.2574 60.488 67.0334 60.328C66.8094 60.1573 66.4947 60.072 66.0894 60.072C65.6414 60.072 65.14 60.2 64.5854 60.456C64.0414 60.7013 63.5134 61.048 63.0014 61.496L61.8814 59.336C63.428 58.216 64.98 57.656 66.5374 57.656C67.284 57.656 67.9507 57.7787 68.5374 58.024C69.1347 58.2693 69.5987 58.616 69.9294 59.064C70.2707 59.512 70.4414 60.024 70.4414 60.6C70.4414 61.176 70.2494 61.7733 69.8654 62.392C69.492 63 68.9587 63.6507 68.2654 64.344L65.9774 66.648H70.7614V69ZM80.4809 66.584H79.0409V69H76.3529V66.584H71.2809V64.6L74.4649 57.784H77.2489L74.2569 64.36H76.3529V61.976H79.0409V64.36H80.4809V66.584ZM88.5785 57.784V62.36H93.1065V57.784H96.0345V69H93.1065V64.696H88.5785V69H85.6505V57.784H88.5785ZM102.229 60.248C103.168 60.248 103.994 60.4347 104.709 60.808C105.424 61.1707 105.978 61.688 106.373 62.36C106.768 63.0213 106.965 63.7893 106.965 64.664C106.965 65.5493 106.768 66.328 106.373 67C105.978 67.6613 105.424 68.1787 104.709 68.552C103.994 68.9147 103.168 69.096 102.229 69.096C101.29 69.096 100.464 68.9147 99.749 68.552C99.0343 68.1787 98.4797 67.6613 98.085 67C97.701 66.328 97.509 65.5493 97.509 64.664C97.509 63.7893 97.701 63.0213 98.085 62.36C98.4797 61.688 99.0343 61.1707 99.749 60.808C100.464 60.4347 101.29 60.248 102.229 60.248ZM102.229 62.552C101.674 62.552 101.226 62.7493 100.885 63.144C100.544 63.5387 100.373 64.056 100.373 64.696C100.373 65.3467 100.544 65.8693 100.885 66.264C101.226 66.6587 101.674 66.856 102.229 66.856C102.794 66.856 103.248 66.6587 103.589 66.264C103.93 65.8693 104.101 65.3467 104.101 64.696C104.101 64.056 103.925 63.5387 103.573 63.144C103.232 62.7493 102.784 62.552 102.229 62.552ZM116.864 69H114.016V67.592C113.429 68.5947 112.507 69.1067 111.248 69.128C110.309 69.128 109.557 68.8293 108.992 68.232C108.437 67.624 108.16 66.8187 108.16 65.816V60.344H111.008V65C111.008 65.4907 111.131 65.8747 111.376 66.152C111.632 66.4293 111.973 66.568 112.4 66.568C112.901 66.5573 113.296 66.376 113.584 66.024C113.872 65.6613 114.016 65.192 114.016 64.616V60.344H116.864V69ZM121.889 61.784C122.188 61.2827 122.572 60.8987 123.041 60.632C123.521 60.3653 124.065 60.232 124.673 60.232V62.84C124.577 62.8293 124.433 62.824 124.241 62.824C123.569 62.824 123.025 62.984 122.609 63.304C122.193 63.6133 121.953 64.04 121.889 64.584V69H119.041V60.344H121.889V61.784ZM131.692 63.08C130.572 62.4933 129.655 62.2 128.94 62.2C128.695 62.2 128.497 62.248 128.348 62.344C128.199 62.4293 128.124 62.5627 128.124 62.744C128.124 62.936 128.241 63.0907 128.476 63.208C128.711 63.3253 129.084 63.4533 129.596 63.592C130.215 63.7733 130.727 63.9547 131.132 64.136C131.548 64.3067 131.905 64.5733 132.204 64.936C132.503 65.288 132.652 65.752 132.652 66.328C132.652 67.2027 132.311 67.8907 131.628 68.392C130.956 68.8827 130.076 69.128 128.988 69.128C128.252 69.128 127.548 69.0267 126.876 68.824C126.204 68.6107 125.607 68.3013 125.084 67.896L125.98 66.056C126.471 66.3973 126.983 66.664 127.516 66.856C128.06 67.0373 128.572 67.128 129.052 67.128C129.329 67.128 129.548 67.0853 129.708 67C129.879 66.904 129.964 66.7707 129.964 66.6C129.964 66.3867 129.841 66.2213 129.596 66.104C129.361 65.9867 128.988 65.8587 128.476 65.72C127.868 65.5387 127.367 65.3627 126.972 65.192C126.577 65.0107 126.231 64.744 125.932 64.392C125.644 64.04 125.5 63.5813 125.5 63.016C125.5 62.1413 125.831 61.4587 126.492 60.968C127.153 60.4667 128.007 60.216 129.052 60.216C129.681 60.216 130.3 60.3013 130.908 60.472C131.527 60.6427 132.108 60.8933 132.652 61.224L131.692 63.08ZM143.441 60.488C144.231 60.488 144.935 60.6693 145.553 61.032C146.172 61.3947 146.652 61.9013 146.993 62.552C147.335 63.2027 147.505 63.9493 147.505 64.792C147.505 65.624 147.335 66.3653 146.993 67.016C146.663 67.656 146.188 68.1573 145.569 68.52C144.961 68.872 144.263 69.048 143.473 69.048C142.759 69.048 142.129 68.8987 141.585 68.6C141.041 68.3013 140.615 67.8747 140.305 67.32V69H138.817V57.128H140.305V62.216C140.615 61.6613 141.036 61.2347 141.569 60.936C142.113 60.6373 142.737 60.488 143.441 60.488ZM143.153 67.752C143.697 67.752 144.183 67.624 144.609 67.368C145.047 67.112 145.383 66.7547 145.617 66.296C145.863 65.8373 145.985 65.32 145.985 64.744C145.985 64.1787 145.863 63.6667 145.617 63.208C145.372 62.7493 145.036 62.392 144.609 62.136C144.183 61.88 143.697 61.752 143.153 61.752C142.609 61.752 142.119 61.88 141.681 62.136C141.255 62.392 140.919 62.7493 140.673 63.208C140.428 63.6667 140.305 64.1787 140.305 64.744C140.305 65.3307 140.428 65.8533 140.673 66.312C140.919 66.76 141.255 67.112 141.681 67.368C142.119 67.624 142.609 67.752 143.153 67.752ZM152.973 60.488C154.285 60.488 155.277 60.8773 155.949 61.656C156.621 62.424 156.957 63.496 156.957 64.872C156.957 65.0853 156.952 65.2453 156.941 65.352H150.253C150.37 66.1093 150.685 66.712 151.197 67.16C151.72 67.608 152.36 67.832 153.117 67.832C153.618 67.832 154.082 67.7413 154.509 67.56C154.946 67.3787 155.325 67.1227 155.645 66.792L156.461 67.64C156.045 68.088 155.544 68.4347 154.957 68.68C154.37 68.9253 153.72 69.048 153.005 69.048C152.173 69.048 151.432 68.872 150.781 68.52C150.141 68.1573 149.64 67.6507 149.277 67C148.925 66.3493 148.749 65.608 148.749 64.776C148.749 63.944 148.925 63.208 149.277 62.568C149.64 61.9173 150.141 61.4107 150.781 61.048C151.421 60.6747 152.152 60.488 152.973 60.488ZM155.613 64.2C155.57 63.432 155.314 62.8293 154.845 62.392C154.376 61.944 153.757 61.72 152.989 61.72C152.242 61.72 151.618 61.944 151.117 62.392C150.626 62.84 150.333 63.4427 150.237 64.2H155.613ZM162.045 58.36C161.661 58.36 161.341 58.4773 161.085 58.712C160.829 58.9467 160.701 59.2827 160.701 59.72V60.824H163.037V61.96H160.701V69H159.213V61.96H158.109V60.824H159.213V59.912C159.213 59.2933 159.341 58.7707 159.597 58.344C159.863 57.9067 160.21 57.5813 160.637 57.368C161.063 57.144 161.522 57.032 162.013 57.032C162.482 57.032 162.973 57.16 163.485 57.416L163.133 58.632C162.749 58.4507 162.386 58.36 162.045 58.36ZM167.757 60.488C168.6 60.488 169.347 60.6693 169.997 61.032C170.659 61.3947 171.171 61.9013 171.533 62.552C171.907 63.192 172.093 63.928 172.093 64.76C172.093 65.592 171.907 66.3333 171.533 66.984C171.171 67.6347 170.659 68.1413 169.997 68.504C169.347 68.8667 168.6 69.048 167.757 69.048C166.904 69.048 166.147 68.8667 165.485 68.504C164.835 68.1413 164.323 67.64 163.949 67C163.587 66.3493 163.405 65.6027 163.405 64.76C163.405 63.928 163.587 63.192 163.949 62.552C164.323 61.9013 164.835 61.3947 165.485 61.032C166.147 60.6693 166.904 60.488 167.757 60.488ZM167.757 61.784C167.203 61.784 166.707 61.912 166.269 62.168C165.843 62.424 165.507 62.7813 165.261 63.24C165.027 63.688 164.909 64.2 164.909 64.776C164.909 65.3627 165.027 65.8853 165.261 66.344C165.507 66.8027 165.843 67.16 166.269 67.416C166.707 67.6613 167.203 67.784 167.757 67.784C168.301 67.784 168.787 67.6613 169.213 67.416C169.651 67.16 169.987 66.8027 170.221 66.344C170.467 65.8853 170.589 65.3627 170.589 64.776C170.589 64.2 170.467 63.688 170.221 63.24C169.987 62.7813 169.651 62.424 169.213 62.168C168.787 61.912 168.301 61.784 167.757 61.784ZM175.663 62.36C175.94 61.752 176.335 61.2933 176.847 60.984C177.359 60.664 177.967 60.4987 178.671 60.488V61.928C177.807 61.896 177.108 62.12 176.575 62.6C176.041 63.08 175.737 63.7253 175.663 64.536V69H174.175V60.536H175.663V62.36ZM183.676 60.488C184.988 60.488 185.98 60.8773 186.652 61.656C187.324 62.424 187.66 63.496 187.66 64.872C187.66 65.0853 187.655 65.2453 187.644 65.352H180.956C181.073 66.1093 181.388 66.712 181.9 67.16C182.423 67.608 183.063 67.832 183.82 67.832C184.321 67.832 184.785 67.7413 185.212 67.56C185.649 67.3787 186.028 67.1227 186.348 66.792L187.164 67.64C186.748 68.088 186.247 68.4347 185.66 68.68C185.073 68.9253 184.423 69.048 183.708 69.048C182.876 69.048 182.135 68.872 181.484 68.52C180.844 68.1573 180.343 67.6507 179.98 67C179.628 66.3493 179.452 65.608 179.452 64.776C179.452 63.944 179.628 63.208 179.98 62.568C180.343 61.9173 180.844 61.4107 181.484 61.048C182.124 60.6747 182.855 60.488 183.676 60.488ZM186.316 64.2C186.273 63.432 186.017 62.8293 185.548 62.392C185.079 61.944 184.46 61.72 183.692 61.72C182.945 61.72 182.321 61.944 181.82 62.392C181.329 62.84 181.036 63.4427 180.94 64.2H186.316ZM198.422 68.44C197.771 68.856 197.11 69.064 196.438 69.064C195.766 69.064 195.222 68.8667 194.806 68.472C194.39 68.0667 194.182 67.4587 194.182 66.648V61.96H192.982V60.824H194.182V58.552H195.686V60.824H198.278V61.96H195.686V66.376C195.686 66.8453 195.771 67.1813 195.942 67.384C196.113 67.5867 196.369 67.688 196.71 67.688C197.115 67.688 197.553 67.5547 198.022 67.288L198.422 68.44ZM205.037 60.488C206.029 60.488 206.808 60.7813 207.373 61.368C207.939 61.944 208.221 62.744 208.221 63.768V69H206.733V64.168C206.733 63.4533 206.531 62.8987 206.125 62.504C205.731 62.0987 205.181 61.896 204.477 61.896C203.656 61.9067 203.005 62.184 202.525 62.728C202.045 63.272 201.805 63.976 201.805 64.84V69H200.317V57.128H201.805V62.36C202.371 61.1333 203.448 60.5093 205.037 60.488ZM214.27 60.488C215.582 60.488 216.574 60.8773 217.246 61.656C217.918 62.424 218.254 63.496 218.254 64.872C218.254 65.0853 218.249 65.2453 218.238 65.352H211.55C211.667 66.1093 211.982 66.712 212.494 67.16C213.017 67.608 213.657 67.832 214.414 67.832C214.915 67.832 215.379 67.7413 215.806 67.56C216.243 67.3787 216.622 67.1227 216.942 66.792L217.758 67.64C217.342 68.088 216.841 68.4347 216.254 68.68C215.667 68.9253 215.017 69.048 214.302 69.048C213.47 69.048 212.729 68.872 212.078 68.52C211.438 68.1573 210.937 67.6507 210.574 67C210.222 66.3493 210.046 65.608 210.046 64.776C210.046 63.944 210.222 63.208 210.574 62.568C210.937 61.9173 211.438 61.4107 212.078 61.048C212.718 60.6747 213.449 60.488 214.27 60.488ZM216.91 64.2C216.867 63.432 216.611 62.8293 216.142 62.392C215.673 61.944 215.054 61.72 214.286 61.72C213.539 61.72 212.915 61.944 212.414 62.392C211.923 62.84 211.63 63.4427 211.534 64.2H216.91ZM26 88.44C25.3493 88.856 24.688 89.064 24.016 89.064C23.344 89.064 22.8 88.8667 22.384 88.472C21.968 88.0667 21.76 87.4587 21.76 86.648V81.96H20.56V80.824H21.76V78.552H23.264V80.824H25.856V81.96H23.264V86.376C23.264 86.8453 23.3493 87.1813 23.52 87.384C23.6907 87.5867 23.9467 87.688 24.288 87.688C24.6933 87.688 25.1307 87.5547 25.6 87.288L26 88.44ZM29.3034 82.36C29.5807 81.752 29.9754 81.2933 30.4874 80.984C30.9994 80.664 31.6074 80.4987 32.3114 80.488V81.928C31.4474 81.896 30.7487 82.12 30.2154 82.6C29.682 83.08 29.378 83.7253 29.3034 84.536V89H27.8154V80.536H29.3034V82.36ZM35.4128 80.536V89H33.9248V80.536H35.4128ZM34.6608 77.16C34.9274 77.16 35.1461 77.2507 35.3168 77.432C35.4981 77.6133 35.5888 77.8427 35.5888 78.12C35.5888 78.3973 35.4981 78.6267 35.3168 78.808C35.1461 78.9893 34.9274 79.08 34.6608 79.08C34.3941 79.08 34.1701 78.9893 33.9888 78.808C33.8181 78.6267 33.7328 78.3973 33.7328 78.12C33.7328 77.8427 33.8181 77.6133 33.9888 77.432C34.1701 77.2507 34.3941 77.16 34.6608 77.16ZM43.0194 80.488C43.8087 80.488 44.5127 80.6693 45.1314 81.032C45.75 81.3947 46.23 81.9013 46.5714 82.552C46.9127 83.2027 47.0834 83.9493 47.0834 84.792C47.0834 85.624 46.9127 86.3653 46.5714 87.016C46.2407 87.656 45.766 88.1573 45.1474 88.52C44.5394 88.872 43.8407 89.048 43.0514 89.048C42.3367 89.048 41.7074 88.8987 41.1634 88.6C40.6194 88.3013 40.1927 87.8747 39.8834 87.32V92.104H38.3954V80.536H39.8834V82.216C40.1927 81.6613 40.614 81.2347 41.1474 80.936C41.6914 80.6373 42.3154 80.488 43.0194 80.488ZM42.7314 87.752C43.2754 87.752 43.7607 87.624 44.1874 87.368C44.6247 87.112 44.9607 86.7547 45.1954 86.296C45.4407 85.8373 45.5634 85.32 45.5634 84.744C45.5634 84.1787 45.4407 83.6667 45.1954 83.208C44.95 82.7493 44.614 82.392 44.1874 82.136C43.7607 81.88 43.2754 81.752 42.7314 81.752C42.1874 81.752 41.6967 81.88 41.2594 82.136C40.8327 82.392 40.4967 82.7493 40.2514 83.208C40.006 83.6667 39.8834 84.1787 39.8834 84.744C39.8834 85.3307 40.006 85.8533 40.2514 86.312C40.4967 86.76 40.8327 87.112 41.2594 87.368C41.6967 87.624 42.1874 87.752 42.7314 87.752ZM57.9706 82.408C57.6186 82.1947 57.2293 82.024 56.8026 81.896C56.3866 81.768 55.9866 81.704 55.6026 81.704C55.1546 81.704 54.792 81.7893 54.5146 81.96C54.248 82.12 54.1146 82.3707 54.1146 82.712C54.1146 83.0533 54.264 83.3147 54.5626 83.496C54.872 83.6667 55.336 83.8427 55.9546 84.024C56.5413 84.1947 57.0213 84.3653 57.3946 84.536C57.768 84.7067 58.0826 84.9573 58.3386 85.288C58.6053 85.6187 58.7386 86.056 58.7386 86.6C58.7386 87.4 58.4346 88.008 57.8266 88.424C57.2293 88.84 56.4826 89.048 55.5866 89.048C54.9573 89.048 54.344 88.9467 53.7466 88.744C53.16 88.5413 52.664 88.2533 52.2586 87.88L52.8186 86.792C53.1706 87.112 53.6026 87.368 54.1146 87.56C54.6373 87.752 55.144 87.848 55.6346 87.848C56.1253 87.848 56.52 87.7573 56.8186 87.576C57.1173 87.3947 57.2666 87.1173 57.2666 86.744C57.2666 86.36 57.1066 86.072 56.7866 85.88C56.4773 85.688 56.0026 85.496 55.3626 85.304C54.7973 85.144 54.3333 84.984 53.9706 84.824C53.6186 84.6533 53.3146 84.408 53.0586 84.088C52.8133 83.768 52.6906 83.352 52.6906 82.84C52.6906 82.0507 52.9786 81.4587 53.5546 81.064C54.1306 80.6693 54.8506 80.472 55.7146 80.472C56.2266 80.472 56.728 80.5467 57.2186 80.696C57.72 80.8347 58.152 81.0267 58.5146 81.272L57.9706 82.408ZM65.25 88.44C64.5993 88.856 63.938 89.064 63.266 89.064C62.594 89.064 62.05 88.8667 61.634 88.472C61.218 88.0667 61.01 87.4587 61.01 86.648V81.96H59.81V80.824H61.01V78.552H62.514V80.824H65.106V81.96H62.514V86.376C62.514 86.8453 62.5993 87.1813 62.77 87.384C62.9407 87.5867 63.1967 87.688 63.538 87.688C63.9433 87.688 64.3807 87.5547 64.85 87.288L65.25 88.44ZM72.2334 87.816C71.604 88.648 70.6174 89.064 69.2734 89.064C68.6867 89.064 68.1694 88.952 67.7214 88.728C67.284 88.504 66.9427 88.1947 66.6974 87.8C66.4627 87.4053 66.3454 86.9627 66.3454 86.472C66.3454 85.7147 66.6227 85.1173 67.1774 84.68C67.7427 84.232 68.5267 84.0027 69.5294 83.992H72.2174V83.592C72.2174 82.9947 72.0307 82.536 71.6574 82.216C71.2947 81.8853 70.7614 81.72 70.0574 81.72C69.204 81.72 68.3347 82.024 67.4494 82.632L66.8254 81.608C67.4334 81.2133 67.9934 80.9307 68.5054 80.76C69.028 80.5787 69.6467 80.488 70.3614 80.488C71.4174 80.488 72.2334 80.7493 72.8094 81.272C73.3854 81.784 73.6787 82.504 73.6894 83.432L73.7054 89H72.2334V87.816ZM69.5774 87.832C70.2707 87.832 70.8574 87.6667 71.3374 87.336C71.828 86.9947 72.1214 86.5467 72.2174 85.992V85.144H69.7374C69.0654 85.144 68.564 85.2453 68.2334 85.448C67.9134 85.6507 67.7534 85.9707 67.7534 86.408C67.7534 86.8453 67.9187 87.192 68.2494 87.448C68.58 87.704 69.0227 87.832 69.5774 87.832ZM77.8503 82.36C78.1276 81.752 78.5223 81.2933 79.0343 80.984C79.5463 80.664 80.1543 80.4987 80.8583 80.488V81.928C79.9943 81.896 79.2956 82.12 78.7623 82.6C78.2289 83.08 77.9249 83.7253 77.8503 84.536V89H76.3623V80.536H77.8503V82.36ZM87.0156 88.44C86.365 88.856 85.7036 89.064 85.0316 89.064C84.3596 89.064 83.8156 88.8667 83.3996 88.472C82.9836 88.0667 82.7756 87.4587 82.7756 86.648V81.96H81.5756V80.824H82.7756V78.552H84.2796V80.824H86.8716V81.96H84.2796V86.376C84.2796 86.8453 84.365 87.1813 84.5356 87.384C84.7063 87.5867 84.9623 87.688 85.3036 87.688C85.709 87.688 86.1463 87.5547 86.6156 87.288L87.0156 88.44ZM93.455 82.408C93.103 82.1947 92.7137 82.024 92.287 81.896C91.871 81.768 91.471 81.704 91.087 81.704C90.639 81.704 90.2763 81.7893 89.999 81.96C89.7323 82.12 89.599 82.3707 89.599 82.712C89.599 83.0533 89.7483 83.3147 90.047 83.496C90.3563 83.6667 90.8203 83.8427 91.439 84.024C92.0257 84.1947 92.5057 84.3653 92.879 84.536C93.2523 84.7067 93.567 84.9573 93.823 85.288C94.0897 85.6187 94.223 86.056 94.223 86.6C94.223 87.4 93.919 88.008 93.311 88.424C92.7137 88.84 91.967 89.048 91.071 89.048C90.4417 89.048 89.8283 88.9467 89.231 88.744C88.6443 88.5413 88.1483 88.2533 87.743 87.88L88.303 86.792C88.655 87.112 89.087 87.368 89.599 87.56C90.1217 87.752 90.6283 87.848 91.119 87.848C91.6097 87.848 92.0043 87.7573 92.303 87.576C92.6017 87.3947 92.751 87.1173 92.751 86.744C92.751 86.36 92.591 86.072 92.271 85.88C91.9617 85.688 91.487 85.496 90.847 85.304C90.2817 85.144 89.8177 84.984 89.455 84.824C89.103 84.6533 88.799 84.408 88.543 84.088C88.2977 83.768 88.175 83.352 88.175 82.84C88.175 82.0507 88.463 81.4587 89.039 81.064C89.615 80.6693 90.335 80.472 91.199 80.472C91.711 80.472 92.2123 80.5467 92.703 80.696C93.2043 80.8347 93.6363 81.0267 93.999 81.272L93.455 82.408Z" fill="white"/>
<path d="M23.132 129.6V138H21.98V130.644H20.072V129.6H23.132ZM28.7737 129.552C29.9017 129.552 30.7697 129.92 31.3777 130.656C31.9857 131.384 32.2897 132.432 32.2897 133.8C32.2897 135.168 31.9857 136.22 31.3777 136.956C30.7697 137.692 29.9017 138.06 28.7737 138.06C27.6377 138.06 26.7657 137.692 26.1577 136.956C25.5577 136.22 25.2577 135.168 25.2577 133.8C25.2577 132.432 25.5577 131.384 26.1577 130.656C26.7657 129.92 27.6377 129.552 28.7737 129.552ZM28.7737 130.464C27.2217 130.464 26.4457 131.576 26.4457 133.8C26.4457 134.904 26.6417 135.736 27.0337 136.296C27.4257 136.856 28.0057 137.136 28.7737 137.136C29.5417 137.136 30.1217 136.856 30.5137 136.296C30.9057 135.736 31.1017 134.904 31.1017 133.8C31.1017 131.576 30.3257 130.464 28.7737 130.464ZM37.3049 129.552C38.4329 129.552 39.3009 129.92 39.9089 130.656C40.5169 131.384 40.8209 132.432 40.8209 133.8C40.8209 135.168 40.5169 136.22 39.9089 136.956C39.3009 137.692 38.4329 138.06 37.3049 138.06C36.1689 138.06 35.2969 137.692 34.6889 136.956C34.0889 136.22 33.7889 135.168 33.7889 133.8C33.7889 132.432 34.0889 131.384 34.6889 130.656C35.2969 129.92 36.1689 129.552 37.3049 129.552ZM37.3049 130.464C35.7529 130.464 34.9769 131.576 34.9769 133.8C34.9769 134.904 35.1729 135.736 35.5649 136.296C35.9569 136.856 36.5369 137.136 37.3049 137.136C38.0729 137.136 38.6529 136.856 39.0449 136.296C39.4369 135.736 39.6329 134.904 39.6329 133.8C39.6329 131.576 38.8569 130.464 37.3049 130.464ZM44.1562 129.576C44.8362 129.576 45.3682 129.796 45.7522 130.236C46.1362 130.676 46.3282 131.288 46.3282 132.072C46.3282 132.856 46.1362 133.472 45.7522 133.92C45.3682 134.36 44.8362 134.58 44.1562 134.58C43.4762 134.58 42.9442 134.36 42.5602 133.92C42.1762 133.472 41.9842 132.856 41.9842 132.072C41.9842 131.288 42.1762 130.676 42.5602 130.236C42.9442 129.796 43.4762 129.576 44.1562 129.576ZM44.1562 130.248C43.7082 130.248 43.3602 130.408 43.1122 130.728C42.8722 131.04 42.7522 131.488 42.7522 132.072C42.7522 132.656 42.8722 133.108 43.1122 133.428C43.3602 133.74 43.7082 133.896 44.1562 133.896C44.6042 133.896 44.9482 133.74 45.1882 133.428C45.4362 133.108 45.5602 132.656 45.5602 132.072C45.5602 131.488 45.4362 131.04 45.1882 130.728C44.9482 130.408 44.6042 130.248 44.1562 130.248ZM50.7322 129.6L44.5042 138H43.5802L49.8202 129.6H50.7322ZM50.2882 133.032C50.9682 133.032 51.5002 133.252 51.8842 133.692C52.2682 134.132 52.4602 134.744 52.4602 135.528C52.4602 136.312 52.2682 136.928 51.8842 137.376C51.5002 137.816 50.9682 138.036 50.2882 138.036C49.6082 138.036 49.0762 137.816 48.6922 137.376C48.3082 136.928 48.1162 136.312 48.1162 135.528C48.1162 134.744 48.3082 134.132 48.6922 133.692C49.0762 133.252 49.6082 133.032 50.2882 133.032ZM50.2882 133.704C49.8402 133.704 49.4922 133.864 49.2442 134.184C49.0042 134.496 48.8842 134.944 48.8842 135.528C48.8842 136.112 49.0042 136.564 49.2442 136.884C49.4922 137.196 49.8402 137.352 50.2882 137.352C50.7362 137.352 51.0802 137.196 51.3202 136.884C51.5682 136.564 51.6922 136.112 51.6922 135.528C51.6922 134.944 51.5682 134.496 51.3202 134.184C51.0802 133.864 50.7362 133.704 50.2882 133.704ZM61.0498 135.36C60.8578 135.376 60.7018 135.384 60.5818 135.384H58.4458V138H57.2938V129.6H60.5818C61.6458 129.6 62.4658 129.848 63.0418 130.344C63.6258 130.832 63.9178 131.528 63.9178 132.432C63.9178 133.112 63.7578 133.684 63.4378 134.148C63.1258 134.612 62.6738 134.948 62.0818 135.156L64.0378 138H62.7178L61.0498 135.36ZM60.5818 134.34C61.3018 134.34 61.8538 134.184 62.2378 133.872C62.6218 133.552 62.8138 133.084 62.8138 132.468C62.8138 131.868 62.6218 131.416 62.2378 131.112C61.8538 130.8 61.3018 130.644 60.5818 130.644H58.4458V134.34H60.5818ZM68.4016 131.616C69.3856 131.616 70.1296 131.908 70.6336 132.492C71.1376 133.068 71.3896 133.872 71.3896 134.904C71.3896 135.064 71.3856 135.184 71.3776 135.264H66.3616C66.4496 135.832 66.6856 136.284 67.0696 136.62C67.4616 136.956 67.9416 137.124 68.5096 137.124C68.8856 137.124 69.2336 137.056 69.5536 136.92C69.8816 136.784 70.1656 136.592 70.4056 136.344L71.0176 136.98C70.7056 137.316 70.3296 137.576 69.8896 137.76C69.4496 137.944 68.9616 138.036 68.4256 138.036C67.8016 138.036 67.2456 137.904 66.7576 137.64C66.2776 137.368 65.9016 136.988 65.6296 136.5C65.3656 136.012 65.2336 135.456 65.2336 134.832C65.2336 134.208 65.3656 133.656 65.6296 133.176C65.9016 132.688 66.2776 132.308 66.7576 132.036C67.2376 131.756 67.7856 131.616 68.4016 131.616ZM70.3816 134.4C70.3496 133.824 70.1576 133.372 69.8056 133.044C69.4536 132.708 68.9896 132.54 68.4136 132.54C67.8536 132.54 67.3856 132.708 67.0096 133.044C66.6416 133.38 66.4216 133.832 66.3496 134.4H70.3816ZM75.2054 130.02C74.9174 130.02 74.6774 130.108 74.4854 130.284C74.2934 130.46 74.1974 130.712 74.1974 131.04V131.868H75.9494V132.72H74.1974V138H73.0814V132.72H72.2534V131.868H73.0814V131.184C73.0814 130.72 73.1774 130.328 73.3694 130.008C73.5694 129.68 73.8294 129.436 74.1494 129.276C74.4694 129.108 74.8134 129.024 75.1814 129.024C75.5334 129.024 75.9014 129.12 76.2854 129.312L76.0214 130.224C75.7334 130.088 75.4614 130.02 75.2054 130.02ZM82.665 138H81.537V136.656C81.121 137.56 80.337 138.02 79.185 138.036C78.449 138.036 77.873 137.82 77.457 137.388C77.041 136.948 76.833 136.344 76.833 135.576V131.652H77.961V135.276C77.961 135.812 78.105 136.232 78.393 136.536C78.689 136.832 79.093 136.98 79.605 136.98C80.197 136.972 80.665 136.764 81.009 136.356C81.361 135.94 81.537 135.412 81.537 134.772V131.652H82.665V138ZM88.37 131.616C89.114 131.616 89.698 131.836 90.122 132.276C90.546 132.708 90.758 133.308 90.758 134.076V138H89.642V134.376C89.642 133.84 89.49 133.424 89.186 133.128C88.89 132.824 88.478 132.672 87.95 132.672C87.382 132.68 86.918 132.864 86.558 133.224C86.206 133.576 86.006 134.036 85.958 134.604V138H84.842V131.652H85.958V132.996C86.382 132.092 87.186 131.632 88.37 131.616ZM98.6682 138H97.5522V136.74C97.3122 137.164 96.9882 137.492 96.5802 137.724C96.1802 137.948 95.7122 138.06 95.1762 138.06C94.5762 138.06 94.0442 137.924 93.5802 137.652C93.1242 137.372 92.7682 136.988 92.5122 136.5C92.2562 136.004 92.1282 135.44 92.1282 134.808C92.1282 134.184 92.2562 133.632 92.5122 133.152C92.7682 132.664 93.1242 132.284 93.5802 132.012C94.0442 131.74 94.5722 131.604 95.1642 131.604C95.7082 131.604 96.1842 131.716 96.5922 131.94C97.0002 132.164 97.3202 132.488 97.5522 132.912V129.096H98.6682V138ZM95.4042 137.1C95.8202 137.1 96.1882 137.004 96.5082 136.812C96.8362 136.62 97.0922 136.352 97.2762 136.008C97.4602 135.664 97.5522 135.276 97.5522 134.844C97.5522 134.404 97.4602 134.012 97.2762 133.668C97.0922 133.324 96.8362 133.056 96.5082 132.864C96.1882 132.672 95.8202 132.576 95.4042 132.576C94.9882 132.576 94.6162 132.676 94.2882 132.876C93.9682 133.068 93.7162 133.336 93.5322 133.68C93.3482 134.024 93.2562 134.412 93.2562 134.844C93.2562 135.276 93.3482 135.664 93.5322 136.008C93.7162 136.352 93.9682 136.62 94.2882 136.812C94.6162 137.004 94.9882 137.1 95.4042 137.1ZM110.985 133.896V136.98C110.561 137.316 110.065 137.584 109.497 137.784C108.929 137.984 108.365 138.084 107.805 138.084C106.997 138.084 106.257 137.896 105.585 137.52C104.913 137.136 104.381 136.616 103.989 135.96C103.605 135.296 103.413 134.572 103.413 133.788C103.413 133.004 103.609 132.288 104.001 131.64C104.393 130.984 104.929 130.468 105.609 130.092C106.289 129.716 107.041 129.528 107.865 129.528C108.449 129.528 109.017 129.632 109.569 129.84C110.129 130.048 110.613 130.332 111.021 130.692L110.361 131.532C110.025 131.22 109.637 130.98 109.197 130.812C108.765 130.636 108.321 130.548 107.865 130.548C107.265 130.548 106.713 130.692 106.209 130.98C105.705 131.268 105.305 131.66 105.009 132.156C104.721 132.652 104.577 133.196 104.577 133.788C104.577 134.38 104.725 134.928 105.021 135.432C105.317 135.928 105.717 136.324 106.221 136.62C106.725 136.908 107.277 137.052 107.877 137.052C108.229 137.052 108.585 136.996 108.945 136.884C109.313 136.764 109.653 136.6 109.965 136.392V133.896H110.985ZM118.677 138H117.549V136.656C117.133 137.56 116.349 138.02 115.197 138.036C114.461 138.036 113.885 137.82 113.469 137.388C113.053 136.948 112.845 136.344 112.845 135.576V131.652H113.973V135.276C113.973 135.812 114.117 136.232 114.405 136.536C114.701 136.832 115.105 136.98 115.617 136.98C116.209 136.972 116.677 136.764 117.021 136.356C117.373 135.94 117.549 135.412 117.549 134.772V131.652H118.677V138ZM124.73 137.112C124.258 137.736 123.518 138.048 122.51 138.048C122.07 138.048 121.682 137.964 121.346 137.796C121.018 137.628 120.762 137.396 120.578 137.1C120.402 136.804 120.314 136.472 120.314 136.104C120.314 135.536 120.522 135.088 120.938 134.76C121.362 134.424 121.95 134.252 122.702 134.244H124.718V133.944C124.718 133.496 124.578 133.152 124.298 132.912C124.026 132.664 123.626 132.54 123.098 132.54C122.458 132.54 121.806 132.768 121.142 133.224L120.674 132.456C121.13 132.16 121.55 131.948 121.934 131.82C122.326 131.684 122.79 131.616 123.326 131.616C124.118 131.616 124.73 131.812 125.162 132.204C125.594 132.588 125.814 133.128 125.822 133.824L125.834 138H124.73V137.112ZM122.738 137.124C123.258 137.124 123.698 137 124.058 136.752C124.426 136.496 124.646 136.16 124.718 135.744V135.108H122.858C122.354 135.108 121.978 135.184 121.73 135.336C121.49 135.488 121.37 135.728 121.37 136.056C121.37 136.384 121.494 136.644 121.742 136.836C121.99 137.028 122.322 137.124 122.738 137.124ZM128.942 133.02C129.15 132.564 129.446 132.22 129.83 131.988C130.214 131.748 130.67 131.624 131.198 131.616V132.696C130.55 132.672 130.026 132.84 129.626 133.2C129.226 133.56 128.998 134.044 128.942 134.652V138H127.826V131.652H128.942V133.02ZM136.003 137.112C135.531 137.736 134.791 138.048 133.783 138.048C133.343 138.048 132.955 137.964 132.619 137.796C132.291 137.628 132.035 137.396 131.851 137.1C131.675 136.804 131.587 136.472 131.587 136.104C131.587 135.536 131.795 135.088 132.211 134.76C132.635 134.424 133.223 134.252 133.975 134.244H135.991V133.944C135.991 133.496 135.851 133.152 135.571 132.912C135.299 132.664 134.899 132.54 134.371 132.54C133.731 132.54 133.079 132.768 132.415 133.224L131.947 132.456C132.403 132.16 132.823 131.948 133.207 131.82C133.599 131.684 134.063 131.616 134.599 131.616C135.391 131.616 136.003 131.812 136.435 132.204C136.867 132.588 137.087 133.128 137.095 133.824L137.107 138H136.003V137.112ZM134.011 137.124C134.531 137.124 134.971 137 135.331 136.752C135.699 136.496 135.919 136.16 135.991 135.744V135.108H134.131C133.627 135.108 133.251 135.184 133.003 135.336C132.763 135.488 132.643 135.728 132.643 136.056C132.643 136.384 132.767 136.644 133.015 136.836C133.263 137.028 133.595 137.124 134.011 137.124ZM142.628 131.616C143.372 131.616 143.956 131.836 144.38 132.276C144.804 132.708 145.016 133.308 145.016 134.076V138H143.9V134.376C143.9 133.84 143.748 133.424 143.444 133.128C143.148 132.824 142.736 132.672 142.208 132.672C141.64 132.68 141.176 132.864 140.816 133.224C140.464 133.576 140.264 134.036 140.216 134.604V138H139.1V131.652H140.216V132.996C140.64 132.092 141.444 131.632 142.628 131.616ZM150.418 137.58C149.93 137.892 149.434 138.048 148.93 138.048C148.426 138.048 148.018 137.9 147.706 137.604C147.394 137.3 147.238 136.844 147.238 136.236V132.72H146.338V131.868H147.238V130.164H148.366V131.868H150.31V132.72H148.366V136.032C148.366 136.384 148.43 136.636 148.558 136.788C148.686 136.94 148.878 137.016 149.134 137.016C149.438 137.016 149.766 136.916 150.118 136.716L150.418 137.58ZM154.241 131.616C155.225 131.616 155.969 131.908 156.473 132.492C156.977 133.068 157.229 133.872 157.229 134.904C157.229 135.064 157.225 135.184 157.217 135.264H152.201C152.289 135.832 152.525 136.284 152.909 136.62C153.301 136.956 153.781 137.124 154.349 137.124C154.725 137.124 155.073 137.056 155.393 136.92C155.721 136.784 156.005 136.592 156.245 136.344L156.857 136.98C156.545 137.316 156.169 137.576 155.729 137.76C155.289 137.944 154.801 138.036 154.265 138.036C153.641 138.036 153.085 137.904 152.597 137.64C152.117 137.368 151.741 136.988 151.469 136.5C151.205 136.012 151.073 135.456 151.073 134.832C151.073 134.208 151.205 133.656 151.469 133.176C151.741 132.688 152.117 132.308 152.597 132.036C153.077 131.756 153.625 131.616 154.241 131.616ZM156.221 134.4C156.189 133.824 155.997 133.372 155.645 133.044C155.293 132.708 154.829 132.54 154.253 132.54C153.693 132.54 153.225 132.708 152.849 133.044C152.481 133.38 152.261 133.832 152.189 134.4H156.221ZM161.296 131.616C162.28 131.616 163.024 131.908 163.528 132.492C164.032 133.068 164.284 133.872 164.284 134.904C164.284 135.064 164.28 135.184 164.272 135.264H159.256C159.344 135.832 159.58 136.284 159.964 136.62C160.356 136.956 160.836 137.124 161.404 137.124C161.78 137.124 162.128 137.056 162.448 136.92C162.776 136.784 163.06 136.592 163.3 136.344L163.912 136.98C163.6 137.316 163.224 137.576 162.784 137.76C162.344 137.944 161.856 138.036 161.32 138.036C160.696 138.036 160.14 137.904 159.652 137.64C159.172 137.368 158.796 136.988 158.524 136.5C158.26 136.012 158.128 135.456 158.128 134.832C158.128 134.208 158.26 133.656 158.524 133.176C158.796 132.688 159.172 132.308 159.652 132.036C160.132 131.756 160.68 131.616 161.296 131.616ZM163.276 134.4C163.244 133.824 163.052 133.372 162.7 133.044C162.348 132.708 161.884 132.54 161.308 132.54C160.748 132.54 160.28 132.708 159.904 133.044C159.536 133.38 159.316 133.832 159.244 134.4H163.276Z" fill="white"/>
<path d="M374.949 89.8386C375.092 89.5469 375.163 89.1823 375.163 88.8177C375.163 88.2343 374.949 87.7967 374.591 87.505C374.233 87.2133 373.731 86.9945 373.015 86.9945H370.724V92.1723H372.084V90.7138H373.087L373.803 92.1723H375.307L374.233 90.495C374.519 90.3491 374.734 90.1304 374.949 89.8386ZM373.66 89.474C373.516 89.6199 373.302 89.6928 373.015 89.6928H372.084V88.0884H373.015C373.302 88.0884 373.516 88.1614 373.66 88.3072C373.803 88.4531 373.874 88.6718 373.874 88.8906C373.874 89.1823 373.803 89.3282 373.66 89.474ZM367.645 88.0884V89.2552H369.936V90.3491H367.645V92.2452H366.356V87.0675H370.151V88.1614H367.645V88.0884ZM377.311 88.0884V89.1094H379.746V90.2033H377.311V91.1513H380.032V92.2452H375.951V87.0675H379.961V88.1614H377.311V88.0884ZM382.252 88.0884V89.1094H384.686V90.2033H382.252V91.1513H384.973V92.2452H380.891V87.0675H384.901V88.1614H382.252V88.0884ZM382.681 100.923H360.127C358.767 100.923 357.693 99.8295 357.693 98.4439V92.464H358.409C359.912 92.464 361.13 91.2242 361.13 89.6928C361.13 88.1613 359.912 86.9216 358.409 86.9216H357.693V80.9417C357.693 79.5561 358.767 78.4622 360.127 78.4622H360.772L363.922 81.6709H360.843V84.2963C362.92 85.2443 364.28 87.3592 364.28 89.7657C364.28 92.1723 362.92 94.2871 360.843 95.2352V97.8605H379.531L382.681 100.923ZM390.2 89.6199C390.2 91.1513 391.417 92.3911 392.92 92.3911H393.636V98.371C393.636 99.7566 392.562 100.851 391.202 100.851H388.982L391.345 103.257C391.99 103.913 391.99 104.934 391.345 105.518C391.059 105.809 390.629 105.955 390.2 105.955C389.77 105.955 389.412 105.809 389.054 105.518L378.099 94.3601H382.538L385.76 97.7147H390.414V95.0893C388.338 94.1413 386.977 92.0264 386.977 89.6199C386.977 87.2133 388.338 85.0984 390.414 84.1504V81.5251H370.008L372.442 84.0046H368.003L360.7 76.639C360.056 75.9827 360.056 74.9617 360.7 74.3783C361.344 73.722 362.347 73.722 362.92 74.3783L366.786 78.3163H391.13C392.491 78.3163 393.565 79.4102 393.565 80.7958V86.7757H392.849C391.417 86.8487 390.2 88.0884 390.2 89.6199ZM414.329 89.6199C414.329 111.352 397.002 129 375.665 129C354.327 129 337 111.352 337 89.6199C337 67.8879 354.327 50.2397 375.665 50.2397C377.24 50.2397 378.529 51.5524 378.529 53.1568C378.529 54.7612 377.24 56.0738 375.665 56.0738C357.478 56.0738 342.728 71.0966 342.728 89.6199C342.728 108.143 357.478 123.166 375.665 123.166C393.851 123.166 408.601 108.143 408.601 89.6199C408.601 88.0155 409.89 86.7028 411.465 86.7028C413.04 86.7028 414.329 88.0155 414.329 89.6199ZM401.298 75.0346H381.965L382.825 70.5861L393.851 60.9599C394.782 60.1577 395.57 59.3555 396.142 58.5533C396.715 57.7511 397.073 57.0948 397.145 56.5114C397.216 55.8551 397.073 55.3446 396.644 55.0529C396.214 54.7612 395.57 54.5424 394.639 54.5424C393.636 54.5424 392.491 54.8341 391.13 55.4175C389.77 56.0009 388.409 56.8031 387.049 57.8241L385.474 52.8651C389.484 50.3127 393.207 49 396.715 49C399.006 49 400.868 49.5105 402.3 50.5314C403.66 51.5524 404.305 52.938 404.305 54.6882C404.305 56.2197 403.732 57.7511 402.586 59.2826C401.441 60.814 399.794 62.5643 397.646 64.3874L391.488 69.711H402.3L401.298 75.0346ZM426 64.3874L424.998 69.4923H421.704L420.63 75.0346H414.544L415.618 69.4923H404.305L405.164 64.8979L415.331 49.2188H421.632L412.038 64.3145H416.763L417.837 58.845H423.852L422.778 64.3145H426V64.3874ZM375.092 114.342C376.094 114.342 376.882 115.144 376.882 116.165C376.882 117.186 376.094 117.988 375.092 117.988C374.089 117.988 373.302 117.186 373.302 116.165C373.302 115.144 374.089 114.342 375.092 114.342ZM402.372 88.1614C403.374 88.1614 404.162 88.9635 404.162 89.9845C404.162 91.0055 403.374 91.8077 402.372 91.8077C401.369 91.8077 400.582 91.0055 400.582 89.9845C400.582 89.0365 401.369 88.1614 402.372 88.1614ZM348.957 88.1614C349.96 88.1614 350.747 88.9635 350.747 89.9845C350.747 91.0055 349.96 91.8077 348.957 91.8077C347.955 91.8077 347.167 91.0055 347.167 89.9845C347.167 89.0365 348.027 88.1614 348.957 88.1614ZM375.092 64.8979C374.089 64.8979 373.302 64.0957 373.302 63.0747C373.302 62.0538 374.089 61.2516 375.092 61.2516C376.094 61.2516 376.882 62.0538 376.882 63.0747C376.882 64.0957 376.023 64.8979 375.092 64.8979Z" fill="white"/>
</g>
<defs>
<linearGradient id="paint0_linear" x1="486.712" y1="-30" x2="-47.6712" y2="97.5847" gradientUnits="userSpaceOnUse">
<stop stop-color="#766CE0"/>
<stop offset="1" stop-color="#383469"/>
</linearGradient>
<clipPath id="clip0">
<path d="M0 8C0 3.58172 3.58172 0 8 0H454C458.418 0 462 3.58172 462 8V152C462 156.418 458.418 160 454 160H8.00001C3.58173 160 0 156.418 0 152V8Z" fill="white"/>
</clipPath>
</defs>
</svg>
