<svg xmlns="http://www.w3.org/2000/svg" width="64" height="64" viewBox="0 0 64 64">
    <defs>
        <linearGradient id="s0mxef6jna" x1="0%" x2="100.268%" y1="49.948%" y2="49.948%">
            <stop offset="0%" stop-color="#F5CA3E"/>
            <stop offset="100%" stop-color="#ECBF2A"/>
        </linearGradient>
        <linearGradient id="1tfh7ysc6b" x1="0%" x2="100.268%" y1="50%" y2="50%">
            <stop offset="0%" stop-color="#F5CA3E"/>
            <stop offset="100%" stop-color="#ECBF2A"/>
        </linearGradient>
        <linearGradient id="8kmxc3v01c" x1="0%" x2="100.268%" y1="50%" y2="50%">
            <stop offset="0%" stop-color="#F5CA3E"/>
            <stop offset="100%" stop-color="#ECBF2A"/>
        </linearGradient>
        <linearGradient id="htl3op9gkd" x1="0%" x2="99.947%" y1="50%" y2="50%">
            <stop offset="0%" stop-color="#FFD243"/>
            <stop offset="100%" stop-color="#FFCE30"/>
        </linearGradient>
        <linearGradient id="30gbeatz2e" x1="0%" x2="100%" y1="50%" y2="50%">
            <stop offset="0%" stop-color="#FFD243"/>
            <stop offset="100%" stop-color="#FFCE30"/>
        </linearGradient>
    </defs>
    <g fill="none" transform="translate(1)">
        <rect width="54.51" height="9.08" x=".89" y="43.28" fill="#27A56A" rx="2.27"/>
        <rect width="54.51" height="7.38" x=".89" y="42.14" fill="#38B87C" rx="2.27"/>
        <rect width="54.51" height="9.08" x=".89" y="37.6" fill="#27A56A" rx="2.27"/>
        <rect width="54.51" height="7.38" x=".89" y="36.46" fill="#38B87C" rx="2.27"/>
        <rect width="54.51" height="9.08" x=".89" y="31.92" fill="#27A56A" rx="2.27"/>
        <rect width="54.51" height="7.38" x=".89" y="30.78" fill="#38B87C" rx="2.27"/>
        <rect width="54.51" height="7.19" x=".89" y="28.13" fill="#27A56A" rx="2.27"/>
        <path fill="#7B7B7B" d="M52.56 52.36h.56c.658-.003 1.281-.291 1.71-.79V29.65h-2.27v22.71z" opacity=".2" style="mix-blend-mode:multiply"/>
        <rect width="54.51" height="21.01" x=".89" y="11.48" fill="#38B87C" rx="2.27"/>
        <path fill="#E1AB25" d="M25.57 56.62c-1.65-1.36-4.58-2.27-7.93-2.27-3.35 0-6.29.91-7.94 2.27H8.27v2.84C8.58 62 12.65 64 17.64 64c4.99 0 9.05-2 9.34-4.54v-2.84h-1.41z"/>
        <path fill="url(#s0mxef6jna)" d="M25.57 54.35C23.92 53 21 52.08 17.64 52.08c-3.36 0-6.29.91-7.94 2.27H8.27v2.84c.28 2.53 4.35 4.54 9.34 4.54s9.05-2 9.34-4.54v-2.84h-1.38z"/>
        <path fill="#E1AB25" d="M25.57 52.08c-1.65-1.37-4.58-2.27-7.93-2.27-3.35 0-6.29.9-7.94 2.27H8.27v2.84c.28 2.53 4.35 4.54 9.34 4.54s9.05-2 9.34-4.54v-2.84h-1.38z"/>
        <path fill="url(#1tfh7ysc6b)" d="M25.57 49.81c-1.65-1.37-4.58-2.28-7.93-2.28-3.35 0-6.29.91-7.94 2.28H8.27v2.83c.28 2.54 4.35 4.55 9.34 4.55s9.05-2 9.34-4.55v-2.83h-1.38z"/>
        <path fill="#E1AB25" d="M25.57 47.53c-1.65-1.36-4.58-2.27-7.93-2.27-3.35 0-6.29.91-7.94 2.27H8.27v2.84c.28 2.54 4.35 4.55 9.34 4.55s9.05-2 9.34-4.55v-2.84h-1.38z"/>
        <path fill="url(#8kmxc3v01c)" d="M25.57 45.26C23.92 43.9 21 43 17.64 43c-3.36 0-6.29.91-7.94 2.27H8.27v2.83c.28 2.53 4.35 4.54 9.34 4.54s9.05-2 9.34-4.54v-2.84h-1.38z"/>
        <path fill="#E1AB25" d="M25.57 43c-1.65-1.36-4.58-2.27-7.93-2.27-3.35 0-6.29.91-7.94 2.27H8.27v2.84c.28 2.53 4.35 4.54 9.34 4.54s9.05-2 9.34-4.54V43h-1.38z"/>
        <ellipse cx="17.64" cy="43.28" fill="url(#htl3op9gkd)" rx="9.37" ry="4.83"/>
        <path fill="#E1AB25" d="M17.64 40.19c3.9 0 6.53 1.59 6.53 3.09 0 1.5-2.63 3.08-6.53 3.08-3.9 0-6.53-1.59-6.53-3.08s2.62-3.09 6.53-3.09zm0-.57c-3.92 0-7.1 1.64-7.1 3.66 0 2.02 3.18 3.65 7.1 3.65 3.92 0 7.09-1.64 7.09-3.65s-3.17-3.66-7.09-3.66z"/>
        <path fill="#E1AB25" d="M15.06 42.58L15.06 42.58 14.15 42.82 14 42.36 15.21 42 16.14 42 16.14 44.61 15.06 44.61zM21 43.33c0 .81-.6 1.36-1.82 1.36-1.22 0-1.78-.6-1.79-1.34-.01-.74.55-1.35 1.78-1.35s1.83.62 1.83 1.33zm-2.48 0c0 .6.25.88.69.88.44 0 .67-.3.67-.89 0-.59-.23-.88-.68-.88-.45 0-.73.3-.72.91l.04-.02z"/>
        <path fill="#50D295" d="M20.2 27.38h-9.43c-.62-1-2.1-2.84-4.21-2.84v-5.11c2.11 0 3.59-1.87 4.21-2.84h9.43c.627-.879 1.398-1.646 2.28-2.27h-17c-.626 0-1.135.504-1.14 1.13v13.06c0 .63.51 1.14 1.14 1.14h17c-.882-.624-1.653-1.391-2.28-2.27zM50.85 14.32H33.23c.886.618 1.658 1.386 2.28 2.27h10c.62 1 2.1 2.84 4.21 2.84v5.11c-2.11 0-3.59 1.87-4.21 2.84h-10c-.622.884-1.394 1.652-2.28 2.27h17.62c.304.003.597-.116.813-.33.216-.214.337-.506.337-.81V15.45c-.003-.302-.125-.591-.341-.803-.216-.212-.507-.33-.809-.327z"/>
        <path fill="#E1AB25" d="M46 54.06c-1.65-1.36-4.58-2.27-7.93-2.27-3.35 0-6.28.91-7.94 2.27h-1.42v2.84c.28 2.53 4.35 4.54 9.34 4.54s9.05-2 9.34-4.54v-2.84H46z"/>
        <ellipse cx="38.08" cy="54.35" fill="url(#30gbeatz2e)" rx="9.37" ry="4.83"/>
        <path fill="#E1AB25" d="M38.08 51.29c3.9 0 6.53 1.6 6.53 3.09 0 1.49-2.61 3.09-6.53 3.09-3.92 0-6.53-1.6-6.53-3.09 0-1.49 2.62-3.09 6.53-3.09zm0-.56c-3.92 0-7.1 1.63-7.1 3.65S34.16 58 38.08 58c3.92 0 7.09-1.64 7.09-3.66 0-2.02-3.17-3.61-7.09-3.61z"/>
        <path fill="#E1AB25" d="M35.5 53.69L35.5 53.69 34.59 53.92 34.41 53.47 35.67 53.14 36.6 53.14 36.6 55.76 35.5 55.76zM41.4 54.44c0 .81-.6 1.36-1.82 1.36-1.22 0-1.78-.61-1.79-1.35-.01-.74.59-1.35 1.83-1.35 1.24 0 1.78.62 1.78 1.34zm-2.48 0c0 .6.25.89.69.89.44 0 .67-.3.67-.89 0-.59-.23-.89-.68-.89-.45 0-.69.3-.68.9v-.01z"/>
        <circle cx="27.86" cy="21.98" r="7.73" fill="#38B87C"/>
        <path fill="#50D295" d="M27.86 14.32c4.235 0 7.668 3.432 7.67 7.667.002 4.234-3.429 7.67-7.663 7.673-4.235.004-7.671-3.425-7.677-7.66.006-4.232 3.438-7.66 7.67-7.66v-.02zm0-1.71c-5.172 0-9.366 4.191-9.37 9.363-.004 5.173 4.184 9.37 9.357 9.377 5.172.007 9.372-4.178 9.383-9.35 0-5.175-4.195-9.37-9.37-9.37v-.02z"/>
        <path fill="#50D295" d="M32.46 25.73c-.23-.8-1.66-1.32-2.78-1.72-.36-.13-.45-.65-.45-1.09.177-.133.329-.295.45-.48.22-.285.409-.593.56-.92.12-.023.225-.096.29-.2.227-.368.329-.8.29-1.23-.055-.096-.16-.15-.27-.14.152-1.13-.489-2.216-1.55-2.63-.326-.128-.66-.234-1-.32-.27-.07-.47-.2-.49-.32-.02-.12-.43.4-.28.59 0 0-.75 0-.88.42h.15c-.7.552-1.073 1.422-.99 2.31-.1 0-.25 0-.3.14-.036.432.07.863.3 1.23.061.11.174.182.3.19.148.329.336.638.56.92.13.203.3.376.5.51 0 .4-.11.85-.48.95-.7.18-2.7.92-3 1.84l.56.51c1.295-.402 2.644-.604 4-.6 1.312-.028 2.619.175 3.86.6l.65-.56z"/>
        <circle cx="48.94" cy="13.43" r="13.43" fill="#FFF"/>
        <circle cx="48.94" cy="13.43" r="11.09" fill="#D84E55"/>
        <path fill="#FFF" d="M47.64 17.85h-.14c-.276.002-.54-.11-.73-.31l-2.52-2.68c-.247-.26-.335-.633-.233-.977.103-.344.381-.607.73-.69.35-.083.716.026.963.287l1.8 1.91 5.67-6.09c.381-.403 1.017-.421 1.42-.04s.421 1.017.04 1.42l-6.41 6.86c-.152.172-.362.282-.59.31z"/>
    </g>
</svg>
