<svg xmlns="http://www.w3.org/2000/svg" xmlns:xlink="http://www.w3.org/1999/xlink" width="300" height="148" viewBox="0 0 300 148">
    <defs>
        <linearGradient id="2kxll6ko7b" x1="-16.952%" x2="100%" y1="68.526%" y2="37.831%">
            <stop offset="0%" stop-color="#FFC16F"/>
            <stop offset="100%" stop-color="#FFDCAB"/>
        </linearGradient>
        <linearGradient id="mjvahjc02c" x1="-16.952%" x2="132.241%" y1="100.963%" y2="-19.053%">
            <stop offset="0%" stop-color="#FFC16F"/>
            <stop offset="15.254%" stop-color="#FFC16F"/>
            <stop offset="100%" stop-color="#FFDCAB"/>
        </linearGradient>
        <rect id="gcdxmsg5la" width="300" height="148" x="0" y="0" rx="8"/>
    </defs>
    <g fill="none" fill-rule="evenodd">
        <mask id="s4jyrwlwkd" fill="#fff">
            <use xlink:href="#gcdxmsg5la"/>
        </mask>
        <use fill="url(#2kxll6ko7b)" xlink:href="#gcdxmsg5la"/>
        <path fill="url(#mjvahjc02c)" d="M240.705 12.645c4.623-.98 9.557-.816 14.446.31 3.85.892 7.56 2.303 11.026 4.194 4.79 2.581 7.682 6.245 10.232 10.284l.542.87.535.882.796 1.336 1.069 1.802.545.906.557.908c1.22 1.966 2.548 3.932 4.138 5.825 4.095 4.87 9.494 8.324 15.41 10.77v89.57c0 4.419-3.583 8-8.001 8H133.818c-.598-3.632-.603-7.298.507-10.792 1.586-4.959 5.241-8.978 9.13-12.456 6.683-5.977 14.228-10.775 21.963-15.328l2.114-1.236 3.183-1.84 3.186-1.837 2.122-1.23c3.886-2.26 7.743-4.565 11.49-7.032l.487-.323.973-.654.97-.666.965-.677c.48-.342.96-.688 1.437-1.038l.951-.707.945-.718.47-.363.932-.735.925-.747c1.074-.878 2.13-1.779 3.161-2.704l.879-.798c9.02-8.308 16.11-18.449 17.965-30.368.486-3.06.62-6.207.708-9.356l.088-3.252.059-1.724.051-1.144c.27-5.33.987-10.501 3.683-15.077.875-1.475 1.828-2.82 2.85-4.036 4.036-4.807 9.14-7.64 14.693-8.819z" mask="url(#s4jyrwlwkd)"/>
    </g>
</svg>
