<svg xmlns="http://www.w3.org/2000/svg" width="117" height="76" viewBox="0 0 117 76">
    <g fill="none" fill-rule="evenodd" opacity=".89">
        <path fill="#1A335E" d="M115.292 72.506c0 1.93-25.809 3.494-57.646 3.494S0 74.436 0 72.506c0-1.93 25.81-3.493 57.646-3.493 31.837 0 57.646 1.564 57.646 3.493" opacity=".2"/>
        <path fill="#D85B4A" d="M30.387 69.315c.487 1.106-.041 2.386-1.18 2.86-1.137.472-2.455-.04-2.942-1.146-.486-1.106.04-2.386 1.18-2.86 1.137-.472 2.455.041 2.942 1.146M46.469 69.314c.487 1.105-.041 2.386-1.18 2.859-1.137.472-2.455-.04-2.942-1.145-.487-1.108.04-2.387 1.179-2.86 1.138-.473 2.456.04 2.943 1.145"/>
        <path fill="#D85B4A" d="M25.751 69.046l3.188 1.112c.322.113.663.168 1.005.165l18.09-.18 1.974-3.18-24.257 2.083zM36.025 33.916l5.053-12.202.006-.024c.03-.109.817-2.73 5.37-3.316l.02-.003 3.746-.685c.485-.124 1.882-.332 2.523.193.284.232.398.597.35 1.113-.093 1.024-3.456 8.936-5.693 14.004l.717.299c.574-1.303 5.618-12.763 5.754-14.235.07-.771-.141-1.364-.627-1.761-1.046-.857-3.001-.401-3.21-.349l-3.693.675c-4.903.635-5.904 3.516-6.004 3.847L35.3 33.633l.724.283z"/>
        <path fill="#D85B4A" d="M45.72 30.303l9.762 1.896s2.846 1.125 2.282 5.97c-.497 4.264-2.676 28.188-2.676 28.188s-.454 4.978-11.4 3.535l2.032-39.59z"/>
        <path fill="#F16A51" d="M51.132 36.884l-2.626 26.793c-.106 1.084-.502 2.079-1.11 2.915-1.126 1.549-2.978 2.553-5.055 2.564l-9.054.055-.223.002-5.671.034c-.571.004-1.121-.067-1.643-.201-.122-.031-.242-.066-.361-.104-1.963-.632-3.473-2.184-4.032-4.093-.239-.813-.305-1.69-.162-2.587l4.113-25.636c.438-2.733 2.729-4.831 5.564-5.095l1.6-.148.381-.034.001-.001.32-.03 5.346-.496.656-.061 5.158-.48c.81-.073 1.593.005 2.322.208l.143.043.299.099c2.544.92 4.311 3.415 4.034 6.253"/>
        <path fill="#D85B4A" d="M47.396 66.592c-1.126 1.549-2.978 2.553-5.055 2.564l-9.053.055-.224.002-5.671.034c-.57.004-1.121-.067-1.643-.201-.122-.031-.242-.066-.361-.104-1.963-.632-4.225-2.941-4.258-5.39 0 0 19.152-.243 23.155.357 2.065.31 2.682 1.713 3.11 2.683"/>
        <path fill="#D85B4A" d="M33.174 31.318c-.039.023-4.238 2.51-4.791 4.693-.566 2.245-4.358 28.405-4.396 28.67-.002.02-.107 2.548 2.051 4.431l-.288-.066c-.122-.032-.242-.067-.361-.105-2.028-1.954-1.754-4.207-1.74-4.307.156-1.08 3.832-26.44 4.403-28.7.5-1.98 3.461-3.956 4.42-4.552l.381-.034h.001l.32-.03zM39.176 30.76c-.604.398-2.91 2.1-3.401 5.243-.578 3.687-2.831 30.46-2.854 30.73l-.002.019-.006.018c-.005.013-.326 1.459.602 2.44h-.228l-.223.003c-.89-1.052-.537-2.344-.483-2.525.07-.828 2.283-27.077 2.856-30.734.424-2.708 2.14-4.392 3.083-5.131l.656-.062zM47.097 30.632c-.018.01-.89.488-1.641 1.317-.752.829-1.568 2.106-1.85 3.905-.576 3.684-2.363 30.369-2.382 30.636l-.001.022-.007.018c-.004.014-.083 1.647.845 2.628l-.57.004c-.71-.897-.665-2.52-.606-2.712.057-.853 1.81-26.99 2.383-30.646.539-3.44 2.889-5.015 3.389-5.315l.142.043.298.1z"/>
        <path fill="#D8A956" d="M62.684 68.513c.622 1.444-.058 3.113-1.52 3.729-1.46.614-3.148-.06-3.77-1.503-.621-1.445.059-3.114 1.519-3.73 1.46-.613 3.15.06 3.77 1.504M83.306 68.55c.62 1.444-.06 3.114-1.52 3.729-1.46.615-3.15-.058-3.77-1.502-.622-1.445.058-3.115 1.519-3.73 1.46-.614 3.149.059 3.77 1.503"/>
        <path fill="#D8A956" d="M56.74 68.148l4.085 1.46c.413.147.85.221 1.288.218l23.196-.19 2.54-4.146-31.109 2.658zM70 22.323L76.51 6.41l.008-.03c.04-.143 1.054-3.56 6.894-4.314l.027-.004 4.804-.886c.62-.16 2.413-.428 3.234.258.363.305.51.781.448 1.455-.123 1.335-4.455 11.654-7.336 18.263l.918.392c.74-1.699 7.236-16.643 7.413-18.565.093-1.006-.177-1.78-.799-2.3-1.34-1.12-3.848-.53-4.114-.464l-4.737.872c-6.29.817-7.582 4.575-7.709 5.007l-6.488 15.86.927.37z"/>
        <path fill="#D8A956" d="M82.442 17.632l12.513 2.499s3.647 1.475 2.91 7.798c-.647 5.563-3.5 36.784-3.5 36.784s-.596 6.496-14.627 4.584l2.704-51.665z"/>
        <path fill="#FFCB64" d="M89.364 26.234l-3.433 34.963c-.139 1.415-.649 2.713-1.43 3.803-1.448 2.018-3.825 3.324-6.49 3.335l-11.608.048-.288.001-7.27.032c-.732.003-1.438-.09-2.106-.268-.157-.04-.312-.087-.464-.137-2.515-.83-4.448-2.859-5.16-5.352-.304-1.06-.387-2.205-.2-3.377l5.336-33.448c.57-3.568 3.512-6.299 7.15-6.636l2.05-.19.49-.045.41-.038 6.857-.634.841-.078 6.616-.61c1.038-.097 2.042.007 2.976.275.061.017.122.036.184.055l.382.13c3.26 1.207 5.52 4.468 5.157 8.171"/>
        <path fill="#D8A956" d="M84.5 65c-1.446 2.019-3.824 3.324-6.488 3.335l-11.609.049-.288.001-7.27.031c-.732.003-1.438-.091-2.106-.268-.157-.041-.31-.086-.464-.136-2.515-.83-5.41-3.849-5.446-7.045 0 0 24.56-.27 29.69.524 2.647.409 3.436 2.241 3.981 3.509"/>
        <path fill="#D8A956" d="M66.352 18.926c-.051.03-5.441 3.265-6.154 6.114-.734 2.928-5.66 37.062-5.708 37.407-.004.027-.145 3.327 2.618 5.79l-.368-.088c-.158-.041-.312-.087-.464-.137-2.594-2.557-2.24-5.496-2.221-5.625.203-1.41 4.98-34.502 5.717-37.451.647-2.583 4.448-5.153 5.68-5.927l.489-.045.41-.038zM74.049 18.214c-.776.516-3.736 2.732-4.375 6.833-.749 4.81-3.705 39.749-3.734 40.1l-.003.026-.008.022c-.005.019-.421 1.904.766 3.187l-.292.002h-.288c-1.135-1.374-.681-3.06-.611-3.297.092-1.08 2.994-35.334 3.737-40.105.551-3.534 2.756-5.727 3.967-6.691l.841-.077zM84.207 18.064c-.023.014-1.143.637-2.108 1.715-.966 1.081-2.017 2.745-2.382 5.093-.749 4.806-3.107 39.63-3.13 39.98l-.002.027-.008.025c-.006.017-.11 2.148 1.076 3.433l-.73.002c-.908-1.171-.848-3.29-.772-3.54.077-1.114 2.39-35.223 3.133-39.994.698-4.485 3.715-6.538 4.358-6.927l.183.055.382.131z"/>
        <path fill="#3F0B33" d="M15.701 47.98c-.032-1.255.591-2.421 1.642-3.106 1.706-1.113 4.612-2.425 8.61-2.17 6.744.428 8.243 4.175 8.458 7.066.214 2.891 2.463 7.066 2.998 10.28.535 3.212 1.43 11.383-3.349 12.026-4.778.64-20.793 0-20.793 0s-3.73-4.373 0-12.776c2.213-4.983 2.491-9.131 2.434-11.32"/>
        <path fill="#681150" d="M17.77 43.66l1.279-.17c0-.003-.051-.899.4-1.574.348-.517.926-.807 1.716-.856.747-.047 1.34.166 1.724.64.54.666.554 1.68.554 1.69l1.285.006c0-.07-.002-1.719-.94-2.894-.646-.812-1.551-1.158-2.686-1.117-1.162.074-2.05.563-2.637 1.454-.81 1.228-.7 2.758-.694 2.821"/>
        <path fill="#681150" d="M10.004 72.07s16.02.65 20.799 0c4.78-.636 3.888-8.808 3.341-12.028-.532-3.204-2.776-7.384-2.998-10.28-.035-.548-.121-1.147-.291-1.73-.686-2.468-2.725-4.985-8.156-5.328-4.008-.257-6.904 1.062-8.617 2.176-1.045.684-1.68 1.85-1.645 3.1 0 .257.017.567.017.874-.034 2.347-.497 6.082-2.45 10.451-3.734 8.395 0 12.764 0 12.764"/>
        <path fill="#3F0B33" d="M32.015 61.227H22.45s-.643 6.995 3.926 7.21c4.569.215 5.783-2.712 5.639-7.21"/>
        <path fill="#3F0B33" d="M32.015 61.227s-1.642 2.498-4.64 2.428c-2.998-.072-4.925-2.428-4.925-2.428h9.565zM20.508 61.227h-9.565s-.643 6.995 3.925 7.21c4.57.215 5.783-2.712 5.64-7.21"/>
        <path fill="#3F0B33" d="M20.508 61.227s-1.642 2.498-4.64 2.428c-2.998-.072-4.925-2.428-4.925-2.428h9.565zM12.437 47.98c0 .258.018.567.018.875 1.764 2.21 4.762 4.866 8.789 4.729 6.852-.208 9.61-5.552 9.61-5.552-.685-2.467-2.724-4.985-8.154-5.327-4.01-.258-6.905 1.062-8.617 2.175-1.045.684-1.68 1.85-1.646 3.1"/>
        <path fill="#3F0B33" d="M21.461 54.98c.433 0 .786-.354.786-.785v-.715c0-.431-.353-.784-.786-.784-.432 0-.785.352-.785.785v.713c0 .431.353.785.785.785"/>
        <path fill="#12243F" d="M62.727 55.5h4.705c1.698 0 3.057 1.135 3.284 2.784.073.525.119 1.149.128 1.889.036 3.135.434 8.002.663 10.585.08.9-.71 1.748-1.628 1.748h-7.011L62.727 55.5z"/>
        <path fill="#1A335E" d="M65.12 72.506c-.759-.09-35.764 0-35.764 0s-1.39-.2.611-6.226c.1-.303.18-.626.243-.961.313-1.642.263-3.6.56-5.174 0 0 .172-5.045 6.827-4.626 6.654.418 18.872.458 23.542-.022 4.668-.48 5.273 3.116 4.785 5.375-.078.363-.133.91-.173 1.575-.205 3.475.005 10.132-.632 10.059"/>
        <path fill="#1A335E" d="M56.58 57.574c-.018-.036-1.855-3.755-5.63-3.984-3.817-.233-8.122 3.556-8.165 3.594l-.723-.828c.193-.172 4.76-4.199 9.102-3.935 4.391.266 6.406 4.373 6.49 4.548l-1.074.605z"/>
        <path fill="#BB3A45" d="M91.254 69.382c-.487 1.139.041 2.456 1.179 2.943 1.138.488 2.456-.041 2.943-1.18.487-1.137-.041-2.454-1.179-2.942-1.138-.487-2.456.04-2.943 1.179"/>
        <path fill="#D84E55" d="M90.857 69.382c-.487 1.139.04 2.456 1.179 2.943 1.138.488 2.456-.041 2.943-1.18.487-1.137-.041-2.454-1.18-2.942-1.137-.487-2.455.04-2.942 1.179"/>
        <path fill="#BB3A45" d="M104.038 69.382c-.487 1.139.041 2.456 1.18 2.943 1.137.488 2.455-.041 2.942-1.18.487-1.137-.04-2.454-1.179-2.942-1.138-.487-2.456.04-2.943 1.179"/>
        <path fill="#D84E55" d="M103.64 69.382c-.486 1.139.042 2.456 1.18 2.943 1.138.488 2.456-.041 2.943-1.18.487-1.137-.041-2.454-1.18-2.942-1.137-.487-2.455.04-2.942 1.179"/>
        <path fill="#BB3A45" d="M89.491 32.246l.947-.192c-1.28-6.313-3.68-18.698-3.595-20.38.054-1.062.38-1.828.966-2.279.943-.722 2.298-.443 2.311-.44l.053.008 3.86.406c4.57.115 4.93 3.896 4.942 4.056l.006.05 3.222 17.667.951-.172-3.218-17.648c-.018-.195-.154-1.29-.872-2.4-.716-1.108-2.162-2.442-4.987-2.519l-3.78-.399c-.246-.048-1.843-.316-3.068.62-.827.63-1.282 1.64-1.35 3-.116 2.225 3.46 19.872 3.612 20.622"/>
        <path fill="#BB3A45" d="M82.241 31.176l9.762-1.952 1.91 38.286 18.058 1.597-3.187 1.144c-.323.116-.663.174-1.006.17l-17.198-.176c-.298.003-.586 0-.862-.008h-.029v-.001c-6.728-.23-7.054-3.898-7.054-3.898S80.456 41.71 79.96 37.322c-.565-4.99 2.282-6.146 2.282-6.146"/>
        <path fill="#D84E55" d="M86.591 35.998l2.626 27.581c.106 1.115.502 2.141 1.11 3.001 1.125 1.595 2.978 2.628 5.055 2.641l9.054.055.223.002 5.67.035c.572.004 1.122-.069 1.644-.207.122-.032.242-.068.361-.107 1.963-.651 3.473-2.248 4.032-4.213.239-.836.305-1.738.162-2.663l-4.113-26.39c-.438-2.813-2.729-4.972-5.565-5.244l-1.599-.153-.381-.036h-.001l-.321-.031-5.345-.51-.656-.063-5.158-.493c-.81-.077-1.593.004-2.322.214-.048.014-.096.027-.143.043l-.299.102c-2.544.947-4.311 3.515-4.034 6.436"/>
        <path fill="#BB3A45" d="M90.327 66.58c1.125 1.595 2.978 2.628 5.055 2.641l9.053.055.224.002 5.67.035c.571.004 1.122-.069 1.644-.207.122-.032.242-.068.361-.107 1.963-.65 4.225-3.027 4.258-5.548 0 0-19.152-.25-23.155.367-2.065.32-2.682 1.763-3.11 2.762"/>
        <path fill="#BB3A45" d="M104.548 30.27c.04.024 4.239 2.582 4.791 4.83.567 2.311 4.358 29.24 4.397 29.512.002.022.107 2.625-2.051 4.564l.288-.07c.122-.031.242-.067.361-.107 2.027-2.011 1.754-4.331 1.74-4.432-.156-1.112-3.832-27.22-4.403-29.547-.5-2.039-3.461-4.07-4.42-4.685l-.381-.036h-.001l-.321-.03zM98.547 29.696c.604.408 2.91 2.161 3.401 5.396.578 3.794 2.831 31.355 2.854 31.632l.002.021.006.018c.005.014.326 1.501-.602 2.512l.228.001.223.002c.889-1.083.537-2.413.483-2.6-.071-.852-2.283-27.873-2.856-31.636-.424-2.788-2.14-4.522-3.083-5.284l-.656-.062zM90.625 29.563c.02.01.891.503 1.642 1.356.752.854 1.568 2.167 1.85 4.02.576 3.791 2.363 31.26 2.382 31.536l.001.024.006.019c.005.013.084 1.694-.844 2.704l.57.004c.71-.924.665-2.594.606-2.791-.057-.879-1.81-27.785-2.384-31.549-.538-3.539-2.888-5.162-3.388-5.47l-.142.043-.299.104z"/>
    </g>
</svg>
