<?xml version="1.0" encoding="UTF-8"?>
<svg width="16px" height="16px" viewBox="0 0 16 16" version="1.1" xmlns="http://www.w3.org/2000/svg" xmlns:xlink="http://www.w3.org/1999/xlink">
    <title>ic-arrow-right-color</title>
    <g id="mWeb-Home-Page" stroke="none" stroke-width="1" fill="none" fill-rule="evenodd">
        <g id="ic-arrow-right-color" fill="#1034D9" fill-rule="nonzero">
            <path d="M8,1.66666667 C11.4978034,1.66666667 14.3333333,4.50219658 14.3333333,8 C14.3333333,11.4978034 11.4978034,14.3333333 8,14.3333333 C4.50219658,14.3333333 1.66666667,11.4978034 1.66666667,8 C1.66666667,4.50219658 4.50219658,1.66666667 8,1.66666667 Z M8,2.33333333 C4.87038642,2.33333333 2.33333333,4.87038642 2.33333333,8 C2.33333333,11.1296136 4.87038642,13.6666667 8,13.6666667 C11.1296136,13.6666667 13.6666667,11.1296136 13.6666667,8 C13.6666667,4.87038642 11.1296136,2.33333333 8,2.33333333 Z M8.23122833,5.09324058 L10.897895,7.66145084 C11.0338223,7.79235956 11.0340672,8.009901 10.8984349,8.14111538 L8.23710157,10.7157623 C8.10478977,10.8437643 7.8937637,10.8402706 7.76576164,10.7079588 C7.63775958,10.575647 7.64125331,10.3646209 7.7735651,10.2366189 L9.83933333,8.238 L4.66666667,8.23809524 C4.50302674,8.23809524 4.36692775,8.12017846 4.33870378,7.96467899 L4.33333333,7.9047619 C4.33333333,7.74112198 4.45125011,7.60502299 4.60674958,7.57679902 L4.66666667,7.57142857 L9.84333333,7.57133333 L7.76877167,5.57342625 C7.63617206,5.44572237 7.63220328,5.2347047 7.75990716,5.10210508 C7.88761105,4.96950547 8.09862872,4.9655367 8.23122833,5.09324058 Z" id="Shape"></path>
        </g>
    </g>
</svg>