<?xml version="1.0" encoding="UTF-8"?>
<svg width="24px" height="24px" viewBox="0 0 24 24" version="1.1" xmlns="http://www.w3.org/2000/svg" xmlns:xlink="http://www.w3.org/1999/xlink">
    <title>ic-advance-payment</title>
    <g id="mWeb-Home-Page" stroke="none" stroke-width="1" fill="none" fill-rule="evenodd">
        <g id="ic-advance-payment" fill="#1446A0" fill-rule="nonzero">
            <path d="M12,2 C12.7554479,2 13.3532597,2.42337396 13.8512199,2.88863016 L14.1132792,3.14426692 L14.3576172,3.39445312 C14.6088672,3.69972656 14.9091406,3.96144531 15.2453906,4.16914062 C15.6557813,4.27214844 16.0803906,4.30480469 16.5016797,4.26546875 L16.8618455,4.26549782 C17.6510531,4.26955972 18.4840755,4.32519792 19.0937891,4.93128906 C19.6566016,5.49075781 19.7557641,6.24585156 19.7643366,6.97791031 L19.7596094,7.51921875 C19.7202344,7.94050781 19.7528906,8.36511719 19.8559375,8.77550781 C20.0636328,9.11175781 20.3253516,9.41203125 20.630625,9.66328125 L20.872058,9.90032486 L21.1212599,10.1570218 C21.576626,10.6467403 22,11.2445521 22,12 C22,12.7554479 21.576626,13.3532597 21.1130182,13.8512199 L20.8584539,14.1132792 L20.6097266,14.3576172 C20.3044531,14.6088672 20.0427344,14.9091406 19.8350391,15.2453906 C19.7320313,15.6557813 19.699375,16.0803906 19.7387109,16.5016797 L19.7386819,16.8605799 C19.73462,17.6478394 19.6789818,18.4835182 19.0728906,19.0896094 C18.4667995,19.6957005 17.6311207,19.7639257 16.8411403,19.7604354 L16.4807813,19.7554297 C16.0594922,19.7156641 15.6348828,19.7483203 15.2244922,19.8517578 C14.8882422,20.0594531 14.5883984,20.3211719 14.3367188,20.6264453 L14.0996751,20.8693372 C13.5654347,21.408676 12.8928021,22 12,22 C11.1071979,22 10.4345653,21.4181236 9.88672075,20.8595121 L9.64238281,20.6055469 C9.39113281,20.3002734 9.09085938,20.0385547 8.75460938,19.8308594 C8.34421875,19.7286719 7.91960937,19.6960156 7.49832031,19.7345313 L7.13815446,19.7345022 C6.34894687,19.7304403 5.51592448,19.6748021 4.90621094,19.0687109 C4.34339844,18.5092422 4.25763594,17.7568234 4.25442344,17.0236947 L4.25786997,16.6597204 C4.25898212,16.5996535 4.26021094,16.5399661 4.26132813,16.4807813 C4.30070312,16.0594922 4.26804687,15.6348828 4.165,15.2244922 C3.95730469,14.8882422 3.69558594,14.5879688 3.3903125,14.3367188 L3.14157153,14.0996751 L2.88699722,13.8429782 C2.42337396,13.3532597 2,12.7554479 2,12 C2,11.2445521 2.42337396,10.6467403 2.88698182,10.1487801 L3.1415461,9.88672075 L3.39027344,9.64238281 C3.69554688,9.39113281 3.95726563,9.09085938 4.165,8.75460938 C4.26800781,8.34421875 4.30066406,7.91960938 4.26132813,7.49832031 L4.2613572,7.13942013 C4.2654191,6.35216059 4.32105729,5.51648177 4.92714844,4.91039062 C5.53323958,4.30429948 6.3689184,4.23607431 7.15889876,4.23956459 L7.51925781,4.24457031 C7.94054687,4.28394531 8.36515625,4.25167969 8.77554688,4.14824219 C9.11179687,3.94054688 9.41164063,3.67882813 9.66332031,3.37355469 L9.90035029,3.13066281 C10.4345653,2.59132396 11.1071979,2 12,2 L12,2 Z M12,3 C11.6562949,3 11.3167933,3.17576579 10.8802062,3.57397223 L10.6136011,3.83062794 L10.4349056,4.00968059 C10.1777665,4.32157602 9.88122671,4.59785866 9.55302642,4.83170544 L9.3010608,4.99902719 L9.16968452,5.08017585 L9.01994971,5.11791597 C8.49982272,5.24901214 7.96110928,5.29022532 7.50038495,5.2443922 C6.38289174,5.22329815 5.9504191,5.30133352 5.63425522,5.61749741 C5.38354496,5.86820767 5.2828058,6.22829711 5.26438957,6.93730462 L5.2569974,7.40535425 C5.29854095,7.85028684 5.27677598,8.29831009 5.1927746,8.73645757 L5.13491399,8.99805723 L5.09718811,9.14835986 L5.01574081,9.28019483 C4.75006625,9.71022993 4.41552291,10.0937071 4.08988888,10.3569024 L3.74831387,10.6948873 C3.22282131,11.2313804 3,11.6117076 3,12 C3,12.3883256 3.22524467,12.771155 3.7408855,13.2864674 L4.02579116,13.5646003 C4.33763438,13.8212575 4.61411843,14.1180324 4.84824318,14.4466622 L5.015785,14.6989783 L5.0971745,14.8307445 L5.13489218,14.9809575 C5.24379826,15.4146828 5.29064147,15.8608812 5.2767572,16.2636509 L5.25944301,16.5875882 L5.25435256,17.0327737 L5.25721451,17.1946981 C5.27454592,17.787734 5.37823583,18.1279127 5.61120782,18.3595005 C5.86549906,18.612281 6.22536968,18.7130642 6.93565044,18.7314719 L7.40727673,18.7386843 C7.85115504,18.6981035 8.29809781,18.7199595 8.73523178,18.8031925 L8.99623212,18.8604891 L9.1474985,18.8981545 L9.2801233,18.9800744 C9.7101744,19.2457089 10.0936798,19.5802642 10.3664176,19.9157835 L10.6587902,20.218122 C11.2053322,20.7665512 11.5965063,21 12,21 C12.3437051,21 12.6832034,20.8242374 13.1198173,20.4260189 L13.3863556,20.1694424 L13.5651335,19.9903194 C13.8222726,19.678424 14.1188124,19.4021413 14.4470126,19.1682946 L14.6989783,19.0009728 L14.8303545,18.9198242 L14.9800894,18.882084 C15.5011205,18.75076 16.0401727,18.7093956 16.4996541,18.7556078 C17.6171473,18.7767019 18.04962,18.6986665 18.3657838,18.3825026 C18.6164941,18.1317923 18.7172333,17.7717029 18.7356495,17.0626954 L18.7430417,16.5946457 C18.7014981,16.1497132 18.7232631,15.7016899 18.8072645,15.2635424 L18.8651251,15.0019428 L18.9028405,14.8516819 L18.9842541,14.7198767 C19.2498886,14.2898256 19.5844439,13.9063202 19.9101111,13.6430976 L20.2516861,13.3051127 C20.7771787,12.7686196 21,12.3882924 21,12 C21,11.6577064 20.8258458,11.3195593 20.4310403,10.8840622 L20.0702169,10.5107707 L19.9951463,10.4353997 C19.6833031,10.1787425 19.4068191,9.88196764 19.1726943,9.55333781 L19.0051525,9.30102174 L18.923763,9.16925555 L18.8860453,9.01904251 C18.7771392,8.58531725 18.730296,8.13911879 18.7441813,7.73629742 L18.7600778,7.4850414 L18.7650048,7.12341263 L18.759111,6.78929433 C18.7343463,6.21728916 18.6236872,5.87399897 18.3887922,5.64049947 C18.1345009,5.387719 17.7746303,5.28693579 17.0643496,5.26852805 L16.5946457,5.26113803 C16.1497132,5.30268157 15.7016899,5.28091661 15.2635424,5.19691523 L15.0019428,5.13905461 L14.8516819,5.10133922 L14.7198767,5.01992563 C14.2898256,4.75429114 13.9063202,4.41973581 13.6406863,4.09159738 L13.3097418,3.75510068 C12.771793,3.22491287 12.3899302,3 12,3 L12,3 Z M14.3399558,11.5165563 C14.8579838,11.5165563 15.2641648,11.6799117 15.5584989,12.0066225 C15.852833,12.3333333 16,12.7851361 16,13.3620309 C16,13.9389257 15.852833,14.3936718 15.5584989,14.7262693 C15.2641648,15.0588668 14.8579838,15.2251656 14.3399558,15.2251656 C13.8278146,15.2251656 13.4245769,15.0588668 13.1302428,14.7262693 C12.8359088,14.3936718 12.6887417,13.9389257 12.6887417,13.3620309 C12.6887417,12.7910228 12.8359088,12.3406917 13.1302428,12.0110375 C13.4245769,11.6813834 13.8278146,11.5165563 14.3399558,11.5165563 Z M14.6578366,9.01766004 L10.1545254,15.1986755 L9.27152318,15.1986755 L13.7836645,9.01766004 L14.6578366,9.01766004 Z M14.3399558,12.187638 C14.0573951,12.187638 13.8381163,12.2906549 13.6821192,12.4966887 C13.5261221,12.7027226 13.4481236,12.99117 13.4481236,13.3620309 C13.4481236,13.7387785 13.5261221,14.0316409 13.6821192,14.2406181 C13.8381163,14.4495953 14.0573951,14.5540839 14.3399558,14.5540839 C14.6284032,14.5540839 14.8520971,14.4495953 15.0110375,14.2406181 C15.1699779,14.0316409 15.2494481,13.7387785 15.2494481,13.3620309 C15.2494481,12.99117 15.1699779,12.7027226 15.0110375,12.4966887 C14.8520971,12.2906549 14.6284032,12.187638 14.3399558,12.187638 Z M9.65121413,9 C10.1692421,9 10.5754231,9.16335541 10.8697572,9.49006623 C11.1640912,9.81677704 11.3112583,10.2685798 11.3112583,10.8454746 C11.3112583,11.4223694 11.1640912,11.8771155 10.8697572,12.209713 C10.5754231,12.5423105 10.1692421,12.7086093 9.65121413,12.7086093 C9.13907285,12.7086093 8.73583517,12.5423105 8.4415011,12.209713 C8.14716703,11.8771155 8,11.4223694 8,10.8454746 C8,10.2744665 8.14716703,9.82413539 8.4415011,9.49448124 C8.73583517,9.16482708 9.13907285,9 9.65121413,9 L9.65121413,9 Z M9.65121413,9.67108168 C9.36865342,9.67108168 9.14937454,9.7740986 8.99337748,9.98013245 C8.83738043,10.1861663 8.7593819,10.4746137 8.7593819,10.8454746 C8.7593819,11.2222222 8.83738043,11.5150846 8.99337748,11.7240618 C9.14937454,11.933039 9.36865342,12.0375276 9.65121413,12.0375276 C9.93966152,12.0375276 10.1633554,11.933039 10.3222958,11.7240618 C10.4812362,11.5150846 10.5607064,11.2222222 10.5607064,10.8454746 C10.5607064,10.4746137 10.4812362,10.1861663 10.3222958,9.98013245 C10.1633554,9.7740986 9.93966152,9.67108168 9.65121413,9.67108168 Z" id="Shape"></path>
        </g>
    </g>
</svg>