<?xml version="1.0" encoding="UTF-8"?>
<svg width="32px" height="32px" viewBox="0 0 32 32" version="1.1" xmlns="http://www.w3.org/2000/svg" xmlns:xlink="http://www.w3.org/1999/xlink">
    <title>ic-blanket</title>
    <g id="mWeb-Home-Page" stroke="none" stroke-width="1" fill="none" fill-rule="evenodd">
        <g id="v" transform="translate(-157.000000, -181.000000)" fill="#D84E55" fill-rule="nonzero">
            <g id="ic-blanket" transform="translate(157.000000, 181.000000)">
                <path d="M28.5209977,3.5515679 C28.7524581,3.78295109 28.7782316,4.14217933 28.5982802,4.40203354 L28.521155,4.49437692 L4.52585481,28.4976834 C4.26554871,28.7580764 3.84343873,28.7581468 3.58304578,28.4978407 C3.35158538,28.2664575 3.32581192,27.9072292 3.50576331,27.647375 L3.58288851,27.5550317 L27.5781887,3.55172516 C27.8384948,3.29133221 28.2606048,3.2912618 28.5209977,3.5515679 Z M26.3049678,8.59876933 C28.5645505,9.67863451 29.3096878,11.5225383 28.5824706,14.1726285 L28.4950562,14.4722026 L28.452,14.5746667 L28.4989477,14.6165283 L28.6886467,14.808948 L28.8715727,15.0209042 C30.3190759,16.8150519 30.3473356,20.0686945 29.1171287,22.2887733 C29.0009017,22.4955566 28.8744092,22.69254 28.7386463,22.8790912 C27.9440218,23.9620386 26.7631717,24.580661 25.4806017,24.6583309 L25.204312,24.6666667 L10.241875,24.6649806 L11.573875,23.3329806 L25.204312,23.3333333 C26.176374,23.3333333 27.0688337,22.90096 27.6621091,22.0924283 C27.7657783,21.9499702 27.8641363,21.7967998 27.9528457,21.638999 C28.9353336,19.8659434 28.9121316,17.1946133 27.8342335,15.8585824 C27.3633459,15.2759886 26.7857958,15.0150364 26.240461,14.9421768 C25.8786867,14.9421768 25.5087672,14.9390172 25.1283294,14.9328086 L23.9530874,14.9051468 C23.3901844,14.8881479 22.8509029,14.8677831 22.2427122,14.840411 L20.169875,14.7343139 L21.4405417,13.4636472 L22.2992083,13.5082637 L23.4408504,13.5543557 C23.6247819,13.5608414 23.8078095,13.5668185 23.9933339,13.5724211 C24.7882507,13.5964265 25.5311193,13.6088435 26.3226367,13.6139275 C26.6363141,13.6528896 26.9443558,13.7235606 27.2422433,13.8333543 L27.2866667,13.852 L27.2962762,13.8223841 C27.8981171,11.6506568 27.3239706,10.3870372 25.2940017,9.61067457 L26.3049678,8.59876933 Z M21.729516,7.52020135 L20.4929562,8.75653778 C17.5506506,8.56702317 13.5708345,8.6704222 8.26128481,9.04276926 C6.90453846,9.36667858 5.6120102,10.1366853 4.63341058,11.714707 C2.84804707,14.5982112 2.89323676,19.2045568 4.81668168,21.6025895 C5.28865298,22.1908258 5.8164606,22.6023351 6.37359583,22.8773737 L5.39134701,23.8622909 C4.81487887,23.5191786 4.27118584,23.053282 3.77665119,22.4369241 C1.48151602,19.575491 1.43030315,14.3551798 3.50003135,11.0124043 C4.6903992,9.09289945 6.28263183,8.14434784 8.05912549,7.72934306 L9.40976834,7.63704759 L10.7962839,7.55127655 C15.5343376,7.27546093 19.0771819,7.25648778 21.729516,7.52020135 Z M24.9281306,18.9728079 C24.9709656,19.3384976 24.7092401,19.6696722 24.3435505,19.7125072 L23.7147445,19.7790271 L22.9245516,19.8527341 L22.0536836,19.9239296 C19.964711,20.0829528 17.8515104,20.1640885 15.8748219,20.1252238 C15.5115056,20.1180805 15.1575407,20.1072811 14.8132286,20.0926348 L16.1112083,18.7943139 L16.8766699,18.801508 C18.5201435,18.8014208 20.2442396,18.7244825 21.9524763,18.5944429 L22.8077936,18.5245225 L24.1884313,18.3882278 C24.554121,18.3453929 24.8852956,18.6071183 24.9281306,18.9728079 Z M16.0511869,13.1959701 L14.7598201,14.4874643 C13.3610667,14.4529701 12.4323291,14.4796086 11.521706,14.5692185 L11.218216,14.6014232 C9.09166548,14.8430063 8.1765299,15.4198739 8.1765299,16.4287401 C8.1765299,17.2583176 9.16619702,17.8931814 10.9529424,18.2964625 L9.84133363,19.4081572 C7.90908437,18.8338065 6.84319657,17.8828213 6.84319657,16.4287401 C6.84319657,14.6083588 8.23696163,13.6597662 10.7595953,13.3150907 L11.067713,13.2766113 L11.5689534,13.2253935 C12.7386588,13.1198468 13.9497958,13.1117826 16.0511869,13.1959701 Z" id="Combined-Shape"></path>
            </g>
        </g>
    </g>
</svg>