<?xml version="1.0" encoding="UTF-8"?>
<svg width="24px" height="24px" viewBox="0 0 24 24" version="1.1" xmlns="http://www.w3.org/2000/svg" xmlns:xlink="http://www.w3.org/1999/xlink">
    <title>ic-card-payment</title>
    <g id="mWeb-Home-Page" stroke="none" stroke-width="1" fill="none" fill-rule="evenodd">
        <g id="ic-card-payment" fill="#1446A0" fill-rule="nonzero">
            <path d="M4,7 C3.44771525,7 3,7.44771525 3,8 L3,17 C3,17.5522847 3.44771525,18 4,18 L20,18 C20.5522847,18 21,17.5522847 21,17 L21,8 C21,7.44771525 20.5522847,7 20,7 L4,7 Z M20,6 C21.1045695,6 22,6.8954305 22,8 L22,17 C22,18.1045695 21.1045695,19 20,19 L4,19 C2.8954305,19 2,18.1045695 2,17 L2,8 C2,6.8954305 2.8954305,6 4,6 L20,6 Z M8,13 C7.63571286,13 7.29417337,13.0973943 7,13.2675644 C6.70582663,13.0973943 6.36428714,13 6,13 C4.8954305,13 4,13.8954305 4,15 C4,16.1045695 4.8954305,17 6,17 C6.36428714,17 6.70582663,16.9026057 7,16.7324356 C7.29417337,16.9026057 7.63571286,17 8,17 C9.1045695,17 10,16.1045695 10,15 C10,13.8954305 9.1045695,13 8,13 Z M21,9 L3,9 L3,11 L21,11 L21,9 Z" id="Shape"></path>
        </g>
    </g>
</svg>