<?xml version="1.0" encoding="UTF-8"?>
<svg width="32px" height="32px" viewBox="0 0 32 32" version="1.1" xmlns="http://www.w3.org/2000/svg" xmlns:xlink="http://www.w3.org/1999/xlink">
    <title>ic-clean</title>
    <g id="mWeb-Home-Page" stroke="none" stroke-width="1" fill="none" fill-rule="evenodd">
        <g id="v" transform="translate(-157.000000, -129.000000)" fill="#D84E55">
            <g id="ic-clean" transform="translate(157.000000, 129.000000)">
                <path d="M8.74074074,8.78947368 L8.6217041,10.0528564 L5.32999674,10.0528564 L5.18518519,8.78947368 L4.9887453,8.78947368 C4.25236563,8.78947368 3.65541196,8.19252002 3.65541196,7.45614035 C3.65541196,7.29088166 3.68613394,7.12706303 3.74601212,6.97303369 L4.18249806,5.85022668 C4.38175985,5.33764993 4.87528561,5 5.42523123,5 L10.962963,5 C11.0130384,5 11.0624691,5.00276049 11.1111111,5.0081376 L13.3333333,5 C14.069713,5 14.6666667,5.59695367 14.6666667,6.33333333 L14.6666667,7.45614035 C14.6666667,8.19252002 14.069713,8.78947368 13.3333333,8.78947368 L12.3240651,8.78947368 L12.3470704,9.38563089 C12.3602551,9.66108539 12.3759565,9.90255963 12.3941466,10.1098552 C12.4549554,10.8028362 12.5778493,11.659398 12.7630468,12.6772685 C12.8289554,13.0395112 12.5887291,13.3865965 12.2264864,13.4525051 C11.8642437,13.5184138 11.5171584,13.2781875 11.4512498,12.9159447 C11.2592299,11.8605778 11.1307128,10.9648225 11.0659171,10.2264069 L11.0297515,9.72246169 C11.013624,9.4468923 11.0004226,9.13587904 10.9901165,8.78920269 L8.74074074,8.78947368 L8.74074074,8.78947368 Z M5.42523123,6.33333333 L4.9887453,7.45614035 L10.962963,7.45614035 L10.962963,6.33333333 L5.42523123,6.33333333 Z M13.3333333,6.33333333 L12.2962963,6.33333333 L12.2994299,7.45614035 L12.2994299,7.45614035 L13.3333333,7.45614035 L13.3333333,6.33333333 Z M9.52279405,16.7423555 L8.59259259,16.4473007 L8.59259259,11.3859649 L5.33333333,11.3859649 L5.33333333,27.6666667 L13.3333333,27.6666667 L13.3333333,22.6842105 C13.3333333,19.1844731 12.3258759,17.6314775 9.52279405,16.7423555 Z M8.59259259,10.0526316 C9.32897226,10.0526316 9.92592593,10.6495852 9.92592593,11.3859649 L9.92592593,15.4714257 C13.3528758,16.5584352 14.6666667,18.6787108 14.6666667,22.6842105 L14.6666667,27.6666667 C14.6666667,28.4030463 14.069713,29 13.3333333,29 L5.33333333,29 C4.59695367,29 4,28.4030463 4,27.6666667 L4,11.3859649 C4,10.6495852 4.59695367,10.0526316 5.33333333,10.0526316 L8.59259259,10.0526316 Z M25.3329497,18.3333333 L24.1063799,27.6666667 L18.5604355,27.6666667 L17.3338657,18.3333333 L25.3329497,18.3333333 Z M9.33333333,21 C9.33333333,22.4727818 8.13944843,23.6666667 6.66666667,23.6666667 C8.13944843,23.6666667 9.33333333,24.8608551 9.33333333,26.3333333 C9.33333333,24.8608551 10.5272182,23.6666667 12,23.6666667 C10.5272182,23.6666667 9.33333333,22.4727818 9.33333333,21 Z M26.6666667,7.66666667 C26.6666667,9.13944843 27.8605516,10.3333333 29.3333333,10.3333333 C27.8605516,10.3333333 26.6666667,11.5275217 26.6666667,13 C26.6666667,11.5275217 25.4727818,10.3333333 24,10.3333333 C25.4727818,10.3333333 26.6666667,9.13944843 26.6666667,7.66666667 Z M18.6666667,3.66666667 C18.6666667,5.13944843 19.8605516,6.33333333 21.3333333,6.33333333 C19.8605516,6.33333333 18.6666667,7.52752172 18.6666667,9 C18.6666667,7.52752172 17.4727818,6.33333333 16,6.33333333 C17.4727818,6.33333333 18.6666667,5.13944843 18.6666667,3.66666667 Z M24.8113248,14.6337542 L24.8270176,14.6952173 L24.8270176,14.6952173 L25.3047453,17 L25.3329497,17 C26.0693293,17 26.666283,17.5969537 26.666283,18.3333333 C26.666283,18.3914293 26.662486,18.4494631 26.6549162,18.5070638 L25.4283464,27.8403971 C25.3411478,28.503917 24.7756049,29 24.1063799,29 L18.5604355,29 C17.8912104,29 17.3256675,28.503917 17.238469,27.8403971 L16.0118992,18.5070638 C15.9159505,17.7769618 16.4300333,17.1073155 17.1601352,17.0113668 L17.2468147,17.0028447 L17.2468147,17.0028447 L17.4527453,17 L17.5379306,16.0585378 C17.5991138,15.3774994 18.1621957,14.8622543 18.8295456,14.8448774 L19.0151516,14.8528863 L20.3307761,15.0010713 C20.4844891,15.0183847 20.6400425,15.0088184 20.7904756,14.9728003 L23.2129815,14.3921543 L23.2129815,14.3921543 L23.9426835,14.1706136 C24.3104449,14.0586377 24.6993489,14.2659928 24.8113248,14.6337542 Z M21.3333333,19.6666667 C21.3333333,21.1394484 20.1394484,22.3333333 18.6666667,22.3333333 C20.1394484,22.3333333 21.3333333,23.5275217 21.3333333,25 C21.3333333,23.5275217 22.5272182,22.3333333 24,22.3333333 C22.5272182,22.3333333 21.3333333,21.1394484 21.3333333,19.6666667 Z M23.9436425,17.0026021 L23.6631532,15.6494939 L23.4843318,15.6988318 L23.4843318,15.6988318 L21.1009392,16.2694846 C20.8000728,16.3415207 20.4889661,16.3606534 20.1815401,16.3260265 L18.8659156,16.1778415 L18.7918207,17.0026021 L23.9436425,17.0026021 Z" id="Shape"></path>
            </g>
        </g>
    </g>
</svg>