<?xml version="1.0" encoding="UTF-8"?>
<svg width="24px" height="24px" viewBox="0 0 24 24" version="1.1" xmlns="http://www.w3.org/2000/svg" xmlns:xlink="http://www.w3.org/1999/xlink">
    <title>Rectangle</title>
    <defs>
        <filter id="filter-1">
            <feColorMatrix in="SourceGraphic" type="matrix" values="0 0 0 0 0.243137 0 0 0 0 0.243137 0 0 0 0 0.321569 0 0 0 1.000000 0"></feColorMatrix>
        </filter>
    </defs>
    <g id="Symbols" stroke="none" stroke-width="1" fill="#3E3E52" fill-rule="evenodd">
        <g id="Bus-Amenities-/-Bus-Tracking-Copy">
            <g>
                <path d="M20.467,19.6404 L8.14,19.6334 L8.00188202,17.0314 C7.997,16.9424 8.151,16.7774 8.451,16.7014 L8.869,16.5954 C10.167,16.3194 11.991,16.1774 14.304,16.1774 C16.617,16.1774 18.443,16.3194 19.74,16.5954 L20.156,16.7014 C20.457,16.7774 20.611,16.9424 20.606118,17.0314 L20.467,19.6404 Z M20.46,21.1294 C20.46,21.3134 20.311,21.4634 20.127,21.4634 C19.943,21.4634 19.793,21.3134 19.793,21.1294 L19.793,20.8454 L20.46,20.8454 L20.46,21.1294 Z M8.825,21.1404 C8.825,21.3244 8.675,21.4734 8.492,21.4734 C8.308,21.4734 8.158,21.3244 8.158,21.1404 L8.158,20.8564 L8.825,20.8564 L8.825,21.1404 Z M9.472,15.0134 C9.84,13.8094 10.932,12.9584 12.188,12.8944 C12.89,12.8584 13.602,12.8404 14.304,12.8404 C15.006,12.8404 15.718,12.8584 16.419,12.8944 C17.676,12.9584 18.768,13.8094 19.136,15.0144 L19.286,15.5024 C17.988,15.2914 16.333,15.1774 14.304,15.1774 C12.275,15.1774 10.619,15.2914 9.322,15.5024 L9.472,15.0134 Z M21.605,17.0844 C21.638,16.4524 21.132,15.9174 20.404,15.7324 L20.287,15.3564 C20.349,15.3824 20.407,15.4174 20.477,15.4174 C20.526,15.4174 20.576,15.4104 20.625,15.3954 L21.084,15.2514 C21.348,15.1684 21.494,14.8884 21.411,14.6244 C21.329,14.3624 21.049,14.2174 20.785,14.2974 L20.328,14.4404 C20.212,14.4764 20.125,14.5544 20.064,14.6484 C19.55,13.0784 18.125,11.9804 16.471,11.8954 C15.748,11.8584 15.026,11.8404 14.304,11.8404 C13.582,11.8404 12.86,11.8584 12.137,11.8954 C10.483,11.9804 9.06,13.0774 8.545,14.6454 C8.484,14.5534 8.398,14.4754 8.283,14.4404 L7.826,14.2974 C7.56,14.2134 7.281,14.3624 7.199,14.6254 C7.117,14.8894 7.263,15.1694 7.527,15.2514 L7.985,15.3944 C8.034,15.4104 8.085,15.4174 8.134,15.4174 C8.202,15.4174 8.26,15.3834 8.321,15.3574 L8.206,15.7314 C7.476,15.9164 6.969,16.4524 7.003,17.0844 L7.155,19.9294 C7.155,19.9334 7.158,19.9364 7.158,19.9414 L7.158,21.1404 C7.158,21.8774 7.755,22.4734 8.492,22.4734 C9.228,22.4734 9.825,21.8774 9.825,21.1404 L9.825,20.6404 L18.793,20.6404 L18.793,21.1294 C18.793,21.8664 19.391,22.4634 20.127,22.4634 C20.863,22.4634 21.46,21.8664 21.46,21.1294 L21.46,19.8454 L21.457,19.8454 L21.605,17.0844 Z M10.303,18.4214 C10.089,18.4214 9.914,18.2354 9.914,18.0074 C9.914,17.7784 10.089,17.5924 10.303,17.5924 C10.517,17.5924 10.692,17.7784 10.692,18.0074 C10.692,18.2354 10.517,18.4214 10.303,18.4214 L10.303,18.4214 Z M10.303,16.5924 C9.537,16.5924 8.914,17.2274 8.914,18.0074 C8.914,18.7864 9.537,19.4214 10.303,19.4214 C11.069,19.4214 11.692,18.7864 11.692,18.0074 C11.692,17.2274 11.069,16.5924 10.303,16.5924 L10.303,16.5924 Z M18.321,18.4214 C18.108,18.4214 17.933,18.2354 17.933,18.0074 C17.933,17.7784 18.108,17.5924 18.321,17.5924 C18.535,17.5924 18.71,17.7784 18.71,18.0074 C18.71,18.2354 18.535,18.4214 18.321,18.4214 L18.321,18.4214 Z M18.321,16.5924 C17.556,16.5924 16.933,17.2274 16.933,18.0074 C16.933,18.7864 17.556,19.4214 18.321,19.4214 C19.087,19.4214 19.71,18.7864 19.71,18.0074 C19.71,17.2274 19.087,16.5924 18.321,16.5924 L18.321,16.5924 Z M16.141,18.4954 C16.141,18.7714 15.917,18.9954 15.641,18.9954 L12.973,18.9954 C12.697,18.9954 12.473,18.7714 12.473,18.4954 C12.473,18.2194 12.697,17.9954 12.973,17.9954 L15.641,17.9954 C15.917,17.9954 16.141,18.2194 16.141,18.4954 L16.141,18.4954 Z M14.049,4.8944 L15.767,3.4104 L16.42,4.1674 L15.444,5.0104 L14.049,4.8944 Z M13.174,6.9724 L11.779,6.8554 L12.99,5.8094 L14.385,5.9254 L13.174,6.9724 Z M10.904,8.9324 L9.509,8.8164 L10.719,7.7704 L12.114,7.8874 L10.904,8.9324 Z M8.634,10.8944 L7.238,10.7784 L8.45,9.7314 L9.845,9.8484 L8.634,10.8944 Z M6.363,12.8554 L6,12.8254 L6,11.8484 L6.179,11.6934 L7.574,11.8094 L6.363,12.8554 Z M5,21.4734 L4,21.4734 L4,6.6644 C4,6.0724 4.434,5.5804 5,5.4894 L5,21.4734 Z M15.869,2.0004 L6,10.5264 L6,4.4734 L5.19,4.4734 C3.981,4.4734 3,5.4544 3,6.6644 L3,22.4734 L6,22.4734 L6,14.4914 L17.83,4.2704 L15.869,2.0004 Z"></path>
            </g>
        </g>
    </g>
</svg>
