<?xml version="1.0" encoding="UTF-8"?>
<svg width="32px" height="32px" viewBox="0 0 32 32" version="1.1" xmlns="http://www.w3.org/2000/svg" xmlns:xlink="http://www.w3.org/1999/xlink">
    <title>ic-hand-sanitizers</title>
    <g id="mWeb-Home-Page" stroke="none" stroke-width="1" fill="none" fill-rule="evenodd">
        <g id="v" transform="translate(-157.000000, -26.000000)" fill="#D84E55" fill-rule="nonzero">
            <g id="ic-hand-sanitizers" transform="translate(157.000000, 26.000000)">
                <path d="M21.849893,3.33333333 C21.9589677,3.33333333 22.0657984,3.36008403 22.1612881,3.41052678 L22.2526605,3.46875361 L25.5787638,5.99045827 C25.8721631,6.21290065 25.929685,6.63107295 25.7072426,6.92447223 C25.509516,7.18527159 25.1571387,7.25969872 24.87521,7.11678994 L24.7732286,7.05295105 L21.6266667,4.66666667 L15.9990169,4.66666667 L16,8 L17.3333333,8 C18.0171145,8 18.5806762,8.51472025 18.6576964,9.1778385 L18.6666667,9.33333333 L18.6656835,10.6653333 L19.918275,10.6666667 C20.6020561,10.6666667 21.1656178,11.1813869 21.242638,11.8445052 L21.2510192,12.0396299 L20.2968715,28.0792249 C20.2549452,28.7835875 19.6715034,29.3333333 18.965894,29.3333333 L10.3674393,29.3333333 C9.66182996,29.3333333 9.07838815,28.7835875 9.0364618,28.0792249 L8.08408084,12.0792249 C8.04032617,11.3441463 8.60075493,10.7127771 9.33583353,10.6690225 L10.6656835,10.668 L10.6666667,9.33333333 C10.6666667,8.64955221 11.1813869,8.08599045 11.8445052,8.00897031 L12,8 L13.3333333,8 L13.3323502,4.66666667 L9.33333333,4.66666667 C9.00605348,4.66666667 8.73385551,4.43083312 8.67740756,4.11983418 L8.66666667,4 C8.66666667,3.67272015 8.90250021,3.40052217 9.21349916,3.34407423 L9.33333333,3.33333333 L21.849893,3.33333333 Z M19.918275,12 L9.41505838,12 L10.3674393,28 L18.965894,28 L19.918275,12 Z M14.6666667,15.6852427 L15.8592363,18.0703819 L16.1408311,18.65184 C18.0165251,22.6595406 17.8708791,25.3333333 14.6666667,25.3333333 C11.538745,25.3333333 11.3254776,22.7853483 13.0619757,18.9358177 L13.1925022,18.65184 L13.4740971,18.0703819 L14.6666667,15.6852427 Z M14.6666667,18.6666667 C12.8888889,22.2222222 12.8888889,24 14.6666667,24 C16.4444444,24 16.4444444,22.2222222 14.6666667,18.6666667 Z M25.3333333,9.01857603 L26.5259029,11.4037152 L26.8074978,11.9851734 C28.6831918,15.9928739 28.5375457,18.6666667 25.3333333,18.6666667 C22.2054117,18.6666667 21.9921443,16.1186816 23.7286424,12.2691511 L23.8591689,11.9851734 L24.1407637,11.4037152 L25.3333333,9.01857603 Z M25.3333333,12 C23.5555556,15.5555556 23.5555556,17.3333333 25.3333333,17.3333333 C27.1111111,17.3333333 27.1111111,15.5555556 25.3333333,12 Z M17.3333333,9.33333333 L12,9.33333333 L12,10.6666667 L17.3333333,10.6666667 L17.3333333,9.33333333 Z" id="Shape"></path>
            </g>
        </g>
    </g>
</svg>