<?xml version="1.0" encoding="UTF-8"?>
<svg width="32px" height="32px" viewBox="0 0 32 32" version="1.1" xmlns="http://www.w3.org/2000/svg" xmlns:xlink="http://www.w3.org/1999/xlink">
    <title>ic-mask</title>
    <g id="mWeb-Home-Page" stroke="none" stroke-width="1" fill="none" fill-rule="evenodd">
        <g id="v" transform="translate(-157.000000, -83.000000)" fill="#D84E55" fill-rule="nonzero">
            <g id="ic-mask" transform="translate(157.000000, 83.000000)">
                <path d="M15.9853169,9.33333333 C18.7663432,9.33333333 21.5475529,9.68740847 24.3289461,10.3955587 C24.9197908,10.5459594 25.3333333,11.077984 25.3333333,11.6876706 L25.3333333,12 C27.5424723,12 29.3333333,13.790861 29.3333333,16 C29.3333333,18.209139 27.5424723,20 25.3333333,20 L25.3333333,20.3148148 C25.3333333,20.9235061 24.9210486,21.4549191 24.3314678,21.6062451 C21.5771315,22.3131928 18.8088894,22.6666667 16.0267413,22.6666667 C13.2418852,22.6666667 10.4567559,22.3125044 7.67135337,21.6041797 C7.08037622,21.4538534 6.66666667,20.9217707 6.66666667,20.311974 L6.66666667,20 C4.45752767,20 2.66666667,18.209139 2.66666667,16 C2.66666667,13.790861 4.45752767,12 6.66666667,12 L6.66666667,11.6860967 C6.66666667,11.0770534 7.079431,10.5454283 7.66946118,10.394438 C10.4338063,9.6870349 13.2057582,9.33333333 15.9853169,9.33333333 Z M15.9853169,10.6666667 C13.5847301,10.6666667 11.1893072,10.9416915 8.79724506,11.4923756 L8,11.6861475 L8,20.311974 C10.6788042,20.9932011 13.3536015,21.3333333 16.0267413,21.3333333 C18.4294824,21.3333333 20.8218519,21.0585346 23.2056901,20.5083634 L24,20.3148148 L24,11.6876706 C21.3252502,11.0066795 18.6544982,10.6666667 15.9853169,10.6666667 Z M21.2013805,18.2799857 C21.5622862,18.2071101 21.9139353,18.4406047 21.9868109,18.8015104 C22.0596864,19.162416 21.8261918,19.5140652 21.4652862,19.5869407 C19.6611592,19.9512374 17.8504767,20.1334632 16.0338794,20.1334632 C14.2180962,20.1334632 12.3859198,19.9514021 10.5378896,19.587574 C10.1766342,19.5164524 9.94143428,19.1659416 10.0125559,18.8046861 C10.0836775,18.4434307 10.4341883,18.2082308 10.7954437,18.2793524 C12.5594347,18.6266354 14.3054001,18.8001299 16.0338794,18.8001299 C17.7615447,18.8001299 19.4838315,18.6268001 21.2013805,18.2799857 Z M25.3333333,13.3333333 L25.3333333,18.6666667 C26.8060927,18.6666667 28,17.4727593 28,16 C28,14.5272407 26.8060927,13.3333333 25.3333333,13.3333333 Z M6.66666667,13.3333333 C5.19390733,13.3333333 4,14.5272407 4,16 C4,17.4727593 5.19390733,18.6666667 6.66666667,18.6666667 L6.66666667,13.3333333 Z M21.3333333,15.3333333 C21.7015232,15.3333333 22,15.6318102 22,16 C22,16.3272799 21.7641665,16.5994778 21.4531675,16.6559258 L21.3333333,16.6666667 L10.6666667,16.6666667 C10.2984768,16.6666667 10,16.3681898 10,16 C10,15.6727201 10.2358335,15.4005222 10.5468325,15.3440742 L10.6666667,15.3333333 L21.3333333,15.3333333 Z M16.0338794,12.0402451 C17.8504767,12.0402451 19.6611592,12.222471 21.4652862,12.5867676 C21.8261918,12.6596431 22.0596864,13.0112923 21.9868109,13.372198 C21.9139353,13.7331037 21.5622862,13.9665982 21.2013805,13.8937227 C19.4838315,13.5469082 17.7615447,13.3735785 16.0338794,13.3735785 C14.3054001,13.3735785 12.5594347,13.5470729 10.7954437,13.8943559 C10.4341883,13.9654775 10.0836775,13.7302776 10.0125559,13.3690222 C9.94143428,13.0077668 10.1766342,12.657256 10.5378896,12.5861344 C12.3859198,12.2223062 14.2180962,12.0402451 16.0338794,12.0402451 Z" id="Shape"></path>
            </g>
        </g>
    </g>
</svg>