<?xml version="1.0" encoding="UTF-8"?>
<svg width="32px" height="32px" viewBox="0 0 32 32" version="1.1" xmlns="http://www.w3.org/2000/svg" xmlns:xlink="http://www.w3.org/1999/xlink">
    <title>ic-temprature</title>
    <g id="mWeb-Home-Page" stroke="none" stroke-width="1" fill="none" fill-rule="evenodd">
        <g id="v" transform="translate(-157.000000, -232.000000)" fill="#D84E55" fill-rule="nonzero">
            <g id="ic-temprature" transform="translate(157.000000, 232.000000)">
                <path d="M15.2147694,2.66666667 C15.6993607,2.66666667 16.1458005,2.92958531 16.3808118,3.35337585 L22.6295101,14.6215096 C22.7138465,14.7735915 22.7831042,14.9335584 22.836294,15.0991253 L26.6556739,26.9879395 C26.8590728,27.6211203 26.5647876,28.307376 25.9658708,28.5964912 C25.1693541,28.9809939 24.5054691,29.209882 23.9742158,29.2831557 C23.4265056,29.3586991 22.7024724,29.3126015 21.8021163,29.1448628 L21.4562245,29.0762258 C21.0208891,28.9848896 20.6597739,28.682471 20.4934339,28.2699299 L18.9539013,24.4151013 C18.1160446,22.2913495 17.5113463,20.70294 17.1398063,19.6498731 L17.0686071,19.4463976 L17.0435036,19.3760492 C13.4518832,19.2607749 11.5226273,17.0790659 11.3844128,13.0680705 L8,12 L5.33333333,12 C4.59695367,12 4,11.4030463 4,10.6666667 L4,4 C4,3.26362033 4.59695367,2.66666667 5.33333333,2.66666667 L15.2147694,2.66666667 Z M15.2147694,4 L9.33333333,4 L9.33333333,11.0226667 L16.0219006,13.13195 L16.2617931,13.6986973 C16.9868409,15.4116265 17.6048381,16.980773 18.1158704,18.4070186 L18.5572069,19.6531118 C18.7371098,20.1489615 18.9583502,20.7399641 19.2208168,21.4257943 L19.4558817,22.0368643 C19.9053344,23.1997072 20.456512,24.5964866 21.1089826,26.2259402 L21.7282378,27.770947 L22.046318,27.8340831 C22.8179157,27.9778338 23.407466,28.0153692 23.7920391,27.9623266 C24.1181567,27.9173465 24.5722072,27.7692351 25.1373008,27.5124585 L25.386233,27.3957423 L21.5668596,15.5069416 L21.5210036,15.3850092 L21.4634677,15.2681337 L15.2147694,4 Z M16.5481269,18.0065644 L16.4833568,17.829838 C16.0621976,16.7100993 15.5790541,15.5062961 15.033926,14.2184282 L12.7413672,13.4962316 C12.949597,16.3024405 14.1891412,17.7517462 16.5481269,18.0065644 Z M18.103302,2.66666667 C18.3479266,2.66666667 18.5729035,2.800642 18.6894474,3.01572043 L23.883967,12.6020565 C24.0084436,12.8317745 23.9872564,13.1130313 23.8297703,13.3215089 L23.1522283,14.2184282 L16.8237729,2.66666667 L18.103302,2.66666667 Z M8,4 L5.33333333,4 L5.33333333,10.6666667 L8,10.6666667 L8,4 Z" id="Combined-Shape"></path>
            </g>
        </g>
    </g>
</svg>