<?xml version="1.0" encoding="UTF-8"?>
<svg width="24px" height="24px" viewBox="0 0 24 24" version="1.1" xmlns="http://www.w3.org/2000/svg" xmlns:xlink="http://www.w3.org/1999/xlink">
    <title>ic-user-not-logged-in</title>
    <g id="mWeb-Home-Page" stroke="none" stroke-width="1" fill="none" fill-rule="evenodd">
        <g id="ic-user-not-logged-in" fill="#FFFFFF" fill-rule="nonzero">
            <path d="M12,21 C16.9705627,21 21,16.9705627 21,12 C21,7.02943725 16.9705627,3 12,3 C7.02943725,3 3,7.02943725 3,12 C3,16.9705627 7.02943725,21 12,21 Z M12,22 C6.4771525,22 2,17.5228475 2,12 C2,6.4771525 6.4771525,2 12,2 C17.5228475,2 22,6.4771525 22,12 C22,17.5228475 17.5228475,22 12,22 Z M12,13.5 C10.0670034,13.5 8.5,11.9329966 8.5,10 C8.5,8.06700338 10.0670034,6.5 12,6.5 C13.9329966,6.5 15.5,8.06700338 15.5,10 C15.5,11.9329966 13.9329966,13.5 12,13.5 Z M12,12.5 C13.3807119,12.5 14.5,11.3807119 14.5,10 C14.5,8.61928813 13.3807119,7.5 12,7.5 C10.6192881,7.5 9.5,8.61928813 9.5,10 C9.5,11.3807119 10.6192881,12.5 12,12.5 Z M12,21.0216065 C14.5354491,21.0216065 16.8950083,19.9706616 18.5810881,18.1755705 C16.6994341,16.7749308 14.4109697,16 12,16 C9.58903026,16 7.30056586,16.7749308 5.41891193,18.1755705 C7.10499174,19.9706616 9.46455092,21.0216065 12,21.0216065 Z M12,15 C15.0710033,15 17.873398,16.1500498 20,18.0429652 C18.1684601,20.4601752 15.266576,21.8450112 12,21.8450112 C8.73342404,21.8450112 5.85410763,20.4336437 4.02256775,18.0164337 C6.14916976,16.1235183 8.92899674,15 12,15 Z" id="Oval-13"></path>
        </g>
    </g>
</svg>