<svg xmlns="http://www.w3.org/2000/svg" width="16" height="14" viewBox="0 0 16 14">
    <g fill="none" fill-rule="evenodd">
        <g fill="#3E3E52" fill-rule="nonzero">
            <g>
                <path d="M22.277 21.294l-5.99 6.01-.088.102c-.3.431-.254.969.09 1.312l6.001 5.994.103.088c.431.3.969.255 1.312-.089l.088-.102.068-.11c.223-.41.158-.888-.157-1.202l-4.3-4.295H31c.552 0 1-.447 1-1l-.007-.116c-.058-.498-.48-.884-.993-.884l-11.588-.001 4.282-4.294.088-.103c.3-.431.253-.97-.09-1.312-.392-.39-1.025-.39-1.415.002z" transform="translate(-16 -21)"/>
            </g>
        </g>
    </g>
</svg>
