<svg xmlns="http://www.w3.org/2000/svg" width="64" height="64" viewBox="0 0 64 64">
    <defs>
        <linearGradient id="h04fj2nfva" x1="12.03%" x2="56.047%" y1="75.576%" y2="46.454%">
            <stop offset="0%" stop-color="#E08585" stop-opacity="0"/>
            <stop offset="60.193%" stop-color="#ECB1AD" stop-opacity=".818"/>
            <stop offset="100%" stop-color="#EFBBB6"/>
        </linearGradient>
        <linearGradient id="e8da91oqub" x1="-32.941%" x2="28.266%" y1="96.959%" y2="57.753%">
            <stop offset="0%" stop-color="#D54D60" stop-opacity="0"/>
            <stop offset="0%" stop-color="#E89FA0" stop-opacity=".746"/>
            <stop offset="0%" stop-color="#EEB6B2" stop-opacity=".959"/>
            <stop offset="100%" stop-color="#EFBBB6"/>
        </linearGradient>
    </defs>
    <g fill="none" fill-rule="evenodd">
        <path fill="#DDD" fill-rule="nonzero" d="M5.966 13.04c.092 1.544.323 2.932.693 4.172.157.53.714.83 1.243.673.53-.158.831-.715.673-1.244-.323-1.087-.53-2.323-.613-3.72-.032-.551-.506-.972-1.057-.939-.552.033-.972.507-.939 1.058zm2.669 8.078c.924 1.166 2.074 2.085 3.446 2.781.492.25 1.094.054 1.344-.439.25-.492.054-1.094-.439-1.344-1.12-.569-2.044-1.307-2.784-2.24-.343-.433-.972-.506-1.405-.163-.433.344-.505.973-.162 1.405zm7.51 4.109c1.247.237 2.61.377 4.128.436.552.022 1.016-.408 1.038-.96.021-.552-.409-1.017-.96-1.038-1.424-.056-2.691-.186-3.832-.403-.543-.103-1.066.253-1.17.796-.102.543.254 1.066.797 1.169zm8.245.425l.32-.012 1.337-.06 1.512-.086.855-.054c.551-.035.97-.51.935-1.061-.036-.552-.511-.97-1.062-.935l-1.986.119-1.025.051-.956.04c-.552.019-.984.482-.964 1.034.02.552.482.983 1.034.964zm7.976-.466l.974-.055 1.345-.066.838-.033.806-.024c.552-.014.988-.472.975-1.024-.014-.552-.473-.989-1.025-.975l-.927.028-.969.04-1.029.05-1.107.063c-.551.033-.971.506-.938 1.058.033.551.506.971 1.057.938zm7.92-.15c1.39.065 2.67.192 3.863.39.545.092 1.06-.276 1.15-.821.092-.545-.276-1.06-.821-1.151-1.276-.213-2.634-.348-4.099-.415-.552-.026-1.02.4-1.045.952-.025.552.401 1.02.953 1.045zm7.592 1.354c1.224.453 2.326 1.025 3.312 1.727.45.32 1.074.215 1.395-.235.32-.45.215-1.074-.235-1.394-1.134-.808-2.393-1.461-3.778-1.974-.518-.191-1.094.073-1.285.591-.192.518.073 1.093.59 1.285zm6.01 4.35c.72.947 1.337 2.03 1.852 3.258.213.51.8.75 1.309.536.51-.214.75-.8.536-1.309-.58-1.382-1.28-2.611-2.104-3.695-.333-.44-.96-.526-1.4-.192-.44.334-.527.961-.193 1.401zm2.958 6.798c.263 1.18.46 2.455.588 3.828.05.55.538.955 1.088.904.55-.051.954-.539.903-1.089-.135-1.455-.345-2.814-.627-4.078-.12-.54-.655-.879-1.194-.758-.539.12-.878.654-.758 1.193zm.764 7.767c.002 1.245-.041 2.555-.13 3.93-.036.552.382 1.028.933 1.063.551.036 1.027-.382 1.063-.933.092-1.42.136-2.773.134-4.064-.001-.552-.45-1-1.002-.998-.552 0-1 .45-.998 1.002zm-.49 7.868c-.147 1.26-.326 2.567-.539 3.923-.086.545.287 1.057.833 1.143.545.085 1.057-.288 1.143-.833.217-1.382.4-2.716.55-4.003.063-.548-.33-1.045-.879-1.108-.548-.064-1.045.329-1.108.878z"/>
        <path fill="url(#h04fj2nfva)" fill-rule="nonzero" d="M52.546 33.513c1.361.29 2.141 3.102-.68 5.342 0 0 2.231 3.301-2.43 6.893C44.963 49.199 36.67 50.409 33.58 53c-3.091 2.591-5.122 5.342-10.944 7.003-2.321.66-1.73.43-4.392 2.54-1.38 1.101-2.54 2.442-4.301 2.442H6.02c-1.834.006-3.525-.992-4.406-2.6-.88-1.61-.81-3.572.184-5.113C5.42 51.64 4.94 53.56 6.7 51.07c2.821-4.002 7.093-11.004 10.784-14.085 1.75-1.47 7.002-4.382 12.144-6.213 3.636-1.27 7.37-2.236 11.164-2.89 0 0 9.814-3.312 11.274-3.502 1.46-.19 2.421 2.911-.2 5.052-2.62 2.14-3.791 3.111-3.791 3.111l-.58 2.811s3.691-2.13 5.051-1.84z"/>
        <path fill="#E8A09D" fill-rule="nonzero" d="M45.454 30.692c3.361 0 7.473-3.35 8.003-4.731.085 1.357-.526 2.664-1.62 3.471-2.622 2.13-3.792 3.111-3.792 3.111v.08c-1.018-.405-1.912-1.07-2.591-1.93zM51.866 38.855c-1.555 1.082-3.214 2.007-4.952 2.761 0-2.18 5.683-4.111 6.853-6.252-.027 1.404-.737 2.706-1.9 3.491zM52.396 40.756c0 1.29-.5 3.101-3 5.002-.714.542-1.474 1.02-2.271 1.43-.151-.148-.205-.369-.14-.57.33-1.72 3.79-2.961 5.411-5.862z" opacity=".4"/>
        <path fill="#0F204A" fill-rule="nonzero" d="M22.086 54.3c1.27.381 22.298.821 23.778.821 1.444-.03 2.634-1.142 2.761-2.58.32-1.541 1.77-44.837 1.77-47.658.012-1.526-1.125-2.818-2.64-3C45.394 1.511 25.997.841 23.926.981c-1.44.039-2.625 1.146-2.76 2.58-.18 1.541-1.701 47.068-1.661 47.948.335 1.306 1.305 2.355 2.58 2.79z"/>
        <path fill="#FFF" fill-rule="nonzero" d="M22.556 5.273c-.004-.216.084-.425.242-.573.159-.149.372-.224.588-.207 1.88-.08 22.668.46 24.299.76.85.16 1.07.65 1.06 1.09-.09 8.934-.77 23.209-1.21 35.123 0 9.244-.55 7.743-8.293 7.743l-10.154-.35c-7.703 0-7.703.14-7.703-8.293 0 0 .81-31.111 1.17-35.293z"/>
        <circle fill="#1E345A" fill-rule="nonzero" opacity=".4" style="mix-blend-mode:multiply" cx="34.07" cy="52.14" r="1.31"/>
        <path fill="url(#e8da91oqub)" fill-rule="nonzero" d="M19.125 42.377c.354-.332.75-.615 1.18-.84 1.58-.841 3.381-1.001 6.212-1.281 7.523-.77 10.684-2 11.854-1.5s1.501 3-1.32 4.901c-2.439 1.566-5.156 2.65-8.003 3.191-1.613.364-2.999 1.387-3.821 2.821-1.652 2.928-4.038 5.376-6.923 7.103-2.92 1.71-4.801.18-6.002-1.841-1.388-2.409-.914-5.46 1.14-7.333l5.683-5.221z"/>
        <path fill="#D84E55" d="M36.2 8.985c-7.302-.18-10.163 5.622-9.223 11.074.94 5.452 8.413 12.864 8.413 12.864s7.933-5.822 9.394-12.404c.61-2.661.24-11.304-8.583-11.534zm-.16 13.635c-1.86.056-3.57-1.018-4.326-2.718-.756-1.7-.408-3.69.88-5.033 1.288-1.343 3.26-1.774 4.992-1.09 1.73.685 2.875 2.348 2.896 4.209.04 2.502-1.94 4.57-4.441 4.642v-.01z"/>
        <ellipse cx="35.21" cy="35.604" fill="#1E345A" fill-rule="nonzero" opacity=".2" rx="2.621" ry="1"/>
        <path fill="#1E345A" fill-rule="nonzero" d="M42.732 4.7l4.191.147c.257.006.47-.195.481-.451-.01-.245-.206-.442-.451-.452l-4.181-.147c-.257-.005-.47.195-.481.452.005.243.198.44.441.451zM40.819 4.631h.049c.122.006.241-.038.332-.12.09-.083.143-.199.149-.321.005-.257-.196-.47-.452-.481-.122-.005-.242.038-.332.121-.09.083-.144.198-.149.32-.007.24.166.447.403.481z" opacity=".4" style="mix-blend-mode:multiply"/>
        <circle cx="7" cy="13" r="2" fill="#FFF" stroke="#D84E55" stroke-width="2"/>
        <circle cx="57" cy="58" r="2" fill="#FFF" stroke="#50D295" stroke-width="2"/>
    </g>
</svg>
