<svg xmlns="http://www.w3.org/2000/svg" xmlns:xlink="http://www.w3.org/1999/xlink" width="42" height="49" viewBox="0 0 42 49">
    <defs>
        <path id="rymk2wel6a" d="M0 0.146L41.231 0.146 41.231 48.324 0 48.324z"/>
    </defs>
    <g fill="none" fill-rule="evenodd">
        <path fill="#72BF98" d="M20.616 46.516c1.994-.762 11.42-4.606 16.226-15.14 3.74-8.196 2.527-17.196 1.988-19.79L20.616 1.962 2.4 11.585C1.862 14.18.65 23.18 4.389 31.377c4.805 10.533 14.232 14.377 16.227 15.14"/>
        <g transform="translate(0 .005)">
            <mask id="8pf8kxwxtb" fill="#fff">
                <use xlink:href="#rymk2wel6a"/>
            </mask>
            <path fill="#1F2F59" d="M35.218 30.612c-3.927 8.608-11.104 12.502-14.602 13.952-3.5-1.45-10.676-5.344-14.603-13.952-3.32-7.28-2.443-15.187-2.012-17.833l16.615-8.777L37.23 12.78c.431 2.646 1.309 10.553-2.012 17.833m5.363-19.404c-.11-.53-.449-.984-.923-1.234L21.443.352c-.519-.274-1.136-.274-1.655 0L1.574 9.974c-.475.25-.814.703-.924 1.234-.238 1.145-2.2 11.466 2.115 20.924 4.736 10.382 13.62 14.7 17.22 16.075.203.078.417.117.63.117.214 0 .428-.04.632-.117 3.6-1.375 12.483-5.693 17.219-16.075 4.315-9.458 2.353-19.779 2.115-20.924" mask="url(#8pf8kxwxtb)"/>
        </g>
        <path fill="#1F2F59" d="M27.942 21.456h-4.63v-4.655c0-.69-.554-1.25-1.234-1.25h-2.925c-.68 0-1.234.56-1.234 1.25v4.655h-4.63c-.68 0-1.233.56-1.233 1.25v3.103c0 .69.553 1.25 1.234 1.25h4.629v4.62c0 .688.553 1.25 1.234 1.25h2.925c.68 0 1.234-.562 1.234-1.25v-4.62h4.63c.68 0 1.234-.56 1.234-1.25v-3.103c0-.69-.554-1.25-1.234-1.25"/>
    </g>
</svg>
