<svg xmlns="http://www.w3.org/2000/svg" xmlns:xlink="http://www.w3.org/1999/xlink" width="24" height="24" viewBox="0 0 24 24">
    <defs>
        <path id="prefix__a" d="M11.08 7.098c-.255-.069-.405-.33-.337-.584.068-.254.33-.4.583-.337l3.68.985c.254.07.404.33.337.585-.058.212-.25.353-.46.353-.041 0-.082-.006-.124-.017l-3.68-.985zm.493-1.841c-.255-.069-.405-.33-.337-.584.069-.253.33-.399.583-.337l6.44 1.727c.255.068.405.328.337.583-.058.213-.25.353-.46.353-.041 0-.082-.006-.124-.016l-6.44-1.726zm9.475 9.149v-1.675h-2.355l-.644.645 2.014 2.015.985-.985zm0 1.97v-.623l-.312.311.312.312zm0 3.406v-2.06l-.985-.985-2.014 2.015 1.598 1.598h.832l.569-.568zm-4.598.568h1.85l-.925-.924-.925.924zm-2.179 0h.833l1.598-1.598-2.015-2.015-2.014 2.015 1.598 1.598zm-3.196 0h1.85L12 19.426l-.925.924zm-2.179 0h.833l1.597-1.598-2.014-2.015-2.015 2.015 1.6 1.598zm-3.196 0h1.85l-.926-.924-.924.924zm-2.179 0h.832l1.597-1.598-2.013-2.015-.985.985v2.06l.569.568zm-.569-4.597v.623l.312-.312-.312-.311zm0-3.022v1.676l.985.984 2.013-2.015-.645-.645H2.952zm2.312-8.572v7.62h2.18l2.042-7.62H5.264zm12.111 9.89l-2.015 2.015 2.015 2.014 2.015-2.014-2.015-2.014zm-4.702-.673l2.014 2.015 2.015-2.015-.646-.645H13.32l-.646.645zM12 14.05l-2.014 2.014L12 18.078l2.014-2.014L12 14.05zm-3.361 2.014L6.624 14.05 4.61 16.064l2.014 2.014 2.015-2.014zm-1.342-2.688l2.015 2.015 2.015-2.015-.646-.645H7.944l-.647.645zm3.47-10.319L8.43 11.778h9.87l1.667-6.256-9.2-2.465zm8.52 8.721H22v9.524H2v-9.524h2.311V3.683c0-.263.214-.476.477-.476H9.74l.23-.855c.067-.256.33-.398.582-.338l10.118 2.711c.255.069.405.33.339.583l-1.723 6.47zM10.34 9.857c-.254-.069-.404-.33-.337-.584.069-.253.33-.396.584-.337l3.68.986c.253.07.404.33.336.585-.057.211-.25.352-.46.352-.04 0-.082-.006-.124-.016l-3.679-.986z"/>
    </defs>
    <g fill="none" fill-rule="evenodd">
        <path d="M0 0H24V24H0z"/>
        <mask id="prefix__b" fill="#fff">
            <use xlink:href="#prefix__a"/>
        </mask>
        <use fill="#000" xlink:href="#prefix__a"/>
        <g mask="url(#prefix__b)">
            <path d="M0 0H24V24H0z"/>
            <path fill="#3E3E52" d="M0 0H24V24H0z"/>
        </g>
    </g>
</svg>
