<svg xmlns="http://www.w3.org/2000/svg" width="16" height="16" viewBox="0 0 16 16">
    <g fill="none" fill-rule="evenodd">
        <g fill="#3e3e52">
            <g>
                <path d="M13.573 3.431c.13.13.13.34 0 .471L4.24 13.24c-.13.131-.341.131-.472 0-.13-.13-.13-.34 0-.47l9.334-9.339c.13-.13.34-.13.47 0zm-.24 2.235c.736 0 1.334.597 1.334 1.333v2.667c0 .736-.598 1.333-1.334 1.333H12c0-.369.298-.667.667-.667h.666c.369 0 .667-.298.667-.666V6.999c0-.368-.298-.667-.667-.667h-1.05l.666-.666zm-3.603 0l-.666.666H2.667c-.368 0-.667.3-.667.667v2.997c0 .186.15.336.337.336h1.002c.368 0 .667.298.667.667h-1.67c-.553 0-1.003-.45-1.003-1.003V6.999c0-.736.598-1.333 1.334-1.333H9.73zM6.399 8.999l-.666.667H3c-.184 0-.333-.15-.333-.334C2.667 9.148 2.816 9 3 9h3.399zM13 9c.184 0 .333.15.333.333 0 .184-.149.334-.333.334H8.951l.666-.667zm-.667-2c.184 0 .334.15.334.333 0 .184-.15.334-.334.334H11c-.015 0-.027-.007-.042-.009L11.616 7z" transform="translate(-1679 -3376) translate(1679 3376)"/>
            </g>
        </g>
    </g>
</svg>
