<svg xmlns="http://www.w3.org/2000/svg" width="46" height="57" viewBox="0 0 46 57">
    <path fill="#D84E55" d="M22.72 56.88c4.64 0 8.707-.773 12.2-2.32 3.493-1.547 6.187-3.72 8.08-6.52 1.893-2.8 2.84-6.013 2.84-9.64 0-4.16-1.293-7.587-3.88-10.28-2.587-2.693-6.013-4.44-10.28-5.24l-2.8-.56 14.24-12.8V0H2.96v12.24h20.4l-12 11.52v8.72h10c2.667 0 4.693.52 6.08 1.56 1.387 1.04 2.08 2.52 2.08 4.44 0 1.973-.693 3.467-2.08 4.48-1.387 1.013-3.387 1.52-6 1.52-2.667 0-5.307-.52-7.92-1.56C10.907 41.88 8.4 40.373 6 38.4L0 49.76c2.773 2.133 6.213 3.853 10.32 5.16s8.24 1.96 12.4 1.96z" opacity=".14"/>
</svg>
