<svg xmlns="http://www.w3.org/2000/svg" width="46" height="57" viewBox="0 0 46 57">
    <path fill="#D84E55" d="M45.36 56.8V43.84H23.12L33.2 33.76c3.52-3.52 6.227-6.813 8.12-9.88 1.893-3.067 2.84-6.067 2.84-9s-.867-5.52-2.6-7.76-4.107-3.987-7.12-5.24C31.427.627 28 0 24.16 0 16.373 0 8.32 2.853 0 8.56l6.24 12c2.72-2.24 5.427-3.987 8.12-5.24 2.693-1.253 5.133-1.88 7.32-1.88 1.6 0 2.84.333 3.72 1 .88.667 1.32 1.64 1.32 2.92 0 1.067-.44 2.333-1.32 3.8-.88 1.467-2.04 2.92-3.48 4.36l-20 20.64L2 56.8h43.36z" opacity=".14"/>
</svg>
