<svg width="68" height="79" viewBox="0 0 68 79" fill="none" xmlns="http://www.w3.org/2000/svg">
<g clip-path="url(#clip0)">
<path d="M38.7933 67.557L33.5845 31.1212C33.5231 30.693 33.3714 30.2829 33.1396 29.9186C32.9079 29.5542 32.6014 29.2439 32.2407 29.0086L16.7094 18.8343C16.0975 18.4355 15.3628 18.2734 14.6412 18.3779C13.9197 18.4824 13.2602 18.8466 12.7849 19.4029L0.702364 33.569C0.42547 33.8962 0.220362 34.2786 0.100474 34.6912C-0.0194144 35.1037 -0.0513875 35.5371 0.00665814 35.963L5.23927 72.4167C5.35403 73.2125 5.77795 73.9299 6.41792 74.4113C7.05788 74.8927 7.86154 75.0988 8.65234 74.9842L22.4474 72.9852L36.2424 70.9923C37.0331 70.8768 37.7459 70.4501 38.2242 69.806C38.7025 69.1618 38.9072 68.3529 38.7933 67.557ZM16.7569 33.2398C16.0655 33.3439 15.3589 33.239 14.7267 32.9385C14.0945 32.6381 13.5651 32.1555 13.2055 31.552C12.846 30.9484 12.6726 30.2511 12.7071 29.5482C12.7417 28.8454 12.9827 28.1687 13.3996 27.6038C13.8166 27.0389 14.3907 26.6113 15.0493 26.3751C15.7079 26.1389 16.4213 26.1048 17.0992 26.277C17.7771 26.4492 18.3889 26.8201 18.8573 27.3426C19.3256 27.865 19.6293 28.5157 19.73 29.212C19.8629 30.1424 19.625 31.088 19.068 31.8425C18.5111 32.5971 17.6803 33.0993 16.7569 33.2398Z" fill="#FFCB64"/>
<path d="M33.5845 31.1212C33.5231 30.693 33.3714 30.2829 33.1397 29.9185C32.9079 29.5542 32.6014 29.2439 32.2407 29.0085L16.7094 18.8343C16.3553 18.6031 15.9563 18.4504 15.539 18.3864C15.1218 18.3224 14.6957 18.3486 14.2893 18.4632L7.5761 29.8344C7.31477 30.2817 7.15052 30.7796 7.09415 31.2954C7.03779 31.8112 7.09059 32.3331 7.24907 32.8269L20.3722 73.2844L22.4474 72.9852L36.2424 70.9922C37.0331 70.8767 37.7459 70.4501 38.2242 69.8059C38.7025 69.1618 38.9072 68.3529 38.7933 67.5569L33.5845 31.1212Z" fill="#FFAC5A"/>
<path d="M67.7033 59.651L49.5616 15.4708C49.3463 14.9509 49.0226 14.4835 48.6122 14.1004C48.2019 13.7173 47.7145 13.4275 47.1832 13.2505L24.4095 5.47016C23.5126 5.1653 22.5364 5.19803 21.6617 5.56229C20.787 5.92655 20.0732 6.59763 19.6526 7.45114L8.94952 29.1342C8.70262 29.6368 8.56485 30.1866 8.54537 30.7469C8.52589 31.3072 8.62515 31.8653 8.83654 32.384L26.9782 76.5582C27.1737 77.0364 27.461 77.4712 27.8237 77.8375C28.1863 78.2038 28.6172 78.4945 29.0917 78.693C29.5661 78.8915 30.0748 78.9938 30.5886 78.9941C31.1024 78.9944 31.6112 78.8927 32.0859 78.6948L48.8659 71.7464L65.5865 64.786C66.0609 64.5893 66.492 64.3003 66.8553 63.9356C67.2186 63.5708 67.5068 63.1376 67.7034 62.6606C67.9001 62.1836 68.0013 61.6722 68.0012 61.1558C68.0012 60.6393 67.9 60.128 67.7033 59.651ZM29.0534 23.5624C28.2154 23.911 27.2936 24.0017 26.4044 23.823C25.5152 23.6444 24.6986 23.2043 24.0579 22.5585C23.4172 21.9127 22.9812 21.0901 22.805 20.1949C22.6287 19.2997 22.7202 18.3719 23.0678 17.529C23.4154 16.6861 24.0036 15.9659 24.7579 15.4594C25.5122 14.953 26.3988 14.683 27.3055 14.6837C28.2123 14.6844 29.0984 14.9557 29.852 15.4634C30.6055 15.971 31.1926 16.6922 31.5389 17.5356C32.003 18.6637 32.0046 19.9309 31.5433 21.0602C31.0821 22.1894 30.1954 23.089 29.0772 23.5624H29.0534Z" fill="#135B95"/>
<path d="M30.6453 77.1088C30.2429 77.1097 29.8494 76.9901 29.5148 76.7652C29.1802 76.5404 28.9197 76.2204 28.7663 75.846L10.6246 31.6659C10.515 31.3964 10.4637 31.1065 10.4739 30.8155C10.4842 30.5246 10.5558 30.2391 10.6841 29.9781L21.3574 8.29502C21.525 7.95343 21.7842 7.66589 22.1058 7.46493C22.4274 7.26397 22.7984 7.15761 23.1769 7.1579C23.3996 7.16023 23.6204 7.19862 23.831 7.2716L46.5987 15.0519C46.8725 15.1463 47.1232 15.2981 47.3343 15.4972C47.5455 15.6963 47.7123 15.9382 47.8236 16.207L65.9653 60.3812C66.0675 60.6291 66.1202 60.8949 66.1202 61.1633C66.1203 61.4317 66.0677 61.6975 65.9655 61.9455C65.8633 62.1934 65.7135 62.4187 65.5247 62.6083C65.3359 62.7979 65.1118 62.9481 64.8653 63.0504L31.4183 76.9652C31.1729 77.0666 30.9105 77.1194 30.6453 77.1208V77.1088ZM27.3214 12.7896C25.9351 12.7901 24.5857 13.2391 23.4723 14.0705C22.359 14.9018 21.5407 16.0714 21.1383 17.4066C20.7358 18.7419 20.7706 20.1719 21.2374 21.4858C21.7042 22.7996 22.5783 23.9275 23.7307 24.7031C24.8831 25.4787 26.2527 25.8608 27.6374 25.793C29.022 25.7252 30.3483 25.2112 31.4205 24.3267C32.4927 23.4422 33.2539 22.2342 33.5919 20.881C33.9298 19.5278 33.8265 18.1011 33.2972 16.8115C32.814 15.6172 31.9865 14.5958 30.9215 13.879C29.8564 13.1623 28.6026 12.7828 27.3214 12.7896Z" fill="#207FC2"/>
<path d="M15.3702 16.2067L16.6487 13.6033C11.1961 10.7785 7.16457 7.2953 6.62347 4.93129C6.55241 4.6915 6.53963 4.43804 6.5862 4.19224C6.63276 3.94644 6.73732 3.71551 6.89105 3.51886C7.06566 3.28957 7.29918 3.11263 7.5664 3.00715C7.83362 2.90168 8.12438 2.87167 8.40731 2.92038C12.7837 3.14182 21.5483 11.4428 25.3895 17.8346C25.5157 18.0523 25.6962 18.233 25.9131 18.359C26.13 18.485 26.3759 18.5518 26.6263 18.5528C26.8886 18.554 27.146 18.4814 27.3695 18.3433C27.5321 18.2444 27.6736 18.1142 27.7861 17.9602C27.8986 17.8061 27.9798 17.6313 28.0251 17.4456C28.0704 17.2599 28.0788 17.0671 28.05 16.8782C28.0212 16.6892 27.9557 16.5078 27.8571 16.3444C23.9862 9.89871 14.5378 0.334918 8.55003 0.035676C7.83763 -0.0320267 7.11947 0.0733509 6.45593 0.342946C5.79238 0.61254 5.20281 1.03848 4.73674 1.58498C4.27067 2.13149 3.94172 2.7826 3.77752 3.48361C3.61332 4.18462 3.61867 4.91506 3.79312 5.61356C4.91694 10.5092 12.9145 14.9739 15.3405 16.2307L15.3702 16.2067Z" fill="#17335E"/>
<path d="M33.3347 63.8344C32.9497 63.8356 32.5704 63.7414 32.2303 63.56C31.8901 63.3786 31.5996 63.1156 31.3845 62.7943C31.1693 62.4731 31.0361 62.1034 30.9967 61.7179C30.9573 61.3325 31.0128 60.9433 31.1584 60.5846L42.5571 32.3182C42.7937 31.7372 43.2498 31.2747 43.8252 31.0322C44.4006 30.7898 45.0481 30.7874 45.6253 31.0255C46.2025 31.2635 46.6621 31.7227 46.9029 32.3018C47.1438 32.881 47.1462 33.5327 46.9097 34.1136L35.5109 62.3621C35.3315 62.7952 35.0295 63.1656 34.6426 63.4274C34.2557 63.6891 33.8008 63.8307 33.3347 63.8344Z" fill="white"/>
<path d="M28.7202 49.6742C27.536 49.6781 26.3729 49.3583 25.3551 48.7489C24.3373 48.1396 23.503 47.2635 22.9412 46.2142C22.3793 45.1649 22.1111 43.9818 22.165 42.7911C22.2189 41.6004 22.593 40.4467 23.2474 39.4533C23.9018 38.4598 24.8118 37.6638 25.8805 37.1501C26.9491 36.6365 28.1363 36.4245 29.3153 36.5369C30.4942 36.6492 31.6208 37.0816 32.5748 37.7879C33.5287 38.4942 34.2742 39.4479 34.7318 40.5473C35.1475 41.5463 35.312 42.633 35.2106 43.7112C35.1092 44.7895 34.7451 45.8259 34.1505 46.7286C33.556 47.6313 32.7493 48.3724 31.8021 48.8862C30.8548 49.4 29.7963 49.6707 28.7202 49.6742ZM28.7202 41.2954C28.477 41.2932 28.236 41.3421 28.0126 41.439C27.7908 41.5307 27.5895 41.6664 27.4209 41.8382C27.2524 42.0099 27.1199 42.2141 27.0315 42.4385C26.8823 42.8043 26.8539 43.2088 26.9505 43.5921C27.0471 43.9754 27.2637 44.3172 27.5681 44.5672C27.8726 44.8171 28.2488 44.9619 28.6413 44.9801C29.0338 44.9983 29.4217 44.889 29.7477 44.6683C30.0737 44.4477 30.3206 44.1273 30.4519 43.7545C30.5831 43.3818 30.5918 42.9765 30.4766 42.5984C30.3615 42.2203 30.1285 41.8895 29.8123 41.6549C29.496 41.4203 29.1131 41.2942 28.7202 41.2954Z" fill="white"/>
<path d="M49.358 58.1069C47.7357 58.111 46.1698 57.5082 44.9644 56.4155C43.7589 55.3228 42.9999 53.8181 42.8348 52.1938C42.6696 50.5695 43.1101 48.9413 44.0706 47.6255C45.0312 46.3097 46.4433 45.4001 48.0328 45.0734C49.6222 44.7467 51.2756 45.0261 52.6718 45.8575C54.0681 46.6889 55.1075 48.0128 55.5884 49.5723C56.0692 51.1317 55.9571 52.8154 55.2739 54.2963C54.5906 55.7772 53.385 56.9498 51.891 57.5862C51.0895 57.9277 50.2283 58.1047 49.358 58.1069ZM49.358 49.6922C49.1124 49.6921 48.8695 49.7431 48.6444 49.8418C48.3082 49.981 48.0208 50.2177 47.8187 50.5218C47.6166 50.8259 47.5089 51.1837 47.5095 51.5496C47.5101 51.9155 47.6188 52.2729 47.8219 52.5764C48.025 52.8799 48.3132 53.1156 48.6498 53.2537C48.9864 53.3918 49.3563 53.4259 49.7123 53.3517C50.0682 53.2775 50.3942 53.0984 50.6487 52.8371C50.9032 52.5758 51.0747 52.2443 51.1413 51.8846C51.2079 51.5249 51.1667 51.1534 51.0229 50.8174C50.8349 50.3688 50.4778 50.0136 50.0299 49.8299C49.8137 49.7351 49.5817 49.6823 49.3461 49.6743L49.358 49.6922Z" fill="white"/>
</g>
<defs>
<clipPath id="clip0">
<rect width="68" height="79" fill="white"/>
</clipPath>
</defs>
</svg>
