<svg width="462" height="160" viewBox="0 0 462 160" fill="none" xmlns="http://www.w3.org/2000/svg">
<g clip-path="url(#clip0)">
<path d="M0 8C0 3.58172 3.58172 0 8 0H454C458.418 0 462 3.58172 462 8V152C462 156.418 458.418 160 454 160H8.00001C3.58173 160 0 156.418 0 152V8Z" fill="url(#paint0_linear)"/>
<g style="mix-blend-mode:multiply" opacity="0.5">
<path fill-rule="evenodd" clip-rule="evenodd" d="M275.937 113.228C269.289 84.0503 273.457 51.8157 289.875 26.7468C305.868 2.32573 333.675 -12.9259 362.347 -18.7185C387.666 -23.8336 410.595 -5.9858 436.227 -2.82042C465.525 0.797705 498.305 -15.7206 522.542 1.06467C547.721 18.5024 562.503 52.1347 559.509 82.559C556.637 111.744 526.819 128.834 507.768 151.195C492.851 168.703 481.743 190.499 460.325 198.973C439.352 207.272 416.698 199.243 394.366 196.065C370.157 192.62 344.729 193.672 324.717 179.675C301.612 163.513 282.189 140.668 275.937 113.228Z" fill="#F2994A"/>
</g>
<path d="M29.024 26.176C31.168 26.176 32.832 26.696 34.016 27.736C35.2 28.76 35.792 30.208 35.792 32.08C35.792 34.064 35.2 35.608 34.016 36.712C32.832 37.8 31.168 38.344 29.024 38.344H26.024V43H21.632V26.176H29.024ZM28.808 34.84C29.704 34.84 30.392 34.616 30.872 34.168C31.368 33.72 31.616 33.072 31.616 32.224C31.616 31.408 31.368 30.784 30.872 30.352C30.392 29.904 29.704 29.68 28.808 29.68H26.024V34.84H28.808ZM43.8005 29.848C45.5925 29.848 46.9845 30.264 47.9765 31.096C48.9685 31.912 49.4725 33.064 49.4885 34.552V43H45.2885V41.536C44.4245 42.64 43.1205 43.192 41.3765 43.192C40.0005 43.192 38.9125 42.824 38.1125 42.088C37.3285 41.336 36.9365 40.352 36.9365 39.136C36.9365 37.904 37.3605 36.944 38.2085 36.256C39.0725 35.568 40.3045 35.216 41.9045 35.2H45.2885V35.056C45.2885 34.432 45.0725 33.952 44.6405 33.616C44.2245 33.28 43.6165 33.112 42.8165 33.112C42.2725 33.112 41.6565 33.2 40.9685 33.376C40.2965 33.552 39.6165 33.808 38.9285 34.144L37.7525 31.264C38.8085 30.784 39.8165 30.432 40.7765 30.208C41.7525 29.968 42.7605 29.848 43.8005 29.848ZM42.6965 40.288C43.3365 40.288 43.8965 40.136 44.3765 39.832C44.8565 39.512 45.1605 39.104 45.2885 38.608V37.48H42.7445C41.5445 37.48 40.9445 37.928 40.9445 38.824C40.9445 39.272 41.0965 39.632 41.4005 39.904C41.7205 40.16 42.1525 40.288 42.6965 40.288ZM59.2025 44.272C58.7065 45.488 58.0425 46.384 57.2105 46.96C56.3785 47.552 55.3465 47.848 54.1145 47.848C53.3945 47.848 52.7225 47.736 52.0985 47.512C51.4745 47.304 50.8665 46.968 50.2745 46.504L52.0505 43.552C52.3545 43.808 52.6425 43.992 52.9145 44.104C53.1865 44.216 53.4745 44.272 53.7785 44.272C54.4825 44.272 55.0025 43.944 55.3385 43.288L55.6505 42.688L50.2745 30.016H54.6665L57.7625 38.464L60.5225 30.016H64.7705L59.2025 44.272ZM69.2264 44.272C69.6424 44.384 69.9944 44.44 70.2824 44.44C70.6984 44.44 71.0184 44.304 71.2424 44.032C71.4664 43.76 71.5784 43.36 71.5784 42.832V30.016H75.8504V43.48C75.8504 44.824 75.4344 45.88 74.6024 46.648C73.7864 47.432 72.6744 47.824 71.2664 47.824C70.2584 47.824 69.2984 47.656 68.3864 47.32L69.2264 44.272ZM73.6424 24.04C74.2984 24.04 74.8344 24.256 75.2504 24.688C75.6824 25.104 75.8984 25.648 75.8984 26.32C75.8984 26.976 75.6824 27.52 75.2504 27.952C74.8344 28.384 74.2984 28.6 73.6424 28.6C72.9864 28.6 72.4424 28.384 72.0104 27.952C71.5944 27.52 71.3864 26.976 71.3864 26.32C71.3864 25.648 71.5944 25.104 72.0104 24.688C72.4424 24.256 72.9864 24.04 73.6424 24.04ZM91.679 43H87.407V40.888C86.527 42.392 85.143 43.16 83.255 43.192C81.847 43.192 80.719 42.744 79.871 41.848C79.039 40.936 78.623 39.728 78.623 38.224V30.016H82.895V37C82.895 37.736 83.079 38.312 83.447 38.728C83.831 39.144 84.343 39.352 84.983 39.352C85.735 39.336 86.327 39.064 86.759 38.536C87.191 37.992 87.407 37.288 87.407 36.424V30.016H91.679V43ZM103.609 34.12C101.929 33.24 100.553 32.8 99.4805 32.8C99.1125 32.8 98.8165 32.872 98.5925 33.016C98.3685 33.144 98.2565 33.344 98.2565 33.616C98.2565 33.904 98.4325 34.136 98.7845 34.312C99.1365 34.488 99.6965 34.68 100.465 34.888C101.393 35.16 102.161 35.432 102.769 35.704C103.393 35.96 103.929 36.36 104.377 36.904C104.825 37.432 105.049 38.128 105.049 38.992C105.049 40.304 104.537 41.336 103.513 42.088C102.505 42.824 101.185 43.192 99.5525 43.192C98.4485 43.192 97.3925 43.04 96.3845 42.736C95.3765 42.416 94.4805 41.952 93.6965 41.344L95.0405 38.584C95.7765 39.096 96.5445 39.496 97.3445 39.784C98.1605 40.056 98.9285 40.192 99.6485 40.192C100.065 40.192 100.393 40.128 100.633 40C100.889 39.856 101.017 39.656 101.017 39.4C101.017 39.08 100.833 38.832 100.465 38.656C100.113 38.48 99.5525 38.288 98.7845 38.08C97.8725 37.808 97.1205 37.544 96.5285 37.288C95.9365 37.016 95.4165 36.616 94.9685 36.088C94.5365 35.56 94.3205 34.872 94.3205 34.024C94.3205 32.712 94.8165 31.688 95.8085 30.952C96.8005 30.2 98.0805 29.824 99.6485 29.824C100.593 29.824 101.521 29.952 102.433 30.208C103.361 30.464 104.233 30.84 105.049 31.336L103.609 34.12ZM115.791 42.328C115.311 42.6 114.759 42.816 114.135 42.976C113.511 43.12 112.879 43.192 112.239 43.192C110.959 43.192 109.919 42.824 109.119 42.088C108.335 41.352 107.943 40.336 107.943 39.04V33.472H106.143V30.64H107.943V27.04H112.191V30.64H115.551V33.472H112.191V38.368C112.191 39.28 112.567 39.736 113.319 39.736C113.783 39.736 114.335 39.592 114.975 39.304L115.791 42.328ZM33.728 72H20.912L20.888 69.096L27.008 62.808C27.488 62.312 27.88 61.816 28.184 61.32C28.488 60.824 28.64 60.4 28.64 60.048C28.64 59.584 28.472 59.232 28.136 58.992C27.8 58.736 27.328 58.608 26.72 58.608C26.048 58.608 25.296 58.8 24.464 59.184C23.648 59.552 22.856 60.072 22.088 60.744L20.408 57.504C22.728 55.824 25.056 54.984 27.392 54.984C28.512 54.984 29.512 55.168 30.392 55.536C31.288 55.904 31.984 56.424 32.48 57.096C32.992 57.768 33.248 58.536 33.248 59.4C33.248 60.264 32.96 61.16 32.384 62.088C31.824 63 31.024 63.976 29.984 65.016L26.552 68.472H33.728V72ZM42.2113 61.272C43.5073 61.272 44.6433 61.488 45.6193 61.92C46.6113 62.352 47.3713 62.952 47.8993 63.72C48.4433 64.488 48.7153 65.368 48.7153 66.36C48.7153 67.528 48.4353 68.552 47.8753 69.432C47.3153 70.312 46.5153 70.992 45.4753 71.472C44.4353 71.952 43.2273 72.192 41.8513 72.192C40.7313 72.192 39.5713 72 38.3713 71.616C37.1873 71.232 36.1313 70.728 35.2033 70.104L36.8353 66.936C38.3873 68.184 39.8993 68.808 41.3713 68.808C42.2033 68.808 42.8513 68.624 43.3153 68.256C43.7793 67.872 44.0113 67.352 44.0113 66.696C44.0113 66.04 43.7793 65.544 43.3153 65.208C42.8673 64.856 42.1873 64.68 41.2753 64.68C39.1473 64.68 37.6113 64.712 36.6673 64.776V55.176H47.9713V58.704H40.6992V61.272H42.2113ZM54.7873 55.104C56.2273 55.104 57.3713 55.568 58.2193 56.496C59.0673 57.408 59.4913 58.64 59.4913 60.192C59.4913 61.76 59.0673 63.008 58.2193 63.936C57.3713 64.848 56.2273 65.304 54.7873 65.304C53.3473 65.304 52.1953 64.848 51.3313 63.936C50.4833 63.008 50.0593 61.76 50.0593 60.192C50.0593 58.64 50.4833 57.408 51.3313 56.496C52.1953 55.568 53.3473 55.104 54.7873 55.104ZM54.7873 57.408C54.1633 57.408 53.6753 57.656 53.3233 58.152C52.9713 58.648 52.7953 59.328 52.7953 60.192C52.7953 61.056 52.9713 61.736 53.3233 62.232C53.6753 62.728 54.1633 62.976 54.7873 62.976C55.4113 62.976 55.8993 62.728 56.2513 62.232C56.6033 61.736 56.7793 61.056 56.7793 60.192C56.7793 59.328 56.6033 58.648 56.2513 58.152C55.8993 57.656 55.4113 57.408 54.7873 57.408ZM68.8753 55.176L56.9233 72H53.9473L65.9233 55.176H68.8753ZM68.1553 61.896C69.5953 61.896 70.7393 62.36 71.5873 63.288C72.4353 64.2 72.8593 65.432 72.8593 66.984C72.8593 68.552 72.4353 69.8 71.5873 70.728C70.7393 71.64 69.5953 72.096 68.1553 72.096C66.7153 72.096 65.5633 71.64 64.6993 70.728C63.8513 69.8 63.4273 68.552 63.4273 66.984C63.4273 65.432 63.8513 64.2 64.6993 63.288C65.5633 62.36 66.7153 61.896 68.1553 61.896ZM68.1553 64.2C67.5313 64.2 67.0433 64.448 66.6913 64.944C66.3393 65.44 66.1633 66.12 66.1633 66.984C66.1633 67.848 66.3393 68.528 66.6913 69.024C67.0433 69.52 67.5313 69.768 68.1553 69.768C68.7793 69.768 69.2673 69.52 69.6193 69.024C69.9713 68.528 70.1473 67.848 70.1473 66.984C70.1473 66.12 69.9713 65.44 69.6193 64.944C69.2673 64.448 68.7793 64.2 68.1553 64.2ZM88.7909 71.328C88.3109 71.6 87.7589 71.816 87.1349 71.976C86.5109 72.12 85.8789 72.192 85.2389 72.192C83.9589 72.192 82.9189 71.824 82.1189 71.088C81.3349 70.352 80.9429 69.336 80.9429 68.04V62.472H79.1429V59.64H80.9429V56.04H85.1909V59.64H88.5509V62.472H85.1909V67.368C85.1909 68.28 85.5669 68.736 86.3189 68.736C86.7829 68.736 87.3349 68.592 87.9749 68.304L88.7909 71.328ZM96.7732 58.872C98.1812 58.872 99.4212 59.152 100.493 59.712C101.565 60.256 102.397 61.032 102.989 62.04C103.581 63.032 103.877 64.184 103.877 65.496C103.877 66.824 103.581 67.992 102.989 69C102.397 69.992 101.565 70.768 100.493 71.328C99.4212 71.872 98.1812 72.144 96.7732 72.144C95.3652 72.144 94.1252 71.872 93.0532 71.328C91.9812 70.768 91.1492 69.992 90.5572 69C89.9812 67.992 89.6932 66.824 89.6932 65.496C89.6932 64.184 89.9812 63.032 90.5572 62.04C91.1492 61.032 91.9812 60.256 93.0532 59.712C94.1252 59.152 95.3652 58.872 96.7732 58.872ZM96.7732 62.328C95.9412 62.328 95.2692 62.624 94.7572 63.216C94.2452 63.808 93.9892 64.584 93.9892 65.544C93.9892 66.52 94.2452 67.304 94.7572 67.896C95.2692 68.488 95.9412 68.784 96.7732 68.784C97.6212 68.784 98.3012 68.488 98.8132 67.896C99.3252 67.304 99.5812 66.52 99.5812 65.544C99.5812 64.584 99.3172 63.808 98.7892 63.216C98.2772 62.624 97.6052 62.328 96.7732 62.328ZM119.366 55.176C120.63 55.176 121.726 55.352 122.654 55.704C123.598 56.04 124.326 56.528 124.838 57.168C125.35 57.808 125.606 58.56 125.606 59.424C125.606 60.304 125.342 61.072 124.814 61.728C124.302 62.384 123.598 62.832 122.702 63.072C123.774 63.28 124.614 63.768 125.222 64.536C125.846 65.304 126.158 66.232 126.158 67.32C126.158 68.264 125.894 69.096 125.366 69.816C124.838 70.52 124.086 71.064 123.11 71.448C122.134 71.816 120.99 72 119.678 72H111.374V55.176H119.366ZM119.126 61.872C119.734 61.872 120.214 61.728 120.566 61.44C120.918 61.136 121.094 60.72 121.094 60.192C121.094 59.68 120.918 59.288 120.566 59.016C120.214 58.728 119.734 58.592 119.126 58.608H115.766V61.872H119.126ZM119.126 68.592C119.894 68.592 120.502 68.432 120.95 68.112C121.398 67.792 121.622 67.344 121.622 66.768C121.622 66.24 121.398 65.824 120.95 65.52C120.502 65.2 119.894 65.048 119.126 65.064H115.766V68.592H119.126ZM134.578 58.872C135.986 58.872 137.226 59.152 138.298 59.712C139.37 60.256 140.202 61.032 140.794 62.04C141.386 63.032 141.682 64.184 141.682 65.496C141.682 66.824 141.386 67.992 140.794 69C140.202 69.992 139.37 70.768 138.298 71.328C137.226 71.872 135.986 72.144 134.578 72.144C133.17 72.144 131.93 71.872 130.858 71.328C129.786 70.768 128.954 69.992 128.362 69C127.786 67.992 127.498 66.824 127.498 65.496C127.498 64.184 127.786 63.032 128.362 62.04C128.954 61.032 129.786 60.256 130.858 59.712C131.93 59.152 133.17 58.872 134.578 58.872ZM134.578 62.328C133.746 62.328 133.074 62.624 132.562 63.216C132.05 63.808 131.794 64.584 131.794 65.544C131.794 66.52 132.05 67.304 132.562 67.896C133.074 68.488 133.746 68.784 134.578 68.784C135.426 68.784 136.106 68.488 136.618 67.896C137.13 67.304 137.386 66.52 137.386 65.544C137.386 64.584 137.122 63.808 136.594 63.216C136.082 62.624 135.41 62.328 134.578 62.328ZM149.883 58.872C151.291 58.872 152.531 59.152 153.603 59.712C154.675 60.256 155.507 61.032 156.099 62.04C156.691 63.032 156.987 64.184 156.987 65.496C156.987 66.824 156.691 67.992 156.099 69C155.507 69.992 154.675 70.768 153.603 71.328C152.531 71.872 151.291 72.144 149.883 72.144C148.475 72.144 147.235 71.872 146.163 71.328C145.091 70.768 144.259 69.992 143.667 69C143.091 67.992 142.803 66.824 142.803 65.496C142.803 64.184 143.091 63.032 143.667 62.04C144.259 61.032 145.091 60.256 146.163 59.712C147.235 59.152 148.475 58.872 149.883 58.872ZM149.883 62.328C149.051 62.328 148.379 62.624 147.867 63.216C147.355 63.808 147.099 64.584 147.099 65.544C147.099 66.52 147.355 67.304 147.867 67.896C148.379 68.488 149.051 68.784 149.883 68.784C150.731 68.784 151.411 68.488 151.923 67.896C152.435 67.304 152.691 66.52 152.691 65.544C152.691 64.584 152.427 63.808 151.899 63.216C151.387 62.624 150.715 62.328 149.883 62.328ZM164.875 67.104L163.555 68.472V72H159.283V54.192H163.555V63.408L167.707 59.016H172.555L167.803 64.032L172.651 72H167.611L164.875 67.104Z" fill="white"/>
<path d="M25.92 86.8C27.3173 86.8 28.3947 87.1307 29.152 87.792C29.92 88.4533 30.304 89.3813 30.304 90.576C30.304 91.824 29.92 92.7947 29.152 93.488C28.384 94.1707 27.3067 94.512 25.92 94.512H23.136V98H21.6V86.8H25.92ZM25.856 93.12C26.816 93.12 27.552 92.912 28.064 92.496C28.576 92.0693 28.832 91.4453 28.832 90.624C28.832 89.824 28.576 89.2213 28.064 88.816C27.552 88.4 26.816 88.192 25.856 88.192L23.136 88.208V93.12H25.856ZM37.3584 96.816C36.729 97.648 35.7424 98.064 34.3984 98.064C33.8117 98.064 33.2944 97.952 32.8464 97.728C32.409 97.504 32.0677 97.1947 31.8224 96.8C31.5877 96.4053 31.4704 95.9627 31.4704 95.472C31.4704 94.7147 31.7477 94.1173 32.3024 93.68C32.8677 93.232 33.6517 93.0027 34.6544 92.992H37.3424V92.592C37.3424 91.9947 37.1557 91.536 36.7824 91.216C36.4197 90.8853 35.8864 90.72 35.1824 90.72C34.329 90.72 33.4597 91.024 32.5744 91.632L31.9504 90.608C32.5584 90.2133 33.1184 89.9307 33.6304 89.76C34.153 89.5787 34.7717 89.488 35.4864 89.488C36.5424 89.488 37.3584 89.7493 37.9344 90.272C38.5104 90.784 38.8037 91.504 38.8144 92.432L38.8304 98H37.3584V96.816ZM34.7024 96.832C35.3957 96.832 35.9824 96.6667 36.4624 96.336C36.953 95.9947 37.2464 95.5467 37.3424 94.992V94.144H34.8624C34.1904 94.144 33.689 94.2453 33.3584 94.448C33.0384 94.6507 32.8784 94.9707 32.8784 95.408C32.8784 95.8453 33.0437 96.192 33.3744 96.448C33.705 96.704 34.1477 96.832 34.7024 96.832ZM44.1504 99.2C43.8837 99.8507 43.5264 100.341 43.0784 100.672C42.641 101.003 42.1237 101.168 41.5264 101.168C41.1637 101.168 40.833 101.115 40.5344 101.008C40.2357 100.901 39.9477 100.736 39.6704 100.512L40.3104 99.344C40.6837 99.6107 41.0624 99.744 41.4464 99.744C42.0864 99.744 42.5664 99.3813 42.8864 98.656L43.2064 97.904L39.7024 89.536H41.2704L43.9584 96.32L46.5024 89.536H48.0224L44.1504 99.2ZM55.0846 91.36C55.362 90.752 55.7566 90.2933 56.2686 89.984C56.7806 89.664 57.3886 89.4987 58.0926 89.488V90.928C57.2286 90.896 56.53 91.12 55.9966 91.6C55.4633 92.08 55.1593 92.7253 55.0846 93.536V98H53.5966V89.536H55.0846V91.36ZM63.098 89.488C64.41 89.488 65.402 89.8773 66.074 90.656C66.746 91.424 67.082 92.496 67.082 93.872C67.082 94.0853 67.0767 94.2453 67.066 94.352H60.378C60.4953 95.1093 60.81 95.712 61.322 96.16C61.8447 96.608 62.4847 96.832 63.242 96.832C63.7433 96.832 64.2073 96.7413 64.634 96.56C65.0713 96.3787 65.45 96.1227 65.77 95.792L66.586 96.64C66.17 97.088 65.6687 97.4347 65.082 97.68C64.4953 97.9253 63.8447 98.048 63.13 98.048C62.298 98.048 61.5567 97.872 60.906 97.52C60.266 97.1573 59.7647 96.6507 59.402 96C59.05 95.3493 58.874 94.608 58.874 93.776C58.874 92.944 59.05 92.208 59.402 91.568C59.7647 90.9173 60.266 90.4107 60.906 90.048C61.546 89.6747 62.2767 89.488 63.098 89.488ZM65.738 93.2C65.6953 92.432 65.4393 91.8293 64.97 91.392C64.5007 90.944 63.882 90.72 63.114 90.72C62.3673 90.72 61.7433 90.944 61.242 91.392C60.7513 91.84 60.458 92.4427 60.362 93.2H65.738ZM73.7363 91.408C73.3843 91.1947 72.9949 91.024 72.5683 90.896C72.1523 90.768 71.7523 90.704 71.3683 90.704C70.9203 90.704 70.5576 90.7893 70.2803 90.96C70.0136 91.12 69.8803 91.3707 69.8803 91.712C69.8803 92.0533 70.0296 92.3147 70.3283 92.496C70.6376 92.6667 71.1016 92.8427 71.7203 93.024C72.3069 93.1947 72.7869 93.3653 73.1603 93.536C73.5336 93.7067 73.8483 93.9573 74.1043 94.288C74.3709 94.6187 74.5043 95.056 74.5043 95.6C74.5043 96.4 74.2003 97.008 73.5923 97.424C72.9949 97.84 72.2483 98.048 71.3523 98.048C70.7229 98.048 70.1096 97.9467 69.5123 97.744C68.9256 97.5413 68.4296 97.2533 68.0243 96.88L68.5843 95.792C68.9363 96.112 69.3683 96.368 69.8803 96.56C70.4029 96.752 70.9096 96.848 71.4003 96.848C71.8909 96.848 72.2856 96.7573 72.5843 96.576C72.8829 96.3947 73.0323 96.1173 73.0323 95.744C73.0323 95.36 72.8723 95.072 72.5523 94.88C72.2429 94.688 71.7683 94.496 71.1283 94.304C70.5629 94.144 70.0989 93.984 69.7363 93.824C69.3843 93.6533 69.0803 93.408 68.8243 93.088C68.5789 92.768 68.4563 92.352 68.4563 91.84C68.4563 91.0507 68.7443 90.4587 69.3203 90.064C69.8963 89.6693 70.6163 89.472 71.4803 89.472C71.9923 89.472 72.4936 89.5467 72.9843 89.696C73.4856 89.8347 73.9176 90.0267 74.2803 90.272L73.7363 91.408ZM81.0156 97.44C80.365 97.856 79.7036 98.064 79.0316 98.064C78.3596 98.064 77.8156 97.8667 77.3996 97.472C76.9836 97.0667 76.7756 96.4587 76.7756 95.648V90.96H75.5756V89.824H76.7756V87.552H78.2796V89.824H80.8716V90.96H78.2796V95.376C78.2796 95.8453 78.365 96.1813 78.5356 96.384C78.7063 96.5867 78.9623 96.688 79.3036 96.688C79.709 96.688 80.1463 96.5547 80.6156 96.288L81.0156 97.44ZM88.5865 86.128V98H87.0985V86.128H88.5865ZM96.749 96.816C96.1197 97.648 95.133 98.064 93.789 98.064C93.2023 98.064 92.685 97.952 92.237 97.728C91.7997 97.504 91.4583 97.1947 91.213 96.8C90.9783 96.4053 90.861 95.9627 90.861 95.472C90.861 94.7147 91.1383 94.1173 91.693 93.68C92.2583 93.232 93.0423 93.0027 94.045 92.992H96.733V92.592C96.733 91.9947 96.5463 91.536 96.173 91.216C95.8103 90.8853 95.277 90.72 94.573 90.72C93.7197 90.72 92.8503 91.024 91.965 91.632L91.341 90.608C91.949 90.2133 92.509 89.9307 93.021 89.76C93.5437 89.5787 94.1623 89.488 94.877 89.488C95.933 89.488 96.749 89.7493 97.325 90.272C97.901 90.784 98.1943 91.504 98.205 92.432L98.221 98H96.749V96.816ZM94.093 96.832C94.7863 96.832 95.373 96.6667 95.853 96.336C96.3437 95.9947 96.637 95.5467 96.733 94.992V94.144H94.253C93.581 94.144 93.0797 94.2453 92.749 94.448C92.429 94.6507 92.269 94.9707 92.269 95.408C92.269 95.8453 92.4343 96.192 92.765 96.448C93.0957 96.704 93.5383 96.832 94.093 96.832ZM105.422 97.44C104.771 97.856 104.11 98.064 103.438 98.064C102.766 98.064 102.222 97.8667 101.806 97.472C101.39 97.0667 101.182 96.4587 101.182 95.648V90.96H99.9819V89.824H101.182V87.552H102.686V89.824H105.278V90.96H102.686V95.376C102.686 95.8453 102.771 96.1813 102.942 96.384C103.113 96.5867 103.369 96.688 103.71 96.688C104.115 96.688 104.553 96.5547 105.022 96.288L105.422 97.44ZM110.52 89.488C111.832 89.488 112.824 89.8773 113.496 90.656C114.168 91.424 114.504 92.496 114.504 93.872C114.504 94.0853 114.499 94.2453 114.488 94.352H107.8C107.917 95.1093 108.232 95.712 108.744 96.16C109.267 96.608 109.907 96.832 110.664 96.832C111.165 96.832 111.629 96.7413 112.056 96.56C112.493 96.3787 112.872 96.1227 113.192 95.792L114.008 96.64C113.592 97.088 113.091 97.4347 112.504 97.68C111.917 97.9253 111.267 98.048 110.552 98.048C109.72 98.048 108.979 97.872 108.328 97.52C107.688 97.1573 107.187 96.6507 106.824 96C106.472 95.3493 106.296 94.608 106.296 93.776C106.296 92.944 106.472 92.208 106.824 91.568C107.187 90.9173 107.688 90.4107 108.328 90.048C108.968 89.6747 109.699 89.488 110.52 89.488ZM113.16 93.2C113.117 92.432 112.861 91.8293 112.392 91.392C111.923 90.944 111.304 90.72 110.536 90.72C109.789 90.72 109.165 90.944 108.664 91.392C108.173 91.84 107.88 92.4427 107.784 93.2H113.16ZM118.022 91.36C118.299 90.752 118.694 90.2933 119.206 89.984C119.718 89.664 120.326 89.4987 121.03 89.488V90.928C120.166 90.896 119.467 91.12 118.934 91.6C118.401 92.08 118.097 92.7253 118.022 93.536V98H116.534V89.536H118.022V91.36Z" fill="white"/>
<path d="M420.738 109.991H374.691V124.81H420.738V109.991Z" fill="#FFCB64"/>
<path d="M404.505 109.991H389.686V124.81H404.505V109.991Z" fill="#FFE175"/>
<path d="M420.738 121.105H374.691V124.81H420.738V121.105Z" fill="#FFE175"/>
<path d="M432.909 97.6412H386.863V112.461H432.909V97.6412Z" fill="#FFCB64"/>
<path d="M416.503 97.6412H401.684V112.461H416.503V97.6412Z" fill="#FFE175"/>
<path d="M432.909 108.932H386.863V112.637H432.909V108.932Z" fill="#FFE175"/>
<path d="M370.281 127.457C394.932 127.457 414.916 107.473 414.916 82.822C414.916 58.1709 394.932 38.1873 370.281 38.1873C345.63 38.1873 325.646 58.1709 325.646 82.822C325.646 107.473 345.63 127.457 370.281 127.457Z" fill="#FFC164"/>
<path d="M364.635 127.457C389.286 127.457 409.269 107.473 409.269 82.822C409.269 58.1709 389.286 38.1873 364.635 38.1873C339.984 38.1873 320 58.1709 320 82.822C320 107.473 339.984 127.457 364.635 127.457Z" fill="#FFCB64"/>
<path d="M364.635 120.047C385.194 120.047 401.86 103.381 401.86 82.8219C401.86 62.2631 385.194 45.5969 364.635 45.5969C344.076 45.5969 327.41 62.2631 327.41 82.8219C327.41 103.381 344.076 120.047 364.635 120.047Z" fill="#FFF1BF"/>
<path d="M329.35 84.7627C329.35 64.2977 345.934 47.5377 366.575 47.5377C376.455 47.5377 385.276 51.4189 391.98 57.5937C385.276 50.3604 375.573 45.7734 364.811 45.7734C344.346 45.7734 327.586 62.3571 327.586 82.9984C327.586 93.7602 332.173 103.463 339.406 110.167C333.055 103.287 329.35 94.4659 329.35 84.7627Z" fill="#FFC164"/>
<path d="M367.459 102.758L366.929 102.052L355.638 88.9966L354.051 87.2324L353.521 86.5267V81.9398H355.462C356.521 81.9398 357.579 81.9398 358.285 81.7633C358.461 81.7633 358.99 81.7633 359.696 81.7633C360.402 81.7633 361.108 81.7633 361.99 81.5869C362.872 81.4105 363.577 81.0577 364.283 80.5284C365.165 79.8227 365.694 78.9406 366.047 78.0585H352.11L355.638 72.5894H365.342C365.165 71.7073 364.636 71.178 364.107 70.8252C363.577 70.4723 363.048 70.2959 362.342 70.2959H351.934L355.286 64.474H379.985L376.633 70.2959H371.164C371.34 70.6488 371.516 71.3545 371.869 72.413H379.632L376.103 77.8821H372.222C372.046 78.4113 371.869 78.9406 371.693 79.2934C371.34 79.8227 371.164 80.1755 370.987 80.5284C370.105 82.2926 368.694 83.704 367.106 84.7625C365.518 85.821 363.754 86.5267 361.99 86.8796L375.221 102.405H367.459V102.758Z" fill="#FFCB64"/>
</g>
<defs>
<linearGradient id="paint0_linear" x1="436.59" y1="-7.22778e-06" x2="114.951" y2="262.25" gradientUnits="userSpaceOnUse">
<stop stop-color="#D8A94E"/>
<stop offset="1" stop-color="#A55D2A"/>
</linearGradient>
<clipPath id="clip0">
<path d="M0 8C0 3.58172 3.58172 0 8 0H454C458.418 0 462 3.58172 462 8V152C462 156.418 458.418 160 454 160H8.00001C3.58173 160 0 156.418 0 152V8Z" fill="white"/>
</clipPath>
</defs>
</svg>
