<?xml version="1.0" encoding="UTF-8"?>
<svg width="15px" height="14px" viewBox="0 0 15 14" version="1.1" xmlns="http://www.w3.org/2000/svg" xmlns:xlink="http://www.w3.org/1999/xlink">
    <title>Avatar / Bus Hostess</title>
    <g id="Page-1" stroke="none" stroke-width="1" fill="none" fill-rule="evenodd">
        <g id="busHire-SRP-2.0------------Details-Screen-Normal-Vehicle" transform="translate(-17.000000, -1302.000000)" fill="#455888" fill-rule="nonzero">
            <g id="Avatar-/-Bus-Hostess" transform="translate(17.500000, 1302.000000)">
                <path d="M12.3333333,0.333333333 C13.069713,0.333333333 13.6666667,0.930287 13.6666667,1.66666667 L13.6666667,12.3333333 C13.6666667,13.069713 13.069713,13.6666667 12.3333333,13.6666667 L1.66666667,13.6666667 C0.930287,13.6666667 0.333333333,13.069713 0.333333333,12.3333333 L0.333333333,9 C0.333333333,8.63181017 0.631810167,8.33333333 1,8.33333333 L2.33333333,8.33333333 L2.33333333,1.66666667 C2.33333333,0.930287 2.930287,0.333333333 3.66666667,0.333333333 L12.3333333,0.333333333 Z M12.3333333,1 L3.66666667,1 C3.32477611,1 3.04299523,1.25736013 3.00448515,1.58891925 L3,1.66666667 L3,13 L12.3333333,13 C12.6752239,13 12.9570048,12.7426399 12.9955148,12.4110808 L13,12.3333333 L13,1.66666667 C13,1.32477611 12.7426399,1.04299523 12.4110808,1.00448515 L12.3333333,1 Z M2.33333333,9 L1,9 L1,12.3333333 C1,12.7015232 1.29847683,13 1.66666667,13 C2.00855723,13 2.29033811,12.7426399 2.32884818,12.4110808 L2.33333333,12.3333333 L2.33333333,9 Z M7.33333333,10.3333333 C7.51742825,10.3333333 7.66666667,10.4825718 7.66666667,10.6666667 C7.66666667,10.8303066 7.54874989,10.9664056 7.39325042,10.9946296 L7.33333333,11 L4.66666667,11 C4.48257175,11 4.33333333,10.8507616 4.33333333,10.6666667 C4.33333333,10.5030267 4.45125011,10.3669278 4.60674958,10.3387038 L4.66666667,10.3333333 L7.33333333,10.3333333 Z M11.3333333,10.3333333 C11.5174282,10.3333333 11.6666667,10.4825718 11.6666667,10.6666667 C11.6666667,10.8303066 11.5487499,10.9664056 11.3932504,10.9946296 L11.3333333,11 L8.66666667,11 C8.48257175,11 8.33333333,10.8507616 8.33333333,10.6666667 C8.33333333,10.5030267 8.45125011,10.3669278 8.60674958,10.3387038 L8.66666667,10.3333333 L11.3333333,10.3333333 Z M11.3333333,8.33333333 C11.5174282,8.33333333 11.6666667,8.48257175 11.6666667,8.66666667 C11.6666667,8.85076158 11.5174282,9 11.3333333,9 L4.66666667,9 C4.48257175,9 4.33333333,8.85076158 4.33333333,8.66666667 C4.33333333,8.48257175 4.48257175,8.33333333 4.66666667,8.33333333 L11.3333333,8.33333333 Z M7.73333333,2.33333333 L7.35779093,2.97712032 L6.63353057,2.97712032 L6.64023669,2.99053254 C6.66169625,3.02629849 6.69030901,3.09067719 6.72607495,3.18366864 L6.75424063,3.25877712 L7.68639053,3.25877712 L7.2974359,3.88244576 L6.7877712,3.88244576 C6.76094675,4.00762656 6.7095332,4.14845496 6.63353057,4.30493097 C6.51282051,4.53293886 6.35075608,4.7095332 6.14733728,4.834714 C5.98460224,4.93485865 5.82115187,5.01068245 5.65698619,5.0621854 L5.53372781,5.09625247 L7.17672584,7.02761341 L6.29822485,7.02761341 L6.23786982,6.95384615 L5.48281609,6.0772612 L5.48281609,6.0772612 L4.80946746,5.31084813 L4.80946746,5.30414201 L4.56134122,5.01577909 L4.56134122,4.5061144 L4.77593688,4.5061144 C4.91900066,4.5061144 5.03747535,4.50164366 5.13136095,4.49270217 C5.42195924,4.47928994 5.6522025,4.39881657 5.82209073,4.25128205 C5.91150559,4.17617357 5.98375279,4.0824668 6.03883235,3.97016174 L6.07692308,3.88244576 L4.33333333,3.88244576 L4.72899408,3.25877712 L6.02327416,3.25877712 L6.00315582,3.23195266 C5.92268245,3.12465483 5.85338593,3.05535832 5.79526627,3.02406312 C5.75651983,3.00319965 5.7118124,2.98929067 5.66114398,2.98233618 L5.58067061,2.97712032 L4.34674556,2.97712032 L4.72899408,2.33333333 L7.73333333,2.33333333 Z M11.3333333,6.33333333 C11.5174282,6.33333333 11.6666667,6.48257175 11.6666667,6.66666667 C11.6666667,6.85076158 11.5174282,7 11.3333333,7 L8.66666667,7 C8.48257175,7 8.33333333,6.85076158 8.33333333,6.66666667 C8.33333333,6.48257175 8.48257175,6.33333333 8.66666667,6.33333333 L11.3333333,6.33333333 Z M11.3333333,4.33333333 C11.5174282,4.33333333 11.6666667,4.48257175 11.6666667,4.66666667 C11.6666667,4.85076158 11.5174282,5 11.3333333,5 L8.66666667,5 C8.48257175,5 8.33333333,4.85076158 8.33333333,4.66666667 C8.33333333,4.48257175 8.48257175,4.33333333 8.66666667,4.33333333 L11.3333333,4.33333333 Z M11.3333333,2.33333333 C11.5174282,2.33333333 11.6666667,2.48257175 11.6666667,2.66666667 C11.6666667,2.85076158 11.5174282,3 11.3333333,3 L9.33333333,3 C9.14923842,3 9,2.85076158 9,2.66666667 C9,2.48257175 9.14923842,2.33333333 9.33333333,2.33333333 L11.3333333,2.33333333 Z" id="Shape"></path>
            </g>
        </g>
    </g>
</svg>
