<svg xmlns="http://www.w3.org/2000/svg" xmlns:xlink="http://www.w3.org/1999/xlink" width="24" height="24" viewBox="0 0 24 24">
    <defs>
        <path id="prefix__a" d="M11.961 17.998c.276 0 .5.224.5.5v3c0 .276-.224.5-.5.5s-.5-.224-.5-.5v-3c0-.276.224-.5.5-.5zm-3.99-.73c.158.225.103.537-.124.695L5.39 19.684c-.226.159-.538.104-.696-.123-.159-.226-.104-.538.122-.696l2.458-1.72c.226-.16.538-.104.696.122zm7.723 0c.14-.202.402-.268.618-.169l.078.045 2.457 1.721c.227.158.282.47.123.696-.14.201-.403.267-.618.168l-.078-.045-2.458-1.72c-.226-.159-.28-.47-.122-.697zm-9.246-3.813c.024.275-.18.517-.455.541l-2.988.262c-.275.024-.518-.18-.542-.455-.024-.275.18-.517.455-.542L5.906 13c.275-.024.518.18.542.455zM18.005 13l2.988.261c.276.025.48.267.455.542-.021.245-.215.433-.451.454h-.09l-2.99-.26c-.274-.025-.478-.267-.454-.542.022-.245.216-.433.452-.455h.09zM21.5 2c.276 0 .5.224.5.5s-.224.5-.5.5h-6.923l.168.793c.015.07.022.139.022.207h.585c.404 0 .769.244.924.617.483 1.166.724 2.275.724 3.325 0 1.907-.577 3.689-1.732 5.345-1.264 1.812-3.757 2.257-5.57.994-.366-.256-.688-.572-.95-.934C7.583 11.739 7 10.059 7 8.307c0-1.232.242-2.457.727-3.677.152-.38.52-.63.93-.63l.576-.001.006-.103.016-.103L9.422 3H2.5c-.276 0-.5-.224-.5-.5s.224-.5.5-.5h19zm-6.148 3H8.657C8.217 6.104 8 7.204 8 8.306c0 1.535.512 3.012 1.558 4.454.196.272.437.508.713.7 1.359.948 3.229.614 4.176-.745C15.487 11.224 16 9.641 16 7.942c0-.912-.213-1.892-.648-2.942zm-1.796-2h-3.112l-.211.999h3.533L13.556 3z"/>
    </defs>
    <g fill="none" fill-rule="evenodd">
        <path d="M0 0H24V24H0z"/>
        <mask id="prefix__b" fill="#fff">
            <use xlink:href="#prefix__a"/>
        </mask>
        <use fill="#000" fill-rule="nonzero" xlink:href="#prefix__a"/>
        <g mask="url(#prefix__b)">
            <path d="M0 0H24V24H0z"/>
            <path fill="#3E3E52" d="M0 0H24V24H0z"/>
        </g>
    </g>
</svg>
