<?xml version="1.0" encoding="UTF-8"?>
<svg width="12px" height="11px" viewBox="0 0 12 11" version="1.1" xmlns="http://www.w3.org/2000/svg" xmlns:xlink="http://www.w3.org/1999/xlink">
    <title>Group</title>
    <g id="Symbols" stroke="none" stroke-width="1" fill="none" fill-rule="evenodd">
        <g id="components-/-srp-/--tupple-/-wysiwyg" transform="translate(-336.000000, -413.000000)" fill="#1034D9" fill-rule="nonzero">
            <g id="Group-7" transform="translate(227.000000, 410.000000)">
                <g id="Group" transform="translate(115.000000, 8.500000) scale(-1, 1) translate(-115.000000, -8.500000) translate(109.000000, 3.000000)">
                    <path d="M4.70765382,0.213334843 L0.215326718,4.57190101 L0.149467406,4.6461163 C-0.0756804727,4.95884309 -0.0409653169,5.34873016 0.216521075,5.59742685 L4.71785084,9.94509661 L4.79458169,10.0089007 C5.11797581,10.2270592 5.52148176,10.1936351 5.77882423,9.94445413 L5.84480071,9.87024973 L5.89579895,9.79057583 C6.06307724,9.4934487 6.01435275,9.14654464 5.77815988,8.91841458 L2.55320927,5.80343177 L11.2497784,5.80415729 C11.6641143,5.80415729 12,5.47933107 12,5.07863763 L11.9949527,4.99402671 C11.9516161,4.63319772 11.6345189,4.35311797 11.2497784,4.35311797 L2.55921104,4.35239245 L5.77030459,1.23775007 L5.83625128,1.16343632 C6.0615139,0.850472299 6.02654824,0.460285897 5.76862602,0.211666104 C5.47517014,-0.0712057637 5.0001567,-0.0704586436 4.70765382,0.213334843 Z" id="Path"></path>
                </g>
            </g>
        </g>
    </g>
</svg>