<svg xmlns="http://www.w3.org/2000/svg" width="64" height="64" viewBox="0 0 64 64">
    <g fill="none" fill-rule="evenodd" transform="translate(0 2)">
        <path fill="#D84E55" fill-rule="nonzero" d="M58 25.66l-.26-.81c-.19-.65-.31-1-.31-1-1.13-3.46-1.78-3.69-3.81-3.69H0v2h54.46c.833.002 1.571.538 1.83 1.33l.32 1 .26.83c1.52 6.149 2.645 12.388 3.37 18.68v3.29c-.002.201-.098.39-.26.51-.168.114-.382.136-.57.06-9.38-3.63-13.92-9-15.92-12.43-.1-.146-.263-.235-.44-.24H0v20.32h29.29v-.33c0-3.943 3.197-7.14 7.14-7.14 3.943 0 7.14 3.197 7.14 7.14v.33h15.25c1.391 0 2.524-1.119 2.54-2.51v-8.61c-.725-6.308-1.847-12.564-3.36-18.73z"/>
        <path fill="#0F204A" d="M56.87 25.29l-.26-.83-.32-1c-.259-.792-.997-1.328-1.83-1.33H0v13.09h43.05c.177.005.34.094.44.24 2 3.48 6.54 8.8 15.92 12.43.188.076.402.054.57-.06.162-.12.258-.309.26-.51V44c-.724-6.302-1.85-12.551-3.37-18.71z"/>
        <path fill="#B0CDFF" fill-rule="nonzero" d="M40.81 8.16c-.06.07-.07.09-.05.12l-2.8.77c-1.787.365-3.282 1.583-4 3.26-.346.932-.636 1.884-.87 2.85l-.33 1.13h-.09c-.26-1-.53-1.86-.78-2.86-.371-1.74-1.548-3.199-3.17-3.93-.905-.35-1.83-.648-2.77-.89-.41-.13-.87-.24-1.41-.38.22-.09.34-.19.47-.19.92-.25 1.85-.49 2.77-.76 1.77-.45 3.202-1.75 3.82-3.47.31-.8.49-1.66.74-2.49.12-.4.23-.8.37-1.29.04.084.073.171.1.26.29 1 .56 2 .86 3 .406 1.67 1.583 3.049 3.17 3.71.942.349 1.904.643 2.88.88l1.09.33v-.05zM56.57 9.09l-1.69.48c-1.313.314-2.331 1.351-2.62 2.67-.15.55-.31 1.1-.46 1.64-.215-.505-.389-1.027-.52-1.56-.257-1.39-1.327-2.488-2.71-2.78l-1.66-.47c.483-.204.98-.367 1.49-.49 1.467-.28 2.615-1.424 2.9-2.89.12-.51.29-1 .43-1.52.065.044.108.113.12.19.17.711.38 1.412.63 2.1.456 1.102 1.438 1.9 2.61 2.12.49.12 1 .27 1.49.41l-.01.1zM4.09 7.7c-1.167-.218-2.147-1.007-2.61-2.1C1.24 4.91 1 4.21.86 3.5.843 3.422.8 3.352.74 3.3c-.15.51-.31 1-.43 1.53-.062.31-.167.609-.31.89v4.88c.132.27.23.556.29.85.133.53.307 1.048.52 1.55.15-.55.31-1.09.45-1.64.302-1.317 1.319-2.353 2.63-2.68l1.69-.46v-.1L4.09 7.7zM10.65 7.51c-.138-.688-.432-1.334-.86-1.89-.5-.5-1.21-.51-1.86-.81.677-.125 1.316-.402 1.87-.81.51-.5.55-1.19.85-1.83.048 1.45 1.23 2.605 2.68 2.62-.64.31-1.31.33-1.83.83-.52.5-.56 1.2-.85 1.89zM23.11 18.34c-.128-.687-.408-1.336-.82-1.9-.5-.5-1.21-.51-1.87-.8.677-.128 1.318-.4 1.88-.8.51-.5.55-1.2.85-1.84.047 1.433 1.207 2.579 2.64 2.61-.65.31-1.32.32-1.84.83s-.56 1.2-.84 1.9zM43.06 15.94c-.062-.31-.188-.602-.37-.86-.23-.23-.55-.23-.85-.36.31-.052.601-.179.85-.37.23-.22.25-.54.39-.83.02.648.542 1.17 1.19 1.19-.29.14-.59.14-.83.37-.24.23-.25.55-.38.86z"/>
        <path fill="#D84E55" fill-rule="nonzero" d="M58.42 22.85c1.002-.238 2.008.379 2.25 1.38l1.49 8-.33 1c-.044.284-.24.522-.51.62l-.41.07-1.51-8.17.4-.07c.288-.001.553.156.69.41l-.32-1.74c-.068-.38-.285-.715-.603-.933-.317-.218-.709-.3-1.087-.227l-1.67.31c-.042.431-.357.787-.78.88-.244.045-.496-.009-.7-.15-.207-.137-.349-.355-.39-.6-.05-.475.243-.92.7-1.06.466-.095.935.152 1.12.59l1.66-.31z"/>
        <path fill="#0F204A" fill-rule="nonzero" d="M36.47 48.64c-2.667-.004-5.074 1.6-6.096 4.063-1.023 2.464-.46 5.3 1.426 7.187 1.886 1.886 4.723 2.449 7.187 1.426 2.463-1.022 4.067-3.429 4.063-6.096 0-3.634-2.946-6.58-6.58-6.58z"/>
        <path fill="#FFF" fill-rule="nonzero" d="M40.76 55.22c.002-.072-.027-.141-.08-.19v-.09c-.057-.885-.382-1.733-.93-2.43l-.12-.14c-.031-.048-.068-.091-.11-.13l-.12-.12-.13-.12c-.733-.639-1.66-1.012-2.63-1.06h-.43c-.973.05-1.902.423-2.64 1.06l-.14.13-.13.14-.13.14-.14.12c-.472.708-.726 1.539-.73 2.39v.79c.1.848.448 1.648 1 2.3l.13.15.14.14.14.13.15.13c.707.566 1.576.891 2.48.93h.41c.904-.043 1.77-.369 2.48-.93l.14-.12.14-.13.13-.13.12-.14c.552-.652.9-1.452 1-2.3v-.52zm-.51-.22h-.69c-.036-.58-.23-1.14-.56-1.62l.5-.49c.446.618.706 1.35.75 2.11zm-3.42-3.55c.772.079 1.502.393 2.09.9l-.5.49c-.456-.373-1.006-.612-1.59-.69v-.7zm-.79 0v.7c-.584.078-1.134.317-1.59.69l-.5-.49c.572-.514 1.287-.842 2.05-.94l.04.04zM32.62 55c.062-.728.333-1.422.78-2l.49.49c-.315.448-.514.967-.58 1.51h-.69zm.05.8h.7c.088.516.304 1 .63 1.41l-.51.49c-.453-.555-.738-1.228-.82-1.94v.04zm1.93 2c.42.31.912.51 1.43.58V59c-.7-.073-1.368-.336-1.93-.76l.5-.44zm4.15.51c-.558.425-1.222.688-1.92.76v-.69c.518-.07 1.01-.27 1.43-.58l.49.51zm1.47-2.5c-.106.716-.411 1.388-.88 1.94l-.49-.49c.34-.42.57-.919.67-1.45h.7z"/>
        <path fill="#081328" fill-rule="nonzero" d="M42.3 22.09L43.02 22.09 43.02 35.22 42.3 35.22zM22.61 22.09L23.33 22.09 23.33 35.22 22.61 35.22zM2.91 22.09L3.64 22.09 3.64 35.22 2.91 35.22z"/>
        <circle cx="7.17" cy="16.57" r="1.58" fill="#B0CDFF" fill-rule="nonzero"/>
        <circle cx="16.55" cy="10.95" r="1.58" fill="#B0CDFF" fill-rule="nonzero"/>
        <circle cx="37.87" cy="16.57" r="1" fill="#B0CDFF" fill-rule="nonzero"/>
        <path fill="#BB3A45" fill-rule="nonzero" d="M0 55.49h29.29v-.34-.13-.64l.06-.4c0-.12 0-.24.07-.36s.08-.32.12-.47c.019-.071.042-.142.07-.21.125-.408.29-.803.49-1.18.08-.15.19-.29.28-.44.04-.066.083-.129.13-.19.044-.08.094-.157.15-.23H0v4.59zM42.14 50.9l.08.13c.128.165.245.34.35.52l.13.21c.06.11.1.22.15.33.068.123.128.25.18.38 0 .09.07.18.1.27.072.186.132.376.18.57v.17c.07.26.12.523.15.79.044.301.067.605.07.91v.31h15.29c1.384 0 2.513-1.107 2.54-2.49v-2.1H42.14z" opacity=".6"/>
        <path fill="#FFF" fill-rule="nonzero" d="M61.36 52.15h-2.55c-1.105 0-2-.895-2-2v-.24h4.55v2.24z"/>
    </g>
</svg>
