<svg xmlns="http://www.w3.org/2000/svg" xmlns:xlink="http://www.w3.org/1999/xlink" width="462" height="160" viewBox="0 0 462 160">
    <defs>
        <rect id="393w8hwk2a" width="462" height="160" x="0" y="0" rx="8"/>
    </defs>
    <g fill="none" fill-rule="evenodd">
        <g>
            <g transform="translate(-94 -1941) translate(94 1941)">
                <mask id="kt88v9ld3b" fill="#fff">
                    <use xlink:href="#393w8hwk2a"/>
                </mask>
                <use fill="#FFCC54" xlink:href="#393w8hwk2a"/>
                <g fill-rule="nonzero" mask="url(#kt88v9ld3b)">
                    <g transform="translate(184 65)">
                        <ellipse cx="131" cy="79.5" fill="#E6B031" opacity=".506" rx="129" ry="1.5"/>
                        <path fill="#BBBDC2" d="M21 23.848l-5.852 30.585S.031 65.734 2.216 48.106c.205-1.625.449-3.159.741-4.612l.176-.827c.156-.717.321-1.413.487-2.089.069-.272.147-.555.225-.817C7.015 28.045 12.564 23 12.564 23l8.436.848z"/>
                        <path fill="#D7333B" d="M13.859 33.9c-1.697 2.61-3.578 5.107-5.63 7.476l-.639.713c-.547.613-1.366.949-2.212.908L3 42.87c.165-.693.34-1.367.515-2.02.072-.264.154-.538.236-.791h.237c.877.04 1.72-.323 2.264-.977 1.794-2.08 3.454-4.26 4.972-6.53.293-.495.94-.69 1.482-.449l.607.254c.296.128.523.366.626.659.103.292.074.612-.08.883z"/>
                        <path fill="#201204" d="M238 36H21v28.757l8.168.687 1.587.131 4.383.364 41.128 2.578 108.635 2.476h42.595c.163.01.326.01.49 0h2.805c.609 0 1.238-.07 1.837-.07.33 0 .68 0 .999-.051 1.058 0 2.176-.121 3.345-.162h.998L238 36z"/>
                        <path fill="#FFF" d="M257.991 59.277c.007 2.373-.157 4.743-.49 7.092.42.613 1.682 1.005.77 2.25-.49.1-1 .191-1.5.261-.862.141-1.773.282-2.734.402-5.38.747-10.797 1.203-16.227 1.366-1.17 0-2.292.11-3.353.161-.35 0-.7 0-1.001.05-.6 0-1.231 0-1.842.07H228.8c-.163.01-.327.01-.49 0h-.911c-.378-.839-.51-1.77-.38-2.681-.07-3.597.28-7.213-.722-10.709 0-.19-.1-.361-.14-.522-2.723-8.338-8.148-13.742-16.907-15.178-8.224-1.399-16.478 2.312-20.912 9.402-1.393 2.314-2.28 4.9-2.603 7.584-.131.999-.185 2.007-.16 3.014.05 2.943 0 5.876 0 9.161L76.663 68.59V62.2c-.024-2.527-.411-5.037-1.151-7.453-1.62-5.186-5.394-9.416-10.351-11.603-3.427-1.641-7.228-2.335-11.011-2.009-.581 0-1.162.13-1.732.221-6.812 1.067-12.59 5.592-15.276 11.964-1.122 2.679-1.703 5.553-1.712 8.458v4.25l-4.394-.362-1.592-.13c-8.419-.704-21.192-1.769-28.83-2.381-1.291-5.696-.22-14.174.27-17.359.11-.735.74-1.279 1.482-1.275H6.74c.31-.001.602-.146.791-.392l5.516-7.032c5.486-7.614 2.092-10.206-.811-12.155-2.733-1.768-2.513-3.837-2.222-4.65.08-.243.305-.409.56-.412l20.271-.473c3.185-1.646 6.468-3.092 9.83-4.33C45.3 13.31 52.048 11.06 58.505 8.94c9.57-3.124 18.42-5.826 18.98-5.916h.09c8.583-1.323 17.253-1.995 25.937-2.01 8.499 0 17.017-.19 25.456.814 5.327.699 10.599 1.77 15.777 3.205 15.266 4.068 29.22 11.21 43.044 18.513 2.666 1.532 5.71 2.274 8.78 2.14 3.914-.161 7.898.633 11.852 1.155 10.3 1.316 20.511 3.164 30.291 6.83 4.497 1.538 8.691 3.853 12.393 6.842 1.632 1.366 2.503 3.264 3.514 5.022 1.01 1.758 1.281 3.737 3.113 4.892.146.086.275.198.38.332.455.62.72 1.36.761 2.13v.24c.17 1.63.17 3.273 0 4.903l-.89 1.004.01.241z"/>
                        <path fill="#36404B" d="M122.55 26.679L117 6c16.699.964 32.916 6.032 47.25 14.77 4.69 2.837 8.75 5.574 8.75 5.574L163.56 29l-41.01-2.321zM112.078 6c.644 6.782 1.268 13.267 1.922 20l-36.084-1.924c-.312-4.462-.614-8.795-.916-13.168C88.3 6.09 100.124 6.158 112.078 6z"/>
                        <path fill="#BBBDC2" d="M228 37.147c2.662-.263 5.348-.172 7.984.27 4.665.727 9.169 2.2 13.323 4.355 2.746 1.342 4.139 3.582 5.693 6.228-7.146-.608-14.292.154-20.338-4.297-3.705-2.742-6.47-5.291-6.662-6.556z"/>
                        <path fill="#36404B" d="M75.18 11L76 23.99c-3.907.083-7.814-.373-11.633-.487-.687-1.695-.394-3.657.752-5.045 2.892-3.121 6.303-5.65 10.06-7.458z"/>
                        <path fill="#FDFDFD" d="M251.832 58.28c.277 1.732.21 3.502-.193 5.207-.086.894-.844 1.56-1.72 1.51H241c.837-2.039 1.838-4.004 2.993-5.873.253-.443.66-.77 1.14-.917 2.226-.299 4.48-.274 6.7.073z"/>
                        <path fill="#BBBDC2" d="M125.64 35h8.703c.32.01.59.242.646.555.057.313-.115.623-.413.743l-.233.08c-.366.14-.731.191-1.087.292l-1.087.17c-1.458.199-2.935.212-4.397.041l-1.016-.201c-.355-.1-.72-.161-1.086-.302l-.234-.09c-.17-.061-.307-.188-.38-.351-.073-.164-.075-.35-.006-.515.096-.243.326-.408.59-.422zM74.737 33.004h8.596c.323-.002.6.231.656.553.057.321-.122.637-.425.75l-.23.091c-.362.132-.724.193-1.075.295l-1.075.163c-.712.098-1.43.145-2.149.142-.718.01-1.436-.03-2.15-.122l-1.144-.163c-.364-.081-.722-.183-1.075-.305l-.24-.091c-.342-.138-.512-.527-.382-.876.104-.29.39-.47.693-.437z"/>
                        <path fill="#3D454C" d="M206.01 80c-7.287.004-13.858-4.387-16.643-11.12-2.785-6.735-1.235-14.484 3.927-19.629 5.162-5.144 12.916-6.669 19.64-3.861 6.726 2.807 11.094 9.393 11.066 16.68-.066 9.899-8.091 17.897-17.99 17.93z"/>
                        <path fill="#F2F2F2" d="M206.03 75c-5.265.012-10.018-3.153-12.036-8.016-2.019-4.863-.905-10.463 2.821-14.183 3.726-3.72 9.328-4.826 14.187-2.8 4.86 2.026 8.018 6.784 7.998 12.049-.033 7.146-5.824 12.928-12.97 12.95z"/>
                        <path fill="#030303" d="M203 53.052c1.77-1.357 4.18-1.406 6-.12-.548 1.174-1.658 1.96-2.917 2.066-1.488.06-2.227-1.003-3.083-1.946zM209 71.041c-1.8 1.279-4.2 1.279-6 0 1.446-2.721 4.356-2.721 6 0zM196 64.014c3.446-.213 4.934 2.048 3.393 4.986-1.937-.667-3.147-2.406-3.393-4.986zM196.014 60c-.164-2.083 1.081-4.052 3.161-5 1.87 2.52.452 4.779-3.16 5zM214.98 64c.195 2.092-1.08 4.076-3.214 5-1.714-2.528-.514-4.46 3.215-5zM211.547 55c2.156.92 3.504 2.862 3.452 4.97-1.317.16-2.628-.324-3.42-1.264-.996-1.15-.503-2.386-.032-3.706z"/>
                        <path fill="#3D454C" d="M56 80c-7.286 0-13.854-4.393-16.636-11.128s-1.229-14.482 3.933-19.624c5.163-5.143 12.916-6.665 19.64-3.857S74.028 54.784 74 62.07C73.934 71.972 65.902 79.972 56 80z"/>
                        <path fill="#F2F2F2" d="M56 75c-5.262 0-10.006-3.173-12.015-8.036-2.009-4.864-.888-10.46 2.84-14.174 3.729-3.714 9.328-4.814 14.184-2.786S69.02 56.787 69 62.05C68.973 69.21 63.16 75 56 75z"/>
                        <path fill="#030303" d="M53 53.052c1.77-1.357 4.18-1.406 6-.12-.545 1.176-1.657 1.964-2.917 2.066-1.478.06-2.218-1.003-3.083-1.946zM59 71.041c-1.8 1.279-4.2 1.279-6 0 1.436-2.721 4.356-2.721 6 0zM46 64.014c3.452-.213 4.927 2.048 3.399 4.986-1.946-.667-3.143-2.406-3.399-4.986zM46.012 60c-.15-2.086 1.097-4.052 3.17-5 1.865 2.5.43 4.777-3.17 5zM64.981 64c.191 2.092-1.085 4.074-3.22 5-1.707-2.528-.504-4.46 3.22-5zM61.567 55c2.138.927 3.476 2.866 3.432 4.973-1.296.149-2.582-.33-3.368-1.255-1.066-1.16-.565-2.397-.064-3.718z"/>
                    </g>
                </g>
            </g>
        </g>
    </g>
</svg>
