<svg xmlns="http://www.w3.org/2000/svg" xmlns:xlink="http://www.w3.org/1999/xlink" width="462" height="160" viewBox="0 0 462 160">
    <defs>
        <rect id="cv5i3e0k7a" width="462" height="160" x="0" y="0" rx="8"/>
    </defs>
    <g fill="none" fill-rule="evenodd">
        <g>
            <g transform="translate(-94 -1757) translate(94 1757)">
                <mask id="3bwn12l4mb" fill="#fff">
                    <use xlink:href="#cv5i3e0k7a"/>
                </mask>
                <use fill="#FFCC54" xlink:href="#cv5i3e0k7a"/>
                <g fill-rule="nonzero" mask="url(#3bwn12l4mb)">
                    <g transform="translate(254 60)">
                        <ellipse cx="100.075" cy="84.991" fill="#E6B031" opacity=".506" rx="94.925" ry="1.104"/>
                        <path fill="#201204" d="M183.226 73.585L148.244 71.843 6.623 68.153 21.632 48.566 182.004 52.116z"/>
                        <circle cx="44.18" cy="72.704" r="12.774" fill="#3D454C" transform="rotate(-2.11 44.18 72.704)"/>
                        <circle cx="166.719" cy="72.882" r="12.59" fill="#3D454C" transform="rotate(-51.13 166.719 72.882)"/>
                        <rect width="36.299" height="16.851" x="47.956" y="18.592" fill="#58636B" rx="2.12" transform="rotate(-178.78 66.106 27.017)"/>
                        <path fill="#FFF" d="M29.505 68.524H4.962c-1.662.004-3.215-.826-4.138-2.21-.59-.898-.876-1.962-.816-3.036l2.139-33.446.64-.81S4.696 17.41 6.77 14.743l2.058-3.684h-.963S13.452 3.797 14.892 2C16.333.201 19.244.849 19.244.849h4.719c.077.003.144.053.169.126l.64 2.549 38.075-.052 1.624-2.261c.078-.11.204-.176.339-.177 28.593.125 60.48.258 62.765.28 2.38-.03 4.725.561 6.807 1.716l20.221 9.194c1.948 1.04 1.397 2.66 1.397 2.66.61.384.985 1.053.992 1.775l.647.126c-.11-.28.007-.597.272-.737.327-.157.72-.027.89.295l9.437 17.6c2.316 5.326 4.984 5.702 4.984 5.702s8.93 3.64 11.76 4.501c2.83.862 2.463 2.917 2.463 2.917 1.39 1.606 2.867 11.854 2.867 11.854s-.066 1.54.419 1.694c.485.155.698 5.26.536 5.504-.161.243-1.514 2.121-1.264 2.85.149.791-.017 1.608-.463 2.277-.243.162.507 2.21-.948 2.277-1.456.066-6.057.066-6.057.066s-1.588-.059-2.382-3.617c-.793-3.559-4.41-10.904-13.605-10.815 0 0-10.247-1.002-13.628 10.8-.334 1.164-1.408 1.957-2.617 1.93l-91.146-2.306c-.735-.017-1.383-.49-1.624-1.186-.941-2.755-4.16-9.474-13.18-9.577-5.793-.264-11.11 3.203-13.216 8.62-.275.659-.918 1.089-1.632 1.09z"/>
                        <path fill="#36404B" d="M93.544 18.933h32.61c1.341 0 2.43 1.088 2.43 2.43v13.183c0 1.342-1.089 2.43-2.43 2.43h-32.61c-1.342 0-2.43-1.088-2.43-2.43V21.363c0-1.342 1.088-2.43 2.43-2.43z" transform="rotate(-178.78 109.848 27.955)"/>
                        <rect width="37.477" height="18.047" x="47.315" y="18.073" fill="#36404B" rx="2.43" transform="rotate(-178.854 66.053 27.096)"/>
                        <path fill="#36404B" d="M14.756 17.724h23.86c1.342 0 2.43 1.088 2.43 2.43v13.183c0 1.342-1.088 2.43-2.43 2.43h-23.86c-1.342 0-2.43-1.088-2.43-2.43V20.154c0-1.342 1.088-2.43 2.43-2.43z" transform="rotate(-178.78 26.686 26.745)"/>
                        <path fill="#C4C6CB" d="M8.602 11.038L55.603 11.782 130.686 11.422 145.698 13.074 145.698 13.245 130.907 12.542 55.338 12.812 8.094 12.191z"/>
                        <path fill="#36404B" d="M133.772 19.757c.38-.404.906-.63 1.454-.625l13.423.29c.811.017 1.478.66 1.54 1.487l1.39 16.909c.043.5-.124.995-.46 1.361-.336.367-.809.569-1.3.556h-.181l-12.29-1.583c-1.685-.207-2.986-1.613-3.096-3.345L133.19 21.31c-.026-.578.185-1.14.581-1.553zM152.274 19.862c.472-.482 1.126-.747 1.803-.73h.089c1.417.033 2.695.853 3.304 2.122l7.145 15.676c.334.728.276 1.574-.153 2.251-.43.678-1.173 1.097-1.98 1.116l-6.624.175h-.147c-1.556-.02-2.836-1.218-2.944-2.755l-1.177-16.033c-.045-.677.204-1.34.684-1.822z"/>
                        <path fill="#C4C6CB" d="M137.792 42.575h.537c.805 0 1.457.653 1.457 1.457 0 .805-.652 1.457-1.457 1.457h-.537c-.805 0-1.457-.652-1.457-1.457 0-.804.652-1.457 1.457-1.457z" transform="rotate(-178.78 138.06 44.032)"/>
                        <path fill="#36404B" d="M133.925 44.1L135.343 44.151 139.955 44.074 140.266 44.146 141.268 44.146 141.283 43.589 140.229 43.568 139.948 43.63 135.282 43.415 133.947 43.43z"/>
                        <path fill="#FFF" d="M135.396 43.783c0 .203.165.368.368.368.203 0 .368-.165.368-.368 0-.203-.165-.368-.368-.368-.203 0-.368.165-.368.368z"/>
                        <rect width="5.048" height="1.862" x="171.29" y="48.703" fill="#F8AE4C" rx=".52" transform="rotate(-178.78 173.814 49.634)"/>
                        <path fill="#3D454C" d="M191.321 63.276L183.962 63.283 183.992 61.818 191.17 61.811z"/>
                        <path fill="#C4C6CB" d="M155.947 14.717l.053-.154c-3.38-.918-6.823-1.604-10.302-2.054v.162c3.46.452 6.885 1.135 10.25 2.046z"/>
                        <circle cx="166.721" cy="72.866" r="6.049" fill="#FFF" transform="rotate(-8 166.721 72.866)"/>
                        <path fill="#F2F2F2" d="M166.67 79.472c-2.533 0-4.815-1.528-5.782-3.868-.966-2.341-.425-5.034 1.37-6.82 1.795-1.787 4.49-2.314 6.826-1.337 2.337.978 3.853 3.268 3.84 5.8-.016 3.443-2.812 6.225-6.254 6.225z"/>
                        <path fill="#030303" d="M165.566 68.948c.869-.662 2.049-.687 2.943-.062-.269.582-.82.971-1.445 1.018-.715.032-1.08-.493-1.498-.956zM168.51 76.8c-.883.619-2.061.619-2.944 0 .705-1.343 2.138-1.343 2.943 0zM162.623 73.591c1.255-.095 1.813.897 1.255 2.201-.722-.278-1.161-1.039-1.255-2.2zM162.628 72.113c-.06-.92.4-1.79 1.165-2.207.687 1.11.158 2.106-1.165 2.207zM170.71 73.585c.073.924-.397 1.8-1.183 2.207-.63-1.12-.19-1.967 1.183-2.207zM169.456 69.906c.789.41 1.28 1.266 1.26 2.194-.485.07-.968-.144-1.26-.559-.365-.512-.182-1.057 0-1.635z"/>
                        <circle cx="44.181" cy="72.696" r="6.049" fill="#FFF" transform="rotate(-22.88 44.181 72.696)"/>
                        <path fill="#F2F2F2" d="M44.519 78.736c-2.532 0-4.814-1.527-5.78-3.867-.967-2.34-.428-5.032 1.365-6.819 1.794-1.787 4.488-2.316 6.824-1.34 2.337.975 3.855 3.262 3.846 5.794-.017 3.444-2.811 6.228-6.255 6.232z"/>
                        <path fill="#030303" d="M42.68 68.951c.868-.665 2.048-.69 2.943-.063-.268.586-.821.975-1.445 1.016-.715.032-1.08-.488-1.499-.953zM45.623 76.791c-.882.63-2.062.63-2.944 0 .697-1.331 2.17-1.331 2.944 0zM39.736 73.591c1.255-.095 1.814.904 1.255 2.201-.74-.258-1.167-1.025-1.255-2.2zM39.74 72.113c-.057-.92.401-1.789 1.166-2.207.687 1.097.158 2.112-1.165 2.207zM48.559 73.585c.073.924-.398 1.8-1.186 2.207-.627-1.113-.182-1.962 1.186-2.207zM47.319 69.906c.78.412 1.267 1.268 1.246 2.195-.48.067-.956-.146-1.246-.557-.38-.517-.206-1.061 0-1.638z"/>
                        <path fill="#C4C6CB" d="M177.34 56.013L134.872 56.028 0.751 53.717 0.736 54.445 115.4 56.476 135.181 56.66z"/>
                        <path fill="#C4C6CB" d="M132.453 71.377c-.079-.007-.139-.084-.139-.175l-1.333-55.013h.157l1.315 55.013v.175z"/>
                        <path fill="#C4C6CB" d="M156.736 16.925s-14.63-1.54-19.143-1.515c-4.513.026-130.97-.693-130.97-.693l150.113 2.208z"/>
                        <path fill="#FFF" d="M185.588 52.803c.395 2.44 1.422 5.33 2.37 5.33.947 0 1.413-1.979 1.01-4.42-.403-2.44-1.484-4.411-2.44-4.411-.955 0-1.334 1.067-.94 3.5z"/>
                    </g>
                </g>
            </g>
        </g>
    </g>
</svg>
