<svg xmlns="http://www.w3.org/2000/svg" width="139" height="139" viewBox="0 0 139 139">
    <g fill="none" fill-rule="evenodd">
        <path fill="#6AA882" fill-rule="nonzero" d="M65.59 76.45c1.894 1.741 2.9 4.78 3.676 7.804l.283 1.13.4 1.66.262 1.06c.177.689.357 1.342.55 1.937.486 1.406.906 2.825 1.308 4.253l1.433 5.185 1.267 4.635c.852 3.09 1.737 6.18 2.763 9.27 1.265 3.765 2.61 7.505 4.016 11.223l1.127 2.937.832 2.035 1.508 3.592.802 1.874 1.288 2.958.44.997H67.959c-.642-1.3-1.066-2.693-.842-4.074.547-2.219.949-4.471 1.203-6.742.183-5.144-.058-10.294-.722-15.397l-.211-1.53c-.128-.96-.279-1.942-.445-2.94l-.26-1.507-.418-2.301-.583-3.128-.288-1.583-.279-1.593c-1.267-7.45-2.015-15.115.477-21.755z"/>
        <path fill="#FFAA8A" fill-rule="nonzero" d="M56.26 91.385c-.92.347-1.88.568-2.856.659-2.707.167-5.419-.225-7.973-1.153-1.948-.59-3.813-1.433-5.55-2.508-1.861-1.227-3.477-2.805-4.758-4.65-3.143-4.484-2.928-4.41-4.041-9.664-.7-3.258.952-12.813.251-15.998l-4.471-17.298 33.08 18.909c-.468 1.537-.899 3.093-1.348 4.63-.448 1.538-.897 3.04-1.328 4.558 0 .202-1.078 3.661-1.06 3.661l3.07 2.325c1.126.718 2.063 1.705 2.73 2.874.516 1.364.64 2.85.36 4.283-.117 2.23-.777 4.394-1.922 6.297-1.06 1.43-2.518 2.502-4.184 3.075z"/>
        <path fill="#F89980" fill-rule="nonzero" d="M59.923 59.682l-2.155 7.431-1.795 6.48c-.414 1.428-.54 4.155-2.515 4.009-1.66-.204-3.229-.883-4.525-1.959-1.347-.988-2.568-2.16-3.97-3.057-1.795-1.153-3.735-1.94-5.387-3.203-2.582-2.041-4.716-4.61-6.267-7.542-.952-1.578-2.91-2.183-4.562-1.409l-.395-1.83-1.329-17.866 32.9 18.946z"/>
        <path fill="#FFAA8A" fill-rule="nonzero" d="M33.65 58.602c2.554 4.655 6.796 8.105 11.817 9.61 8.26 2.452 9.338-1.3 11.78-1.63l.899.696c5.01-.696 1.903-4.741 4.328-3.332 0 0 6.339-11.714 6.339-15.156 0-2.251-.27-4.466-.216-6.7 0-2.525.144-5.051.306-7.577.092-1.407.266-2.806.52-4.192.046-.31.046-.624 0-.933-.056-.666-.158-1.326-.305-1.977-.429-1.931-1.222-3.76-2.334-5.382-1.605-2.263-3.733-4.086-6.196-5.308-3.68-1.758-7.681-2.712-11.745-2.8-21.443-1.1-21.981 24.454-21.981 24.454 4.956 15.43 5.028 16.987 6.788 20.227z"/>
        <path fill="#F89980" fill-rule="nonzero" d="M32.465 56.057c-.324-.878-.665-1.83-1.132-3.368l2.622-4.85s3.538 6.113-1.49 8.218z"/>
        <path fill="#D9766B" fill-rule="nonzero" d="M63.749 59.59c-.991 1.02-2.313 1.639-3.718 1.739-2.748 0-3.681.146-4.885-.567L53.351 59.7c-.118-.053-.195-.171-.195-.302 0-.131.077-.25.195-.302 1.176-.604 2.457-.965 3.77-1.062 2.605 0 3.79-.274 5.388.476l1.24.586c.083.054.133.147.133.247s-.05.193-.133.247z"/>
        <path fill="#454552" fill-rule="nonzero" d="M30.202 63.452c.376.036.755.036 1.131 0 .38-2.304.555-4.638.521-6.974.213-2.03.273-4.074.18-6.113-.198-1.157-.486-2.296-.862-3.405.682-.183 1.795-.732 2.532-.44.736.293.862 1.209 1.508 1.172.332-.038.608-.277.7-.604.064-.326.064-.662 0-.988-.394-4.59-.091-9.215.899-13.71.132-.904.484-1.76 1.023-2.49.947-.944 2.302-1.33 3.592-1.025 1.257.337 2.465.842 3.592 1.501 7.74 3.826 21.083 6.425 27.854-.824 1.4-1.43 2.227-3.343 2.316-5.363-.032-1.097-.201-2.186-.503-3.24-.205-.946-.494-1.87-.862-2.764-.946-1.931-2.493-3.489-4.4-4.43-8.356-4.138-17.472-6.44-26.758-6.754-8.135-.366-17.653 1.117-22.771 8.31-2.856 4.339-4.433 9.42-4.544 14.644-.323 8.182 3.035 15.43 5.388 22.972.635 2.284 1.559 4.475 2.747 6.517 1.443 2.394 3.962 3.898 6.717 4.008z"/>
        <path fill="#FFAA8A" fill-rule="nonzero" d="M27.203 50.218c-4.472-8.127-2.048-10.745-1.545-11.532.332-.517.846-.885 1.437-1.025 1.437-.33 2.766.366 4.005 2.782 1.107 2.2 2.015 4.497 2.712 6.865.287 1.061 2.137 4.558-.503 6.772-.467.44-2.892 2.032-6.106-3.862z"/>
        <path fill="#F89980" fill-rule="nonzero" d="M29.914 51.5c-.596-.002-1.14-.35-1.4-.898-3.592-7.211-1.437-9.61-.952-10.305l.215-.293.342.513c.284.488.33 1.083.125 1.61-.215.513.395 1.062.61 1.044.216-.018.845.274 1.114 1.08-.195.027-.378.117-.52.256-1.06.64-.234 5.437.466 6.992z"/>
        <path fill="#82BB99" fill-rule="nonzero" d="M65.562 75.885c1.667 2.263 2.596 4.997 2.658 7.821 0 .905-.046 1.803-.107 2.7l-.196 2.693c-.03.45-.056.9-.074 1.353-.2 5.451.87 10.873 3.125 15.825.449.984.898 1.987 1.311 2.99 2.548 5.345 3.78 11.238 3.592 17.173-.476 3.547-1.197 7.056-2.155 10.501-.16.734-.304 1.447-.435 2.153l-61.718-.002.285-55.459c4.92-3.3 10.039-6.308 15.175-9.28l1.558-.872c.26-.148.52-.3.777-.458l.568-.348c.515-.304.704-.329 1.135-.02l.293.225.177.143c.845.955 1.62 1.973 2.316 3.045 1.605 2.107 3.41 4.048 5.388 5.797 3.203 2.876 7.308 4.504 11.583 4.594 3.413 0 7.184-1.969 7.938-5.323.562-2.312-.338-4.623-1.531-6.742l-.407-.7-.42-.682-.21-.335c3.476-.932 7.164.33 9.374 3.208z"/>
        <path fill="#82BB99" fill-rule="nonzero" d="M30.999 86.32c4.187 3.618 6.443 8.986 6.099 14.511-.856 9.401-2.448 18.72-4.76 27.873l-1.143 5.143c-.378 1.714-.748 3.43-1.096 5.153H1.39c.084-.673.149-1.314.168-1.903.193-12.275 1.098-24.528 2.712-36.697.437-3.5 1.28-6.938 2.514-10.243 1.43-3.982 4.835-6.926 8.98-7.764 5.412-1.145 11.048.308 15.235 3.926z"/>
        <path fill="#6AA882" fill-rule="nonzero" d="M19.46 82.01c.507.158 1.004.293 1.49.413l.963.22.94.192 1.821.352c2.684.535 5.166 1.224 7.752 3.682 3.414 3.178 4.56 7.846 5.033 12.383l.098 1.044c.015.173.028.346.041.519v.863c.398 6.35.037 12.73-.42 19.108l-.352 4.782c-.327 4.486-.622 8.967-.652 13.43l-11.44.002c.163-.814.336-1.65.516-2.505l.563-2.62 1.843-8.375.629-2.902c1.665-7.78 3.2-15.828 3.62-22.593.46-8.148-4.67-15.565-12.445-17.995z"/>
        <path fill="#DAE8F2" fill-rule="nonzero" d="M68.849 48.113c.31.12.506.432.485.769-.162 4.027-1.257 28.28-26.938 19.256-2.083-.734-3.975-1.942-5.532-3.533-2.909-2.965-7.524-8.2-8.494-12.483.454.644.992 1.223 1.598 1.72 2.491 4.69 5.976 8.754 10.2 11.898 5.64-7.706 4.509-13.417 3.233-16.254l-10.775-5.491c-.18-.458-.359-.897-.539-1.3l8.98 4.228c.789.378 1.668.518 2.532.403l14.51-1.83c1.772-.227 3.571-.013 5.245.622l5.495 1.995z"/>
        <path fill="#AFD5F0" fill-rule="nonzero" d="M64.629 64.532l-.378.476c-.538-.22-1.041-.512-1.562-.732-.73-.214-1.485-.33-2.245-.348-1.45-.143-2.908-.186-4.364-.128-2.586 0-5.154.293-7.722.476l-7.56.494 6.393-.64 5.513-.568c1.886-.201 3.807-.494 5.693-.53 1.261-.096 2.529.053 3.735.439.862.347 1.67.732 2.497 1.061zM69.046 52.58c.009.146.009.292 0 .439l-2.28-.77c-1.186-.402-2.37-.676-3.592-1.006-2.87-.512-5.805-.512-8.674 0l-10.219.769 8.98-1.007 5.118-.567c.88-.15 1.767-.254 2.658-.311.87.01 1.732.172 2.55.475 1.832.55 3.646 1.3 5.46 1.977zM67.628 58.62l-.144.42c-1.984-.774-4.062-1.273-6.178-1.482-2.133-.03-4.267.05-6.393.238-2.155.11-4.292.202-6.43.385l-4.4.329 10.776-1.19c3.327-.67 6.76-.558 10.039.33l-.862-.293 3.592 1.263z"/>
        <path fill="#E19380" fill-rule="nonzero" d="M118.11 54.83l20.993 2.526.002 36.58-.469-.208c-3.592-1.574-6.573-2.856-10.164-4.411-4.74-1.896-9.374-4.053-13.882-6.462 0 0 6.375-20.812 3.52-28.024z"/>
        <path fill="#5F9BCC" fill-rule="nonzero" d="M88.8 31.017c-1.055 3.348-1.488 6.868-1.274 10.378.766 4.571 2.448 8.933 4.938 12.813.493 1.745 1.093 3.457 1.796 5.126 1.788 5.07 2.063 10.567.79 15.797.009.128.009.256 0 .384 4.67 1.19 12.428 5.894 20.114 8.255l4.616-21.617-1.958-7.945c-4.875-1.064-9.265-3.75-12.481-7.633-3.861-4.557-6.393-13.966-7.327-17.993-.502-2.151-1.785-4.029-3.592-5.253-.253-.182-.517-.347-.79-.494-.539-.312-9.842-6.06-10.632-5.345-1.652 1.574-2.622 8.035 5.8 13.527z"/>
        <path fill="#477798" fill-rule="nonzero" d="M113.314 84.832c.923.265 1.896-.204 2.281-1.098 2.574-5.931 4.385-12.176 5.388-18.58.512-3.501.62-7.052.323-10.58-.022-.53-.258-1.028-.653-1.374-.394-.347-.912-.512-1.43-.456-.515.038-.994.283-1.331.681-.337.399-.505.918-.465 1.442.338 9.386-1.508 18.72-5.388 27.238-.204.473-.214 1.01-.029 1.49.186.481.552.867 1.017 1.072l.287.165z"/>
        <path fill="#5F9BCC" fill-rule="nonzero" d="M70.052 40.846l8.081 2.27c2.12.586 6.825 3.66 6.268 5.84l1.4 1.701c-.556 2.16-7.524.897-9.66.366l-8.118-2.16c-1.051-.267-1.955-.95-2.51-1.898-.557-.948-.72-2.083-.453-3.153.27-1.073.95-1.99 1.888-2.547.938-.557 2.056-.708 3.104-.419z"/>
        <path fill="#D9E2E7" fill-rule="nonzero" d="M61.127 28.674l2.316 10.012c-.003.957.717 1.754 1.653 1.83.125 0 7.452.348 12.948 8.714 1.903 2.873 1.688 4.136 4.112 6.754 1.297 1.41 1.994 3.285 1.94 5.217.05 1.04.442 2.033 1.113 2.819.996 1.048 1.448 2.513 1.221 3.953-.34 2.307 1.293 2.728 1.401 5.492-.046 1.528-.196 3.05-.449 4.558-.072.769.338 1.501 1.024 1.83 1.959.777 4.064 1.096 6.16.934 2.3-.132 4.204-1.874 4.58-4.192 1.037-5.234.544-10.663-1.42-15.614-1.67-3.88-4.22-6.827-3.591-11.458 0-.293-8.136-22.808-8.136-22.808H63.012c-.514-.028-1.015.171-1.376.546-.36.375-.546.89-.51 1.413z"/>
        <path fill="#E6EFF3" fill-rule="nonzero" d="M92.393 61.018c1.963 4.95 2.456 10.38 1.418 15.614-.305 1.83-1.795 4.264.719 4.191 2.31-.11 4.223-1.863 4.58-4.191 1.037-5.234.544-10.664-1.42-15.614-1.67-3.88-4.22-6.828-3.591-11.459.13-1.988-.17-3.982-.88-5.839h-5.352c.707 1.444.667 3.15-.108 4.558-.574 4.613 2.964 8.86 4.634 12.74z"/>
        <path fill="#AD4350" fill-rule="nonzero" d="M81.995 28.71l2.119 12.21c.182 1.063.56 2.081 1.113 3.001l2.586 4.357c.495.808 1.364 1.299 2.299 1.3h1.796c.652-.007 1.209-.482 1.329-1.135l.79-4.631c.153-.848.153-1.716 0-2.563l-2.263-13.161c-.146-.773-.808-1.333-1.58-1.336h-6.609c-.477.014-.924.238-1.227.613-.302.376-.431.866-.353 1.345z"/>
        <path fill="#E85A6B" fill-rule="nonzero" d="M61.127 28.674l2.316 10.012c-.003.957.717 1.754 1.653 1.83 1.064.122 2.111.361 3.124.715-.72-.308-1.184-1.034-1.167-1.83l-2.317-10.984c-.024-.5.154-.99.493-1.354.34-.363.81-.568 1.303-.568H62.94c-.544-.015-1.067.222-1.42.646-.352.423-.497.987-.393 1.533zM83.916 28.71l2.12 12.21c.183 1.06.554 2.076 1.095 3.001l2.604 4.357c.487.808 1.35 1.3 2.28 1.3h1.796c.651 0 1.206-.481 1.311-1.135l.79-4.631c.144-.848.144-1.715 0-2.563l-2.28-13.161c-.146-.773-.808-1.333-1.58-1.336h-6.466c-.494-.02-.97.19-1.295.572-.324.38-.462.89-.375 1.386z"/>
        <path fill="#5F9BCC" fill-rule="nonzero" d="M84.868 29.278L86.233 37.185 94.314 37.185 92.931 29.278z"/>
        <ellipse cx="89.057" cy="40.09" fill="#AD4350" fill-rule="nonzero" rx="1.312" ry="1.54" transform="rotate(-53.931 89.057 40.09)"/>
        <ellipse cx="93.36" cy="40.283" fill="#AD4350" fill-rule="nonzero" rx="1.309" ry="1.537" transform="rotate(-53.89 93.36 40.283)"/>
        <ellipse cx="91.879" cy="44.508" fill="#AD4350" fill-rule="nonzero" rx="1.309" ry="1.537" transform="rotate(-53.89 91.879 44.508)"/>
        <path fill="#5F9BCC" fill-rule="nonzero" d="M76.068 56.368c-.02-1.027.402-2.011 1.155-2.694.753-.683 1.762-.996 2.76-.857l3.125.33c2.2.273 3.869 2.153 3.915 4.411.039 1.717-1.146 3.211-2.802 3.533l3.826.403c2.196.28 3.86 2.156 3.915 4.411.052 1.046-.356 2.061-1.113 2.77-.757.707-1.785 1.034-2.802.891h-.377c1.472.733 2.43 2.23 2.496 3.899.02 1.027-.402 2.011-1.155 2.694-.753.683-1.762.996-2.76.857l-3.125-.33c-2.2-.272-3.869-2.152-3.915-4.411-.043-1.59.977-3.007 2.478-3.441l-1.167-.128c-2.19-.28-3.852-2.145-3.915-4.393-.095-1.8 1.162-3.382 2.91-3.661-1.97-.465-3.387-2.224-3.449-4.284z"/>
        <path d="M72.046 102.752L72.046 103.576"/>
    </g>
</svg>
