<svg xmlns="http://www.w3.org/2000/svg" width="160" height="150" viewBox="0 0 160 150">
    <g fill="none" fill-rule="evenodd">
        <g fill-rule="nonzero">
            <g>
                <g>
                    <g transform="translate(-539 -923) translate(242 918) translate(297 5) translate(11.25 47.5)">
                        <ellipse cx="74.415" cy="63.198" fill="#F3DFE0" rx="70.585" ry="1"/>
                        <path fill="#201204" d="M136.245 54.717L110.233 53.422 4.925 50.678 16.085 36.113 135.336 38.753z"/>
                        <circle cx="32.852" cy="54.062" r="9.499" fill="#3D454C" transform="rotate(-2.11 32.852 54.062)"/>
                        <circle cx="123.97" cy="54.194" r="9.362" fill="#3D454C" transform="rotate(-51.13 123.97 54.194)"/>
                        <path fill="#58636B" d="M37.78 13.825H60.53c1.171 0 2.12.949 2.12 2.12v8.29c0 1.17-.949 2.12-2.12 2.12H37.78c-1.171 0-2.12-.95-2.12-2.12v-8.29c0-1.171.949-2.12 2.12-2.12z" transform="rotate(-178.78 49.155 20.09)"/>
                        <path fill="#FFF" d="M21.94 50.954H3.69c-1.236.003-2.391-.614-3.078-1.644-.438-.668-.65-1.459-.606-2.257l1.59-24.87.476-.603s1.42-8.633 2.962-10.617l1.53-2.739H5.85s4.154-5.4 5.225-6.738C12.145.15 14.31.632 14.31.632h3.509c.057.001.107.039.125.093l.476 1.895 28.312-.038L47.94.9c.058-.081.152-.13.252-.131C69.453.862 93.164.96 94.864.977c1.769-.023 3.513.417 5.061 1.276l15.036 6.837c1.449.772 1.039 1.978 1.039 1.978.454.285.732.783.738 1.32l.48.093c-.08-.208.006-.443.203-.548.243-.116.535-.02.661.22l7.018 13.086c1.722 3.961 3.706 4.24 3.706 4.24s6.64 2.707 8.745 3.348c2.105.64 1.831 2.169 1.831 2.169 1.033 1.194 2.132 8.814 2.132 8.814s-.05 1.145.311 1.26c.361.115.52 3.911.4 4.092-.12.181-1.126 1.578-.94 2.12.11.588-.014 1.196-.345 1.693-.18.12.377 1.643-.705 1.693-1.082.049-4.504.049-4.504.049s-1.18-.044-1.77-2.69c-.591-2.646-3.28-8.107-10.118-8.042 0 0-7.62-.745-10.133 8.031-.248.866-1.048 1.456-1.946 1.436l-67.775-1.715c-.547-.013-1.028-.364-1.208-.882-.7-2.049-3.094-7.045-9.8-7.122-4.309-.196-8.262 2.382-9.828 6.41-.205.49-.683.81-1.213.81z"/>
                        <path fill="#36404B" d="M70.181 14.079h23.002c1.342 0 2.43 1.088 2.43 2.43v8.556c0 1.342-1.088 2.43-2.43 2.43H70.181c-1.342 0-2.43-1.088-2.43-2.43V16.51c0-1.342 1.088-2.43 2.43-2.43z" transform="rotate(-178.78 81.682 20.787)"/>
                        <path fill="#36404B" d="M37.613 13.439H60.62c1.342 0 2.43 1.088 2.43 2.43v8.56c0 1.341-1.088 2.43-2.43 2.43H37.613c-1.342 0-2.43-1.089-2.43-2.43v-8.56c0-1.342 1.088-2.43 2.43-2.43z" transform="rotate(-178.854 49.116 20.149)"/>
                        <path fill="#36404B" d="M11.596 13.18h16.496c1.342 0 2.43 1.087 2.43 2.43v8.556c0 1.342-1.088 2.43-2.43 2.43H11.596c-1.342 0-2.43-1.088-2.43-2.43v-8.557c0-1.342 1.088-2.43 2.43-2.43z" transform="rotate(-178.78 19.844 19.887)"/>
                        <path fill="#C4C6CB" d="M6.396 8.208L41.345 8.761 97.177 8.493 108.34 9.721 108.34 9.849 97.341 9.326 41.149 9.527 6.019 9.065z"/>
                        <path fill="#36404B" d="M99.472 14.69c.282-.3.673-.467 1.08-.464l9.982.216c.603.012 1.099.49 1.146 1.105l1.032 12.574c.032.372-.092.74-.342 1.012-.25.273-.6.423-.966.414h-.135l-9.138-1.177c-1.253-.155-2.22-1.2-2.303-2.488l-.789-10.036c-.019-.43.138-.848.433-1.155zM113.23 14.769c.35-.359.837-.555 1.34-.542h.066c1.054.024 2.004.634 2.457 1.577l5.313 11.657c.248.541.205 1.17-.114 1.674-.32.504-.872.815-1.473.83l-4.924.13h-.11c-1.157-.015-2.109-.906-2.189-2.05l-.875-11.921c-.033-.503.152-.996.509-1.355z"/>
                        <path fill="#C4C6CB" d="M102.46 31.659h.4c.598 0 1.083.485 1.083 1.083s-.485 1.083-1.083 1.083h-.4c-.598 0-1.083-.485-1.083-1.083s.485-1.083 1.084-1.083z" transform="rotate(-178.78 102.66 32.742)"/>
                        <path fill="#36404B" d="M99.585 32.792L100.64 32.83 104.069 32.773 104.301 32.826 105.045 32.826 105.057 32.412 104.273 32.397 104.064 32.443 100.595 32.283 99.602 32.294z"/>
                        <path fill="#FFF" d="M100.68 32.557c0 .15.122.273.273.273.15 0 .273-.122.273-.273 0-.151-.122-.274-.273-.274-.151 0-.274.123-.274.274z"/>
                        <path fill="#F8AE4C" d="M127.89 36.215h2.713c.287 0 .52.233.52.52v.344c0 .287-.233.52-.52.52h-2.714c-.287 0-.52-.233-.52-.52v-.344c0-.287.233-.52.52-.52z" transform="rotate(-178.78 129.246 36.907)"/>
                        <path fill="#3D454C" d="M142.264 47.051L136.792 47.057 136.815 45.967 142.152 45.962z"/>
                        <path fill="#C4C6CB" d="M115.96 10.943l.04-.114c-2.514-.682-5.074-1.193-7.66-1.527v.12c2.573.336 5.12.844 7.62 1.521z"/>
                        <circle cx="123.972" cy="54.183" r="4.498" fill="#FFF" transform="rotate(-8 123.972 54.183)"/>
                        <path fill="#F2F2F2" d="M123.934 59.094c-1.883 0-3.58-1.135-4.299-2.876-.719-1.74-.316-3.743 1.018-5.071 1.335-1.329 3.34-1.72 5.076-.994 1.738.727 2.865 2.43 2.856 4.313-.013 2.56-2.091 4.628-4.651 4.628z"/>
                        <path fill="#030303" d="M123.113 51.27c.646-.493 1.524-.512 2.189-.047-.2.433-.61.722-1.075.757-.531.023-.803-.367-1.114-.71zM125.302 57.107c-.656.461-1.532.461-2.189 0 .524-.998 1.59-.998 2.189 0zM120.925 54.722c.933-.071 1.348.667.933 1.636-.537-.207-.863-.772-.933-1.636zM120.928 53.623c-.044-.685.297-1.332.867-1.642.51.826.117 1.566-.867 1.642zM126.938 54.717c.054.687-.295 1.339-.88 1.641-.468-.833-.14-1.462.88-1.641zM126.006 51.981c.586.306.952.942.937 1.632-.36.052-.72-.107-.937-.416-.272-.38-.136-.786 0-1.216z"/>
                        <circle cx="32.853" cy="54.056" r="4.498" fill="#FFF" transform="rotate(-22.88 32.853 54.056)"/>
                        <path fill="#F2F2F2" d="M33.104 58.547c-1.883 0-3.58-1.135-4.299-2.875-.718-1.74-.317-3.742 1.016-5.07 1.334-1.33 3.337-1.723 5.074-.998 1.738.726 2.867 2.427 2.86 4.31-.013 2.56-2.09 4.63-4.651 4.633z"/>
                        <path fill="#030303" d="M31.736 51.271c.646-.495 1.523-.513 2.189-.047-.2.436-.61.726-1.075.756-.532.024-.803-.363-1.114-.709zM33.925 57.101c-.656.47-1.533.47-2.19 0 .52-.99 1.614-.99 2.19 0zM29.547 54.722c.933-.071 1.349.672.933 1.636-.55-.191-.867-.762-.933-1.636zM29.55 53.623c-.042-.685.299-1.33.868-1.642.51.816.117 1.571-.867 1.642zM36.108 54.717c.054.687-.296 1.339-.882 1.641-.466-.828-.135-1.459.882-1.641zM35.186 51.981c.58.306.942.943.927 1.633-.357.05-.711-.109-.927-.415-.283-.384-.153-.789 0-1.218z"/>
                        <path fill="#C4C6CB" d="M131.868 41.651L100.289 41.662 0.558 39.943 0.547 40.485 85.81 41.995 100.519 42.132z"/>
                        <path fill="#C4C6CB" d="M98.49 53.075c-.058-.005-.103-.062-.102-.13l-.992-40.907h.117l.978 40.907v.13z"/>
                        <path fill="#C4C6CB" d="M116.547 12.585s-10.878-1.145-14.234-1.126c-3.356.019-97.388-.516-97.388-.516l111.622 1.642z"/>
                        <path fill="#FFF" d="M138.002 39.263c.293 1.815 1.057 3.963 1.761 3.963.705 0 1.051-1.47.752-3.285-.3-1.815-1.104-3.28-1.815-3.28-.71 0-.992.793-.698 2.602z"/>
                    </g>
                </g>
            </g>
        </g>
    </g>
</svg>
