<svg width="462" height="160" viewBox="0 0 462 160" fill="none" xmlns="http://www.w3.org/2000/svg">
<g clip-path="url(#clip0)">
<path d="M0 8C0 3.58172 3.58172 0 8 0H454C458.418 0 462 3.58172 462 8V152C462 156.418 458.418 160 454 160H8.00001C3.58173 160 0 156.418 0 152V8Z" fill="url(#paint0_linear)"/>
<g style="mix-blend-mode:multiply" opacity="0.5">
<path fill-rule="evenodd" clip-rule="evenodd" d="M357.352 -83.5944C384.338 -96.5283 416.697 -99.5895 444.775 -89.1205C472.127 -78.9221 493.149 -55.1748 505.137 -28.4923C515.723 -4.93083 503.386 21.3766 505.966 47.0738C508.914 76.4465 532.271 104.764 521.259 132.112C509.819 160.523 480.287 182.375 449.954 186.181C420.855 189.832 397.597 164.53 371.577 150.894C351.205 140.217 327.492 134.202 314.493 115.188C301.762 96.5677 304.585 72.6997 302.747 50.2178C300.755 25.8461 294.107 1.28007 303.334 -21.331C313.987 -47.4378 331.974 -71.4311 357.352 -83.5944Z" fill="#38B87C"/>
</g>
<path d="M38.144 26.2L30.872 43H27.032L19.784 26.2H23.984L29.096 38.2L34.28 26.2H38.144ZM43.5298 29.896C45.5298 29.896 47.0658 30.376 48.1378 31.336C49.2098 32.28 49.7458 33.712 49.7458 35.632V43H46.2418V41.392C45.5378 42.592 44.2258 43.192 42.3058 43.192C41.3138 43.192 40.4498 43.024 39.7138 42.688C38.9938 42.352 38.4418 41.888 38.0578 41.296C37.6738 40.704 37.4818 40.032 37.4818 39.28C37.4818 38.08 37.9298 37.136 38.8258 36.448C39.7378 35.76 41.1378 35.416 43.0258 35.416H46.0018C46.0018 34.6 45.7538 33.976 45.2578 33.544C44.7618 33.096 44.0178 32.872 43.0258 32.872C42.3378 32.872 41.6578 32.984 40.9858 33.208C40.3298 33.416 39.7698 33.704 39.3058 34.072L37.9618 31.456C38.6658 30.96 39.5058 30.576 40.4818 30.304C41.4738 30.032 42.4898 29.896 43.5298 29.896ZM43.2418 40.672C43.8818 40.672 44.4498 40.528 44.9458 40.24C45.4418 39.936 45.7938 39.496 46.0018 38.92V37.6H43.4338C41.8978 37.6 41.1298 38.104 41.1298 39.112C41.1298 39.592 41.3138 39.976 41.6818 40.264C42.0658 40.536 42.5858 40.672 43.2418 40.672ZM59.5149 43.192C58.1389 43.192 56.8989 42.912 55.7949 42.352C54.7069 41.776 53.8509 40.984 53.2269 39.976C52.6189 38.968 52.3149 37.824 52.3149 36.544C52.3149 35.264 52.6189 34.12 53.2269 33.112C53.8509 32.104 54.7069 31.32 55.7949 30.76C56.8989 30.184 58.1389 29.896 59.5149 29.896C60.8749 29.896 62.0589 30.184 63.0669 30.76C64.0909 31.32 64.8349 32.128 65.2989 33.184L62.3949 34.744C61.7229 33.56 60.7549 32.968 59.4909 32.968C58.5149 32.968 57.7069 33.288 57.0669 33.928C56.4269 34.568 56.1069 35.44 56.1069 36.544C56.1069 37.648 56.4269 38.52 57.0669 39.16C57.7069 39.8 58.5149 40.12 59.4909 40.12C60.7709 40.12 61.7389 39.528 62.3949 38.344L65.2989 39.928C64.8349 40.952 64.0909 41.752 63.0669 42.328C62.0589 42.904 60.8749 43.192 59.5149 43.192ZM73.5305 43.192C72.1545 43.192 70.9145 42.912 69.8105 42.352C68.7225 41.776 67.8665 40.984 67.2425 39.976C66.6345 38.968 66.3305 37.824 66.3305 36.544C66.3305 35.264 66.6345 34.12 67.2425 33.112C67.8665 32.104 68.7225 31.32 69.8105 30.76C70.9145 30.184 72.1545 29.896 73.5305 29.896C74.8905 29.896 76.0745 30.184 77.0825 30.76C78.1065 31.32 78.8505 32.128 79.3145 33.184L76.4105 34.744C75.7385 33.56 74.7705 32.968 73.5065 32.968C72.5305 32.968 71.7225 33.288 71.0825 33.928C70.4425 34.568 70.1225 35.44 70.1225 36.544C70.1225 37.648 70.4425 38.52 71.0825 39.16C71.7225 39.8 72.5305 40.12 73.5065 40.12C74.7865 40.12 75.7545 39.528 76.4105 38.344L79.3145 39.928C78.8505 40.952 78.1065 41.752 77.0825 42.328C76.0745 42.904 74.8905 43.192 73.5305 43.192ZM81.4702 30.088H85.2142V43H81.4702V30.088ZM83.3422 28.288C82.6542 28.288 82.0942 28.088 81.6622 27.688C81.2302 27.288 81.0142 26.792 81.0142 26.2C81.0142 25.608 81.2302 25.112 81.6622 24.712C82.0942 24.312 82.6542 24.112 83.3422 24.112C84.0302 24.112 84.5902 24.304 85.0222 24.688C85.4542 25.072 85.6702 25.552 85.6702 26.128C85.6702 26.752 85.4542 27.272 85.0222 27.688C84.5902 28.088 84.0302 28.288 83.3422 28.288ZM96.5369 29.896C98.1369 29.896 99.4249 30.376 100.401 31.336C101.393 32.296 101.889 33.72 101.889 35.608V43H98.1449V36.184C98.1449 35.16 97.9209 34.4 97.4729 33.904C97.0249 33.392 96.3769 33.136 95.5289 33.136C94.5849 33.136 93.8329 33.432 93.2729 34.024C92.7129 34.6 92.4329 35.464 92.4329 36.616V43H88.6889V30.088H92.2649V31.6C92.7609 31.056 93.3769 30.64 94.1129 30.352C94.8489 30.048 95.6569 29.896 96.5369 29.896ZM110.491 29.896C112.491 29.896 114.027 30.376 115.099 31.336C116.171 32.28 116.707 33.712 116.707 35.632V43H113.203V41.392C112.499 42.592 111.187 43.192 109.267 43.192C108.275 43.192 107.411 43.024 106.675 42.688C105.955 42.352 105.403 41.888 105.019 41.296C104.635 40.704 104.443 40.032 104.443 39.28C104.443 38.08 104.891 37.136 105.787 36.448C106.699 35.76 108.099 35.416 109.987 35.416H112.963C112.963 34.6 112.715 33.976 112.219 33.544C111.723 33.096 110.979 32.872 109.987 32.872C109.299 32.872 108.619 32.984 107.947 33.208C107.291 33.416 106.731 33.704 106.267 34.072L104.923 31.456C105.627 30.96 106.467 30.576 107.443 30.304C108.435 30.032 109.451 29.896 110.491 29.896ZM110.203 40.672C110.843 40.672 111.411 40.528 111.907 40.24C112.403 39.936 112.755 39.496 112.963 38.92V37.6H110.395C108.859 37.6 108.091 38.104 108.091 39.112C108.091 39.592 108.275 39.976 108.643 40.264C109.027 40.536 109.547 40.672 110.203 40.672ZM128.423 42.376C128.055 42.648 127.599 42.856 127.055 43C126.527 43.128 125.967 43.192 125.375 43.192C123.839 43.192 122.647 42.8 121.799 42.016C120.967 41.232 120.551 40.08 120.551 38.56V33.256H118.559V30.376H120.551V27.232H124.295V30.376H127.511V33.256H124.295V38.512C124.295 39.056 124.431 39.48 124.703 39.784C124.991 40.072 125.391 40.216 125.903 40.216C126.495 40.216 126.999 40.056 127.415 39.736L128.423 42.376ZM142.774 36.592C142.774 36.64 142.75 36.976 142.702 37.6H132.934C133.11 38.4 133.526 39.032 134.182 39.496C134.838 39.96 135.654 40.192 136.63 40.192C137.302 40.192 137.894 40.096 138.406 39.904C138.934 39.696 139.422 39.376 139.87 38.944L141.862 41.104C140.646 42.496 138.87 43.192 136.534 43.192C135.078 43.192 133.79 42.912 132.67 42.352C131.55 41.776 130.686 40.984 130.078 39.976C129.47 38.968 129.166 37.824 129.166 36.544C129.166 35.28 129.462 34.144 130.054 33.136C130.662 32.112 131.486 31.32 132.526 30.76C133.582 30.184 134.758 29.896 136.054 29.896C137.318 29.896 138.462 30.168 139.486 30.712C140.51 31.256 141.31 32.04 141.886 33.064C142.478 34.072 142.774 35.248 142.774 36.592ZM136.078 32.728C135.23 32.728 134.518 32.968 133.942 33.448C133.366 33.928 133.014 34.584 132.886 35.416H139.246C139.118 34.6 138.766 33.952 138.19 33.472C137.614 32.976 136.91 32.728 136.078 32.728ZM158.419 25.192V43H154.843V41.512C153.915 42.632 152.571 43.192 150.811 43.192C149.595 43.192 148.491 42.92 147.499 42.376C146.523 41.832 145.755 41.056 145.195 40.048C144.635 39.04 144.355 37.872 144.355 36.544C144.355 35.216 144.635 34.048 145.195 33.04C145.755 32.032 146.523 31.256 147.499 30.712C148.491 30.168 149.595 29.896 150.811 29.896C152.459 29.896 153.747 30.416 154.675 31.456V25.192H158.419ZM151.459 40.12C152.403 40.12 153.187 39.8 153.811 39.16C154.435 38.504 154.747 37.632 154.747 36.544C154.747 35.456 154.435 34.592 153.811 33.952C153.187 33.296 152.403 32.968 151.459 32.968C150.499 32.968 149.707 33.296 149.083 33.952C148.459 34.592 148.147 35.456 148.147 36.544C148.147 37.632 148.459 38.504 149.083 39.16C149.707 39.8 150.499 40.12 151.459 40.12ZM21.992 55.2H29.624C31.448 55.2 33.056 55.552 34.448 56.256C35.856 56.944 36.944 57.92 37.712 59.184C38.496 60.448 38.888 61.92 38.888 63.6C38.888 65.28 38.496 66.752 37.712 68.016C36.944 69.28 35.856 70.264 34.448 70.968C33.056 71.656 31.448 72 29.624 72H21.992V55.2ZM29.432 68.808C31.112 68.808 32.448 68.344 33.44 67.416C34.448 66.472 34.952 65.2 34.952 63.6C34.952 62 34.448 60.736 33.44 59.808C32.448 58.864 31.112 58.392 29.432 58.392H25.88V68.808H29.432ZM45.1321 60.792C45.5801 60.168 46.1801 59.696 46.9321 59.376C47.7001 59.056 48.5801 58.896 49.5721 58.896V62.352C49.1561 62.32 48.8761 62.304 48.7321 62.304C47.6601 62.304 46.8201 62.608 46.2121 63.216C45.6041 63.808 45.3001 64.704 45.3001 65.904V72H41.5561V59.088H45.1321V60.792ZM51.7983 59.088H55.5423V72H51.7983V59.088ZM53.6703 57.288C52.9823 57.288 52.4223 57.088 51.9903 56.688C51.5583 56.288 51.3423 55.792 51.3423 55.2C51.3423 54.608 51.5583 54.112 51.9903 53.712C52.4223 53.312 52.9823 53.112 53.6703 53.112C54.3583 53.112 54.9183 53.304 55.3503 53.688C55.7823 54.072 55.9983 54.552 55.9983 55.128C55.9983 55.752 55.7823 56.272 55.3503 56.688C54.9183 57.088 54.3583 57.288 53.6703 57.288ZM71.8331 59.088L66.3851 72H62.5211L57.0971 59.088H60.9611L64.5371 67.872L68.2331 59.088H71.8331ZM85.6573 65.592C85.6573 65.64 85.6333 65.976 85.5853 66.6H75.8173C75.9933 67.4 76.4093 68.032 77.0653 68.496C77.7213 68.96 78.5373 69.192 79.5133 69.192C80.1853 69.192 80.7773 69.096 81.2893 68.904C81.8173 68.696 82.3053 68.376 82.7533 67.944L84.7453 70.104C83.5293 71.496 81.7533 72.192 79.4173 72.192C77.9613 72.192 76.6733 71.912 75.5533 71.352C74.4333 70.776 73.5693 69.984 72.9613 68.976C72.3533 67.968 72.0493 66.824 72.0493 65.544C72.0493 64.28 72.3453 63.144 72.9373 62.136C73.5453 61.112 74.3693 60.32 75.4093 59.76C76.4653 59.184 77.6413 58.896 78.9373 58.896C80.2013 58.896 81.3453 59.168 82.3693 59.712C83.3933 60.256 84.1933 61.04 84.7693 62.064C85.3613 63.072 85.6573 64.248 85.6573 65.592ZM78.9613 61.728C78.1133 61.728 77.4013 61.968 76.8253 62.448C76.2493 62.928 75.8973 63.584 75.7693 64.416H82.1293C82.0013 63.6 81.6493 62.952 81.0733 62.472C80.4973 61.976 79.7933 61.728 78.9613 61.728ZM91.7259 60.792C92.1739 60.168 92.7739 59.696 93.5259 59.376C94.2939 59.056 95.1739 58.896 96.1659 58.896V62.352C95.7499 62.32 95.4699 62.304 95.3259 62.304C94.2539 62.304 93.4139 62.608 92.8059 63.216C92.1979 63.808 91.8939 64.704 91.8939 65.904V72H88.1499V59.088H91.7259V60.792ZM102.783 72.192C101.711 72.192 100.663 72.064 99.6389 71.808C98.6149 71.536 97.7989 71.2 97.1909 70.8L98.4389 68.112C99.0149 68.48 99.7109 68.784 100.527 69.024C101.343 69.248 102.143 69.36 102.927 69.36C104.511 69.36 105.303 68.968 105.303 68.184C105.303 67.816 105.087 67.552 104.655 67.392C104.223 67.232 103.559 67.096 102.663 66.984C101.607 66.824 100.735 66.64 100.047 66.432C99.3589 66.224 98.7589 65.856 98.2469 65.328C97.7509 64.8 97.5029 64.048 97.5029 63.072C97.5029 62.256 97.7349 61.536 98.1989 60.912C98.6789 60.272 99.3669 59.776 100.263 59.424C101.175 59.072 102.247 58.896 103.479 58.896C104.391 58.896 105.295 59 106.191 59.208C107.103 59.4 107.855 59.672 108.447 60.024L107.199 62.688C106.063 62.048 104.823 61.728 103.479 61.728C102.679 61.728 102.079 61.84 101.679 62.064C101.279 62.288 101.079 62.576 101.079 62.928C101.079 63.328 101.295 63.608 101.727 63.768C102.159 63.928 102.847 64.08 103.791 64.224C104.847 64.4 105.711 64.592 106.383 64.8C107.055 64.992 107.639 65.352 108.135 65.88C108.631 66.408 108.879 67.144 108.879 68.088C108.879 68.888 108.639 69.6 108.159 70.224C107.679 70.848 106.975 71.336 106.047 71.688C105.135 72.024 104.047 72.192 102.783 72.192Z" fill="white"/>
<path d="M23.008 129.824V134.224H28.8V135.248H23.008V140H21.824V128.8H29.504V129.824H23.008ZM34.8678 140.08C34.0571 140.08 33.3264 139.899 32.6758 139.536C32.0251 139.163 31.5131 138.651 31.1398 138C30.7664 137.349 30.5798 136.613 30.5798 135.792C30.5798 134.971 30.7664 134.235 31.1398 133.584C31.5131 132.933 32.0251 132.427 32.6758 132.064C33.3264 131.701 34.0571 131.52 34.8678 131.52C35.6784 131.52 36.4091 131.701 37.0598 132.064C37.7104 132.427 38.2171 132.933 38.5798 133.584C38.9531 134.235 39.1398 134.971 39.1398 135.792C39.1398 136.613 38.9531 137.349 38.5798 138C38.2171 138.651 37.7104 139.163 37.0598 139.536C36.4091 139.899 35.6784 140.08 34.8678 140.08ZM34.8678 139.072C35.4651 139.072 35.9984 138.939 36.4678 138.672C36.9478 138.395 37.3211 138.005 37.5878 137.504C37.8544 137.003 37.9878 136.432 37.9878 135.792C37.9878 135.152 37.8544 134.581 37.5878 134.08C37.3211 133.579 36.9478 133.195 36.4678 132.928C35.9984 132.651 35.4651 132.512 34.8678 132.512C34.2704 132.512 33.7318 132.651 33.2518 132.928C32.7824 133.195 32.4091 133.579 32.1318 134.08C31.8651 134.581 31.7318 135.152 31.7318 135.792C31.7318 136.432 31.8651 137.003 32.1318 137.504C32.4091 138.005 32.7824 138.395 33.2518 138.672C33.7318 138.939 34.2704 139.072 34.8678 139.072ZM42.547 133.232C42.8137 132.667 43.2083 132.24 43.731 131.952C44.2643 131.664 44.9203 131.52 45.699 131.52V132.624L45.427 132.608C44.5417 132.608 43.8483 132.88 43.347 133.424C42.8457 133.968 42.595 134.731 42.595 135.712V140H41.459V131.584H42.547V133.232ZM59.1404 131.584L54.9324 141.008C54.591 141.797 54.1964 142.357 53.7484 142.688C53.3004 143.019 52.7617 143.184 52.1324 143.184C51.727 143.184 51.3484 143.12 50.9964 142.992C50.6444 142.864 50.3404 142.672 50.0844 142.416L50.6124 141.568C51.039 141.995 51.551 142.208 52.1484 142.208C52.5324 142.208 52.8577 142.101 53.1244 141.888C53.4017 141.675 53.6577 141.312 53.8924 140.8L54.2604 139.984L50.5004 131.584H51.6844L54.8524 138.736L58.0204 131.584H59.1404ZM63.9459 140.08C63.1352 140.08 62.4045 139.899 61.7539 139.536C61.1032 139.163 60.5912 138.651 60.2179 138C59.8445 137.349 59.6579 136.613 59.6579 135.792C59.6579 134.971 59.8445 134.235 60.2179 133.584C60.5912 132.933 61.1032 132.427 61.7539 132.064C62.4045 131.701 63.1352 131.52 63.9459 131.52C64.7565 131.52 65.4872 131.701 66.1379 132.064C66.7885 132.427 67.2952 132.933 67.6579 133.584C68.0312 134.235 68.2179 134.971 68.2179 135.792C68.2179 136.613 68.0312 137.349 67.6579 138C67.2952 138.651 66.7885 139.163 66.1379 139.536C65.4872 139.899 64.7565 140.08 63.9459 140.08ZM63.9459 139.072C64.5432 139.072 65.0765 138.939 65.5459 138.672C66.0259 138.395 66.3992 138.005 66.6659 137.504C66.9325 137.003 67.0659 136.432 67.0659 135.792C67.0659 135.152 66.9325 134.581 66.6659 134.08C66.3992 133.579 66.0259 133.195 65.5459 132.928C65.0765 132.651 64.5432 132.512 63.9459 132.512C63.3485 132.512 62.8099 132.651 62.3299 132.928C61.8605 133.195 61.4872 133.579 61.2099 134.08C60.9432 134.581 60.8099 135.152 60.8099 135.792C60.8099 136.432 60.9432 137.003 61.2099 137.504C61.4872 138.005 61.8605 138.395 62.3299 138.672C62.8099 138.939 63.3485 139.072 63.9459 139.072ZM78.1211 131.584V140H77.0331V138.464C76.7345 138.976 76.3238 139.376 75.8011 139.664C75.2785 139.941 74.6811 140.08 74.0091 140.08C72.9105 140.08 72.0411 139.776 71.4011 139.168C70.7718 138.549 70.4571 137.648 70.4571 136.464V131.584H71.5931V136.352C71.5931 137.237 71.8118 137.909 72.2491 138.368C72.6865 138.827 73.3105 139.056 74.1211 139.056C75.0065 139.056 75.7051 138.789 76.2171 138.256C76.7291 137.712 76.9851 136.96 76.9851 136V131.584H78.1211ZM82.3908 133.232C82.6574 132.667 83.0521 132.24 83.5748 131.952C84.1081 131.664 84.7641 131.52 85.5428 131.52V132.624L85.2708 132.608C84.3854 132.608 83.6921 132.88 83.1908 133.424C82.6894 133.968 82.4388 134.731 82.4388 135.712V140H81.3028V131.584H82.3908V133.232ZM94.1681 140.08C93.4855 140.08 92.8295 139.984 92.2001 139.792C91.5815 139.589 91.0961 139.339 90.7441 139.04L91.2561 138.144C91.6081 138.421 92.0508 138.651 92.5841 138.832C93.1175 139.003 93.6721 139.088 94.2481 139.088C95.0161 139.088 95.5815 138.971 95.9441 138.736C96.3175 138.491 96.5041 138.149 96.5041 137.712C96.5041 137.403 96.4028 137.163 96.2001 136.992C95.9975 136.811 95.7415 136.677 95.4321 136.592C95.1228 136.496 94.7121 136.405 94.2001 136.32C93.5175 136.192 92.9681 136.064 92.5521 135.936C92.1361 135.797 91.7788 135.568 91.4801 135.248C91.1921 134.928 91.0481 134.485 91.0481 133.92C91.0481 133.216 91.3415 132.64 91.9281 132.192C92.5148 131.744 93.3308 131.52 94.3761 131.52C94.9201 131.52 95.4641 131.595 96.0081 131.744C96.5521 131.883 97.0001 132.069 97.3521 132.304L96.8561 133.216C96.1628 132.736 95.3361 132.496 94.3761 132.496C93.6508 132.496 93.1015 132.624 92.7281 132.88C92.3655 133.136 92.1841 133.472 92.1841 133.888C92.1841 134.208 92.2855 134.464 92.4881 134.656C92.7015 134.848 92.9628 134.992 93.2721 135.088C93.5815 135.173 94.0081 135.264 94.5521 135.36C95.2241 135.488 95.7628 135.616 96.1681 135.744C96.5735 135.872 96.9201 136.091 97.2081 136.4C97.4961 136.709 97.6401 137.136 97.6401 137.68C97.6401 138.416 97.3308 139.003 96.7121 139.44C96.1041 139.867 95.2561 140.08 94.1681 140.08ZM102.684 131.52C103.783 131.52 104.626 131.797 105.212 132.352C105.799 132.896 106.092 133.707 106.092 134.784V140H105.004V138.688C104.748 139.125 104.37 139.467 103.868 139.712C103.378 139.957 102.791 140.08 102.108 140.08C101.17 140.08 100.423 139.856 99.8683 139.408C99.3136 138.96 99.0363 138.368 99.0363 137.632C99.0363 136.917 99.2923 136.341 99.8043 135.904C100.327 135.467 101.154 135.248 102.284 135.248H104.956V134.736C104.956 134.011 104.754 133.461 104.348 133.088C103.943 132.704 103.351 132.512 102.572 132.512C102.039 132.512 101.527 132.603 101.036 132.784C100.546 132.955 100.124 133.195 99.7723 133.504L99.2603 132.656C99.6869 132.293 100.199 132.016 100.796 131.824C101.394 131.621 102.023 131.52 102.684 131.52ZM102.284 139.184C102.924 139.184 103.474 139.04 103.932 138.752C104.391 138.453 104.732 138.027 104.956 137.472V136.096H102.316C100.876 136.096 100.156 136.597 100.156 137.6C100.156 138.091 100.343 138.48 100.716 138.768C101.09 139.045 101.612 139.184 102.284 139.184ZM111.962 129.008C111.471 129.008 111.098 129.141 110.842 129.408C110.596 129.675 110.474 130.069 110.474 130.592V131.584H113.066V132.544H110.506V140H109.37V132.544H107.866V131.584H109.37V130.544C109.37 129.776 109.588 129.168 110.026 128.72C110.474 128.272 111.103 128.048 111.914 128.048C112.234 128.048 112.543 128.096 112.842 128.192C113.14 128.277 113.391 128.405 113.594 128.576L113.21 129.424C112.879 129.147 112.463 129.008 111.962 129.008ZM121.787 136.144H114.747C114.811 137.019 115.147 137.728 115.755 138.272C116.363 138.805 117.131 139.072 118.059 139.072C118.582 139.072 119.062 138.981 119.499 138.8C119.936 138.608 120.315 138.331 120.635 137.968L121.275 138.704C120.902 139.152 120.432 139.493 119.867 139.728C119.312 139.963 118.699 140.08 118.027 140.08C117.163 140.08 116.395 139.899 115.723 139.536C115.062 139.163 114.544 138.651 114.171 138C113.798 137.349 113.611 136.613 113.611 135.792C113.611 134.971 113.787 134.235 114.139 133.584C114.502 132.933 114.992 132.427 115.611 132.064C116.24 131.701 116.944 131.52 117.723 131.52C118.502 131.52 119.2 131.701 119.819 132.064C120.438 132.427 120.923 132.933 121.275 133.584C121.627 134.224 121.803 134.96 121.803 135.792L121.787 136.144ZM117.723 132.496C116.912 132.496 116.23 132.757 115.675 133.28C115.131 133.792 114.822 134.464 114.747 135.296H120.715C120.64 134.464 120.326 133.792 119.771 133.28C119.227 132.757 118.544 132.496 117.723 132.496ZM128.547 139.488C128.334 139.68 128.067 139.829 127.747 139.936C127.438 140.032 127.113 140.08 126.771 140.08C125.982 140.08 125.374 139.867 124.947 139.44C124.521 139.013 124.307 138.411 124.307 137.632V132.544H122.803V131.584H124.307V129.744H125.443V131.584H128.003V132.544H125.443V137.568C125.443 138.069 125.566 138.453 125.811 138.72C126.067 138.976 126.43 139.104 126.899 139.104C127.134 139.104 127.358 139.067 127.571 138.992C127.795 138.917 127.987 138.811 128.147 138.672L128.547 139.488ZM137.531 131.584L133.323 141.008C132.982 141.797 132.587 142.357 132.139 142.688C131.691 143.019 131.152 143.184 130.523 143.184C130.118 143.184 129.739 143.12 129.387 142.992C129.035 142.864 128.731 142.672 128.475 142.416L129.003 141.568C129.43 141.995 129.942 142.208 130.539 142.208C130.923 142.208 131.248 142.101 131.515 141.888C131.792 141.675 132.048 141.312 132.283 140.8L132.651 139.984L128.891 131.584H130.075L133.243 138.736L136.411 131.584H137.531Z" fill="white"/>
<path d="M400.606 18.6612L352.647 66.6199L377.405 91.3776L425.363 43.4188L400.606 18.6612Z" fill="#3E76D8"/>
<path opacity="0.2" fill-rule="evenodd" clip-rule="evenodd" d="M456.273 -37.0527L481.024 -12.2386L425.368 43.4173L400.61 18.6595L456.273 -37.0527Z" fill="#3E76D8"/>
<path fill-rule="evenodd" clip-rule="evenodd" d="M352.656 66.6284C356.75 70.7219 360.907 74.8787 365.007 79.0285C369.108 83.1782 373.257 87.2858 377.407 91.3792C372.645 93.8199 367.996 95.0929 363.727 92.6523C361.68 90.6056 359.577 88.5588 357.53 86.4558C355.484 84.3528 353.43 82.3553 351.327 80.3085C348.943 76.0392 350.216 71.3901 352.656 66.6284Z" fill="#1446A0"/>
<path opacity="0.3" fill-rule="evenodd" clip-rule="evenodd" d="M459.15 -34.1121L478.148 -15.1779L430.13 32.8397L411.189 13.8422L459.15 -34.1121Z" fill="#3E76D8"/>
<path opacity="0.3" fill-rule="evenodd" clip-rule="evenodd" d="M466.626 -26.6919L470.67 -22.5914L430.129 17.9426C429.593 18.476 428.867 18.7755 428.111 18.7755C427.354 18.7755 426.628 18.476 426.092 17.9426C425.558 17.3949 425.26 16.6605 425.26 15.8958C425.26 15.1312 425.558 14.3968 426.092 13.8491L466.626 -26.6919Z" fill="#255AB9"/>
<path d="M408.314 10.9618L400.615 18.6606L425.373 43.4183L433.072 35.7195L408.314 10.9618Z" fill="#40484C"/>
<path fill-rule="evenodd" clip-rule="evenodd" d="M351.431 80.3857L363.621 92.5185L362.565 93.5665C362.342 93.7798 362.045 93.8987 361.736 93.8987C361.426 93.8987 361.129 93.7798 360.906 93.5665L350.468 83.1288C350.254 82.8943 350.135 82.5882 350.135 82.2707C350.135 81.9532 350.254 81.6472 350.468 81.4126L351.431 80.3857Z" fill="#5A6E9D"/>
<path fill-rule="evenodd" clip-rule="evenodd" d="M351.825 84.5144L359.464 92.1598L356.693 94.9732C356.472 95.1969 356.209 95.3746 355.92 95.4958C355.63 95.6171 355.319 95.6795 355.005 95.6795C354.69 95.6795 354.379 95.6171 354.09 95.4958C353.8 95.3746 353.537 95.1969 353.317 94.9732L349.061 90.7179C348.838 90.4974 348.66 90.2346 348.539 89.9448C348.417 89.655 348.355 89.344 348.355 89.0299C348.355 88.7158 348.417 88.4048 348.539 88.115C348.66 87.8252 348.838 87.5624 349.061 87.3419L351.825 84.5144Z" fill="#273965"/>
<path fill-rule="evenodd" clip-rule="evenodd" d="M350.213 91.8787L352.147 93.7636L311 134.857L311.612 130.538L350.213 91.8787Z" fill="#5A6E9D"/>
<path d="M426.5 67C428.224 67 429.877 67.6849 431.096 68.9038C432.315 70.1228 433 71.7761 433 73.5V125.5C433 127.224 432.315 128.877 431.096 130.096C429.877 131.315 428.224 132 426.5 132H374.5C372.776 132 371.123 131.315 369.904 130.096C368.685 128.877 368 127.224 368 125.5V109.25C368 108.388 368.342 107.561 368.952 106.952C369.561 106.342 370.388 106 371.25 106H377.75V73.5C377.75 71.7761 378.435 70.1228 379.654 68.9038C380.873 67.6849 382.526 67 384.25 67H426.5Z" fill="#E3FFF2"/>
<path d="M421.625 106C422.056 106 422.469 106.171 422.774 106.476C423.079 106.781 423.25 107.194 423.25 107.625C423.25 108.056 423.079 108.469 422.774 108.774C422.469 109.079 422.056 109.25 421.625 109.25H389.125C388.694 109.25 388.281 109.079 387.976 108.774C387.671 108.469 387.5 108.056 387.5 107.625C387.5 107.194 387.671 106.781 387.976 106.476C388.281 106.171 388.694 106 389.125 106H421.625ZM421.625 112.5C422.056 112.5 422.469 112.671 422.774 112.976C423.079 113.281 423.25 113.694 423.25 114.125C423.25 114.556 423.079 114.969 422.774 115.274C422.469 115.579 422.056 115.75 421.625 115.75H415.125C414.694 115.75 414.281 115.579 413.976 115.274C413.671 114.969 413.5 114.556 413.5 114.125C413.5 113.694 413.671 113.281 413.976 112.976C414.281 112.671 414.694 112.5 415.125 112.5H421.625ZM408.625 112.5C409.056 112.5 409.469 112.671 409.774 112.976C410.079 113.281 410.25 113.694 410.25 114.125C410.25 114.556 410.079 114.969 409.774 115.274C409.469 115.579 409.056 115.75 408.625 115.75H389.125C388.694 115.75 388.281 115.579 387.976 115.274C387.671 114.969 387.5 114.556 387.5 114.125C387.5 113.694 387.671 113.281 387.976 112.976C388.281 112.671 388.694 112.5 389.125 112.5H408.625ZM421.625 119C421.838 118.981 422.053 119.004 422.258 119.068C422.462 119.132 422.652 119.235 422.817 119.373C422.981 119.51 423.117 119.678 423.217 119.868C423.316 120.058 423.377 120.265 423.396 120.479C423.415 120.692 423.392 120.907 423.329 121.112C423.265 121.316 423.161 121.506 423.024 121.671C422.886 121.835 422.718 121.971 422.528 122.07C422.338 122.17 422.131 122.231 421.917 122.25H408.625C408.194 122.25 407.781 122.079 407.476 121.774C407.171 121.469 407 121.056 407 120.625C407.001 120.246 407.135 119.879 407.379 119.588C407.622 119.297 407.959 119.101 408.332 119.032H421.625V119ZM402.125 119C402.338 118.981 402.553 119.004 402.758 119.068C402.962 119.132 403.152 119.235 403.317 119.373C403.481 119.51 403.617 119.678 403.717 119.868C403.816 120.058 403.877 120.265 403.896 120.479C403.915 120.692 403.892 120.907 403.829 121.112C403.765 121.316 403.661 121.506 403.524 121.671C403.386 121.835 403.218 121.971 403.028 122.07C402.838 122.17 402.631 122.231 402.417 122.25H389.125C388.694 122.25 388.281 122.079 387.976 121.774C387.671 121.469 387.5 121.056 387.5 120.625C387.501 120.246 387.635 119.879 387.879 119.588C388.122 119.297 388.459 119.101 388.833 119.032H402.125V119ZM377.75 109.25H371.25V125.5C371.224 125.927 371.283 126.354 371.423 126.759C371.562 127.163 371.78 127.535 372.064 127.855C372.348 128.175 372.692 128.436 373.076 128.623C373.461 128.81 373.878 128.919 374.305 128.945C374.732 128.971 375.159 128.912 375.564 128.772C375.968 128.633 376.34 128.415 376.66 128.131C376.98 127.847 377.241 127.503 377.428 127.119C377.615 126.734 377.724 126.317 377.75 125.89V109.25ZM384.25 70.25C383.452 70.2442 382.679 70.5326 382.079 71.0601C381.48 71.5876 381.096 72.3173 381 73.11V128.75H426.5C427.298 128.756 428.071 128.467 428.671 127.94C429.27 127.412 429.654 126.683 429.75 125.89V73.5C429.756 72.7015 429.467 71.9289 428.94 71.3295C428.412 70.7301 427.683 70.3458 426.89 70.25H384.25ZM426.5 67C428.224 67 429.877 67.6849 431.096 68.9038C432.315 70.1228 433 71.7761 433 73.5V125.5C433 127.224 432.315 128.877 431.096 130.096C429.877 131.315 428.224 132 426.5 132H374.5C372.776 132 371.123 131.315 369.904 130.096C368.685 128.877 368 127.224 368 125.5V109.25C368 108.388 368.342 107.561 368.952 106.952C369.561 106.342 370.388 106 371.25 106H377.75V73.5C377.75 71.7761 378.435 70.1228 379.654 68.9038C380.873 67.6849 382.526 67 384.25 67H426.5Z" fill="#19233D"/>
<path fill-rule="evenodd" clip-rule="evenodd" d="M417.997 79.9237C418.632 80.5583 418.632 81.5872 417.997 82.2218L403.372 96.8468C402.737 97.4814 401.709 97.4814 401.074 96.8468L394.184 89.9568C393.549 89.3222 393.549 88.2933 394.184 87.6587C394.819 87.0241 395.847 87.0241 396.482 87.6587L402.223 93.3996L415.699 79.9237C416.334 79.2891 417.362 79.2891 417.997 79.9237Z" fill="#19233D"/>
</g>
<defs>
<linearGradient id="paint0_linear" x1="436.59" y1="-7.22778e-06" x2="114.951" y2="262.25" gradientUnits="userSpaceOnUse">
<stop stop-color="#73ECB3"/>
<stop offset="1" stop-color="#198854"/>
</linearGradient>
<clipPath id="clip0">
<path d="M0 8C0 3.58172 3.58172 0 8 0H454C458.418 0 462 3.58172 462 8V152C462 156.418 458.418 160 454 160H8.00001C3.58173 160 0 156.418 0 152V8Z" fill="white"/>
</clipPath>
</defs>
</svg>
