<svg xmlns="http://www.w3.org/2000/svg" width="16" height="16" viewBox="0 0 16 16">
    <g fill="none" fill-rule="evenodd">
        <g>
            <g>
                <g>
                    <g>
                        <path fill="#2F97FC" d="M8.597 4.838l-3.03 3.031c-.094.094-.221.147-.354.147-.133 0-.26-.053-.353-.147L3.404 6.412c-.196-.195-.196-.512 0-.707.195-.195.511-.195.707 0l1.102 1.104L7.89 4.131c.195-.195.512-.195.707 0 .195.195.195.512 0 .707m2.544 2.541C11.266 6.911 12 6.507 12 6s-.734-.91-.859-1.378c-.129-.483.301-1.199.057-1.622-.249-.43-1.086-.413-1.435-.762-.349-.348-.332-1.186-.762-1.434-.423-.245-1.138.185-1.622.055C6.911.734 6.507 0 6 0s-.91.734-1.378.859C4.139.988 3.423.558 3 .803c-.429.248-.413 1.086-.761 1.434-.349.349-1.186.332-1.435.762-.245.423.185 1.139.056 1.623C.735 5.089 0 5.493 0 6c0 .507.735.91.86 1.378C.989 7.861.558 8.577.804 9c.248.43 1.085.413 1.434.762.348.348.332 1.186.761 1.434.423.246 1.139-.185 1.623-.055.467.125.871.859 1.378.859.507 0 .91-.734 1.378-.859.484-.129 1.199.301 1.622.056.43-.249.413-1.086.762-1.434.349-.349 1.187-.332 1.435-.762.245-.423-.186-1.139-.056-1.622" transform="translate(-211 -20) translate(44 19) translate(167 1) translate(2 2)"/>
                        <path fill="#FFF" d="M8.65 4.847L5.559 7.854c-.096.093-.226.146-.361.146-.136 0-.266-.053-.36-.146L3.35 6.408c-.2-.193-.2-.508 0-.701.2-.194.522-.194.722 0l1.125 1.095 2.732-2.657c.2-.193.523-.193.722 0 .199.194.199.508 0 .702" transform="translate(-211 -20) translate(44 19) translate(167 1) translate(2 2)"/>
                    </g>
                </g>
            </g>
        </g>
    </g>
</svg>
